<svg xmlns="http://www.w3.org/2000/svg" xmlns:xlink="http://www.w3.org/1999/xlink" viewBox="0 0 18 18">
  <defs>
    <style>
      .cls-1 {
        fill: none;
        stroke: #707070;
      }

      .cls-2 {
        clip-path: url(#clip-path);
      }

      .cls-3 {
        fill: #fff;
      }
    </style>
    <clipPath id="clip-path">
      <rect id="Rectangle_198" data-name="Rectangle 198" class="cls-1" width="18" height="18" transform="translate(4387 -2487)"/>
    </clipPath>
  </defs>
  <g id="Mask_Group_6" data-name="Mask Group 6" class="cls-2" transform="translate(-4387 2487)">
    <g id="icon-message" transform="translate(3166.7 -2499.3)">
      <path id="Path_158" data-name="Path 158" class="cls-3" d="M3.431,39.5a.475.475,0,0,1-.475-.475v-4.04H.475A.475.475,0,0,1,0,34.51V24.975A.475.475,0,0,1,.475,24.5h15.68a.475.475,0,0,1,.475.475V34.51a.475.475,0,0,1-.475.475H7.431L3.795,39.33A.475.475,0,0,1,3.431,39.5ZM.949,34.036H3.431a.474.474,0,0,1,.475.474v3.21l2.94-3.513a.474.474,0,0,1,.364-.17h8.471v-8.59H.949Z" transform="translate(1221 -10.5)"/>
      <path id="Path_159" data-name="Path 159" class="cls-3" d="M107.607,105.1H98.47a.475.475,0,1,1,0-.949h9.138a.475.475,0,1,1,0,.949Z" transform="translate(1126.276 -87.506)"/>
      <path id="Path_160" data-name="Path 160" class="cls-3" d="M107.607,170.894H98.469a.475.475,0,1,1,0-.949h9.138a.475.475,0,1,1,0,.949Z" transform="translate(1126.277 -151.108)"/>
      <path id="Path_161" data-name="Path 161" class="cls-3" d="M107.972,236.679H98.835a.475.475,0,1,1,0-.949h9.138a.475.475,0,1,1,0,.949Z" transform="translate(1125.911 -214.705)"/>
    </g>
  </g>
</svg>
