<svg xmlns="http://www.w3.org/2000/svg" xmlns:xlink="http://www.w3.org/1999/xlink" viewBox="0 0 18 18">
  <defs>
    <style>
      .cls-1 {
        fill: none;
        stroke: #707070;
      }

      .cls-2 {
        clip-path: url(#clip-path);
      }

      .cls-3 {
        fill: #fff;
      }
    </style>
    <clipPath id="clip-path">
      <rect id="Rectangle_196" data-name="Rectangle 196" class="cls-1" width="18" height="18" transform="translate(4387.2 -2530.55)"/>
    </clipPath>
  </defs>
  <g id="Mask_Group_4" data-name="Mask Group 4" class="cls-2" transform="translate(-4387.2 2530.55)">
    <g id="icon-credit" transform="translate(3261.571 -2543)">
      <path id="Path_153" data-name="Path 153" class="cls-3" d="M8.667,48.75a.476.476,0,0,1-.347-.152L.129,39.782a.475.475,0,0,1-.06-.567l3.116-5.223a.475.475,0,0,1,.408-.232H13.742a.475.475,0,0,1,.408.232l3.116,5.223a.475.475,0,0,1-.06.567L9.016,48.6A.476.476,0,0,1,8.667,48.75ZM1.068,39.4l7.6,8.181,7.6-8.18L13.472,34.71H3.863Z" transform="translate(1125.998 -19.75)"/>
      <path id="Path_154" data-name="Path 154" class="cls-3" d="M26.064,185.386H10.4a.476.476,0,1,1,0-.951H26.064a.476.476,0,0,1,0,.951Z" transform="translate(1116.434 -165.203)"/>
      <path id="Path_155" data-name="Path 155" class="cls-3" d="M239.736,39.666a.475.475,0,0,1-.407-.231l-3.135-5.223a.476.476,0,1,1,.815-.489l2.626,4.375,1.594-4.3a.475.475,0,0,1,.891.331l-1.939,5.223a.475.475,0,0,1-.4.308Z" transform="translate(898.064 -19.483)"/>
      <path id="Path_156" data-name="Path 156" class="cls-3" d="M92.3,39.666a.314.314,0,0,1-.044,0,.475.475,0,0,1-.4-.308L89.92,34.133a.475.475,0,0,1,.891-.331l1.594,4.3,2.627-4.375a.476.476,0,1,1,.815.489l-3.135,5.223A.475.475,0,0,1,92.3,39.666Z" transform="translate(1039.226 -19.483)"/>
      <path id="Path_157" data-name="Path 157" class="cls-3" d="M149.444,194.206h0a.475.475,0,0,1-.448-.316l-3.135-8.817a.475.475,0,0,1,.9-.319l2.687,7.557,2.687-7.556a.475.475,0,0,1,.9.319l-3.135,8.816A.475.475,0,0,1,149.444,194.206Z" transform="translate(985.221 -165.206)"/>
    </g>
  </g>
</svg>
