<svg xmlns="http://www.w3.org/2000/svg" xmlns:xlink="http://www.w3.org/1999/xlink" viewBox="0 0 18 18">
  <defs>
    <style>
      .cls-1 {
        fill: none;
        stroke: #707070;
      }

      .cls-2 {
        clip-path: url(#clip-path);
      }

      .cls-3 {
        fill: #fff;
      }
    </style>
    <clipPath id="clip-path">
      <rect id="Rectangle_199" data-name="Rectangle 199" class="cls-1" width="18" height="18" transform="translate(4468 -2522)"/>
    </clipPath>
  </defs>
  <g id="Mask_Group_7" data-name="Mask Group 7" class="cls-2" transform="translate(-4468 2522)">
    <g id="icon-notification" transform="translate(3200.35 -2534.4)">
      <path id="Path_162" data-name="Path 162" class="cls-3" d="M39.174,57.671H26.694a.473.473,0,0,1-.324-.818c1.258-1.185,1.311-2.6,1.373-4.23A12.836,12.836,0,0,1,28,50.112a5.2,5.2,0,0,1,2.6-3.641,5.056,5.056,0,0,1,2.328-.55c2.5,0,4.3,1.528,4.929,4.192a12.832,12.832,0,0,1,.263,2.51c.062,1.635.115,3.046,1.373,4.23a.473.473,0,0,1-.325.819Zm-11.454-.947H38.148a7.3,7.3,0,0,1-.967-4.067,12.245,12.245,0,0,0-.238-2.327,4.04,4.04,0,0,0-4.008-3.464,4.087,4.087,0,0,0-1.892.444,4.3,4.3,0,0,0-2.116,3.02,11.937,11.937,0,0,0-.238,2.327A7.3,7.3,0,0,1,27.721,56.724Z" transform="translate(1243.779 -30.542)"/>
      <path id="Path_163" data-name="Path 163" class="cls-3" d="M83.25,325.652H73.608a.473.473,0,1,1,0-.946H83.25a.473.473,0,1,1,0,.946Z" transform="translate(1198.285 -300.964)"/>
      <path id="Path_164" data-name="Path 164" class="cls-3" d="M172.458,414.365a2.3,2.3,0,0,1-2.4-2.187.473.473,0,0,1,.946,0,1.47,1.47,0,0,0,2.9,0,.473.473,0,0,1,.947,0A2.3,2.3,0,0,1,172.458,414.365Z" transform="translate(1104.255 -385.365)"/>
      <path id="Path_165" data-name="Path 165" class="cls-3" d="M190.147,2.212a.473.473,0,0,1-.473-.472.964.964,0,0,0-1.9,0,.473.473,0,0,1-.946,0,1.9,1.9,0,0,1,3.79,0A.473.473,0,0,1,190.147,2.212Z" transform="translate(1087.988 14)"/>
    </g>
  </g>
</svg>
