<?xml version="1.0" standalone="no"?>
<!DOCTYPE svg PUBLIC "-//W3C//DTD SVG 1.1//EN" "http://www.w3.org/Graphics/SVG/1.1/DTD/svg11.dtd" >
<svg xmlns="http://www.w3.org/2000/svg" xmlns:xlink="http://www.w3.org/1999/xlink" version="1.1">
<metadata>
Created by FontForge 20170731 at Mon Nov  5 17:22:31 2012
 By Aleksey,,,
Copyright (C) 2004, 2012 Hoefler &#38; Frere-Jones. http://www.typography.com
</metadata>
<defs>
<font id="TungstenNarrow-Black" horiz-adv-x="327" >
  <font-face 
    font-family="Tungsten Narrow Black"
    font-weight="450"
    font-stretch="condensed"
    units-per-em="1000"
    panose-1="0 0 0 0 0 0 0 0 0 0"
    ascent="800"
    descent="-200"
    x-height="577"
    cap-height="700"
    bbox="-46 -243 644 889"
    underline-thickness="50"
    underline-position="-200"
    unicode-range="U+0020-FB04"
  />
<missing-glyph horiz-adv-x="500" 
d="M0 -200v1000h500v-1000h-500zM71 750l179 -390l179 390h-358zM50 -76l172 376l-172 376v-752zM450 676l-172 -376l172 -376v752zM250 240l-179 -390h358z" />
    <glyph glyph-name=".notdef" horiz-adv-x="500" 
d="M0 -200v1000h500v-1000h-500zM71 750l179 -390l179 390h-358zM50 -76l172 376l-172 376v-752zM450 676l-172 -376l172 -376v752zM250 240l-179 -390h358z" />
    <glyph glyph-name=".null" horiz-adv-x="0" 
 />
    <glyph glyph-name="nonmarkingreturn" horiz-adv-x="333" 
 />
    <glyph glyph-name="space" unicode=" " horiz-adv-x="78" 
 />
    <glyph glyph-name="exclam" unicode="!" horiz-adv-x="165" 
d="M154 534l-26 -348h-91l-26 348v166h143v-166zM148 158v-158h-131v158h131z" />
    <glyph glyph-name="quotedbl" unicode="&#x22;" horiz-adv-x="284" 
d="M146 700l-41 -285h-95l14 285h122zM279 700l-40 -285h-95l14 285h121z" />
    <glyph glyph-name="numbersign" unicode="#" horiz-adv-x="316" 
d="M274 702v-107l36 10v-142l-36 -10v-133l36 10v-143l-36 -10v-179h-104v149l-24 -6v-143h-104v114l-36 -10v144l36 10v132l-36 -10v144l36 10v170h104v-142l24 7v135h104zM146 419v-138l24 8v137z" />
    <glyph glyph-name="dollar" unicode="$" horiz-adv-x="332" 
d="M214 761v-59q109 -10 109 -129v-128h-141v127q0 11 -11 11h-7q-11 0 -11 -11v-110q0 -14 12 -21l106 -68q53 -34 53 -110v-135q0 -123 -110 -130v-63h-93v63q-111 7 -111 130v137h141v-137q0 -11 11 -11h8q11 0 11 11v119q0 14 -12 22l-105 67q-54 34 -54 110v127
q0 120 110 129v59h94z" />
    <glyph glyph-name="percent" unicode="%" horiz-adv-x="415" 
d="M121 273h-32q-80 0 -80 79v274q0 79 80 79h42q81 0 81 -79v-144l56 220h82l-81 -274q12 3 25 3h32q80 0 80 -79v-278q0 -79 -80 -79h-42q-81 0 -81 79v146l-56 -222h-82l80 278q-12 -3 -24 -3zM119 622h-10q-8 0 -8 -7v-254q0 -7 8 -7h10q7 0 7 7v254q0 7 -7 7zM306 349
h-10q-7 0 -7 -7v-257q0 -7 7 -7h10q7 0 7 7v257q0 7 -7 7z" />
    <glyph glyph-name="ampersand" unicode="&#x26;" horiz-adv-x="422" 
d="M278 0l-23 47q-15 -28 -35.5 -40t-56.5 -12h-36q-118 0 -118 120v148q0 76 48 118l22 19l-19 36q-20 38 -20 96v43q0 130 130 130h44q130 0 130 -130v-102h-134v100q0 12 -11 12h-11q-11 0 -11 -12v-49q0 -25 9 -46l71 -145l26 81h134v-2l-79 -229l83 -180v-3h-143z
M156 116q8 0 12 10l17 51l-39 95q-4 -8 -4 -25v-120q0 -11 11 -11h3z" />
    <glyph glyph-name="quotesingle" unicode="'" horiz-adv-x="157" 
d="M153 700l-42 -285h-101l14 285h129z" />
    <glyph glyph-name="parenleft" unicode="(" horiz-adv-x="194" 
d="M187 -5l-73 -31q-58 58 -78 118.5t-20 170.5v194q0 111 20 171t78 118l73 -31q-37 -52 -50.5 -105t-13.5 -152v-196q0 -99 13.5 -152t50.5 -105z" />
    <glyph glyph-name="parenright" unicode=")" horiz-adv-x="194" 
d="M6 706l73 31q58 -58 78 -118.5t20 -170.5v-194q0 -111 -20 -171t-78 -118l-73 31q37 52 50.5 105t13.5 152v196q0 99 -13.5 152t-50.5 105z" />
    <glyph glyph-name="asterisk" unicode="*" horiz-adv-x="263" 
d="M165 701l-2 -87l86 42h2v-72l-70 -29l70 -29v-71h-2l-86 41l2 -87h-68l2 87l-85 -41h-3v71l70 29l-70 29v72h3l85 -43l-2 88h68z" />
    <glyph glyph-name="plus" unicode="+" horiz-adv-x="290" 
d="M92 214v89h-87v101h87v89h106v-89h87v-101h-87v-89h-106z" />
    <glyph glyph-name="comma" unicode="," horiz-adv-x="160" 
d="M147 168v-129q0 -48 -12.5 -76t-44.5 -58l-30 -29l-46 21l13 20q32 50 33 83h-47v168h134z" />
    <glyph glyph-name="hyphen" unicode="-" horiz-adv-x="215" 
d="M6 361h203v-128h-203v128z" />
    <glyph glyph-name="period" unicode="." horiz-adv-x="160" 
d="M147 168v-168h-134v168h134z" />
    <glyph glyph-name="slash" unicode="/" horiz-adv-x="217" 
d="M215 728l-113 -756h-100l113 756h100z" />
    <glyph glyph-name="zero" unicode="0" horiz-adv-x="349" 
d="M338 125q0 -130 -131 -130h-65q-131 0 -131 130v450q0 130 131 130h65q131 0 131 -130v-450zM191 572q0 12 -11 12h-11q-11 0 -11 -12v-444q0 -12 11 -12h11q11 0 11 12v444z" />
    <glyph glyph-name="one" unicode="1" horiz-adv-x="218" 
d="M205 703v-703h-145v547h-57v98q28 3 44 12.5t33 31.5l10 14h115z" />
    <glyph glyph-name="two" unicode="2" horiz-adv-x="329" 
d="M54 278l103 134q19 23 19 52v108q0 12 -12 12h-6q-12 0 -12 -12v-128h-135v131q0 130 131 130h47q130 0 130 -130v-107q0 -71 -47 -131l-104 -139q-16 -20 -16 -48v-23h167v-127h-309v146q0 76 44 132z" />
    <glyph glyph-name="three" unicode="3" horiz-adv-x="335" 
d="M180 128v155q0 12 -12 12h-99v122h98q11 0 11 11v144q0 12 -11 12h-5q-11 0 -11 -12v-111h-139v114q0 130 130 130h51q130 0 130 -130v-104q0 -47 -11.5 -69t-39.5 -39q31 -14 42 -34t11 -61v-143q0 -130 -131 -130h-53q-131 0 -131 130v127h139v-124q0 -12 12 -12h7
q12 0 12 12z" />
    <glyph glyph-name="four" unicode="4" horiz-adv-x="350" 
d="M10 227l97 473h197v-473h44v-123h-44v-104h-137v104h-157v123zM120 227h49v269z" />
    <glyph glyph-name="five" unicode="5" horiz-adv-x="335" 
d="M325 346v-221q0 -130 -131 -130h-53q-131 0 -131 130v128h140v-125q0 -12 12 -12h7q12 0 12 12v188q0 18 -13 18t-24 -24h-132v390h304v-127h-163l-3 -134q36 22 78 22q97 0 97 -115z" />
    <glyph glyph-name="six" unicode="6" horiz-adv-x="341" 
d="M156 572v-160q38 16 77 16q98 0 98 -105v-198q0 -130 -130 -130h-59q-131 0 -131 130v450q0 130 131 130h56q130 0 130 -130v-116h-141v113q0 12 -12 12h-7q-12 0 -12 -12zM156 307v-179q0 -12 12 -12h7q12 0 12 12v167q0 14 -13 14q-4 0 -18 -2z" />
    <glyph glyph-name="seven" unicode="7" horiz-adv-x="293" 
d="M140 572h-136v128h282v-127l-105 -573h-148z" />
    <glyph glyph-name="eight" unicode="8" horiz-adv-x="342" 
d="M143 705h56q130 0 130 -130v-119q0 -78 -56 -100q58 -16 58 -86v-145q0 -130 -130 -130h-59q-131 0 -131 130v145q0 70 57 86q-55 22 -55 100v119q0 130 130 130zM155 286v-160q0 -11 11 -11h10q12 0 12 11v160q0 11 -12 11h-10q-11 0 -11 -11zM167 409h8q12 0 12 11v154
q0 11 -12 11h-8q-12 0 -12 -11v-154q0 -11 12 -11z" />
    <glyph glyph-name="nine" unicode="9" horiz-adv-x="341" 
d="M174 116q11 0 11 12v143q-35 -15 -76 -15q-99 0 -99 105v214q0 130 131 130h59q130 0 130 -130v-450q0 -130 -130 -130h-58q-131 0 -131 130v98h142v-95q0 -12 11 -12h10zM185 378v194q0 12 -11 12h-8q-11 0 -11 -12v-183q0 -14 13 -14q6 0 17 3z" />
    <glyph glyph-name="colon" unicode=":" horiz-adv-x="160" 
d="M147 168v-168h-134v168h134zM147 576v-168h-134v168h134z" />
    <glyph glyph-name="semicolon" unicode=";" horiz-adv-x="160" 
d="M147 168v-129q0 -48 -12.5 -76t-44.5 -58l-30 -29l-46 21l13 20q32 50 33 83h-47v168h134zM147 576v-168h-134v168h134z" />
    <glyph glyph-name="less" unicode="&#x3c;" horiz-adv-x="279" 
d="M9 417l262 91v-110l-160 -43l160 -43v-112l-262 92v125z" />
    <glyph glyph-name="equal" unicode="=" horiz-adv-x="290" 
d="M5 469h280v-100h-280v100zM5 339h280v-100h-280v100z" />
    <glyph glyph-name="greater" unicode="&#x3e;" horiz-adv-x="279" 
d="M270 292l-262 -91v110l160 43l-160 43v112l262 -92v-125z" />
    <glyph glyph-name="question" unicode="?" horiz-adv-x="318" 
d="M124 385l24 29q20 26 20 48v110q0 12 -11 12h-7q-11 0 -11 -12v-134h-131v137q0 130 130 130h43q130 0 130 -130v-100q0 -69 -44 -121l-40 -51q-12 -15 -16 -26.5t-4 -35.5v-61h-114v104q0 39 5 58t26 43zM215 158v-158h-130v158h130z" />
    <glyph glyph-name="at" unicode="@" horiz-adv-x="463" 
d="M392 19h-73q-26 0 -40 9.5t-27 31.5q-33 -42 -81 -42q-72 0 -72 78v152q0 36 13.5 54.5t50.5 31.5l77 26v107q0 8 -7 8h-8q-9 0 -9 -8v-96h-113v102q0 101 102 101h54q102 0 102 -101v-401q0 -17 17 -17h14q17 0 17 17v421q0 69 -26 97.5t-93 28.5h-116q-67 0 -93 -28.5
t-26 -97.5v-398q0 -69 26 -97t93 -28h227v-35h-227q-84 0 -120 37.5t-36 122.5v398q0 85 36 123t120 38h116q84 0 119.5 -37t35.5 -124v-421q0 -53 -53 -53zM227 118q7 0 13 2v145l-12 -5q-15 -6 -15 -26v-105q0 -11 14 -11z" />
    <glyph glyph-name="A" unicode="A" horiz-adv-x="345" 
d="M347 0h-145l-7 96h-63l-7 -96h-127l79 700h190zM164 503l-22 -284h43z" />
    <glyph glyph-name="B" unicode="B" horiz-adv-x="348" 
d="M269 357q68 -17 68 -86v-141q0 -130 -130 -130h-194v700h192q131 0 131 -130v-114q0 -78 -67 -99zM190 569q0 11 -11 11h-20v-171h20q11 0 11 11v149zM159 298v-178h21q11 0 11 10v157q0 11 -11 11h-21z" />
    <glyph glyph-name="C" unicode="C" horiz-adv-x="349" 
d="M192 329h146v-204q0 -130 -130 -130h-66q-131 0 -131 130v450q0 130 131 130h66q128 0 128 -130v-183h-146v180q0 12 -11 12h-9q-11 0 -11 -12v-444q0 -12 11 -12h11q11 0 11 12v201z" />
    <glyph glyph-name="D" unicode="D" horiz-adv-x="352" 
d="M13 0v700h180q147 0 147 -148v-404q0 -148 -147 -148h-180zM161 578v-456h15q17 0 17 17v423q0 16 -17 16h-15z" />
    <glyph glyph-name="E" unicode="E" horiz-adv-x="284" 
d="M13 700h260v-126h-112v-157h108v-125h-108v-166h114v-126h-262v700z" />
    <glyph glyph-name="F" unicode="F" horiz-adv-x="274" 
d="M13 700h256v-126h-108v-169h104v-125h-104v-280h-148v700z" />
    <glyph glyph-name="G" unicode="G" horiz-adv-x="353" 
d="M195 276h-20v119h166v-270q0 -130 -130 -130h-69q-131 0 -131 130v450q0 130 131 130h67q131 0 131 -130v-143h-146v140q0 12 -13 12h-11q-11 0 -11 -12v-443q0 -13 11 -13h14q11 0 11 12v148z" />
    <glyph glyph-name="H" unicode="H" horiz-adv-x="354" 
d="M161 417h33v283h147v-700h-147v292h-33v-292h-148v700h148v-283z" />
    <glyph glyph-name="I" unicode="I" horiz-adv-x="175" 
d="M161 700v-700h-147v700h147z" />
    <glyph glyph-name="J" unicode="J" horiz-adv-x="237" 
d="M225 700v-570q0 -130 -131 -130h-91v126h54q20 0 20 20v554h148z" />
    <glyph glyph-name="K" unicode="K" horiz-adv-x="345" 
d="M349 0h-153l-35 281v-281h-148v700h148v-290l41 290h149l-57 -341z" />
    <glyph glyph-name="L" unicode="L" horiz-adv-x="265" 
d="M13 700h148v-574h101v-126h-249v700z" />
    <glyph glyph-name="M" unicode="M" horiz-adv-x="484" 
d="M471 700v-700h-145l1 443l-39 -443h-123l-38 439l1 -439h-115v700h206l22 -343l24 343h206z" />
    <glyph glyph-name="N" unicode="N" horiz-adv-x="340" 
d="M327 0h-135l-61 293l4 -293h-122v700h141l53 -267l-2 267h122v-700z" />
    <glyph glyph-name="O" unicode="O" horiz-adv-x="353" 
d="M341 125q0 -130 -130 -130h-69q-131 0 -131 130v450q0 130 131 130h69q130 0 130 -130v-450zM194 572q0 12 -12 12h-12q-11 0 -11 -12v-444q0 -12 11 -12h12q12 0 12 12v444z" />
    <glyph glyph-name="P" unicode="P" horiz-adv-x="344" 
d="M161 233v-233h-148v700h194q130 0 130 -130v-207q0 -130 -130 -130h-46zM191 567q0 11 -11 11h-19v-223h19q11 0 11 11v201z" />
    <glyph glyph-name="Q" unicode="Q" horiz-adv-x="353" 
d="M341 575v-437q0 -71 -39 -104l55 -19l-58 -98l-151 78h-6q-131 0 -131 130v450q0 130 131 130h69q130 0 130 -130zM194 572q0 12 -12 12h-12q-11 0 -11 -12v-444q0 -12 11 -12h12q12 0 12 12v444z" />
    <glyph glyph-name="R" unicode="R" horiz-adv-x="350" 
d="M272 325q68 -16 68 -86v-239h-148v252q0 12 -11 12h-20v-264h-148v700h195q131 0 131 -130v-145q0 -78 -67 -100zM191 565q0 12 -11 12h-19v-193h19q11 0 11 11v170z" />
    <glyph glyph-name="S" unicode="S" horiz-adv-x="343" 
d="M279 371q54 -34 54 -110v-136q0 -130 -130 -130h-61q-130 0 -130 130v143h143v-143q0 -11 12 -11h9q12 0 12 11v122q0 13 -13 22l-109 69q-54 33 -54 110v127q0 130 130 130h59q131 0 131 -130v-133h-144v133q0 11 -11 11h-9q-11 0 -11 -11v-113q0 -14 12 -21z" />
    <glyph glyph-name="T" unicode="T" horiz-adv-x="312" 
d="M230 0h-148v574h-77v126h302v-126h-77v-574z" />
    <glyph glyph-name="U" unicode="U" horiz-adv-x="351" 
d="M339 700v-575q0 -130 -130 -130h-66q-131 0 -131 130v575h148v-572q0 -12 11 -12h9q11 0 11 12v572h148z" />
    <glyph glyph-name="V" unicode="V" horiz-adv-x="341" 
d="M262 0h-184l-81 700h148l34 -465l35 465h130z" />
    <glyph glyph-name="W" unicode="W" horiz-adv-x="501" 
d="M287 701v-1h43l22 -300l23 300h127l-74 -700h-151l-28 291l-26 -291h-151l-73 700h153l22 -300l23 300z" />
    <glyph glyph-name="X" unicode="X" horiz-adv-x="342" 
d="M342 700l-80 -338l82 -362h-153l-28 185l-32 -185h-133l80 341l-78 359h153l25 -179l31 179h133z" />
    <glyph glyph-name="Y" unicode="Y" horiz-adv-x="326" 
d="M238 0h-148v229l-98 471h153l28 -225l30 225h133l-98 -463v-237z" />
    <glyph glyph-name="Z" unicode="Z" horiz-adv-x="287" 
d="M129 574h-119v126h271v-126l-123 -448h123v-126h-276v126z" />
    <glyph glyph-name="bracketleft" unicode="[" horiz-adv-x="189" 
d="M186 45v-73h-169v756h169v-73h-69v-610h69z" />
    <glyph glyph-name="backslash" unicode="\" horiz-adv-x="217" 
d="M115 -28l-113 756h100l113 -756h-100z" />
    <glyph glyph-name="bracketright" unicode="]" horiz-adv-x="189" 
d="M3 -28v73h69v610h-69v73h169v-756h-169z" />
    <glyph glyph-name="asciicircum" unicode="^" horiz-adv-x="342" 
d="M220 700l100 -231h-101l-48 119l-48 -119h-101l100 231h98z" />
    <glyph glyph-name="underscore" unicode="_" horiz-adv-x="412" 
d="M-2 -19h416v-103h-416v103z" />
    <glyph glyph-name="grave" unicode="`" horiz-adv-x="434" 
d="M272 715l39 -115h-108l-74 115h143z" />
    <glyph glyph-name="a" unicode="a" horiz-adv-x="317" 
d="M9 76v156q0 41 15 62t56 35l89 32v98q0 10 -9 10h-8q-10 0 -10 -10v-92h-127v100q0 115 114 115h63q114 0 114 -115v-467h-135v31q-39 -36 -87 -36q-75 0 -75 81zM154 108q5 0 15 2v143l-15 -7q-14 -7 -14 -26v-99q0 -13 14 -13z" />
    <glyph glyph-name="b" unicode="b" 
d="M11 0v707h139v-159q42 34 86 34q39 0 59.5 -23.5t20.5 -67.5v-405q0 -44 -20.5 -67.5t-59.5 -23.5q-43 0 -88 33v-28h-137zM150 459v-342q10 -2 14 -2q13 0 13 13v321q0 13 -13 13q-6 0 -14 -3z" />
    <glyph glyph-name="c" unicode="c" horiz-adv-x="323" 
d="M177 327v129q0 9 -9 9h-9q-9 0 -9 -9v-335q0 -10 9 -10h9q9 0 9 10v137h136v-143q0 -120 -120 -120h-62q-120 0 -120 120v347q0 120 120 120h62q120 0 120 -120v-135h-136z" />
    <glyph glyph-name="d" unicode="d" 
d="M316 707v-707h-137v29q-44 -34 -88 -34q-80 0 -80 91v405q0 91 80 91q44 0 86 -32v157h139zM177 117v342q-8 3 -14 3q-13 0 -13 -13v-321q0 -13 13 -13q4 0 14 2z" />
    <glyph glyph-name="e" unicode="e" horiz-adv-x="322" 
d="M311 233h-163v-115q0 -9 10 -9h10q9 0 9 9v88h134v-91q0 -120 -120 -120h-60q-120 0 -120 120v347q0 120 120 120h60q120 0 120 -120v-229zM148 458v-122h28v122q0 10 -10 10h-8q-10 0 -10 -10z" />
    <glyph glyph-name="f" unicode="f" horiz-adv-x="219" 
d="M31 577v29q0 101 101 101h83v-101h-34q-19 0 -19 -19v-10h53v-117h-45v-460h-139v460h-27v117h27z" />
    <glyph glyph-name="g" unicode="g" 
d="M316 577v-575q0 -106 -106 -106h-94q-54 0 -78.5 23.5t-24.5 76.5v34h128v-27q0 -13 13 -13h12q13 0 13 13v75q-41 -33 -88 -33q-80 0 -80 91v355q0 91 80 91q43 0 88 -33v28h137zM177 165v294q-8 3 -14 3q-13 0 -13 -13v-274q0 -13 13 -13q6 0 14 3z" />
    <glyph glyph-name="h" unicode="h" 
d="M11 0v707h139v-159q42 34 86 34q39 0 59.5 -23.5t20.5 -67.5v-491h-139v449q0 13 -13 13q-6 0 -14 -3v-459h-139z" />
    <glyph glyph-name="i" unicode="i" horiz-adv-x="162" 
d="M10 595v103h142v-103h-142zM12 0v577h139v-577h-139z" />
    <glyph glyph-name="j" unicode="j" horiz-adv-x="162" 
d="M10 595v103h142v-103h-142zM150 577v-584q0 -94 -95 -94h-71v93h18q9 0 9 10v575h139z" />
    <glyph glyph-name="k" unicode="k" horiz-adv-x="339" 
d="M198 577h141l-61 -287l60 -290h-146l-42 261v-261h-139v707h139v-398z" />
    <glyph glyph-name="l" unicode="l" horiz-adv-x="162" 
d="M11 0v707h139v-707h-139z" />
    <glyph glyph-name="m" unicode="m" horiz-adv-x="492" 
d="M315 459v-459h-138v449q0 13 -13 13q-6 0 -14 -3v-459h-139v577h137v-30q43 35 88 35q51 0 69 -40q46 40 96 40q80 0 80 -91v-491h-139v449q0 13 -12 13q-8 0 -15 -3z" />
    <glyph glyph-name="n" unicode="n" 
d="M11 0v577h137v-30q43 35 88 35q39 0 59.5 -23.5t20.5 -67.5v-491h-139v449q0 13 -13 13q-6 0 -14 -3v-459h-139z" />
    <glyph glyph-name="o" unicode="o" 
d="M168 465h-9q-9 0 -9 -9v-335q0 -10 9 -10h9q9 0 9 10v335q0 9 -9 9zM197 -5h-66q-120 0 -120 120v347q0 120 120 120h66q119 0 119 -120v-347q0 -120 -119 -120z" />
    <glyph glyph-name="p" unicode="p" 
d="M11 -100v677h137v-30q43 35 88 35q39 0 59.5 -23.5t20.5 -67.5v-405q0 -44 -20.5 -67.5t-59.5 -23.5q-43 0 -86 32v-127h-139zM150 459v-342q10 -2 14 -2q13 0 13 13v321q0 13 -13 13q-6 0 -14 -3z" />
    <glyph glyph-name="q" unicode="q" 
d="M316 577v-677h-139v129q-43 -34 -86 -34q-80 0 -80 91v405q0 91 80 91q43 0 88 -33v28h137zM177 117v342q-8 3 -14 3q-13 0 -13 -13v-321q0 -13 13 -13q4 0 14 2z" />
    <glyph glyph-name="r" unicode="r" horiz-adv-x="223" 
d="M11 0v577h137v-53q15 30 30.5 43.5t39.5 13.5v-155q-41 -3 -68 -22v-404h-139z" />
    <glyph glyph-name="s" unicode="s" horiz-adv-x="314" 
d="M172 365v93q0 10 -9 10h-9q-9 0 -9 -10v-75q0 -14 14 -22l66 -35q45 -23 61.5 -47.5t16.5 -69.5v-94q0 -120 -119 -120h-53q-120 0 -120 120v100h131v-97q0 -9 9 -9h10q10 0 10 9v77q0 15 -15 23l-66 35q-45 24 -61.5 48.5t-16.5 68.5v92q0 120 120 120h51
q120 0 120 -120v-97h-131z" />
    <glyph glyph-name="t" unicode="t" horiz-adv-x="223" 
d="M175 460v-460h-139v460h-32v117h32v78h139v-78h45v-117h-45z" />
    <glyph glyph-name="u" unicode="u" 
d="M316 577v-577h-137v29q-44 -34 -88 -34q-80 0 -80 91v491h139v-449q0 -13 13 -13q4 0 14 2v460h139z" />
    <glyph glyph-name="v" unicode="v" horiz-adv-x="331" 
d="M255 0h-179l-74 577h138l29 -344l30 344h131z" />
    <glyph glyph-name="w" unicode="w" horiz-adv-x="496" 
d="M273 0l-25 260l-25 -260h-155l-66 577h133l20 -319l27 319h141l25 -316l22 316h124l-66 -577h-155z" />
    <glyph glyph-name="x" unicode="x" horiz-adv-x="322" 
d="M128 0h-128l69 280l-67 297h139l23 -158l29 158h128l-68 -277l70 -300h-140l-24 162z" />
    <glyph glyph-name="y" unicode="y" horiz-adv-x="328" 
d="M210 -100h-135l23 120l-100 557h141l13 -120q7 -63 15 -193h1q5 100 14 193l13 120h136z" />
    <glyph glyph-name="z" unicode="z" horiz-adv-x="271" 
d="M127 460h-117v117h255v-117l-121 -343h121v-117h-259v117z" />
    <glyph glyph-name="braceleft" unicode="{" horiz-adv-x="240" 
d="M66 277q0 15 -7 21.5t-24 9.5l-30 6v77l30 5q16 3 23.5 9.5t7.5 21.5v88q0 83 18.5 125.5t79.5 95.5l73 -31q-42 -49 -52.5 -83.5t-10.5 -105.5v-73q0 -71 -52 -90q52 -16 52 -78v-91q0 -71 10.5 -105.5t52.5 -83.5l-73 -31q-61 53 -79.5 95.5t-18.5 125.5v92z" />
    <glyph glyph-name="bar" unicode="|" horiz-adv-x="175" 
d="M133 755v-813h-91v813h91z" />
    <glyph glyph-name="braceright" unicode="}" horiz-adv-x="240" 
d="M174 277v-92q0 -83 -18.5 -125.5t-79.5 -95.5l-73 31q42 49 52.5 83.5t10.5 105.5v91q0 62 52 78q-52 19 -52 90v73q0 71 -10.5 105.5t-52.5 83.5l73 31q61 -53 79.5 -95.5t18.5 -125.5v-88q0 -15 7.5 -21.5t23.5 -9.5l30 -5v-77l-30 -6q-17 -3 -24 -9.5t-7 -21.5z" />
    <glyph glyph-name="asciitilde" unicode="~" horiz-adv-x="338" 
d="M29 277v104q32 37 76 37h3q23 0 52 -11l21 -6q31 -12 51 -12h3q37 0 73 35v-104q-33 -37 -76 -37h-3q-15 0 -53 10l-21 7q-28 11 -50 11h-3q-39 0 -73 -34z" />
    <glyph glyph-name="uni00A0" unicode="&#xa0;" horiz-adv-x="78" 
 />
    <glyph glyph-name="exclamdown" unicode="&#xa1;" horiz-adv-x="165" 
d="M10 166l26 348h91l26 -348v-166h-143v166zM16 542v158h131v-158h-131z" />
    <glyph glyph-name="cent" unicode="&#xa2;" horiz-adv-x="316" 
d="M174 390v135q0 9 -10 9h-7q-9 0 -9 -9v-345q0 -10 9 -10h7q10 0 10 10v144h131v-148q0 -109 -97 -119v-60h-93v59q-103 9 -103 120v352q0 111 102 119v56h93v-56q98 -10 98 -119v-138h-131z" />
    <glyph glyph-name="sterling" unicode="&#xa3;" horiz-adv-x="356" 
d="M3 266v124h38v185q0 130 130 130h47q130 0 130 -130v-127h-134v124q0 12 -12 12h-6q-11 0 -11 -12v-182h106v-124h-106v-140h165v-126h-347v126h38v140h-38z" />
    <glyph glyph-name="yen" unicode="&#xa5;" horiz-adv-x="323" 
d="M11 318h66l-85 382h153l26 -228l29 228h131l-86 -382h66v-78h-77v-16h77v-78h-77v-146h-144v146h-79v78h79v16h-79v78z" />
    <glyph glyph-name="section" unicode="&#xa7;" horiz-adv-x="339" 
d="M324 334v-38l-246 104q-63 26 -63 95v80q0 130 130 130h49q131 0 131 -130v-95h-139v97q0 11 -11 11h-9q-11 0 -11 -11v-86q0 -18 12 -22l105 -45q25 -10 36.5 -23.5t13.5 -26.5t2 -40zM15 367v39l245 -105q36 -15 50 -37t14 -57v-82q0 -130 -130 -130h-50
q-130 0 -130 130v97h139v-99q0 -11 11 -11h9q11 0 11 11v88q0 17 -12 22l-106 45q-25 10 -36 23.5t-13 25.5t-2 40z" />
    <glyph glyph-name="dieresis" unicode="&#xa8;" horiz-adv-x="434" 
d="M226 600v115h104v-115h-104zM208 715v-115h-104v115h104z" />
    <glyph glyph-name="copyright" unicode="&#xa9;" horiz-adv-x="439" 
d="M231 333h113v-166q0 -100 -100 -100h-49q-100 0 -100 100v367q0 100 100 100h48q99 0 99 -99v-155h-113v146q0 9 -8 9h-3q-8 0 -8 -9v-351q0 -9 8 -9h4q9 0 9 9v158zM418 540v-380q0 -88 -37.5 -126.5t-118.5 -38.5h-85q-81 0 -118.5 38.5t-37.5 126.5v380
q0 88 37.5 126.5t118.5 38.5h85q81 0 118.5 -38.5t37.5 -126.5zM396 160v380q0 79 -31 111.5t-103 32.5h-85q-72 0 -103 -32.5t-31 -111.5v-380q0 -79 31 -111.5t103 -32.5h85q72 0 103 32.5t31 111.5z" />
    <glyph glyph-name="ordfeminine" unicode="&#xaa;" horiz-adv-x="213" 
d="M12 417v82q0 27 9.5 40.5t38.5 22.5l56 16v52q0 7 -7 7h-8q-8 0 -8 -7v-48h-78v52q0 72 73 72h39q73 0 73 -72v-264h-83v17q-31 -20 -57 -20q-48 0 -48 50zM102 435q8 0 14 4v74l-13 -3q-12 -4 -12 -18v-46q0 -11 11 -11z" />
    <glyph glyph-name="guillemotleft" unicode="&#xab;" horiz-adv-x="270" 
d="M3 293l58 170h89l-41 -170l41 -169h-89zM125 293l51 170h88l-33 -170l33 -169h-88z" />
    <glyph glyph-name="registered" unicode="&#xae;" horiz-adv-x="288" 
d="M196 485q33 -7 33 -42v-101h-73v109q0 5 -6 5h-12v-114h-74v309h105q60 0 60 -60v-58q0 -38 -33 -48zM154 592q0 6 -5 6h-11v-85h11q5 0 5 5v74zM260 384v224q0 42 -18.5 61.5t-59.5 19.5h-76q-41 0 -59.5 -19.5t-18.5 -61.5v-224q0 -42 18.5 -61.5t59.5 -19.5h76
q41 0 59.5 19.5t18.5 61.5zM277 608v-224q0 -97 -95 -97h-76q-95 0 -95 97v224q0 97 95 97h76q95 0 95 -97z" />
    <glyph glyph-name="macron" unicode="&#xaf;" horiz-adv-x="434" 
d="M107 698h220v-92h-220v92z" />
    <glyph glyph-name="degree" unicode="&#xb0;" horiz-adv-x="261" 
d="M138 613h-16q-9 0 -9 -8v-201q0 -8 9 -8h16q8 0 8 8v201q0 8 -8 8zM159 303h-58q-43 0 -67 24t-24 68v219q0 44 24 67.5t67 23.5h58q43 0 67 -23.5t24 -67.5v-219q0 -44 -24 -68t-67 -24z" />
    <glyph glyph-name="plusminus" unicode="&#xb1;" horiz-adv-x="290" 
d="M92 276v89h-87v101h87v89h106v-89h87v-101h-87v-89h-106zM5 255h280v-101h-280v101z" />
    <glyph glyph-name="acute" unicode="&#xb4;" horiz-adv-x="434" 
d="M141 600l39 115h143l-75 -115h-107z" />
    <glyph glyph-name="paragraph" unicode="&#xb6;" horiz-adv-x="320" 
d="M307 0h-88v622h-26v-622h-13q-86 0 -127.5 41t-41.5 127v364q0 86 41.5 127t127.5 41h127v-700z" />
    <glyph glyph-name="periodcentered" unicode="&#xb7;" horiz-adv-x="160" 
d="M147 404v-168h-134v168h134z" />
    <glyph glyph-name="cedilla" unicode="&#xb8;" horiz-adv-x="434" 
d="M283 0l-21 -106h-125l52 106h94z" />
    <glyph glyph-name="ordmasculine" unicode="&#xba;" horiz-adv-x="218" 
d="M114 635h-9q-7 0 -7 -7v-183q0 -7 7 -7h9q7 0 7 7v183q0 7 -7 7zM131 367h-43q-76 0 -76 74v191q0 35 19.5 54.5t56.5 19.5h43q36 0 55.5 -19.5t19.5 -54.5v-191q0 -74 -75 -74z" />
    <glyph glyph-name="guillemotright" unicode="&#xbb;" horiz-adv-x="270" 
d="M209 463l58 -170l-58 -169h-89l41 169l-41 170h89zM94 463l51 -170l-51 -169h-88l33 169l-33 170h88z" />
    <glyph glyph-name="questiondown" unicode="&#xbf;" horiz-adv-x="318" 
d="M194 316l-24 -29q-20 -26 -20 -48v-110q0 -12 11 -12h7q11 0 11 12v134h131v-137q0 -130 -130 -130h-43q-130 0 -130 130v100q0 69 44 121l40 51q12 15 16 26.5t4 35.5v61h114v-104q0 -39 -5 -58t-26 -43zM103 543v158h130v-158h-130z" />
    <glyph glyph-name="Agrave" unicode="&#xc0;" horiz-adv-x="345" 
d="M267 700l80 -700h-145l-7 96h-63l-7 -96h-127l79 700h190zM185 822l44 -99h-108l-79 99h143zM164 503l-22 -284h43z" />
    <glyph glyph-name="Aacute" unicode="&#xc1;" horiz-adv-x="345" 
d="M347 0h-145l-7 96h-63l-7 -96h-127l79 700h190zM120 723l43 99h143l-79 -99h-107zM164 503l-22 -284h43z" />
    <glyph glyph-name="Acircumflex" unicode="&#xc2;" horiz-adv-x="345" 
d="M347 0h-145l-7 96h-63l-7 -96h-127l79 700h190zM236 829l61 -106h-91l-32 30l-32 -30h-91l61 106h124zM164 503l-22 -284h43z" />
    <glyph glyph-name="Atilde" unicode="&#xc3;" horiz-adv-x="345" 
d="M347 0h-145l-7 96h-63l-7 -96h-127l79 700h190zM103 830h20q22 0 42 -10l25 -12q14 -8 18 -8h1q6 0 6 7v23h82v-53q0 -54 -52 -54h-20q-19 0 -42 10l-25 13q-13 7 -18 7h-1q-6 0 -6 -7v-23h-82v53q0 54 52 54zM164 503l-22 -284h43z" />
    <glyph glyph-name="Adieresis" unicode="&#xc4;" horiz-adv-x="345" 
d="M267 700l80 -700h-145l-7 96h-63l-7 -96h-127l79 700h190zM183 723v99h106v-99h-106zM165 822v-99h-106v99h106zM164 503l-22 -284h43z" />
    <glyph glyph-name="Aring" unicode="&#xc5;" horiz-adv-x="345" 
d="M281 715v-4q0 -22 -12 -37l78 -674h-145l-8 96h-62l-7 -96h-127l77 675q-11 14 -11 36v4q0 57 67 57h84q66 0 66 -57zM258 712v2q0 37 -43 37h-84q-43 0 -43 -37v-2q0 -37 43 -37h84q43 0 43 37zM163 499l-21 -280h43z" />
    <glyph glyph-name="AE" unicode="&#xc6;" horiz-adv-x="454" 
d="M97 700h347v-126h-113v-157h108v-125h-108v-166h114v-126h-262v96h-49l-11 -96h-128zM145 219h38v325z" />
    <glyph glyph-name="Ccedilla" unicode="&#xc7;" horiz-adv-x="349" 
d="M192 329h146v-204q0 -123 -115 -129l-20 -102h-125l49 102q-116 6 -116 129v450q0 130 131 130h66q128 0 128 -130v-183h-146v180q0 12 -11 12h-9q-11 0 -11 -12v-444q0 -12 11 -12h11q11 0 11 12v201z" />
    <glyph glyph-name="Egrave" unicode="&#xc8;" horiz-adv-x="284" 
d="M156 822l44 -99h-108l-79 99h143zM13 700h260v-126h-112v-157h108v-125h-108v-166h114v-126h-262v700z" />
    <glyph glyph-name="Eacute" unicode="&#xc9;" horiz-adv-x="284" 
d="M90 723l43 99h143l-79 -99h-107zM13 700h260v-126h-112v-157h108v-125h-108v-166h114v-126h-262v700z" />
    <glyph glyph-name="Ecircumflex" unicode="&#xca;" horiz-adv-x="284" 
d="M13 700h260v-126h-112v-157h108v-125h-108v-166h114v-126h-262v700zM207 829l61 -106h-91l-32 30l-32 -30h-91l61 106h124z" />
    <glyph glyph-name="Edieresis" unicode="&#xcb;" horiz-adv-x="284" 
d="M154 723v99h106v-99h-106zM136 822v-99h-106v99h106zM13 700h260v-126h-112v-157h108v-125h-108v-166h114v-126h-262v700z" />
    <glyph glyph-name="Igrave" unicode="&#xcc;" horiz-adv-x="175" 
d="M161 700v-700h-147v700h147zM99 822l44 -99h-108l-79 99h143z" />
    <glyph glyph-name="Iacute" unicode="&#xcd;" horiz-adv-x="175" 
d="M161 700v-700h-147v700h147zM34 723l43 99h143l-79 -99h-107z" />
    <glyph glyph-name="Icircumflex" unicode="&#xce;" horiz-adv-x="175" 
d="M161 700v-700h-147v700h147zM150 829l61 -106h-91l-32 30l-32 -30h-91l61 106h124z" />
    <glyph glyph-name="Idieresis" unicode="&#xcf;" horiz-adv-x="175" 
d="M161 700v-700h-147v700h147zM97 723v99h106v-99h-106zM79 822v-99h-106v99h106z" />
    <glyph glyph-name="Eth" unicode="&#xd0;" horiz-adv-x="367" 
d="M28 0v299h-28v112h28v289h180q148 0 148 -148v-404q0 -148 -148 -148h-180zM176 578v-167h20v-112h-20v-177h16q16 0 16 17v423q0 16 -16 16h-16z" />
    <glyph glyph-name="Ntilde" unicode="&#xd1;" horiz-adv-x="340" 
d="M192 0l-61 293l4 -293h-122v700h141l53 -267l-2 267h122v-700h-135zM100 830h20q22 0 42 -10l25 -12q14 -8 18 -8h1q6 0 6 7v23h82v-53q0 -54 -52 -54h-20q-19 0 -42 10l-25 13q-13 7 -18 7h-1q-6 0 -6 -7v-23h-82v53q0 54 52 54z" />
    <glyph glyph-name="Ograve" unicode="&#xd2;" horiz-adv-x="353" 
d="M188 822l44 -99h-108l-79 99h143zM341 125q0 -130 -130 -130h-69q-131 0 -131 130v450q0 130 131 130h69q130 0 130 -130v-450zM194 572q0 12 -12 12h-12q-11 0 -11 -12v-444q0 -12 11 -12h12q12 0 12 12v444z" />
    <glyph glyph-name="Oacute" unicode="&#xd3;" horiz-adv-x="353" 
d="M122 723l43 99h143l-79 -99h-107zM341 125q0 -130 -130 -130h-69q-131 0 -131 130v450q0 130 131 130h69q130 0 130 -130v-450zM194 572q0 12 -12 12h-12q-11 0 -11 -12v-444q0 -12 11 -12h12q12 0 12 12v444z" />
    <glyph glyph-name="Ocircumflex" unicode="&#xd4;" horiz-adv-x="353" 
d="M341 125q0 -130 -130 -130h-69q-131 0 -131 130v450q0 130 131 130h69q130 0 130 -130v-450zM194 572q0 12 -12 12h-12q-11 0 -11 -12v-444q0 -12 11 -12h12q12 0 12 12v444zM239 829l61 -106h-91l-32 30l-32 -30h-91l61 106h124z" />
    <glyph glyph-name="Otilde" unicode="&#xd5;" horiz-adv-x="353" 
d="M106 830h20q22 0 42 -10l25 -12q14 -8 18 -8h1q6 0 6 7v23h82v-53q0 -54 -52 -54h-20q-19 0 -42 10l-25 13q-13 7 -18 7h-1q-6 0 -6 -7v-23h-82v53q0 54 52 54zM341 125q0 -130 -130 -130h-69q-131 0 -131 130v450q0 130 131 130h69q130 0 130 -130v-450zM194 572
q0 12 -12 12h-12q-11 0 -11 -12v-444q0 -12 11 -12h12q12 0 12 12v444z" />
    <glyph glyph-name="Odieresis" unicode="&#xd6;" horiz-adv-x="353" 
d="M186 723v99h106v-99h-106zM168 822v-99h-106v99h106zM341 125q0 -130 -130 -130h-69q-131 0 -131 130v450q0 130 131 130h69q130 0 130 -130v-450zM194 572q0 12 -12 12h-12q-11 0 -11 -12v-444q0 -12 11 -12h12q12 0 12 12v444z" />
    <glyph glyph-name="multiply" unicode="&#xd7;" horiz-adv-x="298" 
d="M216 212l-69 68l-68 -68l-72 72l68 68l-68 69l75 75l68 -69l69 69l72 -72l-69 -69l69 -68z" />
    <glyph glyph-name="Oslash" unicode="&#xd8;" horiz-adv-x="353" 
d="M341 125q0 -130 -130 -130h-69q-131 0 -131 130v451q0 130 131 130h69q130 0 130 -130v-451zM158 574l-2 -241l39 203v38q0 11 -12 11h-14q-11 0 -11 -11zM194 127l3 239l-39 -199v-40q0 -11 11 -11h14q11 0 11 11z" />
    <glyph glyph-name="Ugrave" unicode="&#xd9;" horiz-adv-x="351" 
d="M187 822l44 -99h-108l-79 99h143zM339 700v-575q0 -130 -130 -130h-66q-131 0 -131 130v575h148v-572q0 -12 11 -12h9q11 0 11 12v572h148z" />
    <glyph glyph-name="Uacute" unicode="&#xda;" horiz-adv-x="351" 
d="M122 723l43 99h143l-79 -99h-107zM339 700v-575q0 -130 -130 -130h-66q-131 0 -131 130v575h148v-572q0 -12 11 -12h9q11 0 11 12v572h148z" />
    <glyph glyph-name="Ucircumflex" unicode="&#xdb;" horiz-adv-x="351" 
d="M339 700v-575q0 -130 -130 -130h-66q-131 0 -131 130v575h148v-572q0 -12 11 -12h9q11 0 11 12v572h148zM238 829l61 -106h-91l-32 30l-32 -30h-91l61 106h124z" />
    <glyph glyph-name="Udieresis" unicode="&#xdc;" horiz-adv-x="351" 
d="M185 723v99h106v-99h-106zM167 822v-99h-106v99h106zM339 700v-575q0 -130 -130 -130h-66q-131 0 -131 130v575h148v-572q0 -12 11 -12h9q11 0 11 12v572h148z" />
    <glyph glyph-name="Yacute" unicode="&#xdd;" horiz-adv-x="326" 
d="M238 0h-148v229l-98 471h153l28 -225l30 225h133l-98 -463v-237zM120 723l43 99h143l-79 -99h-107z" />
    <glyph glyph-name="Thorn" unicode="&#xde;" horiz-adv-x="343" 
d="M161 104v-104h-148v700h148v-101h45q130 0 130 -130v-234q0 -131 -130 -131h-45zM191 466q0 11 -11 11h-19v-251h19q11 0 11 11v229z" />
    <glyph glyph-name="germandbls" unicode="&#xdf;" horiz-adv-x="328" 
d="M318 274v-154q0 -120 -120 -120h-40v116h14q10 0 10 11v164q0 11 -11 11h-13v117h11q12 0 12 12v150q0 12 -12 12h-12q-11 0 -11 -12v-581h-136v580q0 129 129 129h49q128 0 128 -129v-108q0 -46 -11.5 -68t-38.5 -37q30 -14 41 -33.5t11 -59.5z" />
    <glyph glyph-name="agrave" unicode="&#xe0;" horiz-adv-x="317" 
d="M9 76v156q0 41 15 62t56 35l89 32v98q0 10 -9 10h-8q-10 0 -10 -10v-92h-127v100q0 115 114 115h63q114 0 114 -115v-467h-135v31q-39 -36 -87 -36q-75 0 -75 81zM182 715l39 -115h-108l-74 115h143zM154 108q5 0 15 2v143l-15 -7q-14 -7 -14 -26v-99q0 -13 14 -13z" />
    <glyph glyph-name="aacute" unicode="&#xe1;" horiz-adv-x="317" 
d="M9 76v156q0 41 15 62t56 35l89 32v98q0 10 -9 10h-8q-10 0 -10 -10v-92h-127v100q0 115 114 115h63q114 0 114 -115v-467h-135v31q-39 -36 -87 -36q-75 0 -75 81zM112 600l39 115h143l-75 -115h-107zM154 108q5 0 15 2v143l-15 -7q-14 -7 -14 -26v-99q0 -13 14 -13z" />
    <glyph glyph-name="acircumflex" unicode="&#xe2;" horiz-adv-x="317" 
d="M9 76v156q0 41 15 62t56 35l89 32v98q0 10 -9 10h-8q-10 0 -10 -10v-92h-127v100q0 115 114 115h63q114 0 114 -115v-467h-135v31q-39 -36 -87 -36q-75 0 -75 81zM228 715l61 -115h-91l-32 37l-32 -37h-91l61 115h124zM154 108q5 0 15 2v143l-15 -7q-14 -7 -14 -26v-99
q0 -13 14 -13z" />
    <glyph glyph-name="atilde" unicode="&#xe3;" horiz-adv-x="317" 
d="M9 76v156q0 41 15 62t56 35l89 32v98q0 10 -9 10h-8q-10 0 -10 -10v-92h-127v100q0 115 114 115h63q114 0 114 -115v-467h-135v31q-39 -36 -87 -36q-75 0 -75 81zM97 715h17q25 0 42 -9l28 -17q10 -6 15 -6q6 0 6 7v25h83v-61q0 -54 -53 -54h-17q-26 0 -42 10l-28 17
q-14 6 -15 6q-6 0 -6 -7v-26h-83v62q0 53 53 53zM154 108q5 0 15 2v143l-15 -7q-14 -7 -14 -26v-99q0 -13 14 -13z" />
    <glyph glyph-name="adieresis" unicode="&#xe4;" horiz-adv-x="317" 
d="M9 76v156q0 41 15 62t56 35l89 32v98q0 10 -9 10h-8q-10 0 -10 -10v-92h-127v100q0 115 114 115h63q114 0 114 -115v-467h-135v31q-39 -36 -87 -36q-75 0 -75 81zM157 715v-115h-104v115h104zM175 600v115h104v-115h-104zM154 108q5 0 15 2v143l-15 -7q-14 -7 -14 -26
v-99q0 -13 14 -13z" />
    <glyph glyph-name="aring" unicode="&#xe5;" horiz-adv-x="317" 
d="M9 76v156q0 41 15 62t56 35l89 32v98q0 10 -9 10h-8q-10 0 -10 -10v-92h-127v100q0 115 114 115h63q114 0 114 -115v-467h-135v31q-39 -36 -87 -36q-75 0 -75 81zM255 662v-8q0 -57 -66 -57h-46q-66 0 -66 57v8q0 56 66 56h46q66 0 66 -56zM234 654v8q0 37 -45 37h-46
q-45 0 -45 -37v-8q0 -38 45 -38h46q45 0 45 38zM154 108q5 0 15 2v143l-15 -7q-14 -7 -14 -26v-99q0 -13 14 -13z" />
    <glyph glyph-name="ae" unicode="&#xe6;" horiz-adv-x="480" 
d="M317 582h33q119 0 119 -120v-229h-163v-115q0 -9 10 -9h10q10 0 10 9v88h133v-91q0 -120 -119 -120h-61q-71 0 -99 40l-11 -7q-46 -33 -95 -33q-75 0 -75 81v156q0 41 15 62t56 35l89 32v98q0 10 -9 10h-8q-10 0 -10 -10v-92h-127v100q0 115 114 115h30q53 0 79 -28
q24 28 79 28zM154 108q5 0 15 2v143l-15 -7q-14 -7 -14 -26v-99q0 -13 14 -13zM306 458v-122h28v122q0 10 -10 10h-8q-10 0 -10 -10z" />
    <glyph glyph-name="ccedilla" unicode="&#xe7;" horiz-adv-x="323" 
d="M177 327v129q0 9 -9 9h-9q-9 0 -9 -9v-335q0 -10 9 -10h9q9 0 9 10v137h136v-143q0 -111 -101 -119l-20 -102h-125l49 102q-105 6 -105 119v347q0 120 120 120h62q120 0 120 -120v-135h-136z" />
    <glyph glyph-name="egrave" unicode="&#xe8;" horiz-adv-x="322" 
d="M311 233h-163v-115q0 -9 10 -9h10q9 0 9 9v88h134v-91q0 -120 -120 -120h-60q-120 0 -120 120v347q0 120 120 120h60q120 0 120 -120v-229zM177 715l39 -115h-108l-74 115h143zM148 458v-122h28v122q0 10 -10 10h-8q-10 0 -10 -10z" />
    <glyph glyph-name="eacute" unicode="&#xe9;" horiz-adv-x="322" 
d="M311 233h-163v-115q0 -9 10 -9h10q9 0 9 9v88h134v-91q0 -120 -120 -120h-60q-120 0 -120 120v347q0 120 120 120h60q120 0 120 -120v-229zM107 600l39 115h143l-75 -115h-107zM148 458v-122h28v122q0 10 -10 10h-8q-10 0 -10 -10z" />
    <glyph glyph-name="ecircumflex" unicode="&#xea;" horiz-adv-x="322" 
d="M311 233h-163v-115q0 -9 10 -9h10q9 0 9 9v88h134v-91q0 -120 -120 -120h-60q-120 0 -120 120v347q0 120 120 120h60q120 0 120 -120v-229zM223 715l61 -115h-91l-32 37l-32 -37h-91l61 115h124zM148 458v-122h28v122q0 10 -10 10h-8q-10 0 -10 -10z" />
    <glyph glyph-name="edieresis" unicode="&#xeb;" horiz-adv-x="322" 
d="M311 233h-163v-115q0 -9 10 -9h10q9 0 9 9v88h134v-91q0 -120 -120 -120h-60q-120 0 -120 120v347q0 120 120 120h60q120 0 120 -120v-229zM170 600v115h104v-115h-104zM152 715v-115h-104v115h104zM148 458v-122h28v122q0 10 -10 10h-8q-10 0 -10 -10z" />
    <glyph glyph-name="igrave" unicode="&#xec;" horiz-adv-x="162" 
d="M12 0v577h139v-577h-139zM97 715l39 -115h-108l-74 115h143z" />
    <glyph glyph-name="iacute" unicode="&#xed;" horiz-adv-x="162" 
d="M27 600l39 115h143l-75 -115h-107zM12 0v577h139v-577h-139z" />
    <glyph glyph-name="icircumflex" unicode="&#xee;" horiz-adv-x="162" 
d="M143 715l61 -115h-91l-32 37l-32 -37h-91l61 115h124zM12 0v577h139v-577h-139z" />
    <glyph glyph-name="idieresis" unicode="&#xef;" horiz-adv-x="162" 
d="M90 600v115h104v-115h-104zM72 715v-115h-104v115h104zM12 0v577h139v-577h-139z" />
    <glyph glyph-name="eth" unicode="&#xf0;" 
d="M312 707l-36 -59q40 -25 40 -80v-453q0 -120 -120 -120h-66q-120 0 -120 120v362q0 92 81 92h1q57 0 96 -46v19q0 15 -6.5 23t-23.5 15l-69 29l53 101l62 -28l14 25h94zM168 462h-9q-10 0 -10 -10v-331q0 -10 10 -10h9q9 0 9 10v331q0 10 -9 10z" />
    <glyph glyph-name="ntilde" unicode="&#xf1;" 
d="M11 0v577h137v-30q43 35 88 35q39 0 59.5 -23.5t20.5 -67.5v-491h-139v449q0 13 -13 13q-6 0 -14 -3v-459h-139zM95 715h17q25 0 42 -9l28 -17q10 -6 15 -6q6 0 6 7v25h83v-61q0 -54 -53 -54h-17q-26 0 -42 10l-28 17q-14 6 -15 6q-6 0 -6 -7v-26h-83v62q0 53 53 53z" />
    <glyph glyph-name="ograve" unicode="&#xf2;" 
d="M168 465h-9q-9 0 -9 -9v-335q0 -10 9 -10h9q9 0 9 10v335q0 9 -9 9zM197 -5h-66q-120 0 -120 120v347q0 120 120 120h66q119 0 119 -120v-347q0 -120 -119 -120zM180 715l39 -115h-108l-74 115h143z" />
    <glyph glyph-name="oacute" unicode="&#xf3;" 
d="M110 600l39 115h143l-75 -115h-107zM168 465h-9q-9 0 -9 -9v-335q0 -10 9 -10h9q9 0 9 10v335q0 9 -9 9zM197 -5h-66q-120 0 -120 120v347q0 120 120 120h66q119 0 119 -120v-347q0 -120 -119 -120z" />
    <glyph glyph-name="ocircumflex" unicode="&#xf4;" 
d="M226 715l61 -115h-91l-32 37l-32 -37h-91l61 115h124zM168 465h-9q-9 0 -9 -9v-335q0 -10 9 -10h9q9 0 9 10v335q0 9 -9 9zM197 -5h-66q-120 0 -120 120v347q0 120 120 120h66q119 0 119 -120v-347q0 -120 -119 -120z" />
    <glyph glyph-name="otilde" unicode="&#xf5;" 
d="M197 -5h-66q-120 0 -120 120v347q0 120 120 120h66q119 0 119 -120v-347q0 -120 -119 -120zM95 715h17q25 0 42 -9l28 -17q10 -6 15 -6q6 0 6 7v25h83v-61q0 -54 -53 -54h-17q-26 0 -42 10l-28 17q-14 6 -15 6q-6 0 -6 -7v-26h-83v62q0 53 53 53zM168 465h-9q-9 0 -9 -9
v-335q0 -10 9 -10h9q9 0 9 10v335q0 9 -9 9z" />
    <glyph glyph-name="odieresis" unicode="&#xf6;" 
d="M173 600v115h104v-115h-104zM155 715v-115h-104v115h104zM168 465h-9q-9 0 -9 -9v-335q0 -10 9 -10h9q9 0 9 10v335q0 9 -9 9zM197 -5h-66q-120 0 -120 120v347q0 120 120 120h66q119 0 119 -120v-347q0 -120 -119 -120z" />
    <glyph glyph-name="divide" unicode="&#xf7;" horiz-adv-x="290" 
d="M5 404h280v-101h-280v101zM94 424v93h102v-93h-102zM94 190v94h102v-94h-102z" />
    <glyph glyph-name="oslash" unicode="&#xf8;" 
d="M197 -5h-66q-120 0 -120 120v347q0 120 120 120h66q119 0 119 -120v-347q0 -120 -119 -120zM169 110q10 0 10 10l2 176l-32 -143v-33q0 -10 10 -10h10zM169 466h-11q-9 0 -9 -9l-3 -177l32 143v34q0 9 -9 9z" />
    <glyph glyph-name="ugrave" unicode="&#xf9;" 
d="M316 577v-577h-137v29q-44 -34 -88 -34q-80 0 -80 91v491h139v-449q0 -13 13 -13q4 0 14 2v460h139zM180 715l39 -115h-108l-74 115h143z" />
    <glyph glyph-name="uacute" unicode="&#xfa;" 
d="M316 577v-577h-137v29q-44 -34 -88 -34q-80 0 -80 91v491h139v-449q0 -13 13 -13q4 0 14 2v460h139zM110 600l39 115h143l-75 -115h-107z" />
    <glyph glyph-name="ucircumflex" unicode="&#xfb;" 
d="M316 577v-577h-137v29q-44 -34 -88 -34q-80 0 -80 91v491h139v-449q0 -13 13 -13q4 0 14 2v460h139zM226 715l61 -115h-91l-32 37l-32 -37h-91l61 115h124z" />
    <glyph glyph-name="udieresis" unicode="&#xfc;" 
d="M316 577v-577h-137v29q-44 -34 -88 -34q-80 0 -80 91v491h139v-449q0 -13 13 -13q4 0 14 2v460h139zM173 600v115h104v-115h-104zM155 715v-115h-104v115h104z" />
    <glyph glyph-name="yacute" unicode="&#xfd;" horiz-adv-x="328" 
d="M210 -100h-135l23 120l-100 557h141l13 -120q7 -63 15 -193h1q5 100 14 193l13 120h136zM113 600l39 115h143l-75 -115h-107z" />
    <glyph glyph-name="thorn" unicode="&#xfe;" 
d="M11 707h139v-160q42 34 86 34q80 0 80 -92v-403q0 -44 -20.5 -67.5t-59.5 -23.5q-43 0 -86 32v-122h-139v802zM150 458v-341q10 -2 14 -2q13 0 13 13v320q0 13 -13 13q-6 0 -14 -3z" />
    <glyph glyph-name="ydieresis" unicode="&#xff;" horiz-adv-x="328" 
d="M210 -100h-135l23 120l-100 557h141l13 -120q7 -63 15 -193h1q5 100 14 193l13 120h136zM177 600v115h104v-115h-104zM159 715v-115h-104v115h104z" />
    <glyph glyph-name="Amacron" unicode="&#x100;" horiz-adv-x="345" 
d="M267 700l80 -700h-145l-7 96h-63l-7 -96h-127l79 700h190zM64 813h220v-84h-220v84zM164 503l-22 -284h43z" />
    <glyph glyph-name="amacron" unicode="&#x101;" horiz-adv-x="317" 
d="M9 76v156q0 41 15 62t56 35l89 32v98q0 10 -9 10h-8q-10 0 -10 -10v-92h-127v100q0 115 114 115h63q114 0 114 -115v-467h-135v31q-39 -36 -87 -36q-75 0 -75 81zM56 698h220v-92h-220v92zM154 108q5 0 15 2v143l-15 -7q-14 -7 -14 -26v-99q0 -13 14 -13z" />
    <glyph glyph-name="Abreve" unicode="&#x102;" horiz-adv-x="345" 
d="M267 700l80 -700h-145l-7 96h-63l-7 -96h-127l79 700h190zM62 802v27h92v-19q0 -13 13 -13h14q13 0 13 13v19h92v-27q0 -39 -21.5 -60t-60.5 -21h-60q-39 0 -60.5 21t-21.5 60zM164 503l-22 -284h43z" />
    <glyph glyph-name="abreve" unicode="&#x103;" horiz-adv-x="317" 
d="M9 76v156q0 41 15 62t56 35l89 32v98q0 10 -9 10h-8q-10 0 -10 -10v-92h-127v100q0 115 114 115h63q114 0 114 -115v-467h-135v31q-39 -36 -87 -36q-75 0 -75 81zM56 679v36h92v-25q0 -13 13 -13h10q13 0 13 13v25h92v-36q0 -39 -21 -60.5t-60 -21.5h-58q-39 0 -60 21.5
t-21 60.5zM154 108q5 0 15 2v143l-15 -7q-14 -7 -14 -26v-99q0 -13 14 -13z" />
    <glyph glyph-name="Aogonek" unicode="&#x104;" horiz-adv-x="345" 
d="M267 700l80 -700h-22l-8 -13q-9 -14 -9 -22v-1q0 -8 9 -8h25v-72h-76q-53 0 -53 49v11q0 27 19 55v1h-30l-7 96h-63l-7 -96h-127l79 700h190zM164 503l-22 -284h43z" />
    <glyph glyph-name="aogonek" unicode="&#x105;" horiz-adv-x="317" 
d="M9 76v156q0 41 15 62t56 35l89 32v98q0 10 -9 10h-8q-10 0 -10 -10v-92h-127v100q0 115 114 115h63q114 0 114 -115v-467h-21l-8 -13q-9 -14 -9 -22v-1q0 -8 9 -8h25v-72h-76q-53 0 -53 49v11q0 27 19 55v1h-21v31q-39 -36 -87 -36q-75 0 -75 81zM154 108q5 0 15 2v143
l-15 -7q-14 -7 -14 -26v-99q0 -13 14 -13z" />
    <glyph glyph-name="Cacute" unicode="&#x106;" horiz-adv-x="349" 
d="M192 329h146v-204q0 -130 -130 -130h-66q-131 0 -131 130v450q0 130 131 130h66q128 0 128 -130v-183h-146v180q0 12 -11 12h-9q-11 0 -11 -12v-444q0 -12 11 -12h11q11 0 11 12v201zM121 723l43 99h143l-79 -99h-107z" />
    <glyph glyph-name="cacute" unicode="&#x107;" horiz-adv-x="323" 
d="M108 600l39 115h143l-75 -115h-107zM177 327v129q0 9 -9 9h-9q-9 0 -9 -9v-335q0 -10 9 -10h9q9 0 9 10v137h136v-143q0 -120 -120 -120h-62q-120 0 -120 120v347q0 120 120 120h62q120 0 120 -120v-135h-136z" />
    <glyph glyph-name="Cdotaccent" unicode="&#x10a;" horiz-adv-x="349" 
d="M235 809v-86h-120v86h120zM192 329h146v-204q0 -130 -130 -130h-66q-131 0 -131 130v450q0 130 131 130h66q128 0 128 -130v-183h-146v180q0 12 -11 12h-9q-11 0 -11 -12v-444q0 -12 11 -12h11q11 0 11 12v201z" />
    <glyph glyph-name="cdotaccent" unicode="&#x10b;" horiz-adv-x="323" 
d="M177 327v129q0 9 -9 9h-9q-9 0 -9 -9v-335q0 -10 9 -10h9q9 0 9 10v137h136v-143q0 -120 -120 -120h-62q-120 0 -120 120v347q0 120 120 120h62q120 0 120 -120v-135h-136zM221 703v-103h-118v103h118z" />
    <glyph glyph-name="Ccaron" unicode="&#x10c;" horiz-adv-x="349" 
d="M192 329h146v-204q0 -130 -130 -130h-66q-131 0 -131 130v450q0 130 131 130h66q128 0 128 -130v-183h-146v180q0 12 -11 12h-9q-11 0 -11 -12v-444q0 -12 11 -12h11q11 0 11 12v201zM298 829l-61 -106h-124l-61 106h91l32 -30l32 30h91z" />
    <glyph glyph-name="ccaron" unicode="&#x10d;" horiz-adv-x="323" 
d="M285 715l-61 -115h-124l-61 115h91l32 -37l32 37h91zM177 327v129q0 9 -9 9h-9q-9 0 -9 -9v-335q0 -10 9 -10h9q9 0 9 10v137h136v-143q0 -120 -120 -120h-62q-120 0 -120 120v347q0 120 120 120h62q120 0 120 -120v-135h-136z" />
    <glyph glyph-name="Dcaron" unicode="&#x10e;" horiz-adv-x="352" 
d="M293 829l-61 -106h-124l-61 106h91l32 -30l32 30h91zM13 0v700h180q147 0 147 -148v-404q0 -148 -147 -148h-180zM161 578v-456h15q17 0 17 17v423q0 16 -17 16h-15z" />
    <glyph glyph-name="dcaron" unicode="&#x10f;" 
d="M316 707v-707h-137v29q-44 -34 -88 -34q-80 0 -80 91v405q0 91 80 91q44 0 86 -32v157h139zM333 593v114h101l-29 -114h-72zM177 117v342q-8 3 -14 3q-13 0 -13 -13v-321q0 -13 13 -13q4 0 14 2z" />
    <glyph glyph-name="Dcroat" unicode="&#x110;" horiz-adv-x="367" 
d="M28 0v299h-28v112h28v289h180q148 0 148 -148v-404q0 -148 -148 -148h-180zM176 578v-167h20v-112h-20v-177h16q16 0 16 17v423q0 16 -16 16h-16z" />
    <glyph glyph-name="dcroat" unicode="&#x111;" horiz-adv-x="341" 
d="M316 707v-36h31v-90h-31v-581h-137v29q-44 -34 -88 -34q-80 0 -80 91v405q0 91 80 91q44 0 86 -32v40h-60v81h60v36h139zM177 117v342q-8 3 -14 3q-13 0 -13 -13v-321q0 -13 13 -13q4 0 14 2z" />
    <glyph glyph-name="Emacron" unicode="&#x112;" horiz-adv-x="284" 
d="M35 813h220v-84h-220v84zM13 700h260v-126h-112v-157h108v-125h-108v-166h114v-126h-262v700z" />
    <glyph glyph-name="emacron" unicode="&#x113;" horiz-adv-x="322" 
d="M311 233h-163v-115q0 -9 10 -9h10q9 0 9 9v88h134v-91q0 -120 -120 -120h-60q-120 0 -120 120v347q0 120 120 120h60q120 0 120 -120v-229zM51 698h220v-92h-220v92zM148 458v-122h28v122q0 10 -10 10h-8q-10 0 -10 -10z" />
    <glyph glyph-name="Ebreve" unicode="&#x114;" horiz-adv-x="284" 
d="M33 802v27h92v-19q0 -13 13 -13h14q13 0 13 13v19h92v-27q0 -39 -21.5 -60t-60.5 -21h-60q-39 0 -60.5 21t-21.5 60zM13 700h260v-126h-112v-157h108v-125h-108v-166h114v-126h-262v700z" />
    <glyph glyph-name="ebreve" unicode="&#x115;" horiz-adv-x="322" 
d="M311 233h-163v-115q0 -9 10 -9h10q9 0 9 9v88h134v-91q0 -120 -120 -120h-60q-120 0 -120 120v347q0 120 120 120h60q120 0 120 -120v-229zM51 679v36h92v-25q0 -13 13 -13h10q13 0 13 13v25h92v-36q0 -39 -21 -60.5t-60 -21.5h-58q-39 0 -60 21.5t-21 60.5zM148 458
v-122h28v122q0 10 -10 10h-8q-10 0 -10 -10z" />
    <glyph glyph-name="Edotaccent" unicode="&#x116;" horiz-adv-x="284" 
d="M205 809v-86h-120v86h120zM13 700h260v-126h-112v-157h108v-125h-108v-166h114v-126h-262v700z" />
    <glyph glyph-name="edotaccent" unicode="&#x117;" horiz-adv-x="322" 
d="M311 233h-163v-115q0 -9 10 -9h10q9 0 9 9v88h134v-91q0 -120 -120 -120h-60q-120 0 -120 120v347q0 120 120 120h60q120 0 120 -120v-229zM220 703v-103h-118v103h118zM148 458v-122h28v122q0 10 -10 10h-8q-10 0 -10 -10z" />
    <glyph glyph-name="Eogonek" unicode="&#x118;" horiz-adv-x="284" 
d="M13 700h260v-126h-112v-157h108v-125h-108v-166h114v-126h-17l-8 -13q-9 -14 -9 -22v-1q0 -8 9 -8h25v-72h-76q-53 0 -53 49v11q0 27 19 55v1h-152v700z" />
    <glyph glyph-name="eogonek" unicode="&#x119;" horiz-adv-x="322" 
d="M311 233h-163v-115q0 -9 10 -9h10q9 0 9 9v88h134v-91q0 -34 -10 -59l-27 -68q-7 -14 -7 -25q0 -7 8 -7h26v-72h-77q-53 0 -53 49v12q0 23 14 50h-54q-120 0 -120 120v347q0 120 120 120h60q120 0 120 -120v-229zM148 458v-122h28v122q0 10 -10 10h-8q-10 0 -10 -10z" />
    <glyph glyph-name="Ecaron" unicode="&#x11a;" horiz-adv-x="284" 
d="M268 829l-61 -106h-124l-61 106h91l32 -30l32 30h91zM13 700h260v-126h-112v-157h108v-125h-108v-166h114v-126h-262v700z" />
    <glyph glyph-name="ecaron" unicode="&#x11b;" horiz-adv-x="322" 
d="M311 233h-163v-115q0 -9 10 -9h10q9 0 9 9v88h134v-91q0 -120 -120 -120h-60q-120 0 -120 120v347q0 120 120 120h60q120 0 120 -120v-229zM284 715l-61 -115h-124l-61 115h91l32 -37l32 37h91zM148 458v-122h28v122q0 10 -10 10h-8q-10 0 -10 -10z" />
    <glyph glyph-name="Gbreve" unicode="&#x11e;" horiz-adv-x="353" 
d="M65 802v27h92v-19q0 -13 13 -13h14q13 0 13 13v19h92v-27q0 -39 -21.5 -60t-60.5 -21h-60q-39 0 -60.5 21t-21.5 60zM195 276h-20v119h166v-270q0 -130 -130 -130h-69q-131 0 -131 130v450q0 130 131 130h67q131 0 131 -130v-143h-146v140q0 12 -13 12h-11q-11 0 -11 -12
v-443q0 -13 11 -13h14q11 0 11 12v148z" />
    <glyph glyph-name="gbreve" unicode="&#x11f;" 
d="M316 577v-575q0 -106 -106 -106h-94q-54 0 -78.5 23.5t-24.5 76.5v34h128v-27q0 -13 13 -13h12q13 0 13 13v75q-41 -33 -88 -33q-80 0 -80 91v355q0 91 80 91q43 0 88 -33v28h137zM54 679v36h92v-25q0 -13 13 -13h10q13 0 13 13v25h92v-36q0 -39 -21 -60.5t-60 -21.5h-58
q-39 0 -60 21.5t-21 60.5zM177 165v294q-8 3 -14 3q-13 0 -13 -13v-274q0 -13 13 -13q6 0 14 3z" />
    <glyph glyph-name="Gdotaccent" unicode="&#x120;" horiz-adv-x="353" 
d="M237 809v-86h-120v86h120zM195 276h-20v119h166v-270q0 -130 -130 -130h-69q-131 0 -131 130v450q0 130 131 130h67q131 0 131 -130v-143h-146v140q0 12 -13 12h-11q-11 0 -11 -12v-443q0 -13 11 -13h14q11 0 11 12v148z" />
    <glyph glyph-name="gdotaccent" unicode="&#x121;" 
d="M316 577v-575q0 -106 -106 -106h-94q-54 0 -78.5 23.5t-24.5 76.5v34h128v-27q0 -13 13 -13h12q13 0 13 13v75q-41 -33 -88 -33q-80 0 -80 91v355q0 91 80 91q43 0 88 -33v28h137zM223 703v-103h-118v103h118zM177 165v294q-8 3 -14 3q-13 0 -13 -13v-274q0 -13 13 -13
q6 0 14 3z" />
    <glyph glyph-name="Gcommaaccent" unicode="&#x122;" horiz-adv-x="353" 
d="M195 276h-20v119h166v-270q0 -130 -130 -130h-69q-131 0 -131 130v450q0 130 131 130h67q131 0 131 -130v-143h-146v140q0 12 -13 12h-11q-11 0 -11 -12v-443q0 -13 11 -13h14q11 0 11 12v148zM230 -23v-100q0 -56 -47 -99l-24 -21l-34 20l13 18q23 33 24 60h-38v122h106
z" />
    <glyph glyph-name="gcommaaccent" unicode="&#x123;" 
d="M316 577v-575q0 -106 -106 -106h-94q-54 0 -78.5 23.5t-24.5 76.5v34h128v-27q0 -13 13 -13h12q13 0 13 13v75q-41 -33 -88 -33q-80 0 -80 91v355q0 91 80 91q43 0 88 -33v28h137zM110 599v100q0 56 47 99l24 21l34 -20l-13 -18q-24 -35 -24 -60h38v-122h-106zM177 165
v294q-8 3 -14 3q-13 0 -13 -13v-274q0 -13 13 -13q6 0 14 3z" />
    <glyph glyph-name="Hbar" unicode="&#x126;" horiz-adv-x="385" 
d="M0 503v112h28v85h148v-98h33v98h147v-85h29v-112h-29v-503h-147v292h-33v-292h-148v503h-28zM176 417h33v99h-33v-99z" />
    <glyph glyph-name="hbar" unicode="&#x127;" horiz-adv-x="347" 
d="M31 0v581h-31v90h31v36h139v-36h60v-81h-60v-42q42 34 86 34q39 0 59.5 -23.5t20.5 -67.5v-491h-139v449q0 13 -13 13q-6 0 -14 -3v-459h-139z" />
    <glyph glyph-name="Imacron" unicode="&#x12a;" horiz-adv-x="175" 
d="M161 700v-700h-147v700h147zM-22 813h220v-84h-220v84z" />
    <glyph glyph-name="imacron" unicode="&#x12b;" horiz-adv-x="162" 
d="M12 0v577h139v-577h-139zM-29 698h220v-92h-220v92z" />
    <glyph glyph-name="Ibreve" unicode="&#x12c;" horiz-adv-x="175" 
d="M161 700v-700h-147v700h147zM-24 802v27h92v-19q0 -13 13 -13h14q13 0 13 13v19h92v-27q0 -39 -21.5 -60t-60.5 -21h-60q-39 0 -60.5 21t-21.5 60z" />
    <glyph glyph-name="ibreve" unicode="&#x12d;" horiz-adv-x="162" 
d="M12 0v577h139v-577h-139zM-29 679v36h92v-25q0 -13 13 -13h10q13 0 13 13v25h92v-36q0 -39 -21 -60.5t-60 -21.5h-58q-39 0 -60 21.5t-21 60.5z" />
    <glyph glyph-name="Iogonek" unicode="&#x12e;" horiz-adv-x="175" 
d="M161 700v-700h-22l-8 -13q-9 -14 -9 -22v-1q0 -8 9 -8h25v-72h-76q-53 0 -53 49v11q0 27 19 55v1h-32v700h147z" />
    <glyph glyph-name="iogonek" unicode="&#x12f;" horiz-adv-x="162" 
d="M12 0v577h139v-577h-22l-8 -13q-9 -14 -9 -22v-1q0 -8 9 -8h25v-72h-76q-53 0 -53 49v11q0 27 19 55v1h-24zM10 595v103h142v-103h-142z" />
    <glyph glyph-name="Idotaccent" unicode="&#x130;" horiz-adv-x="175" 
d="M161 700v-700h-147v700h147zM148 809v-86h-120v86h120z" />
    <glyph glyph-name="dotlessi" unicode="&#x131;" horiz-adv-x="162" 
d="M12 0v577h139v-577h-139z" />
    <glyph glyph-name="Kcommaaccent" unicode="&#x136;" horiz-adv-x="345" 
d="M349 0h-153l-35 281v-281h-148v700h148v-290l41 290h149l-57 -341zM231 -23v-100q0 -56 -47 -99l-24 -21l-34 20l13 18q23 33 24 60h-38v122h106z" />
    <glyph glyph-name="kcommaaccent" unicode="&#x137;" horiz-adv-x="339" 
d="M198 577h141l-61 -287l60 -290h-146l-42 261v-261h-139v707h139v-398zM223 -23v-100q0 -56 -47 -99l-24 -21l-34 20l13 18q23 33 24 60h-38v122h106z" />
    <glyph glyph-name="Lacute" unicode="&#x139;" horiz-adv-x="265" 
d="M33 723l43 99h143l-79 -99h-107zM13 700h148v-574h101v-126h-249v700z" />
    <glyph glyph-name="lacute" unicode="&#x13a;" horiz-adv-x="162" 
d="M27 730l39 115h143l-75 -115h-107zM11 0v707h139v-707h-139z" />
    <glyph glyph-name="Lcommaaccent" unicode="&#x13b;" horiz-adv-x="265" 
d="M13 700h148v-574h101v-126h-249v700zM191 -23v-100q0 -56 -47 -99l-24 -21l-34 20l13 18q23 33 24 60h-38v122h106z" />
    <glyph glyph-name="lcommaaccent" unicode="&#x13c;" horiz-adv-x="162" 
d="M11 0v707h139v-707h-139zM134 -23v-100q0 -56 -47 -99l-24 -21l-34 20l13 18q23 33 24 60h-38v122h106z" />
    <glyph glyph-name="Lcaron" unicode="&#x13d;" horiz-adv-x="265" 
d="M178 587v114h101l-29 -114h-72zM13 700h148v-574h101v-126h-249v700z" />
    <glyph glyph-name="lcaron" unicode="&#x13e;" horiz-adv-x="162" 
d="M168 593v114h101l-29 -114h-72zM11 0v707h139v-707h-139z" />
    <glyph glyph-name="Ldot" unicode="&#x13f;" horiz-adv-x="265" 
d="M254 408v-110h-76v110h76zM13 700h148v-574h101v-126h-249v700z" />
    <glyph glyph-name="ldot" unicode="&#x140;" horiz-adv-x="249" 
d="M243 410v-109h-75v109h75zM11 0v707h139v-707h-139z" />
    <glyph glyph-name="Lslash" unicode="&#x141;" horiz-adv-x="280" 
d="M28 700h148v-235l60 36v-124l-60 -36v-215h101v-126h-249v254l-28 -16v124l28 16v322z" />
    <glyph glyph-name="lslash" unicode="&#x142;" horiz-adv-x="193" 
d="M26 0v239l-27 -20v119l27 20v349h139v-253l29 23v-120l-29 -21v-336h-139z" />
    <glyph glyph-name="Nacute" unicode="&#x143;" horiz-adv-x="340" 
d="M192 0l-61 293l4 -293h-122v700h141l53 -267l-2 267h122v-700h-135zM116 723l43 99h143l-79 -99h-107z" />
    <glyph glyph-name="nacute" unicode="&#x144;" 
d="M11 0v577h137v-30q43 35 88 35q39 0 59.5 -23.5t20.5 -67.5v-491h-139v449q0 13 -13 13q-6 0 -14 -3v-459h-139zM110 600l39 115h143l-75 -115h-107z" />
    <glyph glyph-name="Ncommaaccent" unicode="&#x145;" horiz-adv-x="340" 
d="M192 0l-61 293l4 -293h-122v700h141l53 -267l-2 267h122v-700h-135zM224 -23v-100q0 -56 -47 -99l-24 -21l-34 20l13 18q23 33 24 60h-38v122h106z" />
    <glyph glyph-name="ncommaaccent" unicode="&#x146;" 
d="M11 0v577h137v-30q43 35 88 35q39 0 59.5 -23.5t20.5 -67.5v-491h-139v449q0 13 -13 13q-6 0 -14 -3v-459h-139zM217 -23v-100q0 -56 -47 -99l-24 -21l-34 20l13 18q23 33 24 60h-38v122h106z" />
    <glyph glyph-name="Ncaron" unicode="&#x147;" horiz-adv-x="340" 
d="M154 700l53 -267l-2 267h122v-700h-135l-61 293l4 -293h-122v700h141zM294 829l-61 -106h-124l-61 106h91l32 -30l32 30h91z" />
    <glyph glyph-name="ncaron" unicode="&#x148;" 
d="M11 0v577h137v-30q43 35 88 35q39 0 59.5 -23.5t20.5 -67.5v-491h-139v449q0 13 -13 13q-6 0 -14 -3v-459h-139zM287 715l-61 -115h-124l-61 115h91l32 -37l32 37h91z" />
    <glyph glyph-name="Omacron" unicode="&#x14c;" horiz-adv-x="353" 
d="M67 813h220v-84h-220v84zM341 125q0 -130 -130 -130h-69q-131 0 -131 130v450q0 130 131 130h69q130 0 130 -130v-450zM194 572q0 12 -12 12h-12q-11 0 -11 -12v-444q0 -12 11 -12h12q12 0 12 12v444z" />
    <glyph glyph-name="omacron" unicode="&#x14d;" 
d="M54 698h220v-92h-220v92zM168 465h-9q-9 0 -9 -9v-335q0 -10 9 -10h9q9 0 9 10v335q0 9 -9 9zM197 -5h-66q-120 0 -120 120v347q0 120 120 120h66q119 0 119 -120v-347q0 -120 -119 -120z" />
    <glyph glyph-name="Obreve" unicode="&#x14e;" horiz-adv-x="353" 
d="M65 802v27h92v-19q0 -13 13 -13h14q13 0 13 13v19h92v-27q0 -39 -21.5 -60t-60.5 -21h-60q-39 0 -60.5 21t-21.5 60zM341 125q0 -130 -130 -130h-69q-131 0 -131 130v450q0 130 131 130h69q130 0 130 -130v-450zM194 572q0 12 -12 12h-12q-11 0 -11 -12v-444
q0 -12 11 -12h12q12 0 12 12v444z" />
    <glyph glyph-name="obreve" unicode="&#x14f;" 
d="M168 465h-9q-9 0 -9 -9v-335q0 -10 9 -10h9q9 0 9 10v335q0 9 -9 9zM197 -5h-66q-120 0 -120 120v347q0 120 120 120h66q119 0 119 -120v-347q0 -120 -119 -120zM54 679v36h92v-25q0 -13 13 -13h10q13 0 13 13v25h92v-36q0 -39 -21 -60.5t-60 -21.5h-58q-39 0 -60 21.5
t-21 60.5z" />
    <glyph glyph-name="Ohungarumlaut" unicode="&#x150;" horiz-adv-x="353" 
d="M341 125q0 -130 -130 -130h-69q-131 0 -131 130v450q0 130 131 130h69q130 0 130 -130v-450zM192 723l25 67l-52 -67h-75l37 99h218l-78 -99h-75zM194 572q0 12 -12 12h-12q-11 0 -11 -12v-444q0 -12 11 -12h12q12 0 12 12v444z" />
    <glyph glyph-name="ohungarumlaut" unicode="&#x151;" 
d="M197 -5h-66q-120 0 -120 120v347q0 120 120 120h66q119 0 119 -120v-347q0 -120 -119 -120zM180 600l22 77l-49 -77h-75l33 115h217l-73 -115h-75zM168 465h-9q-9 0 -9 -9v-335q0 -10 9 -10h9q9 0 9 10v335q0 9 -9 9z" />
    <glyph glyph-name="OE" unicode="&#x152;" horiz-adv-x="462" 
d="M451 700v-126h-112v-157h108v-125h-108v-166h114v-126h-298q-144 0 -144 144v412q0 144 144 144h296zM192 122v456h-18q-15 0 -15 -16v-425q0 -15 15 -15h18z" />
    <glyph glyph-name="oe" unicode="&#x153;" horiz-adv-x="488" 
d="M325 582h33q119 0 119 -120v-229h-163v-115q0 -9 10 -9h10q10 0 10 9v88h133v-91q0 -120 -119 -120h-33q-57 0 -79 28q-26 -28 -79 -28h-37q-120 0 -120 120v347q0 120 120 120h37q53 0 79 -28q22 28 79 28zM168 465h-9q-10 0 -10 -9v-335q0 -10 10 -10h9q9 0 9 10v335
q0 9 -9 9zM314 458v-122h28v122q0 10 -9 10h-9q-10 0 -10 -10z" />
    <glyph glyph-name="Racute" unicode="&#x154;" horiz-adv-x="350" 
d="M272 325q68 -16 68 -86v-239h-148v252q0 12 -11 12h-20v-264h-148v700h195q131 0 131 -130v-145q0 -78 -67 -100zM191 565q0 12 -11 12h-19v-193h19q11 0 11 11v170zM122 723l43 99h143l-79 -99h-107z" />
    <glyph glyph-name="racute" unicode="&#x155;" horiz-adv-x="223" 
d="M55 600l39 115h143l-75 -115h-107zM11 0v577h137v-53q15 30 30.5 43.5t39.5 13.5v-155q-41 -3 -68 -22v-404h-139z" />
    <glyph glyph-name="Rcommaaccent" unicode="&#x156;" horiz-adv-x="350" 
d="M272 325q68 -16 68 -86v-239h-148v252q0 12 -11 12h-20v-264h-148v700h195q131 0 131 -130v-145q0 -78 -67 -100zM230 -23v-100q0 -56 -47 -99l-24 -21l-34 20l13 18q23 33 24 60h-38v122h106zM191 565q0 12 -11 12h-19v-193h19q11 0 11 11v170z" />
    <glyph glyph-name="rcommaaccent" unicode="&#x157;" horiz-adv-x="223" 
d="M11 0v577h137v-53q15 30 30.5 43.5t39.5 13.5v-155q-41 -3 -68 -22v-404h-139zM134 -23v-100q0 -56 -47 -99l-24 -21l-34 20l13 18q23 33 24 60h-38v122h106z" />
    <glyph glyph-name="Rcaron" unicode="&#x158;" horiz-adv-x="350" 
d="M300 829l-61 -106h-124l-61 106h91l32 -30l32 30h91zM272 325q68 -16 68 -86v-239h-148v252q0 12 -11 12h-20v-264h-148v700h195q131 0 131 -130v-145q0 -78 -67 -100zM191 565q0 12 -11 12h-19v-193h19q11 0 11 11v170z" />
    <glyph glyph-name="rcaron" unicode="&#x159;" horiz-adv-x="223" 
d="M232 715l-61 -115h-124l-61 115h91l32 -37l32 37h91zM11 0v577h137v-53q15 30 30.5 43.5t39.5 13.5v-155q-41 -3 -68 -22v-404h-139z" />
    <glyph glyph-name="Sacute" unicode="&#x15a;" horiz-adv-x="343" 
d="M279 371q54 -34 54 -110v-136q0 -130 -130 -130h-61q-130 0 -130 130v143h143v-143q0 -11 12 -11h9q12 0 12 11v122q0 13 -13 22l-109 69q-54 33 -54 110v127q0 130 130 130h59q131 0 131 -130v-133h-144v133q0 11 -11 11h-9q-11 0 -11 -11v-113q0 -14 12 -21zM119 723
l43 99h143l-79 -99h-107z" />
    <glyph glyph-name="sacute" unicode="&#x15b;" horiz-adv-x="314" 
d="M103 600l39 115h143l-75 -115h-107zM172 365v93q0 10 -9 10h-9q-9 0 -9 -10v-75q0 -14 14 -22l66 -35q45 -23 61.5 -47.5t16.5 -69.5v-94q0 -120 -119 -120h-53q-120 0 -120 120v100h131v-97q0 -9 9 -9h10q10 0 10 9v77q0 15 -15 23l-66 35q-45 24 -61.5 48.5t-16.5 68.5
v92q0 120 120 120h51q120 0 120 -120v-97h-131z" />
    <glyph glyph-name="Scedilla" unicode="&#x15e;" horiz-adv-x="343" 
d="M279 371q54 -34 54 -110v-136q0 -122 -113 -129l-20 -102h-125l50 102q-113 7 -113 129v143h143v-143q0 -11 12 -11h9q12 0 12 11v122q0 13 -13 22l-109 69q-54 33 -54 110v127q0 130 130 130h59q131 0 131 -130v-133h-144v133q0 11 -11 11h-9q-11 0 -11 -11v-113
q0 -14 12 -21z" />
    <glyph glyph-name="scedilla" unicode="&#x15f;" horiz-adv-x="314" 
d="M172 365v93q0 10 -9 10h-9q-9 0 -9 -10v-75q0 -14 14 -22l66 -35q45 -23 61.5 -47.5t16.5 -69.5v-94q0 -108 -97 -119l-20 -102h-125l50 102q-100 9 -100 119v100h131v-97q0 -9 9 -9h10q10 0 10 9v77q0 15 -15 23l-66 35q-45 24 -61.5 48.5t-16.5 68.5v92q0 120 120 120
h51q120 0 120 -120v-97h-131z" />
    <glyph glyph-name="Scaron" unicode="&#x160;" horiz-adv-x="343" 
d="M279 371q54 -34 54 -110v-136q0 -130 -130 -130h-61q-130 0 -130 130v143h143v-143q0 -11 12 -11h9q12 0 12 11v122q0 13 -13 22l-109 69q-54 33 -54 110v127q0 130 130 130h59q131 0 131 -130v-133h-144v133q0 11 -11 11h-9q-11 0 -11 -11v-113q0 -14 12 -21zM296 829
l-61 -106h-124l-61 106h91l32 -30l32 30h91z" />
    <glyph glyph-name="scaron" unicode="&#x161;" horiz-adv-x="314" 
d="M280 715l-61 -115h-124l-61 115h91l32 -37l32 37h91zM172 365v93q0 10 -9 10h-9q-9 0 -9 -10v-75q0 -14 14 -22l66 -35q45 -23 61.5 -47.5t16.5 -69.5v-94q0 -120 -119 -120h-53q-120 0 -120 120v100h131v-97q0 -9 9 -9h10q10 0 10 9v77q0 15 -15 23l-66 35
q-45 24 -61.5 48.5t-16.5 68.5v92q0 120 120 120h51q120 0 120 -120v-97h-131z" />
    <glyph glyph-name="Tcommaaccent" unicode="&#x162;" horiz-adv-x="312" 
d="M230 0h-148v574h-77v126h302v-126h-77v-574zM210 -23v-100q0 -56 -47 -99l-24 -21l-34 20l13 18q23 33 24 60h-38v122h106z" />
    <glyph glyph-name="Tcommaaccent" unicode="&#x21a;" horiz-adv-x="312" 
d="M230 0h-148v574h-77v126h302v-126h-77v-574zM210 -23v-100q0 -56 -47 -99l-24 -21l-34 20l13 18q23 33 24 60h-38v122h106z" />
    <glyph glyph-name="tcommaaccent" unicode="&#x163;" horiz-adv-x="223" 
d="M175 460v-460h-139v460h-32v117h32v78h139v-78h45v-117h-45zM158 -23v-100q0 -56 -47 -99l-24 -21l-34 20l13 18q23 33 24 60h-38v122h106z" />
    <glyph glyph-name="tcommaaccent" unicode="&#x21b;" horiz-adv-x="223" 
d="M175 460v-460h-139v460h-32v117h32v78h139v-78h45v-117h-45zM158 -23v-100q0 -56 -47 -99l-24 -21l-34 20l13 18q23 33 24 60h-38v122h106z" />
    <glyph glyph-name="Tcaron" unicode="&#x164;" horiz-adv-x="312" 
d="M280 829l-61 -106h-124l-61 106h91l32 -30l32 30h91zM230 0h-148v574h-77v126h302v-126h-77v-574z" />
    <glyph glyph-name="tcaron" unicode="&#x165;" horiz-adv-x="223" 
d="M192 593v114h101l-29 -114h-72zM175 460v-460h-139v460h-32v117h32v78h139v-78h45v-117h-45z" />
    <glyph glyph-name="Umacron" unicode="&#x16a;" horiz-adv-x="351" 
d="M66 813h220v-84h-220v84zM339 700v-575q0 -130 -130 -130h-66q-131 0 -131 130v575h148v-572q0 -12 11 -12h9q11 0 11 12v572h148z" />
    <glyph glyph-name="umacron" unicode="&#x16b;" 
d="M316 577v-577h-137v29q-44 -34 -88 -34q-80 0 -80 91v491h139v-449q0 -13 13 -13q4 0 14 2v460h139zM54 698h220v-92h-220v92z" />
    <glyph glyph-name="Ubreve" unicode="&#x16c;" horiz-adv-x="351" 
d="M64 802v27h92v-19q0 -13 13 -13h14q13 0 13 13v19h92v-27q0 -39 -21.5 -60t-60.5 -21h-60q-39 0 -60.5 21t-21.5 60zM339 700v-575q0 -130 -130 -130h-66q-131 0 -131 130v575h148v-572q0 -12 11 -12h9q11 0 11 12v572h148z" />
    <glyph glyph-name="ubreve" unicode="&#x16d;" 
d="M316 577v-577h-137v29q-44 -34 -88 -34q-80 0 -80 91v491h139v-449q0 -13 13 -13q4 0 14 2v460h139zM54 679v36h92v-25q0 -13 13 -13h10q13 0 13 13v25h92v-36q0 -39 -21 -60.5t-60 -21.5h-58q-39 0 -60 21.5t-21 60.5z" />
    <glyph glyph-name="Uring" unicode="&#x16e;" horiz-adv-x="351" 
d="M339 700v-575q0 -130 -130 -130h-66q-131 0 -131 130v575h148v-572q0 -12 11 -12h9q11 0 11 12v572h148zM285 781v-4q0 -56 -67 -56h-84q-66 0 -66 56v4q0 57 66 57h84q67 0 67 -57zM261 778v2q0 37 -43 37h-84q-43 0 -43 -37v-2q0 -37 43 -37h84q43 0 43 37z" />
    <glyph glyph-name="uring" unicode="&#x16f;" 
d="M316 577v-577h-137v29q-44 -34 -88 -34q-80 0 -80 91v491h139v-449q0 -13 13 -13q4 0 14 2v460h139zM253 662v-8q0 -57 -66 -57h-46q-66 0 -66 57v8q0 56 66 56h46q66 0 66 -56zM232 654v8q0 37 -45 37h-46q-45 0 -45 -37v-8q0 -38 45 -38h46q45 0 45 38z" />
    <glyph glyph-name="Uhungarumlaut" unicode="&#x170;" horiz-adv-x="351" 
d="M339 700v-575q0 -130 -130 -130h-66q-131 0 -131 130v575h148v-572q0 -12 11 -12h9q11 0 11 12v572h148zM192 723l25 67l-52 -67h-75l37 99h218l-78 -99h-75z" />
    <glyph glyph-name="uhungarumlaut" unicode="&#x171;" 
d="M316 577v-577h-137v29q-44 -34 -88 -34q-80 0 -80 91v491h139v-449q0 -13 13 -13q4 0 14 2v460h139zM180 600l22 77l-49 -77h-75l33 115h217l-73 -115h-75z" />
    <glyph glyph-name="Uogonek" unicode="&#x172;" horiz-adv-x="351" 
d="M339 700v-575q0 -124 -119 -130l-5 -8q-9 -14 -9 -22v-1q0 -8 9 -8h25v-72h-76q-53 0 -53 49v11q0 27 16 52q-115 6 -115 129v575h148v-572q0 -12 11 -12h9q11 0 11 12v572h148z" />
    <glyph glyph-name="uogonek" unicode="&#x173;" 
d="M316 577v-577h-21l-8 -13q-9 -14 -9 -22v-1q0 -8 9 -8h25v-72h-76q-53 0 -53 49v11q0 27 19 55v1h-23v29q-44 -34 -88 -34q-80 0 -80 91v491h139v-449q0 -13 13 -13q4 0 14 2v460h139z" />
    <glyph glyph-name="Wcircumflex" unicode="&#x174;" horiz-adv-x="501" 
d="M287 701v-1h43l22 -300l23 300h127l-74 -700h-151l-28 291l-26 -291h-151l-73 700h153l22 -300l23 300zM327 829l61 -106h-91l-32 30l-32 -30h-91l61 106h124z" />
    <glyph glyph-name="wcircumflex" unicode="&#x175;" horiz-adv-x="496" 
d="M223 0h-155l-66 577h133l20 -319l27 319h141l25 -316l22 316h124l-66 -577h-155l-25 260zM313 715l61 -115h-91l-32 37l-32 -37h-91l61 115h124z" />
    <glyph glyph-name="Ycircumflex" unicode="&#x176;" horiz-adv-x="326" 
d="M238 0h-148v229l-98 471h153l28 -225l30 225h133l-98 -463v-237zM236 829l61 -106h-91l-32 30l-32 -30h-91l61 106h124z" />
    <glyph glyph-name="ycircumflex" unicode="&#x177;" horiz-adv-x="328" 
d="M210 -100h-135l23 120l-100 557h141l13 -120q7 -63 15 -193h1q5 100 14 193l13 120h136zM230 715l61 -115h-91l-32 37l-32 -37h-91l61 115h124z" />
    <glyph glyph-name="Ydieresis" unicode="&#x178;" horiz-adv-x="326" 
d="M238 0h-148v229l-98 471h153l28 -225l30 225h133l-98 -463v-237zM183 723v99h106v-99h-106zM165 822v-99h-106v99h106z" />
    <glyph glyph-name="Zacute" unicode="&#x179;" horiz-adv-x="287" 
d="M129 574h-119v126h271v-126l-123 -448h123v-126h-276v126zM94 723l43 99h143l-79 -99h-107z" />
    <glyph glyph-name="zacute" unicode="&#x17a;" horiz-adv-x="271" 
d="M87 600l39 115h143l-75 -115h-107zM127 460h-117v117h255v-117l-121 -343h121v-117h-259v117z" />
    <glyph glyph-name="Zdotaccent" unicode="&#x17b;" horiz-adv-x="287" 
d="M208 809v-86h-120v86h120zM129 574h-119v126h271v-126l-123 -448h123v-126h-276v126z" />
    <glyph glyph-name="zdotaccent" unicode="&#x17c;" horiz-adv-x="271" 
d="M127 460h-117v117h255v-117l-121 -343h121v-117h-259v117zM200 703v-103h-118v103h118z" />
    <glyph glyph-name="Zcaron" unicode="&#x17d;" horiz-adv-x="287" 
d="M271 829l-61 -106h-124l-61 106h91l32 -30l32 30h91zM129 574h-119v126h271v-126l-123 -448h123v-126h-276v126z" />
    <glyph glyph-name="zcaron" unicode="&#x17e;" horiz-adv-x="271" 
d="M264 715l-61 -115h-124l-61 115h91l32 -37l32 37h91zM127 460h-117v117h255v-117l-121 -343h121v-117h-259v117z" />
    <glyph glyph-name="Aringacute" unicode="&#x1fa;" horiz-adv-x="345" 
d="M281 715v-4q0 -22 -12 -37l78 -674h-145l-8 96h-62l-7 -96h-127l77 675q-11 14 -11 36v4q0 57 67 57h84q66 0 66 -57zM121 790l43 99h143l-79 -99h-107zM258 712v2q0 37 -43 37h-84q-43 0 -43 -37v-2q0 -37 43 -37h84q43 0 43 37zM163 499l-21 -280h43z" />
    <glyph glyph-name="aringacute" unicode="&#x1fb;" horiz-adv-x="317" 
d="M9 76v156q0 41 15 62t56 35l89 32v98q0 10 -9 10h-8q-10 0 -10 -10v-92h-127v100q0 115 114 115h63q114 0 114 -115v-467h-135v31q-39 -36 -87 -36q-75 0 -75 81zM248 662v-8q0 -57 -66 -57h-46q-66 0 -66 57v8q0 56 66 56h46q66 0 66 -56zM107 733l39 115h143l-75 -115
h-107zM227 654v8q0 37 -45 37h-46q-45 0 -45 -37v-8q0 -38 45 -38h46q45 0 45 38zM154 108q5 0 15 2v143l-15 -7q-14 -7 -14 -26v-99q0 -13 14 -13z" />
    <glyph glyph-name="AEacute" unicode="&#x1fc;" horiz-adv-x="454" 
d="M97 700h347v-126h-113v-157h108v-125h-108v-166h114v-126h-262v96h-49l-11 -96h-128zM203 723l43 99h143l-79 -99h-107zM145 219h38v325z" />
    <glyph glyph-name="aeacute" unicode="&#x1fd;" horiz-adv-x="480" 
d="M317 582h33q119 0 119 -120v-229h-163v-115q0 -9 10 -9h10q10 0 10 9v88h133v-91q0 -120 -119 -120h-61q-71 0 -99 40l-11 -7q-46 -33 -95 -33q-75 0 -75 81v156q0 41 15 62t56 35l89 32v98q0 10 -9 10h-8q-10 0 -10 -10v-92h-127v100q0 115 114 115h30q53 0 79 -28
q24 28 79 28zM189 600l39 115h143l-75 -115h-107zM154 108q5 0 15 2v143l-15 -7q-14 -7 -14 -26v-99q0 -13 14 -13zM306 458v-122h28v122q0 10 -10 10h-8q-10 0 -10 -10z" />
    <glyph glyph-name="Oslashacute" unicode="&#x1fe;" horiz-adv-x="353" 
d="M341 125q0 -130 -130 -130h-69q-131 0 -131 130v451q0 130 131 130h69q130 0 130 -130v-451zM122 723l43 99h143l-79 -99h-107zM158 574l-2 -241l39 203v38q0 11 -12 11h-14q-11 0 -11 -11zM194 127l3 239l-39 -199v-40q0 -11 11 -11h14q11 0 11 11z" />
    <glyph glyph-name="oslashacute" unicode="&#x1ff;" 
d="M197 -5h-66q-120 0 -120 120v347q0 120 120 120h66q119 0 119 -120v-347q0 -120 -119 -120zM110 600l39 115h143l-75 -115h-107zM169 110q10 0 10 10l2 176l-32 -143v-33q0 -10 10 -10h10zM169 466h-11q-9 0 -9 -9l-3 -177l32 143v34q0 9 -9 9z" />
    <glyph glyph-name="Scommaaccent" unicode="&#x218;" horiz-adv-x="343" 
d="M279 371q54 -34 54 -110v-136q0 -130 -130 -130h-61q-130 0 -130 130v143h143v-143q0 -11 12 -11h9q12 0 12 11v122q0 13 -13 22l-109 69q-54 33 -54 110v127q0 130 130 130h59q131 0 131 -130v-133h-144v133q0 11 -11 11h-9q-11 0 -11 -11v-113q0 -14 12 -21zM226 -23
v-100q0 -56 -47 -99l-24 -21l-34 20l13 18q23 33 24 60h-38v122h106z" />
    <glyph glyph-name="scommaaccent" unicode="&#x219;" horiz-adv-x="314" 
d="M172 365v93q0 10 -9 10h-9q-9 0 -9 -10v-75q0 -14 14 -22l66 -35q45 -23 61.5 -47.5t16.5 -69.5v-94q0 -120 -119 -120h-53q-120 0 -120 120v100h131v-97q0 -9 9 -9h10q10 0 10 9v77q0 15 -15 23l-66 35q-45 24 -61.5 48.5t-16.5 68.5v92q0 120 120 120h51
q120 0 120 -120v-97h-131zM210 -23v-100q0 -56 -47 -99l-24 -21l-34 20l13 18q23 33 24 60h-38v122h106z" />
    <glyph glyph-name="schwa" unicode="&#x259;" horiz-adv-x="321" 
d="M9 114v229h163v115q0 9 -10 9h-10q-9 0 -9 -9v-88h-134v91q0 120 120 120h60q120 0 120 -120v-347q0 -120 -120 -120h-60q-120 0 -120 120zM162 108q10 0 10 10v122h-28v-122q0 -10 10 -10h8z" />
    <glyph glyph-name="circumflex" unicode="&#x2c6;" horiz-adv-x="434" 
d="M279 715l61 -115h-91l-32 37l-32 -37h-91l61 115h124z" />
    <glyph glyph-name="caron" unicode="&#x2c7;" horiz-adv-x="434" 
d="M340 715l-61 -115h-124l-61 115h91l32 -37l32 37h91z" />
    <glyph glyph-name="breve" unicode="&#x2d8;" horiz-adv-x="434" 
d="M107 679v36h92v-25q0 -13 13 -13h10q13 0 13 13v25h92v-36q0 -39 -21 -60.5t-60 -21.5h-58q-39 0 -60 21.5t-21 60.5z" />
    <glyph glyph-name="dotaccent" unicode="&#x2d9;" horiz-adv-x="434" 
d="M276 703v-103h-118v103h118z" />
    <glyph glyph-name="ring" unicode="&#x2da;" horiz-adv-x="434" 
d="M306 662v-8q0 -57 -66 -57h-46q-66 0 -66 57v8q0 56 66 56h46q66 0 66 -56zM285 654v8q0 37 -45 37h-46q-45 0 -45 -37v-8q0 -38 45 -38h46q45 0 45 38z" />
    <glyph glyph-name="ogonek" unicode="&#x2db;" horiz-adv-x="434" 
d="M206 20h91l-20 -33q-9 -14 -9 -22v-1q0 -8 9 -8h25v-72h-76q-53 0 -53 49v11q0 27 19 55z" />
    <glyph glyph-name="tilde" unicode="&#x2dc;" horiz-adv-x="434" 
d="M148 715h17q25 0 42 -9l28 -17q10 -6 15 -6q6 0 6 7v25h83v-61q0 -54 -53 -54h-17q-26 0 -42 10l-28 17q-14 6 -15 6q-6 0 -6 -7v-26h-83v62q0 53 53 53z" />
    <glyph glyph-name="hungarumlaut" unicode="&#x2dd;" horiz-adv-x="434" 
d="M211 600l22 77l-49 -77h-75l33 115h217l-73 -115h-75z" />
    <glyph glyph-name="commaaccent" unicode="&#x326;" horiz-adv-x="434" 
d="M271 -23v-100q0 -56 -47 -99l-24 -21l-34 20l13 18q23 33 24 60h-38v122h106z" />
    <glyph glyph-name="Wgrave" unicode="&#x1e80;" horiz-adv-x="501" 
d="M287 701v-1h43l22 -300l23 300h127l-74 -700h-151l-28 291l-26 -291h-151l-73 700h153l22 -300l23 300zM276 822l44 -99h-108l-79 99h143z" />
    <glyph glyph-name="wgrave" unicode="&#x1e81;" horiz-adv-x="496" 
d="M223 0h-155l-66 577h133l20 -319l27 319h141l25 -316l22 316h124l-66 -577h-155l-25 260zM268 715l39 -115h-108l-74 115h143z" />
    <glyph glyph-name="Wacute" unicode="&#x1e82;" horiz-adv-x="501" 
d="M287 701v-1h43l22 -300l23 300h127l-74 -700h-151l-28 291l-26 -291h-151l-73 700h153l22 -300l23 300h14zM210 723l43 99h143l-79 -99h-107z" />
    <glyph glyph-name="wacute" unicode="&#x1e83;" horiz-adv-x="496" 
d="M273 0l-25 260l-25 -260h-155l-66 577h133l20 -319l27 319h141l25 -316l22 316h124l-66 -577h-155zM197 600l39 115h143l-75 -115h-107z" />
    <glyph glyph-name="Wdieresis" unicode="&#x1e84;" horiz-adv-x="501" 
d="M287 701v-1h43l22 -300l23 300h127l-74 -700h-151l-28 291l-26 -291h-151l-73 700h153l22 -300l23 300zM274 723v99h106v-99h-106zM256 822v-99h-106v99h106z" />
    <glyph glyph-name="wdieresis" unicode="&#x1e85;" horiz-adv-x="496" 
d="M273 0l-25 260l-25 -260h-155l-66 577h133l20 -319l27 319h141l25 -316l22 316h124l-66 -577h-155zM242 715v-115h-104v115h104zM260 600v115h104v-115h-104z" />
    <glyph glyph-name="Ygrave" unicode="&#x1ef2;" horiz-adv-x="326" 
d="M238 0h-148v229l-98 471h153l28 -225l30 225h133l-98 -463v-237zM185 822l44 -99h-108l-79 99h143z" />
    <glyph glyph-name="ygrave" unicode="&#x1ef3;" horiz-adv-x="328" 
d="M210 -100h-135l23 120l-100 557h141l13 -120q7 -63 15 -193h1q5 100 14 193l13 120h136zM184 715l39 -115h-108l-74 115h143z" />
    <glyph glyph-name="enspace" unicode="&#x2002;" horiz-adv-x="500" 
 />
    <glyph glyph-name="emspace" unicode="&#x2003;" horiz-adv-x="1000" 
 />
    <glyph glyph-name="threeperemspace" unicode="&#x2004;" horiz-adv-x="333" 
 />
    <glyph glyph-name="fourperemspace" unicode="&#x2005;" horiz-adv-x="250" 
 />
    <glyph glyph-name="thinspace" unicode="&#x2009;" horiz-adv-x="133" 
 />
    <glyph glyph-name="hairspace" unicode="&#x200a;" horiz-adv-x="75" 
 />
    <glyph glyph-name="endash" unicode="&#x2013;" horiz-adv-x="328" 
d="M6 348h316v-102h-316v102z" />
    <glyph glyph-name="emdash" unicode="&#x2014;" horiz-adv-x="493" 
d="M6 348h481v-102h-481v102z" />
    <glyph glyph-name="quoteleft" unicode="&#x2018;" horiz-adv-x="163" 
d="M13 402v128q0 46 12.5 73.5t46.5 69.5l23 31l51 -21l-14 -23q-31 -52 -31 -90h46v-168h-134z" />
    <glyph glyph-name="quoteright" unicode="&#x2019;" horiz-adv-x="163" 
d="M150 700v-128q0 -46 -12.5 -73.5t-46.5 -69.5l-23 -31l-51 21l14 23q30 51 31 90h-46v168h134z" />
    <glyph glyph-name="quotesinglbase" unicode="&#x201a;" horiz-adv-x="160" 
d="M148 168v-128q0 -46 -12.5 -73.5t-46.5 -69.5l-23 -31l-51 21l14 23q30 51 31 90h-46v168h134z" />
    <glyph glyph-name="quotedblleft" unicode="&#x201c;" horiz-adv-x="298" 
d="M155 402v128q0 46 11.5 73t42.5 70l21 31l50 -21l-13 -23q-33 -56 -33 -90h46v-168h-125zM13 402v128q0 32 7 57.5t16 40.5t30 45l22 31l49 -21l-13 -23q-32 -57 -32 -90h45v-168h-124z" />
    <glyph glyph-name="quotedblright" unicode="&#x201d;" horiz-adv-x="298" 
d="M142 700v-128q0 -46 -11.5 -73t-42.5 -70l-21 -31l-50 21l13 23q32 56 33 90h-46v168h125zM284 700v-128q0 -32 -7 -57.5t-16 -40.5t-30 -45l-22 -31l-49 21l13 23q31 57 32 90h-45v168h124z" />
    <glyph glyph-name="quotedblbase" unicode="&#x201e;" horiz-adv-x="293" 
d="M139 168v-128q0 -46 -11.5 -73t-42.5 -70l-21 -31l-50 21l13 23q32 56 33 90h-46v168h125zM281 168v-128q0 -32 -7 -57.5t-16 -40.5t-30 -45l-22 -31l-49 21l13 23q31 57 32 90h-45v168h124z" />
    <glyph glyph-name="dagger" unicode="&#x2020;" horiz-adv-x="231" 
d="M76 353l2 195l-72 -2v75l72 -2l-2 82h79l-2 -82l72 2v-75l-73 2l3 -195h-79z" />
    <glyph glyph-name="daggerdbl" unicode="&#x2021;" horiz-adv-x="231" 
d="M225 621v-75l-72 2l2 -95l-2 -91l72 3v-76l-72 2l2 -82h-79l2 82l-72 -2v76l72 -3l-2 91l2 95l-72 -2v75l72 -2l-2 82h79l-2 -82z" />
    <glyph glyph-name="bullet" unicode="&#x2022;" horiz-adv-x="228" 
d="M212 402v-97q0 -78 -78 -78h-40q-38 0 -58 20.5t-20 57.5v97q0 38 20 58.5t58 20.5h40q78 0 78 -79z" />
    <glyph glyph-name="ellipsis" unicode="&#x2026;" horiz-adv-x="472" 
d="M147 168v-168h-134v168h134zM303 168v-168h-134v168h134zM459 168v-168h-134v168h134z" />
    <glyph glyph-name="guilsinglleft" unicode="&#x2039;" horiz-adv-x="191" 
d="M3 293l70 170h112l-52 -170l52 -169h-112z" />
    <glyph glyph-name="guilsinglright" unicode="&#x203a;" horiz-adv-x="191" 
d="M117 463l70 -170l-70 -169h-112l52 169l-52 170h112z" />
    <glyph glyph-name="Euro" unicode="&#x20ac;" horiz-adv-x="358" 
d="M4 441h32v134q0 130 131 130h51q131 0 130 -130v-113h-140v110q0 12 -11 12h-6q-11 0 -11 -12v-131h125v-78h-125v-17h125v-78h-125v-140q0 -12 11 -12h8q11 0 11 12v118h140v-121q0 -130 -130 -130h-53q-131 0 -131 130v143h-32v78h32v17h-32v78z" />
    <glyph glyph-name="published" unicode="&#x2117;" horiz-adv-x="439" 
d="M214 260v-191h-115v563h145q100 0 100 -100v-173q0 -99 -99 -99h-31zM233 528q0 9 -9 9h-10v-184h10q9 0 9 9v166zM418 540v-380q0 -88 -37.5 -126.5t-118.5 -38.5h-85q-81 0 -118.5 38.5t-37.5 126.5v380q0 88 37.5 126.5t118.5 38.5h85q81 0 118.5 -38.5t37.5 -126.5z
M396 160v380q0 79 -31 111.5t-103 32.5h-85q-72 0 -103 -32.5t-31 -111.5v-380q0 -79 31 -111.5t103 -32.5h85q72 0 103 32.5t31 111.5z" />
    <glyph glyph-name="servicemark" unicode="&#x2120;" horiz-adv-x="466" 
d="M90 484v-65q0 -6 5 -6h12q6 0 6 6v54q0 8 -7 12l-61 36q-28 17 -28 54v63q0 65 68 65h34q71 0 71 -65v-62h-73v60q0 6 -7 6h-10q-7 0 -7 -6v-53q0 -6 7 -10l60 -35q30 -16 30 -54v-67q0 -64 -71 -64h-34q-68 0 -68 64v67h73zM312 700l15 -190l14 190h106v-345h-74v222h-1
l-22 -222h-62l-20 222h-2v-222h-60v345h106z" />
    <glyph glyph-name="trademark" unicode="&#x2122;" horiz-adv-x="459" 
d="M305 700l15 -190l14 190h106v-344h-74v221h-1l-22 -221h-62l-20 221h-2v-221h-60v344h106zM135 356h-77v276h-48v68h173v-68h-48v-276z" />
    <glyph glyph-name="minus" unicode="&#x2212;" horiz-adv-x="290" 
d="M5 406h280v-105h-280v105z" />
    <glyph glyph-name="f_f" unicode="&#xfb00;" horiz-adv-x="415" 
d="M227 577v29q0 101 101 101h83v-101h-34q-19 0 -19 -19v-10h53v-117h-45v-460h-139v460h-57v-460h-139v460h-27v117h27v29q0 101 101 101h83v-101h-34q-19 0 -19 -19v-10h65z" />
    <glyph glyph-name="fi" unicode="&#xfb01;" horiz-adv-x="381" 
d="M31 577v29q0 101 101 101h83v-101h-34q-19 0 -19 -19v-10h53v-117h-45v-460h-139v460h-27v117h27zM229 595v103h142v-103h-142zM231 0v577h139v-577h-139z" />
    <glyph glyph-name="fl" unicode="&#xfb02;" horiz-adv-x="381" 
d="M31 577v29q0 101 101 101h83v-101h-34q-19 0 -19 -19v-10h53v-117h-45v-460h-139v460h-27v117h27zM230 0v707h139v-707h-139z" />
    <glyph glyph-name="f_f_i" unicode="&#xfb03;" horiz-adv-x="577" 
d="M227 577v29q0 101 101 101h83v-101h-34q-19 0 -19 -19v-10h53v-117h-45v-460h-139v460h-57v-460h-139v460h-27v117h27v29q0 101 101 101h83v-101h-34q-19 0 -19 -19v-10h65zM427 0v577h139v-577h-139zM425 595v103h142v-103h-142z" />
    <glyph glyph-name="f_f_l" unicode="&#xfb04;" horiz-adv-x="577" 
d="M227 577v29q0 101 101 101h83v-101h-34q-19 0 -19 -19v-10h53v-117h-45v-460h-139v460h-57v-460h-139v460h-27v117h27v29q0 101 101 101h83v-101h-34q-19 0 -19 -19v-10h65zM426 0v707h139v-707h-139z" />
    <glyph glyph-name="Q.alt" horiz-adv-x="353" 
d="M142 -1q-131 0 -131 130v446q0 130 131 130h69q130 0 130 -130v-383q0 -54 -11 -81.5t-44 -45.5l1 -4q36 6 56 6h5v-68h-206zM170 111h12q12 0 12 12v449q0 12 -12 12h-12q-11 0 -11 -12v-449q0 -12 11 -12z" />
    <glyph glyph-name="a.alt" 
d="M316 577v-577h-137v29q-44 -34 -88 -34q-80 0 -80 91v405q0 91 80 91q44 0 86 -32v27h139zM177 117v342q-8 3 -14 3q-13 0 -13 -13v-321q0 -13 13 -13q4 0 14 2z" />
    <glyph glyph-name="y.alt" horiz-adv-x="328" 
d="M210 -100h-135l23 120l-100 557h141l13 -120q7 -63 15 -193h1q5 100 14 193l13 120h136z" />
    <glyph glyph-name="aacute.alt" 
d="M316 577v-577h-137v29q-44 -34 -88 -34q-80 0 -80 91v405q0 91 80 91q44 0 86 -32v27h139zM116 600l39 115h143l-75 -115h-107zM177 117v342q-8 3 -14 3q-13 0 -13 -13v-321q0 -13 13 -13q4 0 14 2z" />
    <glyph glyph-name="abreve.alt" 
d="M316 577v-577h-137v29q-44 -34 -88 -34q-80 0 -80 91v405q0 91 80 91q44 0 86 -32v27h139zM60 679v36h92v-25q0 -13 13 -13h10q13 0 13 13v25h92v-36q0 -39 -21 -60.5t-60 -21.5h-58q-39 0 -60 21.5t-21 60.5zM177 117v342q-8 3 -14 3q-13 0 -13 -13v-321q0 -13 13 -13
q4 0 14 2z" />
    <glyph glyph-name="acircumflex.alt" 
d="M316 577v-577h-137v29q-44 -34 -88 -34q-80 0 -80 91v405q0 91 80 91q44 0 86 -32v27h139zM232 715l61 -115h-91l-32 37l-32 -37h-91l61 115h124zM177 117v342q-8 3 -14 3q-13 0 -13 -13v-321q0 -13 13 -13q4 0 14 2z" />
    <glyph glyph-name="adieresis.alt" 
d="M316 577v-577h-137v29q-44 -34 -88 -34q-80 0 -80 91v405q0 91 80 91q44 0 86 -32v27h139zM161 715v-115h-104v115h104zM179 600v115h104v-115h-104zM177 117v342q-8 3 -14 3q-13 0 -13 -13v-321q0 -13 13 -13q4 0 14 2z" />
    <glyph glyph-name="agrave.alt" 
d="M316 577v-577h-137v29q-44 -34 -88 -34q-80 0 -80 91v405q0 91 80 91q44 0 86 -32v27h139zM186 715l39 -115h-108l-74 115h143zM177 117v342q-8 3 -14 3q-13 0 -13 -13v-321q0 -13 13 -13q4 0 14 2z" />
    <glyph glyph-name="amacron.alt" 
d="M316 577v-577h-137v29q-44 -34 -88 -34q-80 0 -80 91v405q0 91 80 91q44 0 86 -32v27h139zM60 698h220v-92h-220v92zM177 117v342q-8 3 -14 3q-13 0 -13 -13v-321q0 -13 13 -13q4 0 14 2z" />
    <glyph glyph-name="aogonek.alt" 
d="M316 577v-577h-21l-8 -13q-9 -14 -9 -22v-1q0 -8 9 -8h25v-72h-76q-53 0 -53 49v11q0 27 19 55v1h-23v29q-44 -34 -88 -34q-80 0 -80 91v405q0 91 80 91q44 0 86 -32v27h139zM177 117v342q-8 3 -14 3q-13 0 -13 -13v-321q0 -13 13 -13q4 0 14 2z" />
    <glyph glyph-name="aring.alt" 
d="M316 577v-577h-137v29q-44 -34 -88 -34q-80 0 -80 91v405q0 91 80 91q44 0 86 -32v27h139zM259 662v-8q0 -57 -66 -57h-46q-66 0 -66 57v8q0 56 66 56h46q66 0 66 -56zM238 654v8q0 37 -45 37h-46q-45 0 -45 -37v-8q0 -38 45 -38h46q45 0 45 38zM177 117v342q-8 3 -14 3
q-13 0 -13 -13v-321q0 -13 13 -13q4 0 14 2z" />
    <glyph glyph-name="aringacute.alt" 
d="M316 577v-577h-137v29q-44 -34 -88 -34q-80 0 -80 91v405q0 91 80 91q44 0 86 -32v27h139zM259 662v-8q0 -57 -66 -57h-46q-66 0 -66 57v8q0 56 66 56h46q66 0 66 -56zM118 733l39 115h143l-75 -115h-107zM238 654v8q0 37 -45 37h-46q-45 0 -45 -37v-8q0 -38 45 -38h46
q45 0 45 38zM177 117v342q-8 3 -14 3q-13 0 -13 -13v-321q0 -13 13 -13q4 0 14 2z" />
    <glyph glyph-name="atilde.alt" 
d="M316 577v-577h-137v29q-44 -34 -88 -34q-80 0 -80 91v405q0 91 80 91q44 0 86 -32v27h139zM101 715h17q25 0 42 -9l28 -17q11 -6 15 -6q6 0 6 7v25h83v-61q0 -54 -53 -54h-17q-26 0 -42 10l-28 17q-14 6 -15 6q-6 0 -6 -7v-26h-83v62q0 53 53 53zM177 117v342q-8 3 -14 3
q-13 0 -13 -13v-321q0 -13 13 -13q4 0 14 2z" />
    <glyph glyph-name="Gcommaaccent.alt" horiz-adv-x="353" 
d="M128 -41v18h102v-19q0 -67 -45 -114h-86q29 50 29 115zM195 276h-20v119h166v-270q0 -130 -130 -130h-69q-131 0 -131 130v450q0 130 131 130h67q131 0 131 -130v-143h-146v140q0 12 -13 12h-11q-11 0 -11 -12v-443q0 -13 11 -13h14q11 0 11 12v148z" />
    <glyph glyph-name="gcommaaccent.alt" 
d="M316 577v-575q0 -106 -106 -106h-94q-54 0 -78.5 23.5t-24.5 76.5v34h128v-27q0 -13 13 -13h12q13 0 13 13v75q-41 -33 -88 -33q-80 0 -80 91v355q0 91 80 91q43 0 88 -33v28h137zM211 619v-18h-102v19q0 66 45 113h86q-29 -50 -29 -114zM177 165v294q-8 3 -14 3
q-13 0 -13 -13v-274q0 -13 13 -13q6 0 14 3z" />
    <glyph glyph-name="Kcommaaccent.alt" horiz-adv-x="345" 
d="M349 0h-153l-35 281v-281h-148v700h148v-290l41 290h149l-57 -341zM130 -41v18h101v-19q0 -68 -44 -114h-86q29 50 29 115z" />
    <glyph glyph-name="kcommaaccent.alt" horiz-adv-x="339" 
d="M198 577h141l-61 -287l60 -290h-146l-42 261v-261h-139v707h139v-398zM122 -41v18h101v-19q0 -67 -45 -114h-85q29 53 29 115z" />
    <glyph glyph-name="Lcommaaccent.alt" horiz-adv-x="265" 
d="M89 -41v18h102v-19q0 -67 -45 -114h-86q29 50 29 115zM13 700h148v-574h101v-126h-249v700z" />
    <glyph glyph-name="lcommaaccent.alt" horiz-adv-x="162" 
d="M33 -41v18h101v-19q0 -68 -44 -114h-86q29 53 29 115zM11 0v707h139v-707h-139z" />
    <glyph glyph-name="Ncommaaccent.alt" horiz-adv-x="340" 
d="M192 0l-61 293l4 -293h-122v700h141l53 -267l-2 267h122v-700h-135zM122 -41v18h102v-19q0 -67 -45 -114h-86q29 50 29 115z" />
    <glyph glyph-name="ncommaaccent.alt" 
d="M11 0v577h137v-30q43 35 88 35q39 0 59.5 -23.5t20.5 -67.5v-491h-139v449q0 13 -13 13q-6 0 -14 -3v-459h-139zM116 -41v18h101v-19q0 -67 -45 -114h-85q29 53 29 115z" />
    <glyph glyph-name="Oslash.alt" horiz-adv-x="353" 
d="M341 125q0 -130 -130 -130h-62q-14 0 -34 2l-8 -25h-94l23 67q-25 34 -25 93v444q0 130 131 130h62q13 0 33 -2l8 25h94l-23 -68q25 -34 25 -92v-444zM158 574l-2 -241l39 203v38q0 11 -12 11h-14q-11 0 -11 -11zM194 127l3 239l-39 -199v-40q0 -11 11 -11h14q11 0 11 11
z" />
    <glyph glyph-name="oslash.alt" 
d="M197 -5h-61q-15 0 -37 4l-9 -27h-74l22 58q-27 30 -27 90v342q0 120 120 120h60q15 0 37 -4l9 26h74l-23 -58q28 -31 28 -89v-342q0 -120 -119 -120zM169 110q10 0 10 10l2 176l-32 -143v-33q0 -10 10 -10h10zM169 466h-11q-9 0 -9 -9l-3 -177l32 143v34q0 9 -9 9z" />
    <glyph glyph-name="Oslashacute.alt" horiz-adv-x="353" 
d="M341 125q0 -130 -130 -130h-62q-14 0 -34 2l-8 -25h-94l23 67q-25 34 -25 93v444q0 130 131 130h62q13 0 33 -2l8 25h94l-23 -68q25 -34 25 -92v-444zM119 723l43 99h143l-79 -99h-107zM158 574l-2 -241l39 203v38q0 11 -12 11h-14q-11 0 -11 -11zM194 127l3 239
l-39 -199v-40q0 -11 11 -11h14q11 0 11 11z" />
    <glyph glyph-name="oslashacute.alt" 
d="M197 -5h-61q-15 0 -37 4l-9 -27h-74l22 58q-27 30 -27 90v342q0 120 120 120h60q15 0 37 -4l9 26h74l-23 -58q28 -31 28 -89v-342q0 -120 -119 -120zM106 600l39 115h143l-75 -115h-107zM169 110q10 0 10 10l2 176l-32 -143v-33q0 -10 10 -10h10zM169 466h-11q-9 0 -9 -9
l-3 -177l32 143v34q0 9 -9 9z" />
    <glyph glyph-name="Rcommaaccent.alt" horiz-adv-x="350" 
d="M128 -41v18h102v-19q0 -67 -45 -114h-86q29 50 29 115zM272 325q68 -16 68 -86v-239h-148v252q0 12 -11 12h-20v-264h-148v700h195q131 0 131 -130v-145q0 -78 -67 -100zM191 565q0 12 -11 12h-19v-193h19q11 0 11 11v170z" />
    <glyph glyph-name="rcommaaccent.alt" horiz-adv-x="223" 
d="M32 -41v18h102v-19q0 -67 -45 -114h-86q29 50 29 115zM11 0v577h137v-53q15 30 30.5 43.5t39.5 13.5v-155q-41 -3 -68 -22v-404h-139z" />
    <glyph glyph-name="Scommaaccent.alt" horiz-adv-x="342" 
d="M125 -41v18h101v-19q0 -68 -44 -114h-86q29 50 29 115zM279 371q54 -34 54 -110v-136q0 -130 -130 -130h-61q-130 0 -130 130v143h143v-143q0 -11 12 -11h9q12 0 12 11v122q0 13 -13 22l-109 69q-54 33 -54 110v127q0 130 130 130h59q131 0 131 -130v-133h-144v133
q0 11 -11 11h-9q-11 0 -11 -11v-113q0 -14 12 -21z" />
    <glyph glyph-name="scommaaccent.alt" horiz-adv-x="314" 
d="M109 -41v18h101v-19q0 -67 -45 -114h-85q29 53 29 115zM172 365v93q0 10 -9 10h-9q-9 0 -9 -10v-75q0 -14 14 -22l66 -35q45 -23 61.5 -47.5t16.5 -69.5v-94q0 -120 -119 -120h-53q-120 0 -120 120v100h131v-97q0 -9 9 -9h10q10 0 10 9v77q0 15 -15 23l-66 35
q-45 24 -61.5 48.5t-16.5 68.5v92q0 120 120 120h51q120 0 120 -120v-97h-131z" />
    <glyph glyph-name="Tcommaaccent.alt" horiz-adv-x="312" 
d="M108 -41v18h102v-19q0 -67 -45 -114h-86q29 50 29 115zM230 0h-148v574h-77v126h302v-126h-77v-574z" />
    <glyph glyph-name="tcommaaccent.alt" horiz-adv-x="223" 
d="M56 -41v18h102v-19q0 -67 -45 -114h-86q29 50 29 115zM175 460v-460h-139v460h-32v117h32v78h139v-78h45v-117h-45z" />
    <glyph glyph-name="yacute.alt" horiz-adv-x="328" 
d="M210 -100h-135l23 120l-100 557h141l13 -120q7 -63 15 -193h1q5 100 14 193l13 120h136zM113 600l39 115h143l-75 -115h-107z" />
    <glyph glyph-name="ycircumflex.alt" horiz-adv-x="328" 
d="M210 -100h-135l23 120l-100 557h141l13 -120q7 -63 15 -193h1q5 100 14 193l13 120h136zM230 715l61 -115h-91l-32 37l-32 -37h-91l61 115h124z" />
    <glyph glyph-name="ydieresis.alt" horiz-adv-x="328" 
d="M210 -100h-135l23 120l-100 557h141l13 -120q7 -63 15 -193h1q5 100 14 193l13 120h136zM177 600v115h104v-115h-104zM159 715v-115h-104v115h104z" />
    <glyph glyph-name="ygrave.alt" horiz-adv-x="328" 
d="M210 -100h-135l23 120l-100 557h141l13 -120q7 -63 15 -193h1q5 100 14 193l13 120h136zM184 715l39 -115h-108l-74 115h143z" />
    <glyph glyph-name="comma.alt" horiz-adv-x="160" 
d="M147 168v-32q0 -117 -38 -247h-108q22 108 22 240v39h124z" />
    <glyph glyph-name="semicolon.alt" horiz-adv-x="160" 
d="M147 168v-32q0 -115 -37 -247h-108q21 103 21 240v39h124zM147 576v-168h-134v168h134z" />
    <glyph glyph-name="colon.fig" horiz-adv-x="160" 
d="M147 322v-168h-134v168h134zM147 546v-168h-134v168h134z" />
    <glyph glyph-name="ampersand.alt" horiz-adv-x="359" 
d="M354 301h-27v-176q0 -130 -130 -130h-55q-131 0 -131 130v144q0 42 11 61.5t41 33.5q-28 17 -39 39.5t-11 68.5v103q0 130 130 130h52q131 0 131 -130v-110h-142v109q0 11 -11 11h-4q-11 0 -11 -11v-142q0 -11 11 -11h185v-120zM156 290v-164q0 -11 12 -11h7q11 0 11 11
v175h-18q-12 0 -12 -11z" />
    <glyph glyph-name="quotedblleft.alt" horiz-adv-x="298" 
d="M155 421v32q0 121 37 247h101q-20 -98 -20 -240v-39h-118zM13 421v32q0 115 37 247h103q-23 -107 -23 -240v-39h-117z" />
    <glyph glyph-name="quotedblright.alt" horiz-adv-x="298" 
d="M142 700v-32q0 -121 -37 -247h-101q20 98 20 240v39h118zM284 700v-32q0 -115 -37 -247h-103q23 107 23 240v39h117z" />
    <glyph glyph-name="quoteleft.alt" horiz-adv-x="163" 
d="M14 421v32q0 121 37 247h108q-21 -102 -21 -240v-39h-124z" />
    <glyph glyph-name="quoteright.alt" horiz-adv-x="163" 
d="M150 700v-32q0 -117 -38 -247h-108q22 108 22 240v39h124z" />
    <glyph glyph-name="quotedblbase.alt" horiz-adv-x="298" 
d="M139 168v-32q0 -121 -37 -247h-101q20 97 20 240v39h118zM281 168v-32q0 -115 -37 -247h-103q23 105 23 240v39h117z" />
    <glyph glyph-name="quotesinglbase.alt" horiz-adv-x="160" 
d="M147 168v-32q0 -115 -37 -247h-108q21 103 21 240v39h124z" />
    <glyph glyph-name="guillemotleft.cap" horiz-adv-x="270" 
d="M3 355l61 182h88l-43 -182l43 -180h-88zM125 355l53 182h89l-36 -182l36 -180h-89z" />
    <glyph glyph-name="guillemotright.cap" horiz-adv-x="270" 
d="M206 537l61 -182l-61 -180h-88l43 180l-43 182h88zM92 537l53 -182l-53 -180h-89l36 180l-36 182h89z" />
    <glyph glyph-name="guilsinglleft.cap" horiz-adv-x="192" 
d="M3 355l73 182h112l-55 -182l55 -180h-112z" />
    <glyph glyph-name="guilsinglright.cap" horiz-adv-x="192" 
d="M115 537l73 -182l-73 -180h-112l55 180l-55 182h112z" />
    <glyph glyph-name="hyphen.cap" horiz-adv-x="215" 
d="M6 419h203v-128h-203v128z" />
    <glyph glyph-name="endash.cap" horiz-adv-x="328" 
d="M6 406h316v-102h-316v102z" />
    <glyph glyph-name="emdash.cap" horiz-adv-x="493" 
d="M6 406h481v-102h-481v102z" />
    <glyph glyph-name="at.alt" horiz-adv-x="463" 
d="M392 75h-73q-26 0 -40 9.5t-27 31.5q-32 -41 -81 -41q-72 0 -72 78v151q0 36 13.5 54.5t50.5 31.5l77 26v107q0 8 -7 8h-8q-9 0 -9 -8v-97h-113v102q0 102 102 102h54q102 0 102 -102v-399q0 -17 17 -17h14q17 0 17 17v420q0 69 -26 97.5t-93 28.5h-116q-67 0 -93 -28.5
t-26 -97.5v-397q0 -69 26 -97.5t93 -28.5h227v-35h-227q-84 0 -120 38t-36 123v397q0 85 36 122.5t120 37.5h116q84 0 119.5 -36.5t35.5 -123.5v-420q0 -54 -53 -54zM227 175q10 0 13 1v145l-12 -5q-15 -6 -15 -26v-104q0 -11 14 -11z" />
    <glyph glyph-name="registered.alt" horiz-adv-x="439" 
d="M296 333q51 -13 51 -65v-199h-115v208q0 8 -7 8h-12v-216h-114v563h147q100 0 100 -100v-121q0 -62 -50 -78zM231 529q0 8 -7 8h-11v-159h11q7 0 7 9v142zM418 540v-380q0 -88 -37.5 -126.5t-118.5 -38.5h-85q-81 0 -118.5 38.5t-37.5 126.5v380q0 88 37.5 126.5
t118.5 38.5h85q81 0 118.5 -38.5t37.5 -126.5zM396 160v380q0 79 -31 111.5t-103 32.5h-85q-72 0 -103 -32.5t-31 -111.5v-380q0 -79 31 -111.5t103 -32.5h85q72 0 103 32.5t31 111.5z" />
    <glyph glyph-name="percent.alt" horiz-adv-x="415" 
d="M121 273h-32q-80 0 -80 79v274q0 79 80 79h42q81 0 81 -79v-144l56 220h82l-81 -274q12 3 25 3h32q80 0 80 -79v-278q0 -79 -80 -79h-42q-81 0 -81 79v146l-56 -222h-82l80 278q-12 -3 -24 -3zM119 622h-10q-8 0 -8 -7v-254q0 -7 8 -7h10q7 0 7 7v254q0 7 -7 7zM306 349
h-10q-7 0 -7 -7v-257q0 -7 7 -7h10q7 0 7 7v257q0 7 -7 7z" />
    <glyph glyph-name="NUL" horiz-adv-x="0" 
 />
    <glyph glyph-name="hfjslug" horiz-adv-x="694" 
d="M644 -200h-208l-8 14h-163l-8 -14h-207v303q14 0 23 9.5t9 22.5t-9.5 22.5t-22.5 9.5v554h100l30 79h334l29 -79h101v-921zM400 563v-172h15v78h38v14h-38v66h43v14h-58zM184 563v-172h15v79h47v-79h15v172h-15v-79h-47v79h-15zM460 394q10 -4 21 -4q31 0 31 36v137h-16
v-137q0 -22 -16 -22q-8 0 -20 5v-15zM371 465l-13 3q-4 -18 -8 -30h-1l-16 31q23 21 23 42q0 31 -27 31q-12 0 -20 -9t-8 -22t14 -39q-23 -18 -23 -47q0 -16 8 -26.5t21 -10.5q19 0 29 24h1l12 -24l12 6l-17 32q6 14 13 39zM523 323v-46h8v12l8 8l15 -20h10l-20 26l18 20
h-10l-20 -24h-1v24h-8zM488 292l10 -15h9l-12 17q10 4 10 14q0 15 -17 15h-20v-46h8v15h12zM426 276q10 0 17 7t7 17q0 9 -7 16.5t-17 7.5t-17 -7.5t-7 -16.5q0 -10 7 -17t17 -7zM370 301l-13 22h-9l18 -29v-17h8v17l18 29h-9zM193 323v-46h34v7h-26v13h23v7h-23v12h26v7
h-34zM132 323v-46h8v32l25 -32h7v46h-8v-32l-25 32h-7zM241 323l14 -47h8l11 34h1l11 -34h8l14 47h-8l-10 -35h-1l-11 35h-7l-11 -35h-1l-10 35h-8zM327 479q-12 22 -12 32q0 19 14 19q13 0 13 -19q0 -15 -15 -32zM342 423q-8 -21 -20 -21q-16 0 -16 25q0 19 16 35zM487 299
h-11v17h11q10 0 10 -8q0 -9 -10 -9zM426 283q-16 0 -16 17q0 6 4.5 11.5t11.5 5.5t11.5 -5.5t4.5 -11.5q0 -17 -16 -17z" />
    <glyph glyph-name="i.dot" horiz-adv-x="162" 
d="M10 595v103h142v-103h-142zM12 0v577h139v-577h-139z" />
    <glyph glyph-name="caron.alt" horiz-adv-x="434" 
d="M170 593v114h101l-29 -114h-72z" />
    <glyph glyph-name="acute.cap" horiz-adv-x="434" 
d="M141 723l43 99h143l-79 -99h-107z" />
    <glyph glyph-name="hungarumlaut.cap" horiz-adv-x="434" 
d="M211 723l25 67l-52 -67h-75l37 99h218l-78 -99h-75z" />
    <glyph glyph-name="grave.cap" horiz-adv-x="434" 
d="M267 822l44 -99h-108l-79 99h143z" />
    <glyph glyph-name="circumflex.cap" horiz-adv-x="434" 
d="M279 829l61 -106h-91l-32 30l-32 -30h-91l61 106h124z" />
    <glyph glyph-name="caron.cap" horiz-adv-x="434" 
d="M340 829l-61 -106h-124l-61 106h91l32 -30l32 30h91z" />
    <glyph glyph-name="breve.cap" horiz-adv-x="434" 
d="M105 802v27h92v-19q0 -13 13 -13h14q13 0 13 13v19h92v-27q0 -39 -21.5 -60t-60.5 -21h-60q-39 0 -60.5 21t-21.5 60z" />
    <glyph glyph-name="tilde.cap" horiz-adv-x="434" 
d="M146 830h20q22 0 42 -10l25 -12q14 -8 18 -8h1q6 0 6 7v23h82v-53q0 -54 -52 -54h-20q-19 0 -42 10l-25 13q-13 7 -18 7h-1q-6 0 -6 -7v-23h-82v53q0 54 52 54z" />
    <glyph glyph-name="macron.cap" horiz-adv-x="434" 
d="M107 813h220v-84h-220v84z" />
    <glyph glyph-name="dieresis.cap" horiz-adv-x="434" 
d="M226 723v99h106v-99h-106zM208 822v-99h-106v99h106z" />
    <glyph glyph-name="dotaccent.cap" horiz-adv-x="434" 
d="M277 809v-86h-120v86h120z" />
    <glyph glyph-name="ring.cap" horiz-adv-x="434" 
d="M326 781v-4q0 -56 -67 -56h-84q-66 0 -66 56v4q0 57 66 57h84q67 0 67 -57zM302 778v2q0 37 -43 37h-84q-43 0 -43 -37v-2q0 -37 43 -37h84q43 0 43 37z" />
    <glyph glyph-name="commaaccent.alt" horiz-adv-x="434" 
d="M170 -41v18h101v-19q0 -68 -44 -114h-86q29 50 29 115z" />
    </font>
</defs>
</svg>
