<?xml version="1.0" standalone="no"?>
<!DOCTYPE svg PUBLIC "-//W3C//DTD SVG 1.1//EN" "http://www.w3.org/Graphics/SVG/1.1/DTD/svg11.dtd" >
<svg xmlns="http://www.w3.org/2000/svg" xmlns:xlink="http://www.w3.org/1999/xlink" version="1.1">
<metadata>
Created by FontForge 20170731 at Mon Nov  5 17:22:26 2012
 By Aleksey,,,
Copyright (C) 2004, 2012 Hoefler &#38; Frere-Jones. http://www.typography.com
</metadata>
<defs>
<font id="TungstenCondensed-Black" horiz-adv-x="276" >
  <font-face 
    font-family="Tungsten Condensed Black"
    font-weight="450"
    font-stretch="condensed"
    units-per-em="1000"
    panose-1="0 0 0 0 0 0 0 0 0 0"
    ascent="800"
    descent="-200"
    x-height="583"
    cap-height="700"
    bbox="-39 -200 644 860"
    underline-thickness="50"
    underline-position="-200"
    unicode-range="U+0020-FB04"
  />
<missing-glyph horiz-adv-x="500" 
d="M0 -200v1000h500v-1000h-500zM71 750l179 -390l179 390h-358zM50 -76l172 376l-172 376v-752zM450 676l-172 -376l172 -376v752zM250 240l-179 -390h358z" />
    <glyph glyph-name=".notdef" horiz-adv-x="500" 
d="M0 -200v1000h500v-1000h-500zM71 750l179 -390l179 390h-358zM50 -76l172 376l-172 376v-752zM450 676l-172 -376l172 -376v752zM250 240l-179 -390h358z" />
    <glyph glyph-name=".null" horiz-adv-x="0" 
 />
    <glyph glyph-name="nonmarkingreturn" horiz-adv-x="333" 
 />
    <glyph glyph-name="space" unicode=" " horiz-adv-x="66" 
 />
    <glyph glyph-name="exclam" unicode="!" horiz-adv-x="139" 
d="M129 528l-22 -369h-75l-22 369v172h119v-172zM122 133v-133h-105v133h105z" />
    <glyph glyph-name="quotedbl" unicode="&#x22;" horiz-adv-x="239" 
d="M123 700l-30 -244h-82l10 244h102zM236 700l-31 -244h-82l10 244h103z" />
    <glyph glyph-name="numbersign" unicode="#" horiz-adv-x="267" 
d="M232 701v-130l30 9v-116l-30 -10v-138l30 10v-121l-30 -10v-196h-88v169l-21 -6v-163h-88v135l-30 -9v120l30 9v138l-30 -9v120l30 9v189h88v-163l21 7v156h88zM123 421v-142l21 7v142z" />
    <glyph glyph-name="dollar" unicode="$" horiz-adv-x="279" 
d="M180 750v-49q92 -7 92 -108v-161h-119v161q0 9 -9 9h-7q-9 0 -9 -9v-144q0 -12 10 -19l90 -62q45 -32 45 -95v-166q0 -101 -92 -108v-51h-80v51q-92 6 -92 108v171h117v-170q0 -10 10 -10h8q9 0 9 10v153q0 12 -10 18l-89 62q-45 32 -45 95v157q0 101 92 108v49h79z" />
    <glyph glyph-name="percent" unicode="%" horiz-adv-x="350" 
d="M101 286h-25q-69 0 -69 67v285q0 67 69 67h35q67 0 67 -67v-163l48 226h69l-71 -285q14 4 24 4h27q68 0 68 -67v-291q0 -67 -68 -67h-36q-68 0 -68 67v163l-48 -226h-68l71 291q-11 -4 -25 -4zM259 351h-9q-6 0 -6 -6v-273q0 -6 6 -6h9q6 0 6 6v273q0 6 -6 6zM100 634h-8
q-6 0 -6 -6v-266q0 -6 6 -6h8q6 0 6 6v266q0 6 -6 6z" />
    <glyph glyph-name="ampersand" unicode="&#x26;" horiz-adv-x="362" 
d="M241 0l-23 51q-12 -30 -30 -43t-52 -13h-31q-98 0 -98 101v187q0 60 43 100l15 14l-14 30q-17 38 -17 88v80q0 110 110 110h38q110 0 110 -110v-130h-113v128q0 10 -10 10h-9q-10 0 -10 -10v-80q0 -28 10 -52l55 -129l23 85h113v-3l-66 -229l75 -183v-2h-119zM130 104
q6 0 9 8l18 66l-36 100q-2 -5 -2 -18v-147q0 -9 8 -9h3z" />
    <glyph glyph-name="quotesingle" unicode="'" horiz-adv-x="133" 
d="M129 700l-31 -244h-87l10 244h108z" />
    <glyph glyph-name="parenleft" unicode="(" horiz-adv-x="163" 
d="M157 -5l-61 -26q-49 49 -66 100t-17 144v274q0 93 17 144t66 100l61 -26q-31 -45 -42 -89.5t-11 -127.5v-276q0 -83 11 -127.5t42 -89.5z" />
    <glyph glyph-name="parenright" unicode=")" horiz-adv-x="163" 
d="M6 708l61 26q49 -49 66 -100t17 -144v-274q0 -93 -17 -144t-66 -100l-61 26q31 45 42 89.5t11 127.5v276q0 83 -11 127.5t-42 89.5z" />
    <glyph glyph-name="asterisk" unicode="*" horiz-adv-x="212" 
d="M133 701l-2 -73l67 33h2v-57l-54 -22l54 -22v-57h-2l-67 33l2 -72h-54l1 72l-67 -33h-1v57l53 22l-53 22v57h1l67 -33l-1 73h54z" />
    <glyph glyph-name="plus" unicode="+" horiz-adv-x="245" 
d="M78 238v74h-73v86h73v75h89v-75h73v-86h-73v-74h-89z" />
    <glyph glyph-name="comma" unicode="," horiz-adv-x="134" 
d="M120 138v-28q0 -103 -30 -212h-88q17 87 17 207v33h101z" />
    <glyph glyph-name="hyphen" unicode="-" horiz-adv-x="183" 
d="M6 352h171v-108h-171v108z" />
    <glyph glyph-name="period" unicode="." horiz-adv-x="134" 
d="M121 138v-138h-108v138h108z" />
    <glyph glyph-name="slash" unicode="/" horiz-adv-x="183" 
d="M182 723l-95 -746h-86l95 746h86z" />
    <glyph glyph-name="zero" unicode="0" horiz-adv-x="294" 
d="M284 105q0 -110 -109 -110h-56q-109 0 -109 110v490q0 110 109 110h56q109 0 109 -110v-490zM161 593q0 9 -10 9h-8q-10 0 -10 -9v-486q0 -9 10 -9h8q10 0 10 9v486z" />
    <glyph glyph-name="one" unicode="1" horiz-adv-x="184" 
d="M173 702v-702h-123v571h-48v83q41 4 65 36l9 12h97z" />
    <glyph glyph-name="two" unicode="2" horiz-adv-x="277" 
d="M42 266l91 140q15 22 15 47v140q0 9 -9 9h-6q-9 0 -9 -9v-154h-114v156q0 110 109 110h41q110 0 110 -110v-129q0 -64 -36 -115l-94 -149q-12 -18 -12 -46v-48h142v-108h-262v151q0 68 34 115z" />
    <glyph glyph-name="three" unicode="3" horiz-adv-x="283" 
d="M151 107v187q0 9 -9 9h-83v106h81q10 0 10 10v174q0 9 -10 9h-3q-10 0 -10 -9v-142h-117v144q0 110 110 110h42q110 0 110 -110v-142q0 -39 -9.5 -58t-32.5 -33q26 -12 35 -28.5t9 -52.5v-176q0 -110 -110 -110h-46q-109 0 -109 110v157h117v-155q0 -9 9 -9h7q9 0 9 9z
" />
    <glyph glyph-name="four" unicode="4" horiz-adv-x="291" 
d="M9 218l77 482h166v-483l38 1v-106h-38v-112h-115v112h-128v106zM98 217h40v274z" />
    <glyph glyph-name="five" unicode="5" horiz-adv-x="283" 
d="M274 352v-247q0 -110 -110 -110h-46q-109 0 -109 110v153h118v-151q0 -9 9 -9h7q9 0 9 9v218q0 17 -11 17q-12 0 -18 -24h-113v382h256v-109h-137l-2 -160q29 19 66 19q81 0 81 -98z" />
    <glyph glyph-name="six" unicode="6" horiz-adv-x="288" 
d="M132 593v-181q31 13 64 13q83 0 83 -89v-231q0 -110 -110 -110h-50q-109 0 -109 110v490q0 110 109 110h48q110 0 110 -110v-146h-120v144q0 9 -9 9h-7q-9 0 -9 -9zM132 322v-215q0 -9 9 -9h7q9 0 9 9v206q0 11 -11 11q-8 0 -14 -2z" />
    <glyph glyph-name="seven" unicode="7" horiz-adv-x="248" 
d="M118 589h-114v111h238v-109l-90 -591h-124z" />
    <glyph glyph-name="eight" unicode="8" horiz-adv-x="288" 
d="M121 705h46q110 0 110 -110v-154q0 -67 -46 -84q48 -14 48 -73v-179q0 -110 -110 -110h-50q-109 0 -109 110v179q0 59 48 73q-47 17 -47 84v154q0 110 110 110zM130 297v-191q0 -10 10 -10h9q9 0 9 10v191q0 10 -9 10h-9q-10 0 -10 -10zM140 401h8q9 0 9 10v183
q0 10 -9 10h-8q-9 0 -9 -10v-183q0 -10 9 -10z" />
    <glyph glyph-name="nine" unicode="9" horiz-adv-x="288" 
d="M146 98q10 0 10 9v167q-30 -12 -64 -12q-83 0 -83 88v245q0 110 109 110h50q110 0 110 -110v-490q0 -110 -110 -110h-49q-109 0 -109 110v129h119v-127q0 -9 9 -9h8zM156 364v229q0 9 -10 9h-6q-10 0 -10 -9v-220q0 -11 11 -11q9 0 15 2z" />
    <glyph glyph-name="colon" unicode=":" horiz-adv-x="134" 
d="M121 138v-138h-108v138h108zM121 583v-138h-108v138h108z" />
    <glyph glyph-name="semicolon" unicode=";" horiz-adv-x="134" 
d="M121 138v-28q0 -104 -31 -212h-88q18 92 18 207v33h101zM121 583v-138h-108v138h108z" />
    <glyph glyph-name="less" unicode="&#x3c;" horiz-adv-x="236" 
d="M7 408l221 77v-92l-134 -37l134 -37v-93l-221 76v106z" />
    <glyph glyph-name="equal" unicode="=" horiz-adv-x="245" 
d="M5 452h235v-84h-235v84zM5 342h235v-84h-235v84z" />
    <glyph glyph-name="greater" unicode="&#x3e;" horiz-adv-x="236" 
d="M228 303l-221 -77v92l134 37l-134 37v93l221 -76v-106z" />
    <glyph glyph-name="question" unicode="?" horiz-adv-x="269" 
d="M102 368l22 30q18 23 18 43v152q0 9 -9 9h-6q-10 0 -10 -9v-168h-111v170q0 110 110 110h36q110 0 110 -110v-143q0 -54 -36 -103l-36 -50q-15 -20 -15 -52v-90h-97v125q0 32 4.5 48t19.5 38zM180 133v-133h-106v133h106z" />
    <glyph glyph-name="at" unicode="@" horiz-adv-x="390" 
d="M330 16h-60q-22 0 -34.5 8t-23.5 26q-26 -34 -68 -34q-61 0 -61 66v188q0 30 11.5 45.5t43.5 26.5l65 22v140q0 7 -7 7h-7q-7 0 -7 -7v-132h-95v136q0 86 86 86h46q86 0 86 -86v-447q0 -14 13 -14h13q14 0 14 14v465q0 58 -22 82t-79 24h-98q-56 0 -78 -24t-22 -82v-445
q0 -58 22.5 -82.5t77.5 -24.5h192v-29h-192q-71 0 -100.5 31.5t-29.5 104.5v445q0 72 29.5 103.5t100.5 31.5h98q71 0 101.5 -31t30.5 -104v-465q0 -45 -46 -45zM191 100q9 0 12 1v183l-10 -4q-14 -5 -14 -22v-149q0 -9 12 -9z" />
    <glyph glyph-name="A" unicode="A" horiz-adv-x="293" 
d="M294 0h-122l-7 106h-51l-7 -106h-108l68 700h160zM139 500l-19 -290h38z" />
    <glyph glyph-name="B" unicode="B" horiz-adv-x="293" 
d="M228 357q57 -13 57 -73v-174q0 -110 -110 -110h-164v700h163q109 0 109 -110v-148q0 -66 -55 -85zM161 589q0 10 -9 10h-17v-197h17q9 0 9 8v179zM135 307v-206h17q10 0 10 9v189q0 8 -10 8h-17z" />
    <glyph glyph-name="C" unicode="C" horiz-adv-x="295" 
d="M162 328h123v-223q0 -110 -110 -110h-56q-109 0 -109 110v490q0 110 109 110h56q109 0 109 -110v-203h-123v201q0 9 -10 9h-7q-10 0 -10 -9v-486q0 -9 10 -9h8q10 0 10 9v221z" />
    <glyph glyph-name="D" unicode="D" horiz-adv-x="296" 
d="M11 0v700h151q125 0 125 -124v-452q0 -124 -125 -124h-151zM135 598v-496h14q13 0 13 15v467q0 14 -13 14h-14z" />
    <glyph glyph-name="E" unicode="E" horiz-adv-x="239" 
d="M11 700h220v-106h-96v-186h92v-107h-92v-195h97v-106h-221v700z" />
    <glyph glyph-name="F" unicode="F" horiz-adv-x="232" 
d="M11 700h216v-106h-92v-198h88v-107h-88v-289h-124v700z" />
    <glyph glyph-name="G" unicode="G" horiz-adv-x="297" 
d="M165 295h-17v100h140v-290q0 -110 -110 -110h-59q-109 0 -109 110v490q0 110 109 110h58q109 0 109 -110v-163h-123v161q0 9 -10 9h-9q-10 0 -10 -9v-485q0 -10 10 -10h11q10 0 10 9v188z" />
    <glyph glyph-name="H" unicode="H" horiz-adv-x="299" 
d="M135 408h28v292h125v-700h-125v301h-28v-301h-124v700h124v-292z" />
    <glyph glyph-name="I" unicode="I" horiz-adv-x="147" 
d="M136 700v-700h-125v700h125z" />
    <glyph glyph-name="J" unicode="J" horiz-adv-x="200" 
d="M189 700v-590q0 -110 -109 -110h-78v106h47q16 0 16 17v577h124z" />
    <glyph glyph-name="K" unicode="K" horiz-adv-x="291" 
d="M294 0h-128l-31 293v-293h-124v700h124v-294l36 294h124l-47 -336z" />
    <glyph glyph-name="L" unicode="L" horiz-adv-x="224" 
d="M11 700h124v-594h86v-106h-210v700z" />
    <glyph glyph-name="M" unicode="M" horiz-adv-x="409" 
d="M184 700l17 -364l22 364h175v-700h-123l2 466l-34 -466h-104l-32 476v-476h-96v700h173z" />
    <glyph glyph-name="N" unicode="N" horiz-adv-x="287" 
d="M276 0h-113l-54 314l5 -314h-103v700h119l48 -287l-5 287h103v-700z" />
    <glyph glyph-name="O" unicode="O" horiz-adv-x="297" 
d="M288 105q0 -110 -110 -110h-59q-109 0 -109 110v490q0 110 109 110h59q110 0 110 -110v-490zM163 593q0 9 -9 9h-10q-10 0 -10 -9v-486q0 -9 10 -9h10q9 0 9 9v486z" />
    <glyph glyph-name="P" unicode="P" horiz-adv-x="293" 
d="M135 233v-233h-124v700h164q110 0 110 -110v-247q0 -110 -110 -110h-40zM162 588q0 10 -10 10h-17v-263h17q10 0 10 10v243z" />
    <glyph glyph-name="Q" unicode="Q" horiz-adv-x="297" 
d="M288 595v-479q0 -60 -33 -87l46 -17l-48 -83l-127 66h-7q-109 0 -109 110v490q0 110 109 110h59q110 0 110 -110zM163 593q0 9 -9 9h-10q-10 0 -10 -9v-486q0 -9 10 -9h10q9 0 9 9v486z" />
    <glyph glyph-name="R" unicode="R" horiz-adv-x="296" 
d="M230 330q56 -14 56 -73v-257h-124v268q0 9 -10 9h-17v-277h-124v700h165q109 0 109 -110v-176q0 -67 -55 -84zM161 587q0 9 -10 9h-16v-217h16q10 0 10 10v198z" />
    <glyph glyph-name="S" unicode="S" horiz-adv-x="289" 
d="M236 367q45 -32 45 -95v-167q0 -110 -110 -110h-51q-110 0 -110 110v174h121v-174q0 -9 9 -9h9q9 0 9 9v156q0 12 -10 18l-92 63q-46 33 -46 95v158q0 110 110 110h50q109 0 109 -110v-164h-120v164q0 9 -10 9h-7q-9 0 -9 -9v-146q0 -13 10 -19z" />
    <glyph glyph-name="T" unicode="T" horiz-adv-x="264" 
d="M194 0h-124v594h-65v106h254v-106h-65v-594z" />
    <glyph glyph-name="U" unicode="U" horiz-adv-x="297" 
d="M286 700v-595q0 -110 -110 -110h-56q-109 0 -109 110v595h124v-593q0 -9 10 -9h7q10 0 10 9v593h124z" />
    <glyph glyph-name="V" unicode="V" horiz-adv-x="289" 
d="M222 0h-155l-69 700h124l29 -459l30 459h110z" />
    <glyph glyph-name="W" unicode="W" horiz-adv-x="423" 
d="M234 0l-23 284l-22 -284h-127l-63 700h130l17 -312l20 312h113l18 -312l19 312h108l-62 -700h-128z" />
    <glyph glyph-name="X" unicode="X" horiz-adv-x="288" 
d="M287 700l-68 -339l70 -361h-129l-23 186l-27 -186h-112l69 343l-68 357h129l21 -181l27 181h111z" />
    <glyph glyph-name="Y" unicode="Y" horiz-adv-x="279" 
d="M202 0h-124v221l-83 479h129l23 -239l26 239h112l-83 -473v-227z" />
    <glyph glyph-name="Z" unicode="Z" horiz-adv-x="243" 
d="M108 594h-100v106h229v-106l-104 -488h104v-106h-232v106z" />
    <glyph glyph-name="bracketleft" unicode="[" horiz-adv-x="160" 
d="M156 38v-61h-141v746h141v-61h-57v-624h57z" />
    <glyph glyph-name="backslash" unicode="\" horiz-adv-x="183" 
d="M96 -23l-95 746h86l95 -746h-86z" />
    <glyph glyph-name="bracketright" unicode="]" horiz-adv-x="160" 
d="M3 -23v61h57v624h-57v61h141v-746h-141z" />
    <glyph glyph-name="asciicircum" unicode="^" horiz-adv-x="270" 
d="M177 700l82 -195h-86l-38 95l-37 -95h-86l81 195h84z" />
    <glyph glyph-name="underscore" unicode="_" horiz-adv-x="348" 
d="M-1 -16h350v-86h-350v86z" />
    <glyph glyph-name="grave" unicode="`" horiz-adv-x="366" 
d="M229 703l33 -98h-91l-63 98h121z" />
    <glyph glyph-name="a" unicode="a" horiz-adv-x="268" 
d="M9 65v183q0 35 12.5 52t47.5 30l74 26v129q0 8 -8 8h-7q-7 0 -7 -8v-124h-108v130q0 97 97 97h52q97 0 97 -97v-491h-114v27q-34 -32 -73 -32q-63 0 -63 70zM130 91q5 0 13 2v172l-12 -5q-13 -7 -13 -22v-137q0 -10 12 -10z" />
    <glyph glyph-name="b" unicode="b" 
d="M9 0v703h117v-144q38 29 73 29q68 0 68 -77v-439q0 -77 -68 -77q-36 0 -74 28v-23h-116zM126 485v-386q8 -3 13 -3q11 0 11 11v369q0 11 -11 11q-3 0 -13 -2z" />
    <glyph glyph-name="c" unicode="c" horiz-adv-x="273" 
d="M150 330v152q0 8 -8 8h-7q-9 0 -9 -8v-381q0 -7 9 -7h7q8 0 8 7v160h114v-165q0 -101 -101 -101h-53q-101 0 -101 101v391q0 101 101 101h53q101 0 101 -101v-157h-114z" />
    <glyph glyph-name="d" unicode="d" 
d="M267 703v-703h-115v25q-37 -30 -74 -30q-69 0 -69 77v439q0 77 69 77q34 0 72 -28v143h117zM150 99v386q-8 2 -13 2q-11 0 -11 -11v-369q0 -11 11 -11q7 0 13 3z" />
    <glyph glyph-name="e" unicode="e" horiz-adv-x="272" 
d="M263 244h-138v-144q0 -8 8 -8h9q8 0 8 8v109h113v-113q0 -101 -101 -101h-52q-101 0 -101 101v391q0 101 101 101h52q101 0 101 -101v-243zM125 484v-152h23v152q0 8 -7 8h-8q-8 0 -8 -8z" />
    <glyph glyph-name="f" unicode="f" horiz-adv-x="184" 
d="M27 583v35q0 85 84 85h71v-85h-29q-17 0 -17 -16v-19h46v-100h-38v-483h-117v483h-23v100h23z" />
    <glyph glyph-name="g" unicode="g" 
d="M267 583v-588q0 -89 -89 -89h-80q-45 0 -65.5 20t-20.5 64v36h107v-29q0 -11 11 -11h11q11 0 11 11v69q-36 -28 -74 -28q-69 0 -69 77v396q0 77 69 77q36 0 74 -28v23h115zM150 139v346q-8 2 -13 2q-11 0 -11 -11v-328q0 -11 11 -11q5 0 13 2z" />
    <glyph glyph-name="h" unicode="h" 
d="M9 0v703h117v-144q38 29 73 29q68 0 68 -77v-511h-117v476q0 11 -11 11q-3 0 -13 -2v-485h-117z" />
    <glyph glyph-name="i" unicode="i" horiz-adv-x="138" 
d="M9 599v87h120v-87h-120zM10 0v583h117v-583h-117z" />
    <glyph glyph-name="j" unicode="j" horiz-adv-x="137" 
d="M8 599v87h120v-87h-120zM127 583v-596q0 -79 -80 -79h-61v82h15q9 0 9 9v584h117z" />
    <glyph glyph-name="k" unicode="k" horiz-adv-x="286" 
d="M166 583h118l-50 -293l51 -290h-122l-37 266v-266h-117v703h117v-402z" />
    <glyph glyph-name="l" unicode="l" horiz-adv-x="136" 
d="M10 0v703h117v-703h-117z" />
    <glyph glyph-name="m" unicode="m" horiz-adv-x="415" 
d="M267 485v-485h-118v476q0 11 -10 11q-3 0 -13 -2v-485h-117v583h116v-24q38 29 74 29q42 0 59 -33q39 33 81 33q67 0 67 -77v-511h-117v476q0 11 -10 11q-4 0 -12 -2z" />
    <glyph glyph-name="n" unicode="n" 
d="M9 0v583h116v-24q38 29 74 29q68 0 68 -77v-511h-117v476q0 11 -11 11q-3 0 -13 -2v-485h-117z" />
    <glyph glyph-name="o" unicode="o" 
d="M142 490h-7q-9 0 -9 -8v-381q0 -7 9 -7h7q8 0 8 7v381q0 8 -8 8zM166 -5h-56q-101 0 -101 101v391q0 101 101 101h56q101 0 101 -101v-391q0 -101 -101 -101z" />
    <glyph glyph-name="p" unicode="p" 
d="M9 -91v674h116v-24q38 29 74 29q68 0 68 -77v-439q0 -77 -68 -77q-35 0 -73 28v-114h-117zM126 485v-386q8 -3 13 -3q11 0 11 11v369q0 11 -11 11q-3 0 -13 -2z" />
    <glyph glyph-name="q" unicode="q" 
d="M267 583v-674h-117v115q-36 -29 -72 -29q-69 0 -69 77v439q0 77 69 77q36 0 74 -28v23h115zM150 99v386q-8 2 -13 2q-11 0 -11 -11v-369q0 -11 11 -11q7 0 13 3z" />
    <glyph glyph-name="r" unicode="r" horiz-adv-x="188" 
d="M9 0v583h116v-45q24 49 60 49v-130q-37 -4 -59 -19v-438h-117z" />
    <glyph glyph-name="s" unicode="s" horiz-adv-x="265" 
d="M146 362v122q0 8 -8 8h-8q-8 0 -8 -8v-108q0 -12 13 -20l55 -31q38 -22 52 -43.5t14 -57.5v-128q0 -101 -101 -101h-45q-101 0 -101 101v131h111v-127q0 -8 8 -8h8q8 0 8 8v111q0 12 -13 20l-55 33q-38 21 -52 42t-14 57v124q0 101 101 101h45q101 0 101 -101v-125h-111z
" />
    <glyph glyph-name="t" unicode="t" horiz-adv-x="188" 
d="M147 483v-483h-117v483h-26v100h26v66h117v-66h38v-100h-38z" />
    <glyph glyph-name="u" unicode="u" 
d="M267 583v-583h-115v25q-37 -30 -74 -30q-69 0 -69 77v511h117v-476q0 -11 11 -11q7 0 13 3v484h117z" />
    <glyph glyph-name="v" unicode="v" horiz-adv-x="281" 
d="M216 0h-151l-63 583h116l25 -351l25 351h111z" />
    <glyph glyph-name="w" unicode="w" horiz-adv-x="420" 
d="M154 583h119l21 -316l18 316h105l-56 -583h-130l-21 260l-21 -260h-130l-56 583h112l17 -320z" />
    <glyph glyph-name="x" unicode="x" horiz-adv-x="274" 
d="M109 0h-109l60 286l-58 297h118l18 -160l25 160h108l-58 -279l60 -304h-118l-21 168z" />
    <glyph glyph-name="y" unicode="y" horiz-adv-x="279" 
d="M180 -91h-112l18 116l-87 558h119l10 -118q8 -96 13 -192h2q6 118 13 192l10 118h114z" />
    <glyph glyph-name="z" unicode="z" horiz-adv-x="226" 
d="M106 483h-97v100h212v-100l-101 -383h101v-100h-216v100z" />
    <glyph glyph-name="braceleft" unicode="{" horiz-adv-x="203" 
d="M56 290q0 21 -27 27l-24 5v64l24 5q15 3 21 8.5t6 17.5v127q0 70 15 106t67 81l62 -26q-35 -43 -44.5 -72.5t-9.5 -87.5v-115q0 -60 -44 -76q44 -13 44 -66v-133q0 -58 9.5 -87.5t44.5 -72.5l-62 -26q-52 45 -67 81t-15 106v134z" />
    <glyph glyph-name="bar" unicode="|" horiz-adv-x="148" 
d="M112 746v-795h-76v795h76z" />
    <glyph glyph-name="braceright" unicode="}" horiz-adv-x="203" 
d="M146 290v-134q0 -70 -15 -106t-67 -81l-62 26q35 43 44.5 72.5t9.5 87.5v133q0 53 44 66q-44 16 -44 76v115q0 58 -9.5 87.5t-44.5 72.5l62 26q52 -45 67 -81t15 -106v-127q0 -12 6 -17.5t21 -8.5l24 -5v-64l-24 -5q-27 -6 -27 -27z" />
    <glyph glyph-name="asciitilde" unicode="~" horiz-adv-x="268" 
d="M16 289v87q27 31 64 31h2q18 0 45 -9l20 -7q25 -8 41 -8h2q31 0 61 28v-87q-28 -32 -63 -32h-2q-13 0 -45 10l-21 7q-24 8 -40 8h-2q-32 0 -62 -28z" />
    <glyph glyph-name="uni00A0" unicode="&#xa0;" horiz-adv-x="66" 
 />
    <glyph glyph-name="exclamdown" unicode="&#xa1;" horiz-adv-x="139" 
d="M10 172l22 369h75l22 -369v-172h-119v172zM17 567v133h105v-133h-105z" />
    <glyph glyph-name="cent" unicode="&#xa2;" horiz-adv-x="266" 
d="M146 387v164q0 8 -8 8h-5q-9 0 -9 -8v-398q0 -8 9 -8h5q8 0 8 8v171h112v-174q0 -91 -82 -100v-52h-80v51q-86 8 -86 101v404q0 92 86 100v48h79v-48q83 -9 83 -100v-167h-112z" />
    <glyph glyph-name="sterling" unicode="&#xa3;" horiz-adv-x="302" 
d="M2 277v104h32v214q0 110 110 110h40q110 0 110 -110v-166h-114v164q0 9 -9 9h-5q-10 0 -10 -9v-212h89v-104h-89v-171h139v-106h-293v106h32v171h-32z" />
    <glyph glyph-name="yen" unicode="&#xa5;" horiz-adv-x="272" 
d="M10 328h56l-72 372h128l22 -243l24 243h111l-73 -372h57v-66h-65v-14h65v-66h-65v-182h-122v182h-66v66h66v14h-66v66z" />
    <glyph glyph-name="section" unicode="&#xa7;" horiz-adv-x="285" 
d="M273 337v-34l-207 94q-31 14 -42.5 32.5t-11.5 48.5v117q0 110 110 110h42q110 0 110 -110v-128h-118v129q0 10 -9 10h-7q-10 0 -10 -10v-122q0 -15 10 -19l90 -41q29 -13 36 -28.5t7 -48.5zM12 367v33l208 -93q53 -24 53 -81v-121q0 -110 -110 -110h-41q-110 0 -110 110
v134h117v-135q0 -10 9 -10h7q10 0 10 10v126q0 16 -10 18l-89 41q-29 13 -36.5 29t-7.5 49z" />
    <glyph glyph-name="dieresis" unicode="&#xa8;" horiz-adv-x="366" 
d="M190 605v98h88v-98h-88zM176 703v-98h-88v98h88z" />
    <glyph glyph-name="copyright" unicode="&#xa9;" horiz-adv-x="375" 
d="M197 331h96v-191q0 -84 -85 -84h-41q-84 0 -84 84v420q0 84 84 84h40q84 0 84 -83v-181h-95v174q0 7 -7 7h-3q-7 0 -7 -7v-407q0 -7 7 -7h4q7 0 7 7v184zM355 566v-432q0 -74 -32 -106.5t-100 -32.5h-71q-68 0 -100 32.5t-32 106.5v432q0 74 32 106.5t100 32.5h71
q68 0 100 -32.5t32 -106.5zM336 134v432q0 66 -26 93.5t-87 27.5h-71q-61 0 -87 -27.5t-26 -93.5v-432q0 -66 26 -93.5t87 -27.5h71q61 0 87 27.5t26 93.5z" />
    <glyph glyph-name="ordfeminine" unicode="&#xaa;" horiz-adv-x="178" 
d="M12 422v94q0 21 8 32t31 18l46 13v66q0 6 -7 6h-6q-7 0 -7 -6v-60h-62v64q0 58 59 58h31q59 0 59 -58v-265h-66v14q-29 -17 -47 -17q-39 0 -39 41zM85 437q3 0 12 3v87l-11 -2q-10 -3 -10 -14v-66q0 -8 9 -8z" />
    <glyph glyph-name="guillemotleft" unicode="&#xab;" horiz-adv-x="234" 
d="M4 297l49 159h75l-35 -159l35 -160h-75zM110 297l41 159h76l-28 -159l28 -160h-76z" />
    <glyph glyph-name="registered" unicode="&#xae;" horiz-adv-x="247" 
d="M167 488q29 -6 29 -36v-117h-63v125q0 4 -5 4h-10v-129h-61v324h87q52 0 52 -51v-80q0 -31 -29 -40zM132 609q0 4 -5 4h-9v-102h9q5 0 5 5v93zM221 371v251q0 36 -15 52t-51 16h-63q-35 0 -50.5 -16t-15.5 -52v-251q0 -36 15.5 -52t50.5 -16h63q36 0 51 16t15 52z
M236 622v-251q0 -82 -81 -82h-63q-81 0 -81 82v251q0 83 81 83h63q81 0 81 -83z" />
    <glyph glyph-name="macron" unicode="&#xaf;" horiz-adv-x="366" 
d="M90 688h186v-78h-186v78z" />
    <glyph glyph-name="degree" unicode="&#xb0;" horiz-adv-x="223" 
d="M117 627h-13q-7 0 -7 -8v-211q0 -8 7 -8h13q8 0 8 8v211q0 8 -8 8zM135 323h-48q-37 0 -57 19.5t-20 56.5v229q0 37 20 57t57 20h48q37 0 57 -20t20 -57v-229q0 -37 -20 -56.5t-57 -19.5z" />
    <glyph glyph-name="plusminus" unicode="&#xb1;" horiz-adv-x="245" 
d="M78 290v74h-73v87h73v74h89v-74h73v-87h-73v-74h-89zM5 272h235v-85h-235v85z" />
    <glyph glyph-name="acute" unicode="&#xb4;" horiz-adv-x="366" 
d="M118 605l33 98h121l-62 -98h-92z" />
    <glyph glyph-name="paragraph" unicode="&#xb6;" horiz-adv-x="270" 
d="M259 0h-75v634h-22v-634h-11q-72 0 -106.5 34.5t-34.5 107.5v416q0 73 34.5 107.5t106.5 34.5h108v-700z" />
    <glyph glyph-name="periodcentered" unicode="&#xb7;" horiz-adv-x="134" 
d="M121 406v-138h-108v138h108z" />
    <glyph glyph-name="cedilla" unicode="&#xb8;" horiz-adv-x="366" 
d="M236 0l-16 -89h-104l45 89h75z" />
    <glyph glyph-name="ordmasculine" unicode="&#xba;" horiz-adv-x="182" 
d="M94 649h-7q-6 0 -6 -5v-200q0 -5 6 -5h7q6 0 6 5v200q0 5 -6 5zM108 381h-34q-61 0 -61 61v204q0 61 61 61h34q61 0 61 -61v-204q0 -61 -61 -61z" />
    <glyph glyph-name="guillemotright" unicode="&#xbb;" horiz-adv-x="234" 
d="M180 456l49 -159l-49 -160h-75l35 160l-35 159h75zM82 456l41 -159l-41 -160h-76l28 160l-28 159h76z" />
    <glyph glyph-name="questiondown" unicode="&#xbf;" horiz-adv-x="269" 
d="M167 334l-22 -30q-18 -23 -18 -43v-152q0 -9 9 -9h6q10 0 10 9v168h111v-170q0 -110 -110 -110h-36q-110 0 -110 110v143q0 54 36 103l36 50q15 20 15 52v90h97v-125q0 -32 -4.5 -48t-19.5 -38zM89 569v133h106v-133h-106z" />
    <glyph glyph-name="Agrave" unicode="&#xc0;" horiz-adv-x="293" 
d="M227 700l67 -700h-122l-7 106h-51l-7 -106h-108l68 700h160zM158 805l36 -83h-91l-66 83h121zM139 500l-19 -290h38z" />
    <glyph glyph-name="Aacute" unicode="&#xc1;" horiz-adv-x="293" 
d="M294 0h-122l-7 106h-51l-7 -106h-108l68 700h160zM101 722l37 83h121l-66 -83h-92zM139 500l-19 -290h38z" />
    <glyph glyph-name="Acircumflex" unicode="&#xc2;" horiz-adv-x="293" 
d="M294 0h-122l-7 106h-51l-7 -106h-108l68 700h160zM201 810l51 -88h-77l-27 24l-27 -24h-77l51 88h106zM139 500l-19 -290h38z" />
    <glyph glyph-name="Atilde" unicode="&#xc3;" horiz-adv-x="293" 
d="M227 700l67 -700h-122l-7 106h-51l-7 -106h-108l68 700h160zM88 812h17q18 0 36 -9l17 -9q13 -7 19 -7q5 0 5 6v19h70v-45q0 -45 -44 -45h-17q-21 0 -36 9l-17 8q-15 8 -19 8q-5 0 -5 -6v-19h-70v45q0 45 44 45zM139 500l-19 -290h38z" />
    <glyph glyph-name="Adieresis" unicode="&#xc4;" horiz-adv-x="293" 
d="M227 700l67 -700h-122l-7 106h-51l-7 -106h-108l68 700h160zM155 722v83h89v-83h-89zM141 805v-83h-89v83h89zM139 500l-19 -290h38z" />
    <glyph glyph-name="Aring" unicode="&#xc5;" horiz-adv-x="293" 
d="M239 711v-4q0 -20 -10 -31l65 -676h-122l-7 106h-51l-7 -106h-108l65 678q-8 11 -8 29v4q0 47 56 47h70q57 0 57 -47zM219 708v2q0 31 -37 31h-70q-37 0 -37 -31v-2q0 -31 37 -31h70q37 0 37 31zM139 503l-19 -293h38z" />
    <glyph glyph-name="AE" unicode="&#xc6;" horiz-adv-x="383" 
d="M82 700h292v-106h-95v-186h92v-107h-92v-195h97v-106h-221v106h-41l-10 -106h-107zM122 210h33v342z" />
    <glyph glyph-name="Ccedilla" unicode="&#xc7;" horiz-adv-x="295" 
d="M162 328h123v-223q0 -104 -100 -110l-15 -84h-104l42 84q-98 6 -98 110v490q0 110 109 110h56q109 0 109 -110v-203h-123v201q0 9 -10 9h-7q-10 0 -10 -9v-486q0 -9 10 -9h8q10 0 10 9v221z" />
    <glyph glyph-name="Egrave" unicode="&#xc8;" horiz-adv-x="239" 
d="M132 805l36 -83h-91l-66 83h121zM11 700h220v-106h-96v-186h92v-107h-92v-195h97v-106h-221v700z" />
    <glyph glyph-name="Eacute" unicode="&#xc9;" horiz-adv-x="239" 
d="M76 722l37 83h121l-66 -83h-92zM11 700h220v-106h-96v-186h92v-107h-92v-195h97v-106h-221v700z" />
    <glyph glyph-name="Ecircumflex" unicode="&#xca;" horiz-adv-x="239" 
d="M11 700h220v-106h-96v-186h92v-107h-92v-195h97v-106h-221v700zM175 810l51 -88h-77l-27 24l-27 -24h-77l51 88h106z" />
    <glyph glyph-name="Edieresis" unicode="&#xcb;" horiz-adv-x="239" 
d="M129 722v83h89v-83h-89zM115 805v-83h-89v83h89zM11 700h220v-106h-96v-186h92v-107h-92v-195h97v-106h-221v700z" />
    <glyph glyph-name="Igrave" unicode="&#xcc;" horiz-adv-x="147" 
d="M136 700v-700h-125v700h125zM84 805l36 -83h-91l-66 83h121z" />
    <glyph glyph-name="Iacute" unicode="&#xcd;" horiz-adv-x="147" 
d="M136 700v-700h-125v700h125zM27 722l37 83h121l-66 -83h-92z" />
    <glyph glyph-name="Icircumflex" unicode="&#xce;" horiz-adv-x="147" 
d="M136 700v-700h-125v700h125zM127 810l51 -88h-77l-27 24l-27 -24h-77l51 88h106z" />
    <glyph glyph-name="Idieresis" unicode="&#xcf;" horiz-adv-x="147" 
d="M136 700v-700h-125v700h125zM81 722v83h89v-83h-89zM67 805v-83h-89v83h89z" />
    <glyph glyph-name="Eth" unicode="&#xd0;" horiz-adv-x="307" 
d="M22 0v307h-22v96h22v297h151q124 0 124 -124v-452q0 -124 -124 -124h-151zM146 598v-195h17v-96h-17v-205h13q14 0 14 15v467q0 14 -14 14h-13z" />
    <glyph glyph-name="Ntilde" unicode="&#xd1;" horiz-adv-x="287" 
d="M163 0l-54 314l5 -314h-103v700h119l48 -287l-5 287h103v-700h-113zM84 812h17q18 0 36 -9l17 -9q13 -7 19 -7q5 0 5 6v19h70v-45q0 -45 -44 -45h-17q-21 0 -36 9l-17 8q-15 8 -19 8q-5 0 -5 -6v-19h-70v45q0 45 44 45z" />
    <glyph glyph-name="Ograve" unicode="&#xd2;" horiz-adv-x="297" 
d="M159 805l36 -83h-91l-66 83h121zM288 105q0 -110 -110 -110h-59q-109 0 -109 110v490q0 110 109 110h59q110 0 110 -110v-490zM163 593q0 9 -9 9h-10q-10 0 -10 -9v-486q0 -9 10 -9h10q9 0 9 9v486z" />
    <glyph glyph-name="Oacute" unicode="&#xd3;" horiz-adv-x="297" 
d="M103 722l37 83h121l-66 -83h-92zM288 105q0 -110 -110 -110h-59q-109 0 -109 110v490q0 110 109 110h59q110 0 110 -110v-490zM163 593q0 9 -9 9h-10q-10 0 -10 -9v-486q0 -9 10 -9h10q9 0 9 9v486z" />
    <glyph glyph-name="Ocircumflex" unicode="&#xd4;" horiz-adv-x="297" 
d="M288 105q0 -110 -110 -110h-59q-109 0 -109 110v490q0 110 109 110h59q110 0 110 -110v-490zM163 593q0 9 -9 9h-10q-10 0 -10 -9v-486q0 -9 10 -9h10q9 0 9 9v486zM202 810l51 -88h-77l-27 24l-27 -24h-77l51 88h106z" />
    <glyph glyph-name="Otilde" unicode="&#xd5;" horiz-adv-x="297" 
d="M288 105q0 -110 -110 -110h-59q-109 0 -109 110v490q0 110 109 110h59q110 0 110 -110v-490zM89 812h17q18 0 36 -9l17 -9q13 -7 19 -7q5 0 5 6v19h70v-45q0 -45 -44 -45h-17q-21 0 -36 9l-17 8q-15 8 -19 8q-5 0 -5 -6v-19h-70v45q0 45 44 45zM163 593q0 9 -9 9h-10
q-10 0 -10 -9v-486q0 -9 10 -9h10q9 0 9 9v486z" />
    <glyph glyph-name="Odieresis" unicode="&#xd6;" horiz-adv-x="297" 
d="M156 722v83h89v-83h-89zM142 805v-83h-89v83h89zM288 105q0 -110 -110 -110h-59q-109 0 -109 110v490q0 110 109 110h59q110 0 110 -110v-490zM163 593q0 9 -9 9h-10q-10 0 -10 -9v-486q0 -9 10 -9h10q9 0 9 9v486z" />
    <glyph glyph-name="multiply" unicode="&#xd7;" horiz-adv-x="251" 
d="M181 235l-57 57l-58 -57l-61 61l58 57l-58 59l64 62l58 -58l58 58l61 -60l-58 -58l58 -58z" />
    <glyph glyph-name="Oslash" unicode="&#xd8;" horiz-adv-x="297" 
d="M288 105q0 -110 -110 -110h-59q-109 0 -109 110v491q0 110 109 110h59q110 0 110 -110v-491zM133 594l-2 -265l33 214v51q0 10 -9 10h-12q-10 0 -10 -10zM164 107l2 261l-33 -214v-47q0 -10 10 -10h11q10 0 10 10z" />
    <glyph glyph-name="Ugrave" unicode="&#xd9;" horiz-adv-x="297" 
d="M159 805l36 -83h-91l-66 83h121zM286 700v-595q0 -110 -110 -110h-56q-109 0 -109 110v595h124v-593q0 -9 10 -9h7q10 0 10 9v593h124z" />
    <glyph glyph-name="Uacute" unicode="&#xda;" horiz-adv-x="297" 
d="M102 722l37 83h121l-66 -83h-92zM286 700v-595q0 -110 -110 -110h-56q-109 0 -109 110v595h124v-593q0 -9 10 -9h7q10 0 10 9v593h124z" />
    <glyph glyph-name="Ucircumflex" unicode="&#xdb;" horiz-adv-x="297" 
d="M286 700v-595q0 -110 -110 -110h-56q-109 0 -109 110v595h124v-593q0 -9 10 -9h7q10 0 10 9v593h124zM202 810l51 -88h-77l-27 24l-27 -24h-77l51 88h106z" />
    <glyph glyph-name="Udieresis" unicode="&#xdc;" horiz-adv-x="297" 
d="M156 722v83h89v-83h-89zM142 805v-83h-89v83h89zM286 700v-595q0 -110 -110 -110h-56q-109 0 -109 110v595h124v-593q0 -9 10 -9h7q10 0 10 9v593h124z" />
    <glyph glyph-name="Yacute" unicode="&#xdd;" horiz-adv-x="279" 
d="M202 0h-124v221l-83 479h129l23 -239l26 239h112l-83 -473v-227zM102 722l37 83h121l-66 -83h-92z" />
    <glyph glyph-name="Thorn" unicode="&#xde;" horiz-adv-x="289" 
d="M135 90v-90h-124v700h124v-88h38q110 0 110 -110v-303q0 -109 -110 -109h-38zM161 500q0 10 -10 10h-16v-318h16q10 0 10 10v298z" />
    <glyph glyph-name="germandbls" unicode="&#xdf;" horiz-adv-x="277" 
d="M268 287v-186q0 -101 -101 -101h-34v98h12q9 0 9 9v195q0 9 -10 9h-11v99h10q9 0 9 9v181q0 10 -9 10h-10q-10 0 -10 -10v-600h-114v599q0 108 108 108h41q108 0 108 -108v-146q0 -38 -9.5 -57t-32.5 -31q25 -10 34.5 -26.5t9.5 -51.5z" />
    <glyph glyph-name="agrave" unicode="&#xe0;" horiz-adv-x="268" 
d="M9 65v183q0 35 12.5 52t47.5 30l74 26v129q0 8 -8 8h-7q-7 0 -7 -8v-124h-108v130q0 97 97 97h52q97 0 97 -97v-491h-114v27q-34 -32 -73 -32q-63 0 -63 70zM154 703l33 -98h-91l-63 98h121zM130 91q5 0 13 2v172l-12 -5q-13 -7 -13 -22v-137q0 -10 12 -10z" />
    <glyph glyph-name="aacute" unicode="&#xe1;" horiz-adv-x="268" 
d="M9 65v183q0 35 12.5 52t47.5 30l74 26v129q0 8 -8 8h-7q-7 0 -7 -8v-124h-108v130q0 97 97 97h52q97 0 97 -97v-491h-114v27q-34 -32 -73 -32q-63 0 -63 70zM94 605l33 98h121l-62 -98h-92zM130 91q5 0 13 2v172l-12 -5q-13 -7 -13 -22v-137q0 -10 12 -10z" />
    <glyph glyph-name="acircumflex" unicode="&#xe2;" horiz-adv-x="268" 
d="M9 65v183q0 35 12.5 52t47.5 30l74 26v129q0 8 -8 8h-7q-7 0 -7 -8v-124h-108v130q0 97 97 97h52q97 0 97 -97v-491h-114v27q-34 -32 -73 -32q-63 0 -63 70zM194 703l51 -98h-77l-27 32l-27 -32h-77l51 98h106zM130 91q5 0 13 2v172l-12 -5q-13 -7 -13 -22v-137
q0 -10 12 -10z" />
    <glyph glyph-name="atilde" unicode="&#xe3;" horiz-adv-x="268" 
d="M9 65v183q0 35 12.5 52t47.5 30l74 26v129q0 8 -8 8h-7q-7 0 -7 -8v-124h-108v130q0 97 97 97h52q97 0 97 -97v-491h-114v27q-34 -32 -73 -32q-63 0 -63 70zM82 703h11q22 0 39 -9l25 -14q10 -5 12 -5q5 0 5 6v22h69v-53q0 -45 -43 -45h-11q-23 0 -39 8l-25 14
q-7 5 -12 5t-5 -6v-21h-69v52q0 46 43 46zM130 91q5 0 13 2v172l-12 -5q-13 -7 -13 -22v-137q0 -10 12 -10z" />
    <glyph glyph-name="adieresis" unicode="&#xe4;" horiz-adv-x="268" 
d="M9 65v183q0 35 12.5 52t47.5 30l74 26v129q0 8 -8 8h-7q-7 0 -7 -8v-124h-108v130q0 97 97 97h52q97 0 97 -97v-491h-114v27q-34 -32 -73 -32q-63 0 -63 70zM134 703v-98h-88v98h88zM148 605v98h88v-98h-88zM130 91q5 0 13 2v172l-12 -5q-13 -7 -13 -22v-137
q0 -10 12 -10z" />
    <glyph glyph-name="aring" unicode="&#xe5;" horiz-adv-x="268" 
d="M9 65v183q0 35 12.5 52t47.5 30l74 26v129q0 8 -8 8h-7q-7 0 -7 -8v-124h-108v130q0 97 97 97h52q97 0 97 -97v-491h-114v27q-34 -32 -73 -32q-63 0 -63 70zM217 657v-7q0 -47 -57 -47h-38q-57 0 -57 47v7q0 48 57 48h38q57 0 57 -48zM198 650v7q0 31 -38 31h-38
q-38 0 -38 -31v-7q0 -31 38 -31h38q38 0 38 31zM130 91q5 0 13 2v172l-12 -5q-13 -7 -13 -22v-137q0 -10 12 -10z" />
    <glyph glyph-name="ae" unicode="&#xe6;" horiz-adv-x="406" 
d="M263 588h32q102 0 102 -101v-243h-138v-144q0 -8 8 -8h9q7 0 7 8v109h114v-113q0 -101 -102 -101h-51q-58 0 -84 35l-8 -7q-37 -28 -80 -28q-63 0 -63 70v183q0 35 12.5 52t47.5 30l74 26v129q0 8 -8 8h-7q-7 0 -7 -8v-124h-108v130q0 97 97 97h31q41 0 61 -22
q18 22 61 22zM130 91q5 0 13 2v172l-12 -5q-13 -7 -13 -22v-137q0 -10 12 -10zM259 484v-152h23v152q0 8 -7 8h-8q-8 0 -8 -8z" />
    <glyph glyph-name="ccedilla" unicode="&#xe7;" horiz-adv-x="273" 
d="M150 330v152q0 8 -8 8h-7q-9 0 -9 -8v-381q0 -7 9 -7h7q8 0 8 7v160h114v-165q0 -94 -88 -100l-15 -85h-104l42 85q-90 4 -90 100v391q0 101 101 101h53q101 0 101 -101v-157h-114z" />
    <glyph glyph-name="egrave" unicode="&#xe8;" horiz-adv-x="272" 
d="M263 244h-138v-144q0 -8 8 -8h9q8 0 8 8v109h113v-113q0 -101 -101 -101h-52q-101 0 -101 101v391q0 101 101 101h52q101 0 101 -101v-243zM150 703l33 -98h-91l-63 98h121zM125 484v-152h23v152q0 8 -7 8h-8q-8 0 -8 -8z" />
    <glyph glyph-name="eacute" unicode="&#xe9;" horiz-adv-x="272" 
d="M263 244h-138v-144q0 -8 8 -8h9q8 0 8 8v109h113v-113q0 -101 -101 -101h-52q-101 0 -101 101v391q0 101 101 101h52q101 0 101 -101v-243zM90 605l33 98h121l-62 -98h-92zM125 484v-152h23v152q0 8 -7 8h-8q-8 0 -8 -8z" />
    <glyph glyph-name="ecircumflex" unicode="&#xea;" horiz-adv-x="272" 
d="M263 244h-138v-144q0 -8 8 -8h9q8 0 8 8v109h113v-113q0 -101 -101 -101h-52q-101 0 -101 101v391q0 101 101 101h52q101 0 101 -101v-243zM190 703l51 -98h-77l-27 32l-27 -32h-77l51 98h106zM125 484v-152h23v152q0 8 -7 8h-8q-8 0 -8 -8z" />
    <glyph glyph-name="edieresis" unicode="&#xeb;" horiz-adv-x="272" 
d="M263 244h-138v-144q0 -8 8 -8h9q8 0 8 8v109h113v-113q0 -101 -101 -101h-52q-101 0 -101 101v391q0 101 101 101h52q101 0 101 -101v-243zM144 605v98h88v-98h-88zM130 703v-98h-88v98h88zM125 484v-152h23v152q0 8 -7 8h-8q-8 0 -8 -8z" />
    <glyph glyph-name="igrave" unicode="&#xec;" horiz-adv-x="136" 
d="M10 0v584h117v-584h-117zM82 703l33 -98h-91l-63 98h121z" />
    <glyph glyph-name="iacute" unicode="&#xed;" horiz-adv-x="136" 
d="M22 605l33 98h121l-62 -98h-92zM10 0v584h117v-584h-117z" />
    <glyph glyph-name="icircumflex" unicode="&#xee;" horiz-adv-x="136" 
d="M122 703l51 -98h-77l-27 32l-27 -32h-77l51 98h106zM10 0v584h117v-584h-117z" />
    <glyph glyph-name="idieresis" unicode="&#xef;" horiz-adv-x="136" 
d="M76 605v98h88v-98h-88zM62 703v-98h-88v98h88zM10 0v584h117v-584h-117z" />
    <glyph glyph-name="eth" unicode="&#xf0;" 
d="M265 703l-31 -50q32 -20 32 -67v-490q0 -101 -100 -101h-56q-101 0 -101 101v407q0 76 68 76h1q47 0 80 -38v20q0 23 -25 33l-60 26l44 86l55 -24l12 21h81zM141 487h-7q-8 0 -8 -8v-378q0 -7 8 -7h7q8 0 8 7v378q0 8 -8 8z" />
    <glyph glyph-name="ntilde" unicode="&#xf1;" 
d="M9 0v583h116v-24q38 29 74 29q68 0 68 -77v-511h-117v476q0 11 -11 11q-3 0 -13 -2v-485h-117zM80 703h11q22 0 39 -9l25 -14q10 -5 12 -5q5 0 5 6v22h69v-53q0 -45 -43 -45h-11q-23 0 -39 8l-25 14q-7 5 -12 5t-5 -6v-21h-69v52q0 46 43 46z" />
    <glyph glyph-name="ograve" unicode="&#xf2;" 
d="M142 490h-7q-9 0 -9 -8v-381q0 -7 9 -7h7q8 0 8 7v381q0 8 -8 8zM166 -5h-56q-101 0 -101 101v391q0 101 101 101h56q101 0 101 -101v-391q0 -101 -101 -101zM152 703l33 -98h-91l-63 98h121z" />
    <glyph glyph-name="oacute" unicode="&#xf3;" 
d="M92 605l33 98h121l-62 -98h-92zM142 490h-7q-9 0 -9 -8v-381q0 -7 9 -7h7q8 0 8 7v381q0 8 -8 8zM166 -5h-56q-101 0 -101 101v391q0 101 101 101h56q101 0 101 -101v-391q0 -101 -101 -101z" />
    <glyph glyph-name="ocircumflex" unicode="&#xf4;" 
d="M192 703l51 -98h-77l-27 32l-27 -32h-77l51 98h106zM142 490h-7q-9 0 -9 -8v-381q0 -7 9 -7h7q8 0 8 7v381q0 8 -8 8zM166 -5h-56q-101 0 -101 101v391q0 101 101 101h56q101 0 101 -101v-391q0 -101 -101 -101z" />
    <glyph glyph-name="otilde" unicode="&#xf5;" 
d="M166 -5h-56q-101 0 -101 101v391q0 101 101 101h56q101 0 101 -101v-391q0 -101 -101 -101zM80 703h11q22 0 39 -9l25 -14q10 -5 12 -5q5 0 5 6v22h69v-53q0 -45 -43 -45h-11q-23 0 -39 8l-25 14q-7 5 -12 5t-5 -6v-21h-69v52q0 46 43 46zM142 490h-7q-9 0 -9 -8v-381
q0 -7 9 -7h7q8 0 8 7v381q0 8 -8 8z" />
    <glyph glyph-name="odieresis" unicode="&#xf6;" 
d="M146 605v98h88v-98h-88zM132 703v-98h-88v98h88zM142 490h-7q-9 0 -9 -8v-381q0 -7 9 -7h7q8 0 8 7v381q0 8 -8 8zM166 -5h-56q-101 0 -101 101v391q0 101 101 101h56q101 0 101 -101v-391q0 -101 -101 -101z" />
    <glyph glyph-name="divide" unicode="&#xf7;" horiz-adv-x="245" 
d="M5 398h235v-86h-235v86zM79 414v79h87v-79h-87zM79 217v79h87v-79h-87z" />
    <glyph glyph-name="oslash" unicode="&#xf8;" 
d="M166 -5h-56q-101 0 -101 101v391q0 101 101 101h56q101 0 101 -101v-391q0 -101 -101 -101zM143 93q8 0 8 8l2 196l-27 -153v-43q0 -8 8 -8h9zM142 491h-8q-8 0 -8 -9l-2 -197l27 155v42q0 9 -9 9z" />
    <glyph glyph-name="ugrave" unicode="&#xf9;" 
d="M267 583v-583h-115v25q-37 -30 -74 -30q-69 0 -69 77v511h117v-476q0 -11 11 -11q7 0 13 3v484h117zM152 703l33 -98h-91l-63 98h121z" />
    <glyph glyph-name="uacute" unicode="&#xfa;" 
d="M267 583v-583h-115v25q-37 -30 -74 -30q-69 0 -69 77v511h117v-476q0 -11 11 -11q7 0 13 3v484h117zM92 605l33 98h121l-62 -98h-92z" />
    <glyph glyph-name="ucircumflex" unicode="&#xfb;" 
d="M267 583v-583h-115v25q-37 -30 -74 -30q-69 0 -69 77v511h117v-476q0 -11 11 -11q7 0 13 3v484h117zM192 703l51 -98h-77l-27 32l-27 -32h-77l51 98h106z" />
    <glyph glyph-name="udieresis" unicode="&#xfc;" 
d="M267 583v-583h-115v25q-37 -30 -74 -30q-69 0 -69 77v511h117v-476q0 -11 11 -11q7 0 13 3v484h117zM146 605v98h88v-98h-88zM132 703v-98h-88v98h88z" />
    <glyph glyph-name="yacute" unicode="&#xfd;" horiz-adv-x="279" 
d="M180 -91h-112l18 116l-87 558h119l10 -118q8 -96 13 -192h2q6 118 13 192l10 118h114zM96 605l33 98h121l-62 -98h-92z" />
    <glyph glyph-name="thorn" unicode="&#xfe;" 
d="M9 703h117v-147q38 29 73 29q68 0 68 -76v-437q0 -77 -68 -77q-35 0 -73 28v-104h-117v784zM126 482v-383q8 -3 13 -3q11 0 11 11v366q0 11 -11 11q-3 0 -13 -2z" />
    <glyph glyph-name="ydieresis" unicode="&#xff;" horiz-adv-x="279" 
d="M180 -91h-112l18 116l-87 558h119l10 -118q8 -96 13 -192h2q6 118 13 192l10 118h114zM149 605v98h88v-98h-88zM135 703v-98h-88v98h88z" />
    <glyph glyph-name="Amacron" unicode="&#x100;" horiz-adv-x="293" 
d="M227 700l67 -700h-122l-7 106h-51l-7 -106h-108l68 700h160zM55 797h186v-70h-186v70zM139 500l-19 -290h38z" />
    <glyph glyph-name="amacron" unicode="&#x101;" horiz-adv-x="268" 
d="M9 65v183q0 35 12.5 52t47.5 30l74 26v129q0 8 -8 8h-7q-7 0 -7 -8v-124h-108v130q0 97 97 97h52q97 0 97 -97v-491h-114v27q-34 -32 -73 -32q-63 0 -63 70zM48 688h186v-78h-186v78zM130 91q5 0 13 2v172l-12 -5q-13 -7 -13 -22v-137q0 -10 12 -10z" />
    <glyph glyph-name="Abreve" unicode="&#x102;" horiz-adv-x="293" 
d="M227 700l67 -700h-122l-7 106h-51l-7 -106h-108l68 700h160zM54 789v21h76v-15q0 -11 11 -11h14q11 0 11 11v15h76v-21q0 -33 -17.5 -51.5t-50.5 -18.5h-52q-33 0 -50.5 18.5t-17.5 51.5zM139 500l-19 -290h38z" />
    <glyph glyph-name="abreve" unicode="&#x103;" horiz-adv-x="268" 
d="M9 65v183q0 35 12.5 52t47.5 30l74 26v129q0 8 -8 8h-7q-7 0 -7 -8v-124h-108v130q0 97 97 97h52q97 0 97 -97v-491h-114v27q-34 -32 -73 -32q-63 0 -63 70zM48 672v31h76v-22q0 -11 11 -11h12q11 0 11 11v22h76v-31q0 -33 -18 -51t-51 -18h-48q-33 0 -51 18t-18 51z
M130 91q5 0 13 2v172l-12 -5q-13 -7 -13 -22v-137q0 -10 12 -10z" />
    <glyph glyph-name="Aogonek" unicode="&#x104;" horiz-adv-x="293" 
d="M227 700l67 -700h-20l-6 -11q-8 -13 -8 -22v-2q0 -7 8 -7h21v-61h-65q-45 0 -45 43v9q0 24 17 51h-24l-7 106h-51l-7 -106h-108l68 700h160zM139 500l-19 -290h38z" />
    <glyph glyph-name="aogonek" unicode="&#x105;" horiz-adv-x="268" 
d="M9 65v183q0 35 12.5 52t47.5 30l74 26v129q0 8 -8 8h-7q-7 0 -7 -8v-124h-108v130q0 97 97 97h52q97 0 97 -97v-491h-18l-6 -11q-8 -13 -8 -22v-2q0 -7 8 -7h21v-61h-65q-45 0 -45 43v9q0 24 17 51h-18v27q-34 -32 -73 -32q-63 0 -63 70zM130 91q5 0 13 2v172l-12 -5
q-13 -7 -13 -22v-137q0 -10 12 -10z" />
    <glyph glyph-name="Cacute" unicode="&#x106;" horiz-adv-x="295" 
d="M162 328h123v-223q0 -110 -110 -110h-56q-109 0 -109 110v490q0 110 109 110h56q109 0 109 -110v-203h-123v201q0 9 -10 9h-7q-10 0 -10 -9v-486q0 -9 10 -9h8q10 0 10 9v221zM101 722l37 83h121l-66 -83h-92z" />
    <glyph glyph-name="cacute" unicode="&#x107;" horiz-adv-x="273" 
d="M91 605l33 98h121l-62 -98h-92zM150 330v152q0 8 -8 8h-7q-9 0 -9 -8v-381q0 -7 9 -7h7q8 0 8 7v160h114v-165q0 -101 -101 -101h-53q-101 0 -101 101v391q0 101 101 101h53q101 0 101 -101v-157h-114z" />
    <glyph glyph-name="Cdotaccent" unicode="&#x10a;" horiz-adv-x="295" 
d="M198 794v-72h-100v72h100zM162 328h123v-223q0 -110 -110 -110h-56q-109 0 -109 110v490q0 110 109 110h56q109 0 109 -110v-203h-123v201q0 9 -10 9h-7q-10 0 -10 -9v-486q0 -9 10 -9h8q10 0 10 9v221z" />
    <glyph glyph-name="cdotaccent" unicode="&#x10b;" horiz-adv-x="273" 
d="M150 330v152q0 8 -8 8h-7q-9 0 -9 -8v-381q0 -7 9 -7h7q8 0 8 7v160h114v-165q0 -101 -101 -101h-53q-101 0 -101 101v391q0 101 101 101h53q101 0 101 -101v-157h-114zM188 692v-87h-100v87h100z" />
    <glyph glyph-name="Ccaron" unicode="&#x10c;" horiz-adv-x="295" 
d="M162 328h123v-223q0 -110 -110 -110h-56q-109 0 -109 110v490q0 110 109 110h56q109 0 109 -110v-203h-123v201q0 9 -10 9h-7q-10 0 -10 -9v-486q0 -9 10 -9h8q10 0 10 9v221zM252 810l-51 -88h-106l-51 88h77l27 -25l27 25h77z" />
    <glyph glyph-name="ccaron" unicode="&#x10d;" horiz-adv-x="273" 
d="M242 703l-51 -98h-106l-51 98h77l27 -32l27 32h77zM150 330v152q0 8 -8 8h-7q-9 0 -9 -8v-381q0 -7 9 -7h7q8 0 8 7v160h114v-165q0 -101 -101 -101h-53q-101 0 -101 101v391q0 101 101 101h53q101 0 101 -101v-157h-114z" />
    <glyph glyph-name="Dcaron" unicode="&#x10e;" horiz-adv-x="296" 
d="M247 810l-51 -88h-106l-51 88h77l27 -25l27 25h77zM11 0v700h151q125 0 125 -124v-452q0 -124 -125 -124h-151zM135 598v-496h14q13 0 13 15v467q0 14 -13 14h-14z" />
    <glyph glyph-name="dcaron" unicode="&#x10f;" 
d="M267 703v-703h-115v25q-37 -30 -74 -30q-69 0 -69 77v439q0 77 69 77q34 0 72 -28v143h117zM150 99v386q-8 2 -13 2q-11 0 -11 -11v-369q0 -11 11 -11q7 0 13 3zM281 597v106h88l-25 -106h-63z" />
    <glyph glyph-name="Dcroat" unicode="&#x110;" horiz-adv-x="307" 
d="M22 0v307h-22v96h22v297h151q124 0 124 -124v-452q0 -124 -124 -124h-151zM146 598v-195h17v-96h-17v-205h13q14 0 14 15v467q0 14 -14 14h-13z" />
    <glyph glyph-name="dcroat" unicode="&#x111;" horiz-adv-x="282" 
d="M267 703v-36h26v-76h-26v-591h-115v25q-37 -30 -74 -30q-69 0 -69 77v439q0 77 69 77q34 0 72 -28v38h-51v69h51v36h117zM150 99v386q-8 2 -13 2q-11 0 -11 -11v-369q0 -11 11 -11q7 0 13 3z" />
    <glyph glyph-name="Emacron" unicode="&#x112;" horiz-adv-x="239" 
d="M29 797h186v-70h-186v70zM11 700h220v-106h-96v-186h92v-107h-92v-195h97v-106h-221v700z" />
    <glyph glyph-name="emacron" unicode="&#x113;" horiz-adv-x="272" 
d="M263 244h-138v-144q0 -8 8 -8h9q8 0 8 8v109h113v-113q0 -101 -101 -101h-52q-101 0 -101 101v391q0 101 101 101h52q101 0 101 -101v-243zM44 688h186v-78h-186v78zM125 484v-152h23v152q0 8 -7 8h-8q-8 0 -8 -8z" />
    <glyph glyph-name="Ebreve" unicode="&#x114;" horiz-adv-x="239" 
d="M28 789v21h76v-15q0 -11 11 -11h14q11 0 11 11v15h76v-21q0 -33 -17.5 -51.5t-50.5 -18.5h-52q-33 0 -50.5 18.5t-17.5 51.5zM11 700h220v-106h-96v-186h92v-107h-92v-195h97v-106h-221v700z" />
    <glyph glyph-name="ebreve" unicode="&#x115;" horiz-adv-x="272" 
d="M263 244h-138v-144q0 -8 8 -8h9q8 0 8 8v109h113v-113q0 -101 -101 -101h-52q-101 0 -101 101v391q0 101 101 101h52q101 0 101 -101v-243zM44 672v31h76v-22q0 -11 11 -11h12q11 0 11 11v22h76v-31q0 -33 -18 -51t-51 -18h-48q-33 0 -51 18t-18 51zM125 484v-152h23v152
q0 8 -7 8h-8q-8 0 -8 -8z" />
    <glyph glyph-name="Edotaccent" unicode="&#x116;" horiz-adv-x="239" 
d="M172 794v-72h-100v72h100zM11 700h220v-106h-96v-186h92v-107h-92v-195h97v-106h-221v700z" />
    <glyph glyph-name="edotaccent" unicode="&#x117;" horiz-adv-x="272" 
d="M263 244h-138v-144q0 -8 8 -8h9q8 0 8 8v109h113v-113q0 -101 -101 -101h-52q-101 0 -101 101v391q0 101 101 101h52q101 0 101 -101v-243zM187 692v-87h-100v87h100zM125 484v-152h23v152q0 8 -7 8h-8q-8 0 -8 -8z" />
    <glyph glyph-name="Eogonek" unicode="&#x118;" horiz-adv-x="239" 
d="M11 700h220v-106h-96v-186h92v-107h-92v-195h97v-106h-15l-6 -11q-8 -13 -8 -22v-2q0 -7 8 -7h21v-61h-65q-45 0 -45 43v9q0 24 17 51h-128v700z" />
    <glyph glyph-name="eogonek" unicode="&#x119;" horiz-adv-x="272" 
d="M263 244h-138v-144q0 -8 8 -8h9q8 0 8 8v109h113v-113q0 -29 -8 -48l-24 -58q-6 -16 -6 -25q0 -7 7 -7h22v-61h-64q-45 0 -45 43v11q0 22 12 44h-47q-101 0 -101 101v391q0 101 101 101h52q101 0 101 -101v-243zM125 484v-152h23v152q0 8 -7 8h-8q-8 0 -8 -8z" />
    <glyph glyph-name="Ecaron" unicode="&#x11a;" horiz-adv-x="239" 
d="M226 810l-51 -88h-106l-51 88h77l27 -25l27 25h77zM11 700h220v-106h-96v-186h92v-107h-92v-195h97v-106h-221v700z" />
    <glyph glyph-name="ecaron" unicode="&#x11b;" horiz-adv-x="272" 
d="M263 244h-138v-144q0 -8 8 -8h9q8 0 8 8v109h113v-113q0 -101 -101 -101h-52q-101 0 -101 101v391q0 101 101 101h52q101 0 101 -101v-243zM241 703l-51 -98h-106l-51 98h77l27 -32l27 32h77zM125 484v-152h23v152q0 8 -7 8h-8q-8 0 -8 -8z" />
    <glyph glyph-name="Gbreve" unicode="&#x11e;" horiz-adv-x="297" 
d="M55 789v21h76v-15q0 -11 11 -11h14q11 0 11 11v15h76v-21q0 -33 -17.5 -51.5t-50.5 -18.5h-52q-33 0 -50.5 18.5t-17.5 51.5zM165 295h-17v100h140v-290q0 -110 -110 -110h-59q-109 0 -109 110v490q0 110 109 110h58q109 0 109 -110v-163h-123v161q0 9 -10 9h-9
q-10 0 -10 -9v-485q0 -10 10 -10h11q10 0 10 9v188z" />
    <glyph glyph-name="gbreve" unicode="&#x11f;" 
d="M267 583v-588q0 -89 -89 -89h-80q-45 0 -65.5 20t-20.5 64v36h107v-29q0 -11 11 -11h11q11 0 11 11v69q-36 -28 -74 -28q-69 0 -69 77v396q0 77 69 77q36 0 74 -28v23h115zM46 672v31h76v-22q0 -11 11 -11h12q11 0 11 11v22h76v-31q0 -33 -18 -51t-51 -18h-48
q-33 0 -51 18t-18 51zM150 139v346q-8 2 -13 2q-11 0 -11 -11v-328q0 -11 11 -11q5 0 13 2z" />
    <glyph glyph-name="Gdotaccent" unicode="&#x120;" horiz-adv-x="297" 
d="M199 794v-72h-100v72h100zM165 295h-17v100h140v-290q0 -110 -110 -110h-59q-109 0 -109 110v490q0 110 109 110h58q109 0 109 -110v-163h-123v161q0 9 -10 9h-9q-10 0 -10 -9v-485q0 -10 10 -10h11q10 0 10 9v188z" />
    <glyph glyph-name="gdotaccent" unicode="&#x121;" 
d="M267 583v-588q0 -89 -89 -89h-80q-45 0 -65.5 20t-20.5 64v36h107v-29q0 -11 11 -11h11q11 0 11 11v69q-36 -28 -74 -28q-69 0 -69 77v396q0 77 69 77q36 0 74 -28v23h115zM189 692v-87h-100v87h100zM150 139v346q-8 2 -13 2q-11 0 -11 -11v-328q0 -11 11 -11q5 0 13 2z
" />
    <glyph glyph-name="Gcommaaccent" unicode="&#x122;" horiz-adv-x="297" 
d="M108 -42v20h84v-18q0 -61 -41 -97h-72q29 44 29 95zM165 295h-17v100h140v-290q0 -110 -110 -110h-59q-109 0 -109 110v490q0 110 109 110h58q109 0 109 -110v-163h-123v161q0 9 -10 9h-9q-10 0 -10 -9v-485q0 -10 10 -10h11q10 0 10 9v188z" />
    <glyph glyph-name="gcommaaccent" unicode="&#x123;" 
d="M267 583v-588q0 -89 -89 -89h-80q-45 0 -65.5 20t-20.5 64v36h107v-29q0 -11 11 -11h11q11 0 11 11v69q-36 -28 -74 -28q-69 0 -69 77v396q0 77 69 77q36 0 74 -28v23h115zM178 626v-20h-84v18q0 62 41 98h72q-29 -44 -29 -96zM150 139v346q-8 2 -13 2q-11 0 -11 -11
v-328q0 -11 11 -11q5 0 13 2z" />
    <glyph glyph-name="Hbar" unicode="&#x126;" horiz-adv-x="320" 
d="M0 511v96h21v93h124v-104h28v104h125v-93h22v-96h-22v-511h-125v301h-28v-301h-124v511h-21zM145 408h28v114h-28v-114z" />
    <glyph glyph-name="hbar" unicode="&#x127;" horiz-adv-x="286" 
d="M18 0v591h-24v76h24v36h117v-36h53v-69h-53v-39q38 29 73 29q68 0 68 -77v-511h-117v476q0 11 -11 11q-3 0 -13 -2v-485h-117z" />
    <glyph glyph-name="Imacron" unicode="&#x12a;" horiz-adv-x="147" 
d="M136 700v-700h-125v700h125zM-19 797h186v-70h-186v70z" />
    <glyph glyph-name="imacron" unicode="&#x12b;" horiz-adv-x="136" 
d="M10 0v584h117v-584h-117zM-24 688h186v-78h-186v78z" />
    <glyph glyph-name="Ibreve" unicode="&#x12c;" horiz-adv-x="147" 
d="M136 700v-700h-125v700h125zM-20 789v21h76v-15q0 -11 11 -11h14q11 0 11 11v15h76v-21q0 -33 -17.5 -51.5t-50.5 -18.5h-52q-33 0 -50.5 18.5t-17.5 51.5z" />
    <glyph glyph-name="ibreve" unicode="&#x12d;" horiz-adv-x="136" 
d="M10 0v584h117v-584h-117zM-24 672v31h76v-22q0 -11 11 -11h12q11 0 11 11v22h76v-31q0 -33 -18 -51t-51 -18h-48q-33 0 -51 18t-18 51z" />
    <glyph glyph-name="Iogonek" unicode="&#x12e;" horiz-adv-x="147" 
d="M136 700v-700h-19l-6 -11q-8 -13 -8 -22v-2q0 -7 8 -7h21v-61h-65q-45 0 -45 43v9q0 24 17 51h-28v700h125z" />
    <glyph glyph-name="iogonek" unicode="&#x12f;" horiz-adv-x="136" 
d="M10 0v583h117v-583h-18l-6 -11q-8 -13 -8 -22v-2q0 -7 8 -7h21v-61h-65q-45 0 -45 43v9q0 24 17 51h-21zM9 599v87h120v-87h-120z" />
    <glyph glyph-name="Idotaccent" unicode="&#x130;" horiz-adv-x="147" 
d="M136 700v-700h-125v700h125zM124 794v-72h-100v72h100z" />
    <glyph glyph-name="dotlessi" unicode="&#x131;" horiz-adv-x="138" 
d="M10 0v584h117v-584h-117z" />
    <glyph glyph-name="Kcommaaccent" unicode="&#x136;" horiz-adv-x="291" 
d="M294 0h-128l-31 293v-293h-124v700h124v-294l36 294h124l-47 -336zM109 -42v20h85v-18q0 -60 -42 -97h-72q29 44 29 95z" />
    <glyph glyph-name="kcommaaccent" unicode="&#x137;" horiz-adv-x="286" 
d="M166 583h118l-50 -293l51 -290h-122l-37 266v-266h-117v703h117v-402zM102 -42v20h85v-18q0 -61 -41 -97h-73q29 41 29 95z" />
    <glyph glyph-name="Lacute" unicode="&#x139;" horiz-adv-x="224" 
d="M27 722l37 83h121l-66 -83h-92zM11 700h124v-594h86v-106h-210v700z" />
    <glyph glyph-name="lacute" unicode="&#x13a;" horiz-adv-x="136" 
d="M22 724l33 98h121l-62 -98h-92zM10 0v703h117v-703h-117z" />
    <glyph glyph-name="Lcommaaccent" unicode="&#x13b;" horiz-adv-x="224" 
d="M75 -42v20h84v-18q0 -61 -41 -97h-72q29 44 29 95zM11 700h124v-594h86v-106h-210v700z" />
    <glyph glyph-name="lcommaaccent" unicode="&#x13c;" horiz-adv-x="136" 
d="M27 -42v20h85v-18q0 -60 -42 -97h-72q29 41 29 95zM10 0v703h117v-703h-117z" />
    <glyph glyph-name="Lcaron" unicode="&#x13d;" horiz-adv-x="224" 
d="M150 594v106h88l-25 -106h-63zM11 700h124v-594h86v-106h-210v700z" />
    <glyph glyph-name="lcaron" unicode="&#x13e;" horiz-adv-x="136" 
d="M143 597v106h88l-25 -106h-63zM10 0v703h117v-703h-117z" />
    <glyph glyph-name="Ldot" unicode="&#x13f;" horiz-adv-x="224" 
d="M214 404v-100h-63v100h63zM11 700h124v-594h86v-106h-210v700z" />
    <glyph glyph-name="ldot" unicode="&#x140;" horiz-adv-x="210" 
d="M205 406v-101h-64v101h64zM10 0v703h117v-703h-117z" />
    <glyph glyph-name="Lslash" unicode="&#x141;" horiz-adv-x="235" 
d="M21 700h124v-253l51 36v-108l-51 -36v-233h86v-106h-210v257l-21 -15v109l21 14v335z" />
    <glyph glyph-name="lslash" unicode="&#x142;" horiz-adv-x="159" 
d="M21 0v244l-22 -18v105l22 16v356h117v-271l22 18v-104l-22 -17v-329h-117z" />
    <glyph glyph-name="Nacute" unicode="&#x143;" horiz-adv-x="287" 
d="M163 0l-54 314l5 -314h-103v700h119l48 -287l-5 287h103v-700h-113zM98 722l37 83h121l-66 -83h-92z" />
    <glyph glyph-name="nacute" unicode="&#x144;" 
d="M9 0v583h116v-24q38 29 74 29q68 0 68 -77v-511h-117v476q0 11 -11 11q-3 0 -13 -2v-485h-117zM92 605l33 98h121l-62 -98h-92z" />
    <glyph glyph-name="Ncommaaccent" unicode="&#x145;" horiz-adv-x="287" 
d="M163 0l-54 314l5 -314h-103v700h119l48 -287l-5 287h103v-700h-113zM103 -42v20h84v-18q0 -61 -41 -97h-72q29 44 29 95z" />
    <glyph glyph-name="ncommaaccent" unicode="&#x146;" 
d="M9 0v583h116v-24q38 29 74 29q68 0 68 -77v-511h-117v476q0 11 -11 11q-3 0 -13 -2v-485h-117zM97 -42v20h85v-18q0 -61 -41 -97h-73q29 41 29 95z" />
    <glyph glyph-name="Ncaron" unicode="&#x147;" horiz-adv-x="287" 
d="M163 0l-54 314l5 -314h-103v700h119l48 -287l-5 287h103v-700h-113zM248 810l-51 -88h-106l-51 88h77l27 -25l27 25h77z" />
    <glyph glyph-name="ncaron" unicode="&#x148;" 
d="M9 0v583h116v-24q38 29 74 29q68 0 68 -77v-511h-117v476q0 11 -11 11q-3 0 -13 -2v-485h-117zM243 703l-51 -98h-106l-51 98h77l27 -32l27 32h77z" />
    <glyph glyph-name="Omacron" unicode="&#x14c;" horiz-adv-x="297" 
d="M56 797h186v-70h-186v70zM288 105q0 -110 -110 -110h-59q-109 0 -109 110v490q0 110 109 110h59q110 0 110 -110v-490zM163 593q0 9 -9 9h-10q-10 0 -10 -9v-486q0 -9 10 -9h10q9 0 9 9v486z" />
    <glyph glyph-name="omacron" unicode="&#x14d;" 
d="M46 688h186v-78h-186v78zM142 490h-7q-9 0 -9 -8v-381q0 -7 9 -7h7q8 0 8 7v381q0 8 -8 8zM166 -5h-56q-101 0 -101 101v391q0 101 101 101h56q101 0 101 -101v-391q0 -101 -101 -101z" />
    <glyph glyph-name="Obreve" unicode="&#x14e;" horiz-adv-x="297" 
d="M55 789v21h76v-15q0 -11 11 -11h14q11 0 11 11v15h76v-21q0 -33 -17.5 -51.5t-50.5 -18.5h-52q-33 0 -50.5 18.5t-17.5 51.5zM288 105q0 -110 -110 -110h-59q-109 0 -109 110v490q0 110 109 110h59q110 0 110 -110v-490zM163 593q0 9 -9 9h-10q-10 0 -10 -9v-486
q0 -9 10 -9h10q9 0 9 9v486z" />
    <glyph glyph-name="obreve" unicode="&#x14f;" 
d="M142 490h-7q-9 0 -9 -8v-381q0 -7 9 -7h7q8 0 8 7v381q0 8 -8 8zM166 -5h-56q-101 0 -101 101v391q0 101 101 101h56q101 0 101 -101v-391q0 -101 -101 -101zM46 672v31h76v-22q0 -11 11 -11h12q11 0 11 11v22h76v-31q0 -33 -18 -51t-51 -18h-48q-33 0 -51 18t-18 51z
" />
    <glyph glyph-name="Ohungarumlaut" unicode="&#x150;" horiz-adv-x="297" 
d="M288 105q0 -110 -110 -110h-59q-109 0 -109 110v490q0 110 109 110h59q110 0 110 -110v-490zM163 593q0 9 -9 9h-10q-10 0 -10 -9v-486q0 -9 10 -9h10q9 0 9 9v486zM163 722l21 56l-44 -56h-63l31 83h183l-64 -83h-64z" />
    <glyph glyph-name="ohungarumlaut" unicode="&#x151;" 
d="M166 -5h-56q-101 0 -101 101v391q0 101 101 101h56q101 0 101 -101v-391q0 -101 -101 -101zM152 605l19 66l-42 -66h-63l27 98h184l-61 -98h-64zM142 490h-7q-9 0 -9 -8v-381q0 -7 9 -7h7q8 0 8 7v381q0 8 -8 8z" />
    <glyph glyph-name="OE" unicode="&#x152;" horiz-adv-x="389" 
d="M381 700v-106h-96v-186h92v-107h-92v-195h97v-106h-256q-116 0 -116 116v468q0 116 116 116h255zM162 102v496h-16q-12 0 -12 -12v-472q0 -12 12 -12h16z" />
    <glyph glyph-name="oe" unicode="&#x153;" horiz-adv-x="412" 
d="M268 588h33q102 0 102 -101v-243h-138v-144q0 -8 8 -8h9q7 0 7 8v109h114v-113q0 -101 -102 -101h-33q-41 0 -61 22q-20 -22 -61 -22h-36q-101 0 -101 101v391q0 101 101 101h36q41 0 61 -22q20 22 61 22zM141 490h-7q-8 0 -8 -8v-381q0 -7 8 -7h7q8 0 8 7v381q0 8 -8 8z
M265 484v-152h23v152q0 8 -8 8h-7q-8 0 -8 -8z" />
    <glyph glyph-name="Racute" unicode="&#x154;" horiz-adv-x="295" 
d="M230 330q56 -14 56 -73v-257h-124v268q0 9 -10 9h-17v-277h-124v700h165q109 0 109 -110v-176q0 -67 -55 -84zM161 587q0 9 -10 9h-16v-217h16q10 0 10 10v198zM103 722l37 83h121l-66 -83h-92z" />
    <glyph glyph-name="racute" unicode="&#x155;" horiz-adv-x="188" 
d="M46 605l33 98h121l-62 -98h-92zM9 0v583h116v-45q24 49 60 49v-130q-37 -4 -59 -19v-438h-117z" />
    <glyph glyph-name="Rcommaaccent" unicode="&#x156;" horiz-adv-x="296" 
d="M108 -42v20h84v-18q0 -61 -41 -97h-72q29 44 29 95zM230 330q56 -14 56 -73v-257h-124v268q0 9 -10 9h-17v-277h-124v700h165q109 0 109 -110v-176q0 -67 -55 -84zM161 587q0 9 -10 9h-16v-217h16q10 0 10 10v198z" />
    <glyph glyph-name="rcommaaccent" unicode="&#x157;" horiz-adv-x="188" 
d="M28 -42v20h84v-18q0 -61 -41 -97h-72q29 43 29 95zM9 0v583h116v-45q24 49 60 49v-130q-37 -4 -59 -19v-438h-117z" />
    <glyph glyph-name="Rcaron" unicode="&#x158;" horiz-adv-x="295" 
d="M253 810l-51 -88h-106l-51 88h77l27 -25l27 25h77zM230 330q56 -14 56 -73v-257h-124v268q0 9 -10 9h-17v-277h-124v700h165q109 0 109 -110v-176q0 -67 -55 -84zM161 587q0 9 -10 9h-16v-217h16q10 0 10 10v198z" />
    <glyph glyph-name="rcaron" unicode="&#x159;" horiz-adv-x="188" 
d="M197 703l-51 -98h-106l-51 98h77l27 -32l27 32h77zM9 0v583h116v-45q24 49 60 49v-130q-37 -4 -59 -19v-438h-117z" />
    <glyph glyph-name="Sacute" unicode="&#x15a;" horiz-adv-x="289" 
d="M236 367q45 -32 45 -95v-167q0 -110 -110 -110h-51q-110 0 -110 110v174h121v-174q0 -9 9 -9h9q9 0 9 9v156q0 12 -10 18l-92 63q-46 33 -46 95v158q0 110 110 110h50q109 0 109 -110v-164h-120v164q0 9 -10 9h-7q-9 0 -9 -9v-146q0 -13 10 -19zM99 722l37 83h121
l-66 -83h-92z" />
    <glyph glyph-name="sacute" unicode="&#x15b;" horiz-adv-x="265" 
d="M86 605l33 98h121l-62 -98h-92zM146 362v122q0 8 -8 8h-8q-8 0 -8 -8v-108q0 -12 13 -20l55 -31q38 -22 52 -43.5t14 -57.5v-128q0 -101 -101 -101h-45q-101 0 -101 101v131h111v-127q0 -8 8 -8h8q8 0 8 8v111q0 12 -13 20l-55 33q-38 21 -52 42t-14 57v124
q0 101 101 101h45q101 0 101 -101v-125h-111z" />
    <glyph glyph-name="Scedilla" unicode="&#x15e;" horiz-adv-x="289" 
d="M236 367q45 -32 45 -95v-167q0 -103 -98 -109l-15 -85h-104l42 85q-96 6 -96 109v174h121v-174q0 -9 9 -9h9q9 0 9 9v156q0 12 -10 18l-92 63q-46 33 -46 95v158q0 110 110 110h50q109 0 109 -110v-164h-120v164q0 9 -10 9h-7q-9 0 -9 -9v-146q0 -13 10 -19z" />
    <glyph glyph-name="scedilla" unicode="&#x15f;" horiz-adv-x="265" 
d="M146 362v122q0 8 -8 8h-8q-8 0 -8 -8v-108q0 -12 13 -20l55 -31q38 -22 52 -43.5t14 -57.5v-128q0 -94 -85 -100l-15 -85h-104l43 85q-86 6 -86 100v131h111v-127q0 -8 8 -8h8q8 0 8 8v111q0 12 -13 20l-55 33q-38 21 -52 42t-14 57v124q0 101 101 101h45q101 0 101 -101
v-125h-111z" />
    <glyph glyph-name="Scaron" unicode="&#x160;" horiz-adv-x="289" 
d="M236 367q45 -32 45 -95v-167q0 -110 -110 -110h-51q-110 0 -110 110v174h121v-174q0 -9 9 -9h9q9 0 9 9v156q0 12 -10 18l-92 63q-46 33 -46 95v158q0 110 110 110h50q109 0 109 -110v-164h-120v164q0 9 -10 9h-7q-9 0 -9 -9v-146q0 -13 10 -19zM250 810l-51 -88h-106
l-51 88h77l27 -25l27 25h77z" />
    <glyph glyph-name="scaron" unicode="&#x161;" horiz-adv-x="265" 
d="M237 703l-51 -98h-106l-51 98h77l27 -32l27 32h77zM146 362v122q0 8 -8 8h-8q-8 0 -8 -8v-108q0 -12 13 -20l55 -31q38 -22 52 -43.5t14 -57.5v-128q0 -101 -101 -101h-45q-101 0 -101 101v131h111v-127q0 -8 8 -8h8q8 0 8 8v111q0 12 -13 20l-55 33q-38 21 -52 42
t-14 57v124q0 101 101 101h45q101 0 101 -101v-125h-111z" />
    <glyph glyph-name="Tcommaaccent" unicode="&#x162;" horiz-adv-x="264" 
d="M91 -42v20h84v-18q0 -61 -41 -97h-72q29 44 29 95zM194 0h-124v594h-65v106h254v-106h-65v-594z" />
    <glyph glyph-name="Tcommaaccent" unicode="&#x21a;" horiz-adv-x="264" 
d="M91 -42v20h84v-18q0 -61 -41 -97h-72q29 44 29 95zM194 0h-124v594h-65v106h254v-106h-65v-594z" />
    <glyph glyph-name="tcommaaccent" unicode="&#x163;" horiz-adv-x="188" 
d="M47 -42v20h84v-18q0 -61 -41 -97h-72q29 43 29 95zM147 483v-483h-117v483h-26v100h26v66h117v-66h38v-100h-38z" />
    <glyph glyph-name="tcommaaccent" unicode="&#x21b;" horiz-adv-x="188" 
d="M47 -42v20h84v-18q0 -61 -41 -97h-72q29 43 29 95zM147 483v-483h-117v483h-26v100h26v66h117v-66h38v-100h-38z" />
    <glyph glyph-name="Tcaron" unicode="&#x164;" horiz-adv-x="264" 
d="M236 810l-51 -88h-106l-51 88h77l27 -25l27 25h77zM194 0h-124v594h-65v106h254v-106h-65v-594z" />
    <glyph glyph-name="tcaron" unicode="&#x165;" horiz-adv-x="188" 
d="M162 597v106h88l-25 -106h-63zM147 483v-483h-117v483h-26v100h26v66h117v-66h38v-100h-38z" />
    <glyph glyph-name="Umacron" unicode="&#x16a;" horiz-adv-x="297" 
d="M56 797h186v-70h-186v70zM286 700v-595q0 -110 -110 -110h-56q-109 0 -109 110v595h124v-593q0 -9 10 -9h7q10 0 10 9v593h124z" />
    <glyph glyph-name="umacron" unicode="&#x16b;" 
d="M267 583v-583h-115v25q-37 -30 -74 -30q-69 0 -69 77v511h117v-476q0 -11 11 -11q7 0 13 3v484h117zM46 688h186v-78h-186v78z" />
    <glyph glyph-name="Ubreve" unicode="&#x16c;" horiz-adv-x="297" 
d="M55 789v21h76v-15q0 -11 11 -11h14q11 0 11 11v15h76v-21q0 -33 -17.5 -51.5t-50.5 -18.5h-52q-33 0 -50.5 18.5t-17.5 51.5zM286 700v-595q0 -110 -110 -110h-56q-109 0 -109 110v595h124v-593q0 -9 10 -9h7q10 0 10 9v593h124z" />
    <glyph glyph-name="ubreve" unicode="&#x16d;" 
d="M267 583v-583h-115v25q-37 -30 -74 -30q-69 0 -69 77v511h117v-476q0 -11 11 -11q7 0 13 3v484h117zM46 672v31h76v-22q0 -11 11 -11h12q11 0 11 11v22h76v-31q0 -33 -18 -51t-51 -18h-48q-33 0 -51 18t-18 51z" />
    <glyph glyph-name="Uring" unicode="&#x16e;" horiz-adv-x="297" 
d="M286 700v-595q0 -110 -110 -110h-56q-109 0 -109 110v595h124v-593q0 -9 10 -9h7q10 0 10 9v593h124zM241 771v-4q0 -48 -57 -48h-70q-56 0 -56 48v4q0 47 56 47h70q57 0 57 -47zM221 768v2q0 31 -37 31h-70q-37 0 -37 -31v-2q0 -31 37 -31h70q37 0 37 31z" />
    <glyph glyph-name="uring" unicode="&#x16f;" 
d="M267 583v-583h-115v25q-37 -30 -74 -30q-69 0 -69 77v511h117v-476q0 -11 11 -11q7 0 13 3v484h117zM215 657v-7q0 -47 -57 -47h-38q-57 0 -57 47v7q0 48 57 48h38q57 0 57 -48zM196 650v7q0 31 -38 31h-38q-38 0 -38 -31v-7q0 -31 38 -31h38q38 0 38 31z" />
    <glyph glyph-name="Uhungarumlaut" unicode="&#x170;" horiz-adv-x="297" 
d="M286 700v-595q0 -110 -110 -110h-56q-109 0 -109 110v595h124v-593q0 -9 10 -9h7q10 0 10 9v593h124zM162 722l21 56l-44 -56h-63l31 83h183l-64 -83h-64z" />
    <glyph glyph-name="uhungarumlaut" unicode="&#x171;" 
d="M267 583v-583h-115v25q-37 -30 -74 -30q-69 0 -69 77v511h117v-476q0 -11 11 -11q7 0 13 3v484h117zM152 605l19 66l-42 -66h-63l27 98h184l-61 -98h-64z" />
    <glyph glyph-name="Uogonek" unicode="&#x172;" horiz-adv-x="297" 
d="M286 700v-595q0 -104 -100 -110l-3 -6q-8 -13 -8 -22v-2q0 -7 8 -7h21v-61h-65q-45 0 -45 43v9q0 23 14 47q-97 6 -97 109v595h124v-593q0 -9 10 -9h7q10 0 10 9v593h124z" />
    <glyph glyph-name="uogonek" unicode="&#x173;" 
d="M267 583v-583h-19l-6 -11q-8 -13 -8 -22v-2q0 -7 8 -7h21v-61h-65q-45 0 -45 43v9q0 24 17 51h-18v25q-37 -30 -74 -30q-69 0 -69 77v511h117v-476q0 -11 11 -11q7 0 13 3v484h117z" />
    <glyph glyph-name="Wcircumflex" unicode="&#x174;" horiz-adv-x="423" 
d="M279 700l18 -312l19 312h108l-62 -700h-128l-23 284l-22 -284h-127l-63 700h130l17 -312l20 312h113zM276 810l51 -88h-77l-27 24l-27 -24h-77l51 88h106z" />
    <glyph glyph-name="wcircumflex" unicode="&#x175;" horiz-adv-x="420" 
d="M189 0h-130l-56 583h112l17 -320l22 320h119l21 -316l18 316h105l-56 -583h-130l-21 260zM265 703l51 -98h-77l-27 32l-27 -32h-77l51 98h106z" />
    <glyph glyph-name="Ycircumflex" unicode="&#x176;" horiz-adv-x="279" 
d="M202 0h-124v221l-83 479h129l23 -239l26 239h112l-83 -473v-227zM202 810l51 -88h-77l-27 24l-27 -24h-77l51 88h106z" />
    <glyph glyph-name="ycircumflex" unicode="&#x177;" horiz-adv-x="279" 
d="M180 -91h-112l18 116l-87 558h119l10 -118q8 -96 13 -192h2q6 118 13 192l10 118h114zM195 703l51 -98h-77l-27 32l-27 -32h-77l51 98h106z" />
    <glyph glyph-name="Ydieresis" unicode="&#x178;" horiz-adv-x="279" 
d="M202 0h-124v221l-83 479h129l23 -239l26 239h112l-83 -473v-227zM156 722v83h89v-83h-89zM142 805v-83h-89v83h89z" />
    <glyph glyph-name="Zacute" unicode="&#x179;" horiz-adv-x="243" 
d="M108 594h-100v106h229v-106l-104 -488h104v-106h-232v106zM78 722l37 83h121l-66 -83h-92z" />
    <glyph glyph-name="zacute" unicode="&#x17a;" horiz-adv-x="226" 
d="M72 605l33 98h121l-62 -98h-92zM106 483h-97v100h212v-100l-101 -383h101v-100h-216v100z" />
    <glyph glyph-name="Zdotaccent" unicode="&#x17b;" horiz-adv-x="243" 
d="M175 794v-72h-100v72h100zM108 594h-100v106h229v-106l-104 -488h104v-106h-232v106z" />
    <glyph glyph-name="zdotaccent" unicode="&#x17c;" horiz-adv-x="226" 
d="M106 483h-97v100h212v-100l-101 -383h101v-100h-216v100zM169 692v-87h-100v87h100z" />
    <glyph glyph-name="Zcaron" unicode="&#x17d;" horiz-adv-x="243" 
d="M229 810l-51 -88h-106l-51 88h77l27 -25l27 25h77zM108 594h-100v106h229v-106l-104 -488h104v-106h-232v106z" />
    <glyph glyph-name="zcaron" unicode="&#x17e;" horiz-adv-x="226" 
d="M223 703l-51 -98h-106l-51 98h77l27 -32l27 32h77zM106 483h-97v100h212v-100l-101 -383h101v-100h-216v100z" />
    <glyph glyph-name="Aringacute" unicode="&#x1fa;" horiz-adv-x="293" 
d="M239 711v-4q0 -20 -10 -31l65 -676h-122l-7 106h-51l-7 -106h-108l65 678q-8 11 -8 29v4q0 47 56 47h70q57 0 57 -47zM102 777l37 83h121l-66 -83h-92zM219 708v2q0 31 -37 31h-70q-37 0 -37 -31v-2q0 -31 37 -31h70q37 0 37 31zM139 503l-19 -293h38z" />
    <glyph glyph-name="aringacute" unicode="&#x1fb;" horiz-adv-x="268" 
d="M9 65v183q0 35 12.5 52t47.5 30l74 26v129q0 8 -8 8h-7q-7 0 -7 -8v-124h-108v130q0 97 97 97h52q97 0 97 -97v-491h-114v27q-34 -32 -73 -32q-63 0 -63 70zM211 657v-7q0 -47 -57 -47h-38q-57 0 -57 47v7q0 48 57 48h38q57 0 57 -48zM91 719l33 98h121l-62 -98h-92z
M192 650v7q0 31 -38 31h-38q-38 0 -38 -31v-7q0 -31 38 -31h38q38 0 38 31zM130 91q5 0 13 2v172l-12 -5q-13 -7 -13 -22v-137q0 -10 12 -10z" />
    <glyph glyph-name="AEacute" unicode="&#x1fc;" horiz-adv-x="383" 
d="M82 700h292v-106h-95v-186h92v-107h-92v-195h97v-106h-221v106h-41l-10 -106h-107zM170 722l37 83h121l-66 -83h-92zM122 210h33v342z" />
    <glyph glyph-name="aeacute" unicode="&#x1fd;" horiz-adv-x="406" 
d="M263 588h32q102 0 102 -101v-243h-138v-144q0 -8 8 -8h9q7 0 7 8v109h114v-113q0 -101 -102 -101h-51q-58 0 -84 35l-8 -7q-37 -28 -80 -28q-63 0 -63 70v183q0 35 12.5 52t47.5 30l74 26v129q0 8 -8 8h-7q-7 0 -7 -8v-124h-108v130q0 97 97 97h31q41 0 61 -22
q18 22 61 22zM159 605l33 98h121l-62 -98h-92zM130 91q5 0 13 2v172l-12 -5q-13 -7 -13 -22v-137q0 -10 12 -10zM259 484v-152h23v152q0 8 -7 8h-8q-8 0 -8 -8z" />
    <glyph glyph-name="Oslashacute" unicode="&#x1fe;" horiz-adv-x="297" 
d="M288 105q0 -110 -110 -110h-59q-109 0 -109 110v491q0 110 109 110h59q110 0 110 -110v-491zM103 722l37 83h121l-66 -83h-92zM133 594l-2 -265l33 214v51q0 10 -9 10h-12q-10 0 -10 -10zM164 107l2 261l-33 -214v-47q0 -10 10 -10h11q10 0 10 10z" />
    <glyph glyph-name="oslashacute" unicode="&#x1ff;" 
d="M166 -5h-56q-101 0 -101 101v391q0 101 101 101h56q101 0 101 -101v-391q0 -101 -101 -101zM92 605l33 98h121l-62 -98h-92zM143 93q8 0 8 8l2 196l-27 -153v-43q0 -8 8 -8h9zM142 491h-8q-8 0 -8 -9l-2 -197l27 155v42q0 9 -9 9z" />
    <glyph glyph-name="Scommaaccent" unicode="&#x218;" horiz-adv-x="288" 
d="M105 -42v20h85v-18q0 -60 -42 -97h-72q29 44 29 95zM236 367q45 -32 45 -95v-167q0 -110 -110 -110h-51q-110 0 -110 110v174h121v-174q0 -9 9 -9h9q9 0 9 9v156q0 12 -10 18l-92 63q-46 33 -46 95v158q0 110 110 110h50q109 0 109 -110v-164h-120v164q0 9 -10 9h-7
q-9 0 -9 -9v-146q0 -13 10 -19z" />
    <glyph glyph-name="scommaaccent" unicode="&#x219;" horiz-adv-x="265" 
d="M92 -42v20h84v-18q0 -61 -41 -97h-72q29 44 29 95zM146 362v122q0 8 -8 8h-8q-8 0 -8 -8v-108q0 -12 13 -20l55 -31q38 -22 52 -43.5t14 -57.5v-128q0 -101 -101 -101h-45q-101 0 -101 101v131h111v-127q0 -8 8 -8h8q8 0 8 8v111q0 12 -13 20l-55 33q-38 21 -52 42
t-14 57v124q0 101 101 101h45q101 0 101 -101v-125h-111z" />
    <glyph glyph-name="schwa" unicode="&#x259;" horiz-adv-x="271" 
d="M7 96v243h138v144q0 8 -8 8h-9q-8 0 -8 -8v-109h-113v113q0 101 101 101h52q101 0 101 -101v-391q0 -101 -101 -101h-52q-101 0 -101 101zM137 91q8 0 8 8v152h-23v-152q0 -8 7 -8h8z" />
    <glyph glyph-name="circumflex" unicode="&#x2c6;" horiz-adv-x="366" 
d="M236 703l51 -98h-77l-27 32l-27 -32h-77l51 98h106z" />
    <glyph glyph-name="caron" unicode="&#x2c7;" horiz-adv-x="366" 
d="M287 703l-51 -98h-106l-51 98h77l27 -32l27 32h77z" />
    <glyph glyph-name="breve" unicode="&#x2d8;" horiz-adv-x="366" 
d="M90 672v31h76v-22q0 -11 11 -11h12q11 0 11 11v22h76v-31q0 -33 -18 -51t-51 -18h-48q-33 0 -51 18t-18 51z" />
    <glyph glyph-name="dotaccent" unicode="&#x2d9;" horiz-adv-x="366" 
d="M233 692v-87h-100v87h100z" />
    <glyph glyph-name="ring" unicode="&#x2da;" horiz-adv-x="366" 
d="M259 657v-7q0 -47 -57 -47h-38q-57 0 -57 47v7q0 48 57 48h38q57 0 57 -48zM240 650v7q0 31 -38 31h-38q-38 0 -38 -31v-7q0 -31 38 -31h38q38 0 38 31z" />
    <glyph glyph-name="ogonek" unicode="&#x2db;" horiz-adv-x="366" 
d="M173 17h77l-16 -28q-8 -13 -8 -22v-2q0 -7 8 -7h21v-61h-65q-45 0 -45 43v9q0 24 17 51z" />
    <glyph glyph-name="tilde" unicode="&#x2dc;" horiz-adv-x="366" 
d="M124 703h11q22 0 39 -9l25 -14q10 -5 12 -5q5 0 5 6v22h69v-53q0 -45 -43 -45h-11q-23 0 -39 8l-25 14q-7 5 -12 5t-5 -6v-21h-69v52q0 46 43 46z" />
    <glyph glyph-name="hungarumlaut" unicode="&#x2dd;" horiz-adv-x="366" 
d="M178 605l19 66l-42 -66h-63l27 98h184l-61 -98h-64z" />
    <glyph glyph-name="commaaccent" unicode="&#x326;" horiz-adv-x="366" 
d="M143 -42v20h85v-18q0 -60 -42 -97h-72q29 44 29 95z" />
    <glyph glyph-name="Wgrave" unicode="&#x1e80;" horiz-adv-x="423" 
d="M279 700l18 -312l19 312h108l-62 -700h-128l-23 284l-22 -284h-127l-63 700h130l17 -312l20 312h113zM233 805l36 -83h-91l-66 83h121z" />
    <glyph glyph-name="wgrave" unicode="&#x1e81;" horiz-adv-x="420" 
d="M189 0h-130l-56 583h112l17 -320l22 320h119l21 -316l18 316h105l-56 -583h-130l-21 260zM226 703l33 -98h-91l-63 98h121z" />
    <glyph glyph-name="Wacute" unicode="&#x1e82;" horiz-adv-x="423" 
d="M234 0l-23 284l-22 -284h-127l-63 700h130l17 -312l20 312h113l18 -312l19 312h108l-62 -700h-128zM177 722l37 83h121l-66 -83h-92z" />
    <glyph glyph-name="wacute" unicode="&#x1e83;" horiz-adv-x="420" 
d="M231 0l-21 260l-21 -260h-130l-56 583h112l17 -320l22 320h119l21 -316l18 316h105l-56 -583h-130zM165 605l33 98h121l-62 -98h-92z" />
    <glyph glyph-name="Wdieresis" unicode="&#x1e84;" horiz-adv-x="423" 
d="M279 700l18 -312l19 312h108l-62 -700h-128l-23 284l-22 -284h-127l-63 700h130l17 -312l20 312h113zM216 805v-83h-89v83h89zM230 722v83h89v-83h-89z" />
    <glyph glyph-name="wdieresis" unicode="&#x1e85;" horiz-adv-x="420" 
d="M59 0l-56 583h112l17 -320l22 320h119l21 -316l18 316h105l-56 -583h-130l-21 260l-21 -260h-130zM205 703v-98h-88v98h88zM219 605v98h88v-98h-88z" />
    <glyph glyph-name="Ygrave" unicode="&#x1ef2;" horiz-adv-x="279" 
d="M202 0h-124v221l-83 479h129l23 -239l26 239h112l-83 -473v-227zM159 805l36 -83h-91l-66 83h121z" />
    <glyph glyph-name="ygrave" unicode="&#x1ef3;" horiz-adv-x="279" 
d="M180 -91h-112l18 116l-87 558h119l10 -118q8 -96 13 -192h2q6 118 13 192l10 118h114zM155 703l33 -98h-91l-63 98h121z" />
    <glyph glyph-name="enspace" unicode="&#x2002;" horiz-adv-x="500" 
 />
    <glyph glyph-name="emspace" unicode="&#x2003;" horiz-adv-x="1000" 
 />
    <glyph glyph-name="threeperemspace" unicode="&#x2004;" horiz-adv-x="333" 
 />
    <glyph glyph-name="fourperemspace" unicode="&#x2005;" horiz-adv-x="250" 
 />
    <glyph glyph-name="thinspace" unicode="&#x2009;" horiz-adv-x="133" 
 />
    <glyph glyph-name="hairspace" unicode="&#x200a;" horiz-adv-x="75" 
 />
    <glyph glyph-name="endash" unicode="&#x2013;" horiz-adv-x="278" 
d="M6 342h266v-86h-266v86z" />
    <glyph glyph-name="emdash" unicode="&#x2014;" horiz-adv-x="417" 
d="M6 341h405v-86h-405v86z" />
    <glyph glyph-name="quoteleft" unicode="&#x2018;" horiz-adv-x="142" 
d="M15 460v28q0 99 31 212h88q-18 -93 -18 -207v-33h-101z" />
    <glyph glyph-name="quoteright" unicode="&#x2019;" horiz-adv-x="142" 
d="M126 700v-28q0 -103 -30 -212h-88q17 87 17 207v33h101z" />
    <glyph glyph-name="quotesinglbase" unicode="&#x201a;" horiz-adv-x="134" 
d="M121 138v-28q0 -104 -31 -212h-88q18 92 18 207v33h101z" />
    <glyph glyph-name="quotedblleft" unicode="&#x201c;" horiz-adv-x="254" 
d="M132 459v28q0 107 29 212h85q-17 -93 -17 -207v-33h-97zM15 459v28q0 104 31 212h85q-18 -92 -18 -207v-33h-98z" />
    <glyph glyph-name="quotedblright" unicode="&#x201d;" horiz-adv-x="254" 
d="M122 700v-28q0 -107 -29 -212h-85q17 93 17 207v33h97zM239 700v-28q0 -104 -31 -212h-85q18 92 18 207v33h98z" />
    <glyph glyph-name="quotedblbase" unicode="&#x201e;" horiz-adv-x="254" 
d="M116 137v-28q0 -107 -29 -212h-85q17 94 17 207v33h97zM233 137v-28q0 -104 -31 -212h-85q18 93 18 207v33h98z" />
    <glyph glyph-name="dagger" unicode="&#x2020;" horiz-adv-x="182" 
d="M60 412l1 165l-55 -2v59l55 -2l-1 69h62l-2 -69l56 2v-59l-56 2l2 -165h-62z" />
    <glyph glyph-name="daggerdbl" unicode="&#x2021;" horiz-adv-x="182" 
d="M176 634v-59l-56 2l2 -74l-2 -67l56 2v-58l-56 2l2 -69h-62l1 69l-55 -2v58l55 -2l-1 67l1 74l-55 -2v59l55 -2l-1 69h62l-2 -69z" />
    <glyph glyph-name="bullet" unicode="&#x2022;" horiz-adv-x="196" 
d="M181 397v-82q0 -66 -66 -66h-34q-66 0 -66 66v82q0 65 66 65h34q66 0 66 -65z" />
    <glyph glyph-name="ellipsis" unicode="&#x2026;" horiz-adv-x="391" 
d="M121 138v-138h-108v138h108zM248 138v-138h-108v138h108zM377 138v-138h-108v138h108z" />
    <glyph glyph-name="guilsinglleft" unicode="&#x2039;" horiz-adv-x="165" 
d="M4 297l60 159h94l-45 -159l45 -160h-94z" />
    <glyph glyph-name="guilsinglright" unicode="&#x203a;" horiz-adv-x="165" 
d="M101 456l60 -159l-60 -160h-94l45 160l-45 159h94z" />
    <glyph glyph-name="Euro" unicode="&#x20ac;" horiz-adv-x="301" 
d="M4 428h27v167q0 110 109 110h44q110 0 110 -110v-147h-118v145q0 9 -10 9h-5q-10 0 -10 -9v-165h107v-66h-107v-14h107v-66h-107v-175q0 -9 10 -9h6q10 0 10 9v156h118v-158q0 -110 -110 -110h-45q-109 0 -109 110v177h-27v66h27v14h-27v66z" />
    <glyph glyph-name="published" unicode="&#x2117;" horiz-adv-x="375" 
d="M183 266v-207h-96v583h122q84 0 84 -84v-208q0 -84 -83 -84h-27zM200 555q0 7 -9 7h-8v-217h8q9 0 9 8v202zM355 566v-432q0 -74 -32 -106.5t-100 -32.5h-71q-68 0 -100 32.5t-32 106.5v432q0 74 32 106.5t100 32.5h71q68 0 100 -32.5t32 -106.5zM336 134v432
q0 66 -26 93.5t-87 27.5h-71q-61 0 -87 -27.5t-26 -93.5v-432q0 -66 26 -93.5t87 -27.5h71q61 0 87 27.5t26 93.5z" />
    <glyph glyph-name="servicemark" unicode="&#x2120;" horiz-adv-x="395" 
d="M77 491v-81q0 -5 5 -5h10q5 0 5 5v69q0 8 -6 11l-52 35q-23 15 -23 49v74q0 54 58 54h28q59 0 59 -54v-79h-61v77q0 5 -6 5h-8q-5 0 -5 -5v-70q0 -6 6 -9l50 -34q24 -17 24 -49v-76q0 -55 -59 -55h-28q-58 0 -58 55v83h61zM265 700l12 -214l12 214h90v-344h-63v241h-1
l-19 -241h-52l-17 241h-1v-241h-50v344h89z" />
    <glyph glyph-name="trademark" unicode="&#x2122;" horiz-adv-x="389" 
d="M259 700l12 -214l12 214h90v-344h-63v241h-1l-19 -241h-52l-17 241h-1v-241h-50v344h89zM114 356h-63v285h-42v59h147v-59h-42v-285z" />
    <glyph glyph-name="minus" unicode="&#x2212;" horiz-adv-x="245" 
d="M5 400h235v-89h-235v89z" />
    <glyph glyph-name="f_f" unicode="&#xfb00;" horiz-adv-x="349" 
d="M192 583v35q0 85 84 85h71v-85h-29q-17 0 -17 -16v-19h46v-100h-38v-483h-117v483h-48v-483h-117v483h-23v100h23v35q0 85 84 85h71v-85h-29q-17 0 -17 -16v-19h56z" />
    <glyph glyph-name="fi" unicode="&#xfb01;" horiz-adv-x="322" 
d="M27 583v35q0 85 84 85h71v-85h-29q-17 0 -17 -16v-19h46v-100h-38v-483h-117v483h-23v100h23zM193 599v87h120v-87h-120zM194 0v583h117v-583h-117z" />
    <glyph glyph-name="fl" unicode="&#xfb02;" horiz-adv-x="320" 
d="M27 583v35q0 85 84 85h71v-85h-29q-17 0 -17 -16v-19h46v-100h-38v-483h-117v483h-23v100h23zM194 0v703h117v-703h-117z" />
    <glyph glyph-name="f_f_i" unicode="&#xfb03;" horiz-adv-x="487" 
d="M192 583v35q0 85 84 85h71v-85h-29q-17 0 -17 -16v-19h46v-100h-38v-483h-117v483h-48v-483h-117v483h-23v100h23v35q0 85 84 85h71v-85h-29q-17 0 -17 -16v-19h56zM359 0v583h117v-583h-117zM358 599v87h120v-87h-120z" />
    <glyph glyph-name="f_f_l" unicode="&#xfb04;" horiz-adv-x="485" 
d="M192 583v35q0 85 84 85h71v-85h-29q-17 0 -17 -16v-19h46v-100h-38v-483h-117v483h-48v-483h-117v483h-23v100h23v35q0 85 84 85h71v-85h-29q-17 0 -17 -16v-19h56zM359 0v703h117v-703h-117z" />
    <glyph glyph-name="Q.alt" horiz-adv-x="298" 
d="M119 -3q-109 0 -109 110v488q0 110 109 110h59q110 0 110 -110v-428q0 -50 -10 -73.5t-40 -39.5l1 -3q21 4 48 4h6v-58h-174zM144 94h10q9 0 9 9v490q0 9 -9 9h-10q-10 0 -10 -9v-490q0 -9 10 -9z" />
    <glyph glyph-name="a.alt" 
d="M267 583v-583h-115v25q-37 -30 -74 -30q-69 0 -69 77v439q0 77 69 77q34 0 72 -28v23h117zM150 99v386q-8 2 -13 2q-11 0 -11 -11v-369q0 -11 11 -11q7 0 13 3z" />
    <glyph glyph-name="y.alt" horiz-adv-x="279" 
d="M0 583h117l24 -300l26 300h112l-80 -601q-6 -41 -25 -57t-56 -16h-79v100h27q12 0 15 10z" />
    <glyph glyph-name="aacute.alt" 
d="M267 583v-583h-115v25q-37 -30 -74 -30q-69 0 -69 77v439q0 77 69 77q34 0 72 -28v23h117zM97 605l33 98h121l-62 -98h-92zM150 99v386q-8 2 -13 2q-11 0 -11 -11v-369q0 -11 11 -11q7 0 13 3z" />
    <glyph glyph-name="abreve.alt" 
d="M267 583v-583h-115v25q-37 -30 -74 -30q-69 0 -69 77v439q0 77 69 77q34 0 72 -28v23h117zM51 672v31h76v-22q0 -11 11 -11h12q11 0 11 11v22h76v-31q0 -33 -18 -51t-51 -18h-48q-33 0 -51 18t-18 51zM150 99v386q-8 2 -13 2q-11 0 -11 -11v-369q0 -11 11 -11q7 0 13 3z
" />
    <glyph glyph-name="acircumflex.alt" 
d="M267 583v-583h-115v25q-37 -30 -74 -30q-69 0 -69 77v439q0 77 69 77q34 0 72 -28v23h117zM197 703l51 -98h-77l-27 32l-27 -32h-77l51 98h106zM150 99v386q-8 2 -13 2q-11 0 -11 -11v-369q0 -11 11 -11q7 0 13 3z" />
    <glyph glyph-name="adieresis.alt" 
d="M267 583v-583h-115v25q-37 -30 -74 -30q-69 0 -69 77v439q0 77 69 77q34 0 72 -28v23h117zM150 99v386q-8 2 -13 2q-11 0 -11 -11v-369q0 -11 11 -11q7 0 13 3zM151 605v98h88v-98h-88zM137 703v-98h-88v98h88z" />
    <glyph glyph-name="agrave.alt" 
d="M267 583v-583h-115v25q-37 -30 -74 -30q-69 0 -69 77v439q0 77 69 77q34 0 72 -28v23h117zM157 703l33 -98h-91l-63 98h121zM150 99v386q-8 2 -13 2q-11 0 -11 -11v-369q0 -11 11 -11q7 0 13 3z" />
    <glyph glyph-name="amacron.alt" 
d="M267 583v-583h-115v25q-37 -30 -74 -30q-69 0 -69 77v439q0 77 69 77q34 0 72 -28v23h117zM51 688h186v-78h-186v78zM150 99v386q-8 2 -13 2q-11 0 -11 -11v-369q0 -11 11 -11q7 0 13 3z" />
    <glyph glyph-name="aogonek.alt" 
d="M267 583v-583h-19l-6 -11q-8 -13 -8 -22v-2q0 -7 8 -7h21v-61h-65q-45 0 -45 43v9q0 24 17 51h-18v25q-37 -30 -74 -30q-69 0 -69 77v439q0 77 69 77q34 0 72 -28v23h117zM150 99v386q-8 2 -13 2q-11 0 -11 -11v-369q0 -11 11 -11q7 0 13 3z" />
    <glyph glyph-name="aring.alt" 
d="M267 583v-583h-115v25q-37 -30 -74 -30q-69 0 -69 77v439q0 77 69 77q34 0 72 -28v23h117zM220 657v-7q0 -47 -57 -47h-38q-57 0 -57 47v7q0 48 57 48h38q57 0 57 -48zM150 99v386q-8 2 -13 2q-11 0 -11 -11v-369q0 -11 11 -11q7 0 13 3zM201 650v7q0 31 -38 31h-38
q-38 0 -38 -31v-7q0 -31 38 -31h38q38 0 38 31z" />
    <glyph glyph-name="aringacute.alt" 
d="M267 583v-583h-115v25q-37 -30 -74 -30q-69 0 -69 77v439q0 77 69 77q34 0 72 -28v23h117zM220 657v-7q0 -47 -57 -47h-38q-57 0 -57 47v7q0 48 57 48h38q57 0 57 -48zM100 719l33 98h121l-62 -98h-92zM150 99v386q-8 2 -13 2q-11 0 -11 -11v-369q0 -11 11 -11q7 0 13 3z
M201 650v7q0 31 -38 31h-38q-38 0 -38 -31v-7q0 -31 38 -31h38q38 0 38 31z" />
    <glyph glyph-name="atilde.alt" 
d="M267 583v-583h-115v25q-37 -30 -74 -30q-69 0 -69 77v439q0 77 69 77q34 0 72 -28v23h117zM85 703h11q22 0 39 -9l25 -14q10 -5 12 -5q5 0 5 6v22h69v-53q0 -45 -43 -45h-11q-23 0 -39 8l-25 14q-7 5 -12 5t-5 -6v-21h-69v52q0 46 43 46zM150 99v386q-8 2 -13 2
q-11 0 -11 -11v-369q0 -11 11 -11q7 0 13 3z" />
    <glyph glyph-name="Gcommaaccent.alt" horiz-adv-x="297" 
d="M165 295h-17v100h140v-290q0 -110 -110 -110h-59q-109 0 -109 110v490q0 110 109 110h58q109 0 109 -110v-163h-123v161q0 9 -10 9h-9q-10 0 -10 -9v-485q0 -10 10 -10h11q10 0 10 9v188zM193 -22v-78q0 -46 -38 -83l-17 -17l-30 14l8 11q21 30 22 53h-32v100h87z" />
    <glyph glyph-name="gcommaaccent.alt" 
d="M267 583v-588q0 -89 -89 -89h-80q-45 0 -65.5 20t-20.5 64v36h107v-29q0 -11 11 -11h11q11 0 11 11v69q-36 -28 -74 -28q-69 0 -69 77v396q0 77 69 77q36 0 74 -28v23h115zM93 605v78q0 46 38 83l17 17l30 -14l-8 -11q-22 -32 -22 -53h32v-100h-87zM150 139v346
q-8 2 -13 2q-11 0 -11 -11v-328q0 -11 11 -11q5 0 13 2z" />
    <glyph glyph-name="Kcommaaccent.alt" horiz-adv-x="291" 
d="M294 0h-128l-31 293v-293h-124v700h124v-294l36 294h124l-47 -336zM195 -22v-78q0 -46 -38 -83l-17 -17l-30 14l8 11q21 30 22 53h-32v100h87z" />
    <glyph glyph-name="kcommaaccent.alt" horiz-adv-x="286" 
d="M166 583h118l-50 -293l51 -290h-122l-37 266v-266h-117v703h117v-402zM188 -22v-78q0 -46 -38 -83l-17 -17l-30 14l8 11q21 30 22 53h-32v100h87z" />
    <glyph glyph-name="Lcommaaccent.alt" horiz-adv-x="224" 
d="M11 700h124v-594h86v-106h-210v700zM160 -22v-78q0 -46 -38 -83l-17 -17l-30 14l8 11q21 30 22 53h-32v100h87z" />
    <glyph glyph-name="lcommaaccent.alt" horiz-adv-x="136" 
d="M10 0v703h117v-703h-117zM113 -22v-78q0 -46 -38 -83l-17 -17l-30 14l8 11q21 30 22 53h-32v100h87z" />
    <glyph glyph-name="Ncommaaccent.alt" horiz-adv-x="287" 
d="M163 0l-54 314l5 -314h-103v700h119l48 -287l-5 287h103v-700h-113zM188 -22v-78q0 -46 -38 -83l-17 -17l-30 14l8 11q21 30 22 53h-32v100h87z" />
    <glyph glyph-name="ncommaaccent.alt" 
d="M9 0v583h116v-24q38 29 74 29q68 0 68 -77v-511h-117v476q0 11 -11 11q-3 0 -13 -2v-485h-117zM183 -22v-78q0 -46 -38 -83l-17 -17l-30 14l8 11q21 30 22 53h-32v100h87z" />
    <glyph glyph-name="Oslash.alt" horiz-adv-x="297" 
d="M288 105q0 -110 -110 -110h-53q-10 0 -26 2l-5 -20h-80l16 57q-20 27 -20 77v485q0 110 109 110h53q10 0 26 -2l6 22h80l-17 -59q21 -29 21 -77v-485zM133 594l-2 -265l33 214v51q0 10 -9 10h-12q-10 0 -10 -10zM164 107l2 261l-33 -214v-47q0 -10 10 -10h11q10 0 10 10z
" />
    <glyph glyph-name="oslash.alt" 
d="M166 -5h-51q-9 0 -27 2l-5 -20h-64l15 46q-25 26 -25 78v386q0 101 101 101h52q10 0 26 -2l6 21h63l-15 -47q25 -25 25 -78v-386q0 -101 -101 -101zM143 93q8 0 8 8l2 196l-27 -153v-43q0 -8 8 -8h9zM142 491h-8q-8 0 -8 -9l-2 -196l27 155v41q0 9 -9 9z" />
    <glyph glyph-name="Oslashacute.alt" horiz-adv-x="297" 
d="M288 105q0 -110 -110 -110h-53q-10 0 -26 2l-5 -20h-80l16 57q-20 27 -20 77v485q0 110 109 110h53q10 0 26 -2l6 22h80l-17 -59q21 -29 21 -77v-485zM96 722l37 83h121l-66 -83h-92zM133 594l-2 -265l33 214v51q0 10 -9 10h-12q-10 0 -10 -10zM164 107l2 261l-33 -214
v-47q0 -10 10 -10h11q10 0 10 10z" />
    <glyph glyph-name="oslashacute.alt" 
d="M166 -5h-51q-9 0 -27 2l-5 -20h-64l15 46q-25 26 -25 78v386q0 101 101 101h52q10 0 26 -2l6 21h63l-15 -47q25 -25 25 -78v-386q0 -101 -101 -101zM85 605l33 98h121l-62 -98h-92zM143 93q8 0 8 8l2 196l-27 -153v-43q0 -8 8 -8h9zM142 491h-8q-8 0 -8 -9l-2 -196
l27 155v41q0 9 -9 9z" />
    <glyph glyph-name="Rcommaaccent.alt" horiz-adv-x="295" 
d="M230 330q56 -14 56 -73v-257h-124v268q0 9 -10 9h-17v-277h-124v700h165q109 0 109 -110v-176q0 -67 -55 -84zM193 -22v-78q0 -46 -38 -83l-17 -17l-30 14l8 11q21 30 22 53h-32v100h87zM161 587q0 9 -10 9h-16v-217h16q10 0 10 10v198z" />
    <glyph glyph-name="rcommaaccent.alt" horiz-adv-x="188" 
d="M9 0v583h116v-45q24 49 60 49v-130q-37 -4 -59 -19v-438h-117zM113 -22v-78q0 -46 -38 -83l-17 -17l-30 14l8 11q21 30 22 53h-32v100h87z" />
    <glyph glyph-name="Scommaaccent.alt" horiz-adv-x="289" 
d="M236 367q45 -32 45 -95v-167q0 -110 -110 -110h-51q-110 0 -110 110v174h121v-174q0 -9 9 -9h9q9 0 9 9v156q0 12 -10 18l-92 63q-46 33 -46 95v158q0 110 110 110h50q109 0 109 -110v-164h-120v164q0 9 -10 9h-7q-9 0 -9 -9v-146q0 -13 10 -19zM191 -22v-78
q0 -46 -38 -83l-17 -17l-30 14l8 11q21 30 22 53h-32v100h87z" />
    <glyph glyph-name="scommaaccent.alt" horiz-adv-x="265" 
d="M146 362v122q0 8 -8 8h-8q-8 0 -8 -8v-108q0 -12 13 -20l55 -31q38 -22 52 -43.5t14 -57.5v-128q0 -101 -101 -101h-45q-101 0 -101 101v131h111v-127q0 -8 8 -8h8q8 0 8 8v111q0 12 -13 20l-55 33q-38 21 -52 42t-14 57v124q0 101 101 101h45q101 0 101 -101v-125h-111z
M177 -22v-78q0 -46 -38 -83l-17 -17l-30 14l8 11q21 30 22 53h-32v100h87z" />
    <glyph glyph-name="Tcommaaccent.alt" horiz-adv-x="264" 
d="M194 0h-124v594h-65v106h254v-106h-65v-594zM176 -22v-78q0 -46 -38 -83l-17 -17l-30 14l8 11q21 30 22 53h-32v100h87z" />
    <glyph glyph-name="tcommaaccent.alt" horiz-adv-x="188" 
d="M147 483v-483h-117v483h-26v100h26v66h117v-66h38v-100h-38zM132 -22v-78q0 -46 -38 -83l-17 -17l-30 14l8 11q21 30 22 53h-32v100h87z" />
    <glyph glyph-name="yacute.alt" horiz-adv-x="279" 
d="M0 583h117l24 -300l26 300h112l-80 -601q-6 -41 -25 -57t-56 -16h-79v100h27q12 0 15 10zM96 605l33 98h121l-62 -98h-92z" />
    <glyph glyph-name="ycircumflex.alt" horiz-adv-x="279" 
d="M0 583h117l24 -300l26 300h112l-80 -601q-6 -41 -25 -57t-56 -16h-79v100h27q12 0 15 10zM195 703l51 -98h-77l-27 32l-27 -32h-77l51 98h106z" />
    <glyph glyph-name="ydieresis.alt" horiz-adv-x="279" 
d="M0 583h117l24 -300l26 300h112l-80 -601q-6 -41 -25 -57t-56 -16h-79v100h27q12 0 15 10zM149 605v98h88v-98h-88zM135 703v-98h-88v98h88z" />
    <glyph glyph-name="ygrave.alt" horiz-adv-x="279" 
d="M0 583h117l24 -300l26 300h112l-80 -601q-6 -41 -25 -57t-56 -16h-79v100h27q12 0 15 10zM155 703l33 -98h-91l-63 98h121z" />
    <glyph glyph-name="comma.alt" horiz-adv-x="134" 
d="M121 138v-104q0 -66 -44 -113l-21 -22l-39 13l9 15q25 40 26 73h-37v138h106z" />
    <glyph glyph-name="semicolon.alt" horiz-adv-x="134" 
d="M121 138v-104q0 -66 -44 -113l-21 -22l-39 13l9 15q25 40 26 73h-37v138h106zM121 583v-138h-108v138h108z" />
    <glyph glyph-name="colon.fig" horiz-adv-x="134" 
d="M121 316v-138h-108v138h108zM121 521v-138h-108v138h108z" />
    <glyph glyph-name="ampersand.alt" horiz-adv-x="302" 
d="M299 313h-23v-208q0 -110 -110 -110h-47q-109 0 -109 110v181q0 36 9 52.5t35 28.5q-24 14 -33.5 32.5t-9.5 58.5v137q0 110 110 110h44q110 0 110 -110v-139h-120v137q0 10 -10 10h-2q-10 0 -10 -10v-169q0 -10 10 -10h156v-101zM132 304v-197q0 -10 9 -10h6q9 0 9 10
v206h-15q-9 0 -9 -9z" />
    <glyph glyph-name="quotedblleft.alt" horiz-adv-x="254" 
d="M15 457v103q0 60 43 119l16 22l41 -14l-9 -16q-27 -46 -27 -76h36v-138h-100zM132 457v103q0 59 42 119l17 22l40 -14l-9 -16q-26 -47 -26 -76h35v-138h-99z" />
    <glyph glyph-name="quotedblright.alt" horiz-adv-x="254" 
d="M239 700v-103q0 -60 -43 -119l-16 -22l-41 14l9 16q26 45 27 76h-36v138h100zM122 700v-103q0 -59 -42 -119l-17 -22l-40 14l9 16q25 45 26 76h-35v138h99z" />
    <glyph glyph-name="quoteleft.alt" horiz-adv-x="142" 
d="M15 458v103q0 59 44 119l18 22l42 -14l-9 -15q-27 -48 -27 -77h38v-138h-106z" />
    <glyph glyph-name="quoteright.alt" horiz-adv-x="142" 
d="M126 700v-103q0 -59 -44 -119l-18 -22l-42 14l9 15q26 46 27 77h-38v138h106z" />
    <glyph glyph-name="quotedblbase.alt" horiz-adv-x="244" 
d="M231 139v-103q0 -60 -43 -119l-16 -22l-41 14l9 16q26 46 27 76h-36v138h100zM114 139v-103q0 -59 -42 -119l-17 -22l-40 14l9 16q25 47 26 76h-35v138h99z" />
    <glyph glyph-name="quotesinglbase.alt" horiz-adv-x="134" 
d="M121 139v-103q0 -59 -44 -119l-18 -22l-42 14l9 15q26 47 27 77h-38v138h106z" />
    <glyph glyph-name="guillemotleft.cap" horiz-adv-x="235" 
d="M4 355l51 175h75l-37 -175l37 -173h-75zM110 355l44 175h74l-29 -175l29 -173h-74z" />
    <glyph glyph-name="guillemotright.cap" horiz-adv-x="235" 
d="M179 530l51 -175l-51 -173h-75l37 173l-37 175h75zM80 530l44 -175l-44 -173h-74l29 173l-29 175h74z" />
    <glyph glyph-name="guilsinglleft.cap" horiz-adv-x="166" 
d="M4 355l62 175h94l-47 -175l47 -173h-94z" />
    <glyph glyph-name="guilsinglright.cap" horiz-adv-x="166" 
d="M100 530l62 -175l-62 -173h-94l47 173l-47 175h94z" />
    <glyph glyph-name="hyphen.cap" horiz-adv-x="183" 
d="M6 409h171v-109h-171v109z" />
    <glyph glyph-name="endash.cap" horiz-adv-x="278" 
d="M6 398h266v-87h-266v87z" />
    <glyph glyph-name="emdash.cap" horiz-adv-x="417" 
d="M6 398h405v-87h-405v87z" />
    <glyph glyph-name="at.alt" horiz-adv-x="390" 
d="M330 65h-60q-22 0 -34.5 8t-23.5 26q-26 -35 -68 -35q-61 0 -61 66v187q0 30 11.5 45.5t43.5 26.5l65 22v139q0 7 -7 7h-7q-7 0 -7 -7v-130h-95v135q0 85 86 85h46q86 0 86 -85v-446q0 -14 13 -14h13q14 0 14 14v463q0 59 -22 82.5t-79 23.5h-98q-56 0 -78 -24t-22 -82
v-443q0 -58 22 -82t78 -24h192v-29h-192q-71 0 -100.5 31.5t-29.5 103.5v443q0 72 30 104t100 32h98q71 0 101.5 -31.5t30.5 -104.5v-463q0 -44 -46 -44zM191 148q6 0 12 2v181l-10 -4q-14 -5 -14 -22v-148q0 -9 12 -9z" />
    <glyph glyph-name="registered.alt" horiz-adv-x="375" 
d="M253 340q42 -10 42 -55v-226h-96v233q0 8 -7 8h-9v-241h-97v583h125q84 0 84 -84v-152q0 -51 -42 -66zM198 556q0 6 -7 6h-8v-184h8q7 0 7 8v170zM355 566v-432q0 -74 -32 -106.5t-100 -32.5h-71q-68 0 -100 32.5t-32 106.5v432q0 74 32 106.5t100 32.5h71
q68 0 100 -32.5t32 -106.5zM336 134v432q0 66 -26 93.5t-87 27.5h-71q-61 0 -87 -27.5t-26 -93.5v-432q0 -66 26 -93.5t87 -27.5h71q61 0 87 27.5t26 93.5z" />
    <glyph glyph-name="percent.alt" horiz-adv-x="350" 
d="M101 286h-25q-69 0 -69 67v285q0 67 69 67h35q67 0 67 -67v-163l48 226h69l-71 -285q14 4 24 4h27q68 0 68 -67v-291q0 -67 -68 -67h-36q-68 0 -68 67v163l-48 -226h-68l71 291q-11 -4 -25 -4zM259 351h-9q-6 0 -6 -6v-273q0 -6 6 -6h9q6 0 6 6v273q0 6 -6 6zM100 634h-8
q-6 0 -6 -6v-266q0 -6 6 -6h8q6 0 6 6v266q0 6 -6 6z" />
    <glyph glyph-name="NUL" horiz-adv-x="0" 
 />
    <glyph glyph-name="hfjslug" horiz-adv-x="694" 
d="M644 -200h-208l-8 14h-163l-8 -14h-207v303q14 0 23 9.5t9 22.5t-9.5 22.5t-22.5 9.5v554h100l30 79h334l29 -79h101v-921zM400 563v-172h15v78h38v14h-38v66h43v14h-58zM184 563v-172h15v79h47v-79h15v172h-15v-79h-47v79h-15zM460 394q10 -4 21 -4q31 0 31 36v137h-16
v-137q0 -22 -16 -22q-8 0 -20 5v-15zM371 465l-13 3q-4 -18 -8 -30h-1l-16 31q23 21 23 42q0 31 -27 31q-12 0 -20 -9t-8 -22t14 -39q-23 -18 -23 -47q0 -16 8 -26.5t21 -10.5q19 0 29 24h1l12 -24l12 6l-17 32q6 14 13 39zM523 323v-46h8v12l8 8l15 -20h10l-20 26l18 20
h-10l-20 -24h-1v24h-8zM488 292l10 -15h9l-12 17q10 4 10 14q0 15 -17 15h-20v-46h8v15h12zM426 276q10 0 17 7t7 17q0 9 -7 16.5t-17 7.5t-17 -7.5t-7 -16.5q0 -10 7 -17t17 -7zM370 301l-13 22h-9l18 -29v-17h8v17l18 29h-9zM193 323v-46h34v7h-26v13h23v7h-23v12h26v7
h-34zM132 323v-46h8v32l25 -32h7v46h-8v-32l-25 32h-7zM241 323l14 -47h8l11 34h1l11 -34h8l14 47h-8l-10 -35h-1l-11 35h-7l-11 -35h-1l-10 35h-8zM327 479q-12 22 -12 32q0 19 14 19q13 0 13 -19q0 -15 -15 -32zM342 423q-8 -21 -20 -21q-16 0 -16 25q0 19 16 35zM487 299
h-11v17h11q10 0 10 -8q0 -9 -10 -9zM426 283q-16 0 -16 17q0 6 4.5 11.5t11.5 5.5t11.5 -5.5t4.5 -11.5q0 -17 -16 -17z" />
    <glyph glyph-name="i.dot" horiz-adv-x="138" 
d="M9 599v87h120v-87h-120zM10 0v583h117v-583h-117z" />
    <glyph glyph-name="caron.alt" horiz-adv-x="366" 
d="M144 597v106h88l-25 -106h-63z" />
    <glyph glyph-name="acute.cap" horiz-adv-x="366" 
d="M118 722l37 83h121l-66 -83h-92z" />
    <glyph glyph-name="hungarumlaut.cap" horiz-adv-x="366" 
d="M178 722l21 56l-44 -56h-63l31 83h183l-64 -83h-64z" />
    <glyph glyph-name="grave.cap" horiz-adv-x="366" 
d="M226 805l36 -83h-91l-66 83h121z" />
    <glyph glyph-name="circumflex.cap" horiz-adv-x="366" 
d="M236 810l51 -88h-77l-27 24l-27 -24h-77l51 88h106z" />
    <glyph glyph-name="caron.cap" horiz-adv-x="366" 
d="M287 810l-51 -88h-106l-51 88h77l27 -25l27 25h77z" />
    <glyph glyph-name="breve.cap" horiz-adv-x="366" 
d="M89 789v21h76v-15q0 -11 11 -11h14q11 0 11 11v15h76v-21q0 -33 -17.5 -51.5t-50.5 -18.5h-52q-33 0 -50.5 18.5t-17.5 51.5z" />
    <glyph glyph-name="tilde.cap" horiz-adv-x="366" 
d="M123 812h17q18 0 36 -9l17 -9q13 -7 19 -7q5 0 5 6v19h70v-45q0 -45 -44 -45h-17q-21 0 -36 9l-17 8q-15 8 -19 8q-5 0 -5 -6v-19h-70v45q0 45 44 45z" />
    <glyph glyph-name="macron.cap" horiz-adv-x="366" 
d="M90 797h186v-70h-186v70z" />
    <glyph glyph-name="dieresis.cap" horiz-adv-x="366" 
d="M190 722v83h89v-83h-89zM176 805v-83h-89v83h89z" />
    <glyph glyph-name="dotaccent.cap" horiz-adv-x="366" 
d="M233 794v-72h-100v72h100z" />
    <glyph glyph-name="ring.cap" horiz-adv-x="366" 
d="M275 771v-4q0 -48 -57 -48h-70q-56 0 -56 48v4q0 47 56 47h70q57 0 57 -47zM255 768v2q0 31 -37 31h-70q-37 0 -37 -31v-2q0 -31 37 -31h70q37 0 37 31z" />
    <glyph glyph-name="commaaccent.alt" horiz-adv-x="366" 
d="M228 -22v-78q0 -46 -38 -83l-17 -17l-30 14l8 11q21 30 22 53h-32v100h87z" />
    </font>
</defs>
</svg>
