<?xml version="1.0" standalone="no"?>
<!DOCTYPE svg PUBLIC "-//W3C//DTD SVG 1.1//EN" "http://www.w3.org/Graphics/SVG/1.1/DTD/svg11.dtd" >
<svg xmlns="http://www.w3.org/2000/svg" xmlns:xlink="http://www.w3.org/1999/xlink" version="1.1">
<metadata>
Created by FontForge 20170731 at Mon Nov  5 17:22:31 2012
 By Aleksey,,,
Copyright (C) 2004, 2012 Hoefler &#38; Frere-Jones. http://www.typography.com
</metadata>
<defs>
<font id="TungstenCondensed-XLight" horiz-adv-x="366" >
  <font-face 
    font-family="Tungsten Condensed XLight"
    font-weight="274"
    font-stretch="condensed"
    units-per-em="1000"
    panose-1="0 0 0 0 0 0 0 0 0 0"
    ascent="800"
    descent="-200"
    x-height="558"
    cap-height="700"
    bbox="-8 -200 644 811"
    underline-thickness="50"
    underline-position="-200"
    unicode-range="U+0020-FB04"
  />
<missing-glyph horiz-adv-x="500" 
d="M0 -200v1000h500v-1000h-500zM71 750l179 -390l179 390h-358zM50 -76l172 376l-172 376v-752zM450 676l-172 -376l172 -376v752zM250 240l-179 -390h358z" />
    <glyph glyph-name=".notdef" horiz-adv-x="500" 
d="M0 -200v1000h500v-1000h-500zM71 750l179 -390l179 390h-358zM50 -76l172 376l-172 376v-752zM450 676l-172 -376l172 -376v752zM250 240l-179 -390h358z" />
    <glyph glyph-name=".null" horiz-adv-x="0" 
 />
    <glyph glyph-name="nonmarkingreturn" horiz-adv-x="333" 
 />
    <glyph glyph-name="space" unicode=" " horiz-adv-x="88" 
 />
    <glyph glyph-name="exclam" unicode="!" horiz-adv-x="107" 
d="M63 371l-4 -237h-12l-3 237v329h19v-329zM63 63v-63h-19v63h19z" />
    <glyph glyph-name="quotedbl" unicode="&#x22;" horiz-adv-x="134" 
d="M54 700l-13 -171h-12l8 171h17zM109 700l-12 -171h-13l8 171h17z" />
    <glyph glyph-name="numbersign" unicode="#" horiz-adv-x="281" 
d="M203 701v-192l57 18v-19l-57 -18v-237l57 19v-18l-57 -18v-238h-17v233l-91 -29v-204h-17v199l-57 -18v18l57 18v236l-57 -17v18l57 18v231h17v-226l91 29v197h17zM95 457v-237l91 28v237z" />
    <glyph glyph-name="dollar" unicode="$" horiz-adv-x="254" 
d="M136 -54h-17v51h-1q-81 0 -81 78v192h19v-193q0 -59 62 -59h1v335l-40 32q-42 33 -42 90v153q0 78 81 78h1v47h17v-47q77 -3 77 -78v-178h-19v179q0 58 -59 59v-322l36 -28q43 -34 43 -91v-169q0 -77 -78 -78v-51zM160 318l-25 20v-323q60 0 60 59v169q0 46 -35 75z
M91 398l28 -22v309h-1q-62 0 -62 -59v-153q0 -46 35 -75z" />
    <glyph glyph-name="percent" unicode="%" horiz-adv-x="342" 
d="M100 386h-15q-29 0 -40.5 14t-11.5 46v198q0 32 11.5 46t40.5 14h15q29 0 40.5 -14t11.5 -46v-198q0 -32 -11.5 -46t-40.5 -14zM241 314h16q29 0 40.5 -14t11.5 -46v-198q0 -32 -11.5 -46t-40.5 -14h-16q-28 0 -39.5 14t-11.5 46v198q0 32 11.5 46t39.5 14zM257 297h-15
q-21 0 -28.5 -9.5t-7.5 -34.5v-196q0 -25 7.5 -35t28.5 -10h15q21 0 28.5 10t7.5 35v196q0 25 -7.5 34.5t-28.5 9.5zM100 688h-15q-21 0 -28.5 -10t-7.5 -35v-196q0 -25 7.5 -35t28.5 -10h15q21 0 28 9.5t7 35.5v196q0 25 -7 35t-28 10zM265 700l-88 -355l-85 -346h-16
l89 355l84 346h16z" />
    <glyph glyph-name="ampersand" unicode="&#x26;" horiz-adv-x="290" 
d="M256 0l-53 134l-16 -76q-8 -33 -25 -47.5t-49 -14.5h-12q-67 0 -67 66v231q0 50 28 73l34 29l-15 36q-17 44 -17 95v107q0 72 73 72h15q74 0 74 -72v-149h-19v149q0 54 -55 54h-14q-56 0 -56 -54v-107q0 -47 16 -88l101 -254l45 209h18l-52 -232l66 -161h-20zM115 14
q43 0 55 48l21 95l-88 221l-29 -25q-22 -19 -22 -60v-231q0 -48 50 -48h13z" />
    <glyph glyph-name="quotesingle" unicode="'" horiz-adv-x="78" 
d="M54 700l-13 -171h-12l8 171h17z" />
    <glyph glyph-name="parenleft" unicode="(" horiz-adv-x="146" 
d="M123 -26l-11 -6q-41 41 -51.5 68t-10.5 92v445q0 64 11 91.5t51 68.5l11 -7q-38 -42 -47 -67t-9 -86v-446q0 -61 9 -86t47 -67z" />
    <glyph glyph-name="parenright" unicode=")" horiz-adv-x="162" 
d="M30 726l11 7q40 -41 51 -68.5t11 -91.5v-445q0 -65 -10.5 -92t-51.5 -68l-11 6q38 42 47 67t9 86v446q0 61 -9 86t-47 67z" />
    <glyph glyph-name="asterisk" unicode="*" horiz-adv-x="190" 
d="M102 700l-1 -91l74 49h1v-14l-71 -47l71 -45v-15h-1l-74 48l1 -91h-14l1 91l-75 -48v15l71 46l-71 45v15l75 -50l-1 92h14z" />
    <glyph glyph-name="plus" unicode="+" horiz-adv-x="233" 
d="M108 254v90h-87v17h87v90h18v-90h87v-17h-87v-90h-18z" />
    <glyph glyph-name="comma" unicode="," horiz-adv-x="71" 
d="M47 63v-31q0 -55 -21 -121h-13q15 61 16 122v30h18z" />
    <glyph glyph-name="hyphen" unicode="-" horiz-adv-x="129" 
d="M13 292h103v-18h-103v18z" />
    <glyph glyph-name="period" unicode="." horiz-adv-x="67" 
d="M43 63v-63h-19v63h19z" />
    <glyph glyph-name="slash" unicode="/" horiz-adv-x="160" 
d="M136 723l-96 -746h-16l96 746h16z" />
    <glyph glyph-name="zero" unicode="0" horiz-adv-x="260" 
d="M224 74q0 -79 -81 -79h-25q-81 0 -81 79v552q0 79 81 79h25q81 0 81 -79v-552zM205 626q0 61 -63 61h-24q-62 0 -62 -61v-552q0 -61 62 -61h24q63 0 63 61v552z" />
    <glyph glyph-name="one" unicode="1" horiz-adv-x="127" 
d="M79 703v-703h-19v657l-47 -1v12l19 2q16 4 22 8.5t11 17.5l2 7h12z" />
    <glyph glyph-name="two" unicode="2" horiz-adv-x="243" 
d="M69 248l97 136q27 38 27 79v168q0 56 -60 56h-16q-61 0 -61 -56v-181h-19v180q0 75 78 75h19q78 0 78 -75v-165q0 -49 -31 -93l-97 -136q-30 -40 -30 -91v-127h161v-18h-180v146q0 57 34 102z" />
    <glyph glyph-name="three" unicode="3" horiz-adv-x="252" 
d="M202 74v204q0 70 -71 70h-46v18h45q70 0 70 70v190q0 61 -62 61h-21q-62 0 -62 -61v-168h-19v168q0 79 81 79h21q81 0 81 -79v-187q0 -67 -53 -82q55 -10 55 -78v-205q0 -79 -81 -79h-24q-81 0 -81 79v177h19v-177q0 -61 62 -61h23q63 0 63 61z" />
    <glyph glyph-name="four" unicode="4" horiz-adv-x="244" 
d="M14 119v18l147 563h25v-564h51v-17h-51v-119h-18v119h-154zM168 136v417l1 111l-138 -528h137z" />
    <glyph glyph-name="five" unicode="5" horiz-adv-x="247" 
d="M215 342v-268q0 -79 -81 -79h-16q-81 0 -81 79v178h19v-178q0 -61 62 -61h16q62 0 62 61v266q0 62 -59 62q-38 0 -81 -38h-16l1 336h171v-18h-152l-2 -296q40 33 81 33q36 0 56 -20t20 -57z" />
    <glyph glyph-name="six" unicode="6" horiz-adv-x="255" 
d="M56 626v-261q42 25 80 26h5q40 0 59.5 -20.5t19.5 -53.5v-243q0 -79 -81 -79h-21q-81 0 -81 79v552q0 79 81 79h20q80 0 80 -79v-152h-19v152q0 61 -61 61h-20q-62 0 -62 -61zM137 373q-41 0 -81 -26v-273q0 -61 62 -61h21q62 0 62 61v240q0 59 -64 59z" />
    <glyph glyph-name="seven" unicode="7" horiz-adv-x="199" 
d="M158 682h-148v18h166v-17l-115 -683h-18z" />
    <glyph glyph-name="eight" unicode="8" horiz-adv-x="252" 
d="M114 705h24q82 0 82 -80v-185q0 -66 -51 -80q53 -14 53 -76v-210q0 -79 -81 -79h-30q-81 0 -81 79v210q0 62 52 76q-49 14 -49 80v185q0 80 81 80zM48 283v-209q0 -61 63 -61h30q62 0 62 61v209q0 67 -69 67h-16q-70 0 -70 -67zM119 368h14q68 0 68 70v188q0 61 -63 61
h-24q-63 0 -63 -61v-188q0 -70 68 -70z" />
    <glyph glyph-name="nine" unicode="9" horiz-adv-x="254" 
d="M136 13q62 0 62 61v254q-44 -25 -80 -26h-5q-40 0 -59.5 20.5t-19.5 53.5v250q0 79 81 79h21q81 0 81 -79v-552q0 -79 -81 -79h-20q-81 0 -81 79v150h19v-150q0 -61 62 -61h20zM118 320q38 0 80 26v280q0 61 -62 61h-21q-62 0 -62 -61v-247q0 -59 65 -59z" />
    <glyph glyph-name="colon" unicode=":" horiz-adv-x="68" 
d="M43 63v-63h-19v63h19zM43 557v-63h-19v63h19z" />
    <glyph glyph-name="semicolon" unicode=";" horiz-adv-x="73" 
d="M47 557v-63h-19v63h19zM47 63v-31q0 -55 -21 -121h-13q15 61 16 122v30h18z" />
    <glyph glyph-name="less" unicode="&#x3c;" horiz-adv-x="213" 
d="M8 364l188 77v-18l-170 -70l170 -66v-19l-188 75v21z" />
    <glyph glyph-name="equal" unicode="=" horiz-adv-x="234" 
d="M25 417h184v-17h-184v17zM25 308h184v-17h-184v17z" />
    <glyph glyph-name="greater" unicode="&#x3e;" horiz-adv-x="213" 
d="M16 440l188 -77v-21l-188 -75v19l170 66l-170 70v18z" />
    <glyph glyph-name="question" unicode="?" horiz-adv-x="222" 
d="M129 359l23 31q25 31 25 65v175q0 57 -60 57h-12q-59 0 -59 -56v-182h-19v181q0 75 78 75h13q78 0 78 -76v-173q0 -38 -30 -78l-24 -31q-22 -31 -22 -64v-151h-17v153q0 25 5 39.5t21 34.5zM122 63v-63h-19v63h19z" />
    <glyph glyph-name="at" unicode="@" horiz-adv-x="374" 
d="M288 26h-12q-39 0 -40 32q-35 -31 -64 -31q-51 0 -51 50v160q0 25 9.5 38t35.5 23l67 27v159q0 43 -42 43h-4q-48 0 -48 -43v-117h-16v117q0 58 63 58h5q58 0 58 -58v-417q0 -17 6 -23t24 -6h9q16 0 23 7.5t7 27.5v435q0 61 -20 85t-75 24h-71q-55 0 -75.5 -24t-20.5 -85
v-443q0 -61 20.5 -85t75.5 -24h170v-11h-170q-61 0 -85 27t-24 93v443q0 66 24 93t85 27h71q60 0 84 -27t24 -93v-435q0 -47 -43 -47zM176 43q24 0 57 28v238l-62 -24q-20 -9 -27 -19.5t-7 -29.5v-156q0 -37 39 -37z" />
    <glyph glyph-name="A" unicode="A" horiz-adv-x="256" 
d="M138 704l92 -704h-18l-20 159h-128l-20 -159h-18l91 704h21zM127 660l-61 -483h123z" />
    <glyph glyph-name="B" unicode="B" horiz-adv-x="258" 
d="M164 354q56 -14 56 -81v-194q0 -79 -81 -79h-96v700h95q81 0 81 -79v-185q0 -67 -55 -82zM200 621q0 61 -62 61h-76v-318h66q72 0 72 70v187zM62 345v-327h77q62 0 62 61v196q0 70 -72 70h-67z" />
    <glyph glyph-name="C" unicode="C" horiz-adv-x="257" 
d="M203 272h19v-198q0 -79 -81 -79h-21q-82 0 -82 79v552q0 79 82 79h21q81 0 81 -79v-195h-20v195q0 61 -62 61h-20q-62 0 -62 -61v-552q0 -61 62 -61h21q62 0 62 61v198z" />
    <glyph glyph-name="D" unicode="D" horiz-adv-x="262" 
d="M43 0v700h79q102 0 102 -102v-496q0 -102 -102 -102h-79zM62 682v-664h59q84 0 84 84v496q0 84 -84 84h-59z" />
    <glyph glyph-name="E" unicode="E" horiz-adv-x="214" 
d="M43 700h143v-18h-124v-319h120v-18h-120v-327h126v-18h-145v700z" />
    <glyph glyph-name="F" unicode="F" horiz-adv-x="203" 
d="M43 700h140v-18h-121v-319h118v-18h-118v-345h-19v700z" />
    <glyph glyph-name="G" unicode="G" horiz-adv-x="263" 
d="M206 332h-76v18h96v-276q0 -79 -81 -79h-25q-82 0 -82 79v552q0 79 82 79h25q80 0 80 -79v-179h-19v179q0 61 -62 61h-24q-62 0 -62 -61v-552q0 -61 62 -61h24q62 0 62 61v258z" />
    <glyph glyph-name="H" unicode="H" horiz-adv-x="268" 
d="M62 364h144v336h19v-700h-19v345h-144v-345h-19v700h19v-336z" />
    <glyph glyph-name="I" unicode="I" horiz-adv-x="109" 
d="M64 700v-700h-19v700h19z" />
    <glyph glyph-name="J" unicode="J" horiz-adv-x="155" 
d="M113 700v-614q0 -45 -19.5 -65.5t-64.5 -20.5h-8v19h7q36 0 51 15.5t15 51.5v614h19z" />
    <glyph glyph-name="K" unicode="K" horiz-adv-x="230" 
d="M215 0h-20l-133 349v-349h-19v700h19v-348l136 348h20l-137 -348z" />
    <glyph glyph-name="L" unicode="L" horiz-adv-x="194" 
d="M43 700h19v-682h117v-18h-136v700z" />
    <glyph glyph-name="M" unicode="M" horiz-adv-x="355" 
d="M168 0l-109 640l2 -475v-165h-18v700h24l110 -656l111 656h24v-700h-19v169l2 470l-108 -639h-19z" />
    <glyph glyph-name="N" unicode="N" horiz-adv-x="272" 
d="M229 0h-23l-147 646l2 -298v-348h-18v700h23l146 -650l-1 305v345h18v-700z" />
    <glyph glyph-name="O" unicode="O" horiz-adv-x="266" 
d="M227 74q0 -79 -81 -79h-26q-82 0 -82 79v552q0 79 82 79h26q81 0 81 -79v-552zM208 626q0 61 -62 61h-26q-62 0 -62 -61v-552q0 -61 62 -61h26q62 0 62 61v552z" />
    <glyph glyph-name="P" unicode="P" horiz-adv-x="240" 
d="M62 301v-301h-19v700h81q86 0 86 -79v-232q0 -88 -89 -88h-59zM191 621q0 30 -18 45.5t-49 15.5h-62v-363h59q70 0 70 70v232z" />
    <glyph glyph-name="Q" unicode="Q" horiz-adv-x="266" 
d="M227 626v-550q0 -70 -64 -78l71 -38l-11 -17l-84 52h-19q-82 0 -82 79v552q0 79 82 79h26q81 0 81 -79zM208 74v552q0 61 -62 61h-26q-62 0 -62 -61v-552q0 -61 62 -61h26q62 0 62 61z" />
    <glyph glyph-name="R" unicode="R" horiz-adv-x="259" 
d="M164 342q55 -12 55 -78v-264h-20v263q0 71 -71 71h-66v-334h-19v700h94q81 0 81 -79v-197q0 -63 -54 -82zM198 621q0 61 -62 61h-74v-330h65q71 0 71 70v199z" />
    <glyph glyph-name="S" unicode="S" horiz-adv-x="249" 
d="M171 335q43 -34 43 -91v-171q0 -78 -81 -78h-15q-81 0 -81 78v194h19v-194q0 -60 62 -60h15q62 0 62 60v170q0 46 -35 75l-81 64q-42 33 -42 90v155q0 78 81 78h14q81 0 81 -78v-180h-19v180q0 60 -62 60h-14q-62 0 -62 -60v-154q0 -46 35 -75z" />
    <glyph glyph-name="T" unicode="T" horiz-adv-x="210" 
d="M115 0h-19v682h-85v18h188v-18h-84v-682z" />
    <glyph glyph-name="U" unicode="U" horiz-adv-x="266" 
d="M226 700v-625q0 -80 -82 -80h-22q-81 0 -81 80v625h19v-625q0 -62 62 -62h22q62 0 62 62v625h20z" />
    <glyph glyph-name="V" unicode="V" horiz-adv-x="248" 
d="M135 -3h-22l-88 703h19l80 -658l81 658h19z" />
    <glyph glyph-name="W" unicode="W" horiz-adv-x="389" 
d="M204 700l73 -659l66 659h19l-73 -701h-23l-72 642l-71 -642h-23l-73 701h19l65 -659l74 659h19z" />
    <glyph glyph-name="X" unicode="X" horiz-adv-x="235" 
d="M210 700l-82 -347l82 -353h-19l-74 326l-75 -326h-19l84 353l-82 347h19l73 -322l74 322h19z" />
    <glyph glyph-name="Y" unicode="Y" horiz-adv-x="227" 
d="M211 700l-87 -432v-268h-20v266l-88 434h19l79 -398l79 398h18z" />
    <glyph glyph-name="Z" unicode="Z" horiz-adv-x="206" 
d="M161 682h-136v18h155v-18l-134 -664h139v-18h-158v18z" />
    <glyph glyph-name="bracketleft" unicode="[" horiz-adv-x="154" 
d="M148 -11v-16h-96v754h96v-16h-78v-722h78z" />
    <glyph glyph-name="backslash" unicode="\" horiz-adv-x="160" 
d="M120 -23l-96 746h16l96 -746h-16z" />
    <glyph glyph-name="bracketright" unicode="]" horiz-adv-x="154" 
d="M6 -27v16h78v722h-78v16h96v-754h-96z" />
    <glyph glyph-name="asciicircum" unicode="^" horiz-adv-x="235" 
d="M124 700l87 -186h-18l-77 165l-73 -165h-18l84 186h15z" />
    <glyph glyph-name="underscore" unicode="_" horiz-adv-x="326" 
d="M10 -32h306v-16h-306v16z" />
    <glyph glyph-name="grave" unicode="`" 
d="M179 677l33 -70h-14l-40 70h21z" />
    <glyph glyph-name="a" unicode="a" horiz-adv-x="230" 
d="M33 54v159q0 30 13 46.5t45 29.5l82 33v171q0 53 -55 53h-5q-58 0 -58 -53v-133h-19v133q0 70 77 70h6q73 0 73 -70v-493h-19v27q-43 -32 -75 -32h-3q-62 0 -62 59zM102 13q31 0 71 31v260l-76 -31q-25 -11 -35 -24t-10 -36v-156q0 -44 47 -44h3z" />
    <glyph glyph-name="b" unicode="b" horiz-adv-x="240" 
d="M39 0v703h18v-173q45 33 78 33h4q66 0 66 -60v-447q0 -61 -66 -61h-4q-33 0 -78 33v-28h-18zM57 512v-465q44 -34 74 -34h5q50 0 50 44v444q0 45 -50 45h-5q-30 0 -74 -34z" />
    <glyph glyph-name="c" unicode="c" horiz-adv-x="237" 
d="M182 341v145q0 60 -58 60h-11q-59 0 -59 -60v-414q0 -59 58 -59h12q59 0 59 59v145h19v-144q0 -78 -78 -78h-12q-77 0 -77 78v413q0 77 78 77h11q77 0 77 -77v-145h-19z" />
    <glyph glyph-name="d" unicode="d" horiz-adv-x="240" 
d="M201 703v-703h-19v28q-44 -33 -77 -33h-5q-65 0 -65 61v447q0 60 65 60h5q33 0 77 -33v173h19zM182 46v465q-43 35 -73 35h-5q-51 0 -51 -45v-444q0 -44 51 -44h5q30 0 73 33z" />
    <glyph glyph-name="e" unicode="e" horiz-adv-x="234" 
d="M200 270h-147v-197q0 -60 61 -60h7q60 0 60 60v132h19v-132q0 -78 -79 -78h-8q-78 0 -78 78v412q0 78 78 78h8q79 0 79 -78v-215zM53 485v-197h128v197q0 61 -60 61h-7q-61 0 -61 -61z" />
    <glyph glyph-name="f" unicode="f" horiz-adv-x="134" 
d="M51 558v86q0 59 55 59h23v-18h-23q-36 0 -36 -41v-86h57v-17h-57v-541h-19v541h-32v17h32z" />
    <glyph glyph-name="g" unicode="g" horiz-adv-x="238" 
d="M200 558v-586q0 -65 -71 -65h-21q-70 0 -70 63v17h18v-17q0 -46 52 -46h21q52 0 52 46v87q-42 -32 -76 -32h-5q-65 0 -65 61v417q0 60 65 60h5q35 0 76 -32v27h19zM181 74v439q-41 33 -72 33h-5q-51 0 -51 -45v-414q0 -45 51 -45h5q30 0 72 32z" />
    <glyph glyph-name="h" unicode="h" horiz-adv-x="241" 
d="M39 0v703h18v-173q45 33 77 33h5q64 0 64 -59v-504h-19v501q0 45 -48 45h-5q-30 0 -74 -33v-513h-18z" />
    <glyph glyph-name="i" unicode="i" horiz-adv-x="100" 
d="M40 618v50h20v-50h-20zM41 0v558h19v-558h-19z" />
    <glyph glyph-name="j" unicode="j" horiz-adv-x="105" 
d="M45 618v50h20v-50h-20zM65 558v-595q0 -28 -11.5 -41.5t-37.5 -13.5h-4v18h3q18 0 24.5 8t6.5 29v595h19z" />
    <glyph glyph-name="k" unicode="k" horiz-adv-x="208" 
d="M179 557h20l-123 -276l119 -281h-20l-118 278v-278h-18v703h18v-423zM57 280v-2l2 1z" />
    <glyph glyph-name="l" unicode="l" horiz-adv-x="100" 
d="M41 0v703h19v-703h-19z" />
    <glyph glyph-name="m" unicode="m" horiz-adv-x="375" 
d="M39 0v558h18v-28q45 33 77 33h3q45 0 57 -33q42 33 78 33h3q62 0 62 -57v-506h-18v503q0 43 -48 43h-3q-31 0 -71 -31q1 -3 1 -9v-506h-19v503q0 43 -45 43h-3q-30 0 -74 -33v-513h-18z" />
    <glyph glyph-name="n" unicode="n" horiz-adv-x="241" 
d="M39 0v558h18v-28q45 33 77 33h5q64 0 64 -59v-504h-19v501q0 45 -48 45h-5q-30 0 -74 -33v-513h-18z" />
    <glyph glyph-name="o" unicode="o" horiz-adv-x="239" 
d="M127 -5h-15q-77 0 -77 78v413q0 77 77 77h15q78 0 78 -77v-413q0 -78 -78 -78zM127 546h-15q-58 0 -58 -60v-414q0 -59 58 -59h15q59 0 59 59v414q0 60 -59 60z" />
    <glyph glyph-name="p" unicode="p" horiz-adv-x="240" 
d="M205 56q0 -61 -66 -61h-4q-33 0 -78 33v-119h-18v649h18v-28q45 33 78 33h4q66 0 66 -60v-447zM186 501q0 45 -50 45h-5q-30 0 -74 -34v-465q44 -34 74 -34h5q50 0 50 44v444z" />
    <glyph glyph-name="q" unicode="q" horiz-adv-x="240" 
d="M201 558v-649h-19v119q-44 -33 -77 -33h-5q-65 0 -65 61v447q0 60 65 60h5q33 0 77 -33v28h19zM182 46v465q-45 35 -73 35h-5q-51 0 -51 -45v-444q0 -44 51 -44h5q30 0 73 33z" />
    <glyph glyph-name="r" unicode="r" horiz-adv-x="142" 
d="M39 0v558h18v-34q32 37 73 38v-21q-44 -3 -73 -35v-506h-18z" />
    <glyph glyph-name="s" unicode="s" horiz-adv-x="229" 
d="M175 349v145q0 52 -55 52h-11q-55 0 -55 -52v-115q0 -42 33 -66l66 -46q42 -29 42 -79v-123q0 -70 -74 -70h-13q-73 0 -73 70v148h18v-149q0 -51 55 -51h14q55 0 55 51v120q0 42 -34 67l-66 46q-42 29 -42 79v117q0 70 74 70h11q74 0 74 -69v-145h-19z" />
    <glyph glyph-name="t" unicode="t" horiz-adv-x="132" 
d="M70 541v-541h-19v541h-32v17h32v66h19v-66h55v-17h-55z" />
    <glyph glyph-name="u" unicode="u" horiz-adv-x="241" 
d="M202 558v-558h-19v28q-43 -33 -77 -33h-4q-65 0 -65 59v504h19v-501q0 -44 49 -44h5q32 0 73 32v513h19z" />
    <glyph glyph-name="v" unicode="v" horiz-adv-x="223" 
d="M122 -4h-20l-80 562h18l72 -519l72 519h18z" />
    <glyph glyph-name="w" unicode="w" horiz-adv-x="329" 
d="M224 -4l-59 506l-59 -506h-20l-68 562h19l59 -515l60 515h18l60 -514l58 514h18l-66 -562h-20z" />
    <glyph glyph-name="x" unicode="x" horiz-adv-x="207" 
d="M35 0h-18l77 279l-76 279h19l66 -251l67 251h19l-75 -275l76 -283h-18l-68 255z" />
    <glyph glyph-name="y" unicode="y" horiz-adv-x="221" 
d="M106 -91h-18l14 94l-83 555h18l74 -507l73 507h18z" />
    <glyph glyph-name="z" unicode="z" horiz-adv-x="173" 
d="M136 541h-120v17h138v-16l-117 -524h120v-18h-138v17z" />
    <glyph glyph-name="braceleft" unicode="{" horiz-adv-x="177" 
d="M80 123v165q0 28 -8 38.5t-33 15.5l-9 1v14l9 2q25 5 33 15.5t8 38.5v165q0 62 10.5 87.5t51.5 66.5l11 -6q-37 -42 -46 -65.5t-9 -82.5v-161q0 -32 -9.5 -46.5t-33.5 -19.5q24 -6 33.5 -20t9.5 -46v-162q0 -59 9 -83t46 -66l-11 -6q-41 42 -51.5 67.5t-10.5 87.5z" />
    <glyph glyph-name="bar" unicode="|" horiz-adv-x="196" 
d="M106 744v-793h-16v793h16z" />
    <glyph glyph-name="braceright" unicode="}" horiz-adv-x="177" 
d="M96 288v-165q0 -62 -10.5 -87.5t-51.5 -67.5l-11 6q37 42 46 66t9 83v162q0 32 9.5 46t33.5 20q-24 5 -33.5 19.5t-9.5 46.5v161q0 59 -9 82.5t-46 65.5l11 6q41 -41 51.5 -66.5t10.5 -87.5v-165q0 -28 8 -38.5t33 -15.5l9 -2v-14l-9 -1q-25 -5 -33 -15.5t-8 -38.5z" />
    <glyph glyph-name="asciitilde" unicode="~" horiz-adv-x="235" 
d="M22 331v19q26 26 51 26h3q14 0 34 -9l20 -10q16 -8 30 -8h2q23 0 51 28v-18q-25 -27 -51 -27h-2q-17 0 -35 9l-20 10q-16 8 -30 8h-2q-23 0 -51 -28z" />
    <glyph glyph-name="uni00A0" unicode="&#xa0;" horiz-adv-x="88" 
 />
    <glyph glyph-name="exclamdown" unicode="&#xa1;" horiz-adv-x="107" 
d="M59 566l4 -237v-329h-19v329l3 237h12zM63 700v-63h-19v63h19z" />
    <glyph glyph-name="cent" unicode="&#xa2;" horiz-adv-x="234" 
d="M181 408v151q0 57 -55 61v-536q55 1 55 61v162h19v-162q0 -76 -74 -78v-69h-18v69q-74 1 -74 78v414q0 76 74 79v65h18v-65q73 -3 73 -79v-151h-18zM53 145q0 -60 56 -61v536q-56 -1 -56 -61v-414z" />
    <glyph glyph-name="sterling" unicode="&#xa3;" horiz-adv-x="266" 
d="M27 314v17h34v295q0 79 76 79h19q76 0 76 -79v-184h-19v184q0 61 -57 61h-19q-57 0 -57 -61v-295h105v-17h-105v-296h155v-18h-208v18h34v296h-34z" />
    <glyph glyph-name="yen" unicode="&#xa5;" horiz-adv-x="245" 
d="M35 292h76l-85 408h19l78 -383l78 383h18l-86 -408h76v-16h-77v-57h77v-15h-77v-204h-19v204h-78v15h78v57h-78v16z" />
    <glyph glyph-name="section" unicode="&#xa7;" horiz-adv-x="245" 
d="M79 407q-23 12 -32.5 27.5t-9.5 44.5v149q0 77 80 77h14q79 0 79 -77v-152h-18v152q0 59 -61 59h-14q-62 0 -62 -59v-151q0 -22 7.5 -33t27.5 -22l97 -52q19 -10 19 -27v-4zM166 293q23 -12 32.5 -27.5t9.5 -44.5v-149q0 -77 -80 -77h-14q-80 0 -80 77v152h19v-152
q0 -59 61 -59h14q62 0 62 59v151q0 22 -7.5 33t-27.5 22l-98 52q-18 10 -18 27v4z" />
    <glyph glyph-name="dieresis" unicode="&#xa8;" 
d="M213 607v50h16v-50h-16zM154 657v-50h-16v50h16z" />
    <glyph glyph-name="copyright" unicode="&#xa9;" horiz-adv-x="368" 
d="M324 586v-471q0 -65 -24 -92.5t-84 -27.5h-64q-61 0 -85 27.5t-24 92.5v471q0 65 24 92.5t85 27.5h64q60 0 84 -27.5t24 -92.5zM314 115v471q0 60 -21.5 85t-76.5 25h-64q-55 0 -76.5 -25t-21.5 -85v-471q0 -60 21.5 -85t76.5 -25h64q55 0 76.5 25t21.5 85zM233 278h16
v-141q0 -58 -58 -58h-12q-58 0 -58 58v427q0 57 58 57h12q57 0 57 -57v-143h-16v143q0 41 -41 41h-12q-41 0 -41 -41v-427q0 -41 41 -41h12q42 0 42 41v141z" />
    <glyph glyph-name="ordfeminine" unicode="&#xaa;" horiz-adv-x="164" 
d="M29 452v64q0 19 8 29.5t28 18.5l51 19v78q0 30 -33 30h-4q-34 0 -34 -30v-58h-14v59q0 43 47 43h5q47 0 47 -43v-246h-14v19q-27 -21 -46 -21h-2q-39 0 -39 38zM70 427q19 0 46 21v122l-45 -18q-28 -12 -28 -36v-63q0 -26 27 -26z" />
    <glyph glyph-name="guillemotleft" unicode="&#xab;" horiz-adv-x="160" 
d="M24 280l39 148h14l-34 -148l34 -148h-13zM87 280l36 148h13l-30 -148l30 -148h-13z" />
    <glyph glyph-name="registered" unicode="&#xae;" horiz-adv-x="235" 
d="M203 632v-223q0 -39 -13.5 -56t-49.5 -17h-45q-36 0 -49.5 16.5t-13.5 56.5v223q0 40 13.5 56.5t49.5 16.5h41q37 0 52 -17t15 -56zM194 409v223q0 35 -13 49.5t-45 14.5h-41q-31 0 -42.5 -14t-11.5 -50v-223q0 -35 11.5 -49.5t42.5 -14.5h45q31 0 42.5 14.5t11.5 49.5z
M158 619v-64q0 -33 -26 -40q26 -3 26 -37v-91h-12v90q0 20 -7.5 26.5t-29.5 6.5h-17v-123h-12v268h28q27 0 38.5 -7.5t11.5 -28.5zM146 554v64q0 15 -9 20.5t-29 5.5h-16v-123h16q22 0 30 7t8 26z" />
    <glyph glyph-name="macron" unicode="&#xaf;" 
d="M125 644h117v-16h-117v16z" />
    <glyph glyph-name="degree" unicode="&#xb0;" horiz-adv-x="194" 
d="M162 648v-208q0 -56 -52 -56h-25q-53 0 -53 56v208q0 57 53 57h27q50 0 50 -57zM146 441v206q0 42 -35 42h-25q-38 0 -38 -42v-206q0 -42 38 -42h22q38 0 38 42z" />
    <glyph glyph-name="plusminus" unicode="&#xb1;" horiz-adv-x="234" 
d="M108 303v89h-86v18h86v89h18v-89h87v-18h-87v-89h-18zM23 233h188v-17h-188v17z" />
    <glyph glyph-name="acute" unicode="&#xb4;" 
d="M170 607l33 70h20l-39 -70h-14z" />
    <glyph glyph-name="paragraph" unicode="&#xb6;" horiz-adv-x="271" 
d="M233 0h-17v683h-51v-683h-27q-49 0 -74 30t-25 83v474q0 53 25 83t74 30h95v-700zM57 587v-474q0 -44 20.5 -69.5t59.5 -25.5h10v665h-10q-39 0 -59.5 -25.5t-20.5 -70.5z" />
    <glyph glyph-name="periodcentered" unicode="&#xb7;" horiz-adv-x="68" 
d="M43 363v-63h-19v63h19z" />
    <glyph glyph-name="cedilla" unicode="&#xb8;" 
d="M202 0l-24 -79h-19l30 79h13z" />
    <glyph glyph-name="ordmasculine" unicode="&#xba;" horiz-adv-x="170" 
d="M90 692h-10q-35 0 -35 -36v-193q0 -36 35 -36h10q35 0 35 36v193q0 36 -35 36zM90 414h-11q-48 0 -48 49v193q0 49 48 49h11q49 0 49 -49v-193q0 -49 -49 -49z" />
    <glyph glyph-name="guillemotright" unicode="&#xbb;" horiz-adv-x="160" 
d="M96 428l39 -148l-40 -148h-13l34 148l-34 148h14zM36 428l36 -148l-36 -148h-13l30 148l-30 148h13z" />
    <glyph glyph-name="questiondown" unicode="&#xbf;" horiz-adv-x="222" 
d="M92 342l-23 -31q-25 -31 -25 -65v-175q0 -57 60 -57h12q59 0 59 56v182h19v-181q0 -75 -78 -75h-13q-78 0 -78 76v173q0 38 30 78l24 31q22 31 22 64v151h17v-153q0 -25 -5 -39.5t-21 -34.5zM99 638v63h19v-63h-19z" />
    <glyph glyph-name="Agrave" unicode="&#xc0;" horiz-adv-x="256" 
d="M230 0h-18l-20 159h-128l-20 -159h-18l91 704h21zM127 660l-61 -483h123zM97 787l37 -55h-14l-44 55h21z" />
    <glyph glyph-name="Aacute" unicode="&#xc1;" horiz-adv-x="256" 
d="M230 0h-18l-20 159h-128l-20 -159h-18l91 704h21zM127 660l-61 -483h123zM122 732l38 55h21l-45 -55h-14z" />
    <glyph glyph-name="Acircumflex" unicode="&#xc2;" horiz-adv-x="256" 
d="M230 0h-18l-20 159h-128l-20 -159h-18l91 704h21zM127 660l-61 -483h123zM139 793l45 -61h-13l-42 48l-41 -48h-14l46 61h19z" />
    <glyph glyph-name="Atilde" unicode="&#xc3;" horiz-adv-x="256" 
d="M230 0h-18l-20 159h-128l-20 -159h-18l91 704h21zM127 660l-61 -483h123zM86 794h4q10 0 25 -11l34 -29q11 -8 17 -8h3q10 0 10 12v35h13v-40q0 -21 -21 -21h-3q-12 0 -25 10l-34 29q-13 8 -18 8h-3q-9 0 -9 -12v-35h-14v40q0 22 21 22z" />
    <glyph glyph-name="Adieresis" unicode="&#xc4;" horiz-adv-x="256" 
d="M138 704l92 -704h-18l-20 159h-128l-20 -159h-18l91 704h21zM127 660l-61 -483h123zM157 732v44h16v-44h-16zM100 776v-44h-16v44h16z" />
    <glyph glyph-name="Aring" unicode="&#xc5;" horiz-adv-x="254" 
d="M192 704v-3q0 -34 -44 -34h-7l88 -667h-18l-21 159h-127l-20 -159h-18l87 667h-5q-44 0 -44 34v3q0 34 44 34h41q44 0 44 -34zM126 651l-60 -474h122zM182 701v3q0 14 -7.5 19t-26.5 5h-40q-19 0 -27 -5t-8 -19v-3q0 -14 8 -19.5t27 -5.5h40q34 0 34 25z" />
    <glyph glyph-name="AE" unicode="&#xc6;" horiz-adv-x="334" 
d="M148 700h158v-18h-124v-318h121v-18h-121v-328h126v-18h-145v159h-97l-30 -159h-18zM70 177h93v508z" />
    <glyph glyph-name="Ccedilla" unicode="&#xc7;" horiz-adv-x="257" 
d="M203 272h19v-198q0 -79 -81 -79h-1l-22 -74h-19l28 74h-7q-82 0 -82 79v552q0 79 82 79h21q81 0 81 -79v-195h-20v195q0 61 -62 61h-20q-62 0 -62 -61v-552q0 -61 62 -61h21q62 0 62 61v198z" />
    <glyph glyph-name="Egrave" unicode="&#xc8;" horiz-adv-x="214" 
d="M85 787l37 -55h-14l-44 55h21zM43 700h143v-18h-124v-319h120v-18h-120v-327h126v-18h-145v700z" />
    <glyph glyph-name="Eacute" unicode="&#xc9;" horiz-adv-x="214" 
d="M110 732l38 55h21l-45 -55h-14zM43 700h143v-18h-124v-319h120v-18h-120v-327h126v-18h-145v700z" />
    <glyph glyph-name="Ecircumflex" unicode="&#xca;" horiz-adv-x="214" 
d="M43 700h143v-18h-124v-319h120v-18h-120v-327h126v-18h-145v700zM126 793l45 -61h-13l-42 48l-41 -48h-14l46 61h19z" />
    <glyph glyph-name="Edieresis" unicode="&#xcb;" horiz-adv-x="214" 
d="M144 732v44h16v-44h-16zM87 776v-44h-16v44h16zM43 700h143v-18h-124v-319h120v-18h-120v-327h126v-18h-145v700z" />
    <glyph glyph-name="Igrave" unicode="&#xcc;" horiz-adv-x="109" 
d="M64 700v-700h-19v700h19zM24 787l37 -55h-14l-44 55h21z" />
    <glyph glyph-name="Iacute" unicode="&#xcd;" horiz-adv-x="109" 
d="M64 700v-700h-19v700h19zM49 732l38 55h21l-45 -55h-14z" />
    <glyph glyph-name="Icircumflex" unicode="&#xce;" horiz-adv-x="109" 
d="M64 700v-700h-19v700h19zM65 793l45 -61h-13l-42 48l-41 -48h-14l46 61h19z" />
    <glyph glyph-name="Idieresis" unicode="&#xcf;" horiz-adv-x="109" 
d="M64 700v-700h-19v700h19zM84 732v44h16v-44h-16zM27 776v-44h-16v44h16z" />
    <glyph glyph-name="Eth" unicode="&#xd0;" horiz-adv-x="273" 
d="M53 0v346h-36v17h36v337h79q102 0 102 -102v-496q0 -102 -102 -102h-79zM72 682v-319h69v-17h-69v-328h59q84 0 84 84v496q0 84 -84 84h-59z" />
    <glyph glyph-name="Ntilde" unicode="&#xd1;" horiz-adv-x="272" 
d="M206 0l-147 646l2 -298v-348h-18v700h23l146 -650l-1 305v345h18v-700h-23zM93 794h4q10 0 25 -11l34 -29q11 -8 17 -8h3q10 0 10 12v35h13v-40q0 -21 -21 -21h-3q-13 0 -25 10l-34 29q-13 8 -18 8h-3q-9 0 -9 -12v-35h-14v40q0 22 21 22z" />
    <glyph glyph-name="Ograve" unicode="&#xd2;" horiz-adv-x="266" 
d="M102 787l37 -55h-14l-44 55h21zM227 74q0 -79 -81 -79h-26q-82 0 -82 79v552q0 79 82 79h26q81 0 81 -79v-552zM208 626q0 61 -62 61h-26q-62 0 -62 -61v-552q0 -61 62 -61h26q62 0 62 61v552z" />
    <glyph glyph-name="Oacute" unicode="&#xd3;" horiz-adv-x="266" 
d="M127 732l38 55h21l-45 -55h-14zM227 74q0 -79 -81 -79h-26q-82 0 -82 79v552q0 79 82 79h26q81 0 81 -79v-552zM208 626q0 61 -62 61h-26q-62 0 -62 -61v-552q0 -61 62 -61h26q62 0 62 61v552z" />
    <glyph glyph-name="Ocircumflex" unicode="&#xd4;" horiz-adv-x="266" 
d="M227 74q0 -79 -81 -79h-26q-82 0 -82 79v552q0 79 82 79h26q81 0 81 -79v-552zM208 626q0 61 -62 61h-26q-62 0 -62 -61v-552q0 -61 62 -61h26q62 0 62 61v552zM143 793l45 -61h-13l-42 48l-41 -48h-14l46 61h19z" />
    <glyph glyph-name="Otilde" unicode="&#xd5;" horiz-adv-x="266" 
d="M90 794h4q10 0 25 -11l34 -29q11 -8 17 -8h3q10 0 10 12v35h13v-40q0 -21 -21 -21h-3q-12 0 -25 10l-34 29q-13 8 -18 8h-3q-9 0 -9 -12v-35h-14v40q0 22 21 22zM227 74q0 -79 -81 -79h-26q-82 0 -82 79v552q0 79 82 79h26q81 0 81 -79v-552zM208 626q0 61 -62 61h-26
q-62 0 -62 -61v-552q0 -61 62 -61h26q62 0 62 61v552z" />
    <glyph glyph-name="Odieresis" unicode="&#xd6;" horiz-adv-x="266" 
d="M161 732v44h16v-44h-16zM104 776v-44h-16v44h16zM227 74q0 -79 -81 -79h-26q-82 0 -82 79v552q0 79 82 79h26q81 0 81 -79v-552zM208 626q0 61 -62 61h-26q-62 0 -62 -61v-552q0 -61 62 -61h26q62 0 62 61v552z" />
    <glyph glyph-name="multiply" unicode="&#xd7;" horiz-adv-x="229" 
d="M182 269l-67 71l-67 -72l-12 12l68 72l-67 72l13 13l65 -73l66 73l12 -13l-67 -72l68 -71z" />
    <glyph glyph-name="Oslash" unicode="&#xd8;" horiz-adv-x="266" 
d="M227 74q0 -79 -81 -79h-26q-82 0 -82 79v552q0 79 82 79h26q81 0 81 -79v-552zM208 626q0 18 -6 32l-129 -631q17 -14 47 -14h25q63 0 63 61v552zM57 74q0 -18 6 -32l128 630q-17 15 -46 15h-25q-63 0 -63 -61v-552z" />
    <glyph glyph-name="Ugrave" unicode="&#xd9;" horiz-adv-x="266" 
d="M102 787l37 -55h-14l-44 55h21zM226 700v-625q0 -80 -82 -80h-22q-81 0 -81 80v625h19v-625q0 -62 62 -62h22q62 0 62 62v625h20z" />
    <glyph glyph-name="Uacute" unicode="&#xda;" horiz-adv-x="266" 
d="M129 732l38 55h21l-45 -55h-14zM226 700v-625q0 -80 -82 -80h-22q-81 0 -81 80v625h19v-625q0 -62 62 -62h22q62 0 62 62v625h20z" />
    <glyph glyph-name="Ucircumflex" unicode="&#xdb;" horiz-adv-x="266" 
d="M226 700v-625q0 -80 -82 -80h-22q-81 0 -81 80v625h19v-625q0 -62 62 -62h22q62 0 62 62v625h20zM143 793l45 -61h-13l-42 48l-41 -48h-14l46 61h19z" />
    <glyph glyph-name="Udieresis" unicode="&#xdc;" horiz-adv-x="266" 
d="M162 732v44h16v-44h-16zM105 776v-44h-16v44h16zM226 700v-625q0 -80 -82 -80h-22q-81 0 -81 80v625h19v-625q0 -62 62 -62h22q62 0 62 62v625h20z" />
    <glyph glyph-name="Yacute" unicode="&#xdd;" horiz-adv-x="227" 
d="M211 700l-87 -432v-268h-20v266l-88 434h19l79 -398l79 398h18zM109 732l38 55h21l-45 -55h-14z" />
    <glyph glyph-name="Thorn" unicode="&#xde;" horiz-adv-x="236" 
d="M62 149v-149h-19v700h19v-146h58q40 0 62.5 -20t22.5 -59v-237q0 -89 -88 -89h-55zM186 476q0 61 -66 61h-58v-370h54q70 0 70 70v239z" />
    <glyph glyph-name="germandbls" unicode="&#xdf;" horiz-adv-x="241" 
d="M206 282v-204q0 -78 -79 -78h-37v18h37q60 0 60 60v204q0 69 -66 69h-30v18h29q66 0 66 70v189q0 61 -60 61h-7q-60 0 -60 -61v-628h-18v628q0 79 78 79h7q79 0 79 -79v-186q0 -67 -50 -81q51 -12 51 -79z" />
    <glyph glyph-name="agrave" unicode="&#xe0;" horiz-adv-x="230" 
d="M33 54v159q0 30 13 46.5t45 29.5l82 33v171q0 53 -55 53h-5q-58 0 -58 -53v-133h-19v133q0 70 77 70h6q73 0 73 -70v-493h-19v27q-43 -32 -75 -32h-3q-62 0 -62 59zM102 13q31 0 71 31v260l-76 -31q-25 -11 -35 -24t-10 -36v-156q0 -44 47 -44h3zM92 677l33 -70h-14
l-40 70h21z" />
    <glyph glyph-name="aacute" unicode="&#xe1;" horiz-adv-x="230" 
d="M33 54v159q0 30 13 46.5t45 29.5l82 33v171q0 53 -55 53h-5q-58 0 -58 -53v-133h-19v133q0 70 77 70h6q73 0 73 -70v-493h-19v27q-43 -32 -75 -32h-3q-62 0 -62 59zM102 13q31 0 71 31v260l-76 -31q-25 -11 -35 -24t-10 -36v-156q0 -44 47 -44h3zM110 607l33 70h20
l-39 -70h-14z" />
    <glyph glyph-name="acircumflex" unicode="&#xe2;" horiz-adv-x="230" 
d="M33 54v159q0 30 13 46.5t45 29.5l82 33v171q0 53 -55 53h-5q-58 0 -58 -53v-133h-19v133q0 70 77 70h6q73 0 73 -70v-493h-19v27q-43 -32 -75 -32h-3q-62 0 -62 59zM102 13q31 0 71 31v260l-76 -31q-25 -11 -35 -24t-10 -36v-156q0 -44 47 -44h3zM127 677l42 -70h-13
l-38 55l-39 -55h-14l43 70h19z" />
    <glyph glyph-name="atilde" unicode="&#xe3;" horiz-adv-x="230" 
d="M33 54v159q0 30 13 46.5t45 29.5l82 33v171q0 53 -55 53h-5q-58 0 -58 -53v-133h-19v133q0 70 77 70h6q73 0 73 -70v-493h-19v27q-43 -32 -75 -32h-3q-62 0 -62 59zM102 13q31 0 71 31v260l-76 -31q-25 -11 -35 -24t-10 -36v-156q0 -44 47 -44h3zM77 666h5q10 0 23 -10
l31 -28q8 -7 14 -7h3q9 0 9 13v32h14v-37q0 -22 -20 -22h-5q-11 0 -24 10l-30 28q-8 7 -15 7h-2q-9 0 -9 -12v-33h-14v37q0 22 20 22z" />
    <glyph glyph-name="adieresis" unicode="&#xe4;" horiz-adv-x="230" 
d="M33 54v159q0 30 13 46.5t45 29.5l82 33v171q0 53 -55 53h-5q-58 0 -58 -53v-133h-19v133q0 70 77 70h6q73 0 73 -70v-493h-19v27q-43 -32 -75 -32h-3q-62 0 -62 59zM102 13q31 0 71 31v260l-76 -31q-25 -11 -35 -24t-10 -36v-156q0 -44 47 -44h3zM147 607v50h16v-50h-16z
M88 657v-50h-16v50h16z" />
    <glyph glyph-name="aring" unicode="&#xe5;" horiz-adv-x="230" 
d="M33 54v159q0 30 13 46.5t45 29.5l82 33v171q0 53 -55 53h-5q-58 0 -58 -53v-133h-19v133q0 70 77 70h6q73 0 73 -70v-493h-19v27q-43 -32 -75 -32h-3q-62 0 -62 59zM102 13q31 0 71 31v260l-76 -31q-25 -11 -35 -24t-10 -36v-156q0 -44 47 -44h3zM173 646v-2
q0 -36 -43 -36h-25q-43 0 -43 36v2q0 36 43 36h25q43 0 43 -36zM163 644v2q0 27 -33 27h-25q-33 0 -33 -27v-2q0 -27 33 -27h25q33 0 33 27z" />
    <glyph glyph-name="ae" unicode="&#xe6;" horiz-adv-x="374" 
d="M253 563h8q78 0 78 -79v-214h-146v-197q0 -60 61 -60h7q60 0 60 60v133h18v-133q0 -78 -78 -78h-8q-54 0 -70 37q-50 -37 -84 -37h-3q-63 0 -63 59v162q0 28 13 44.5t45 29.5l83 33v170q0 53 -55 53h-6q-57 0 -57 -53v-138h-19v137q0 71 76 71h6q52 0 66 -38q15 38 68 38
zM193 485v-197h128v197q0 61 -61 61h-6q-61 0 -61 -61zM177 46q-3 21 -3 25v234l-76 -31q-25 -10 -35.5 -23t-10.5 -35v-160q0 -43 47 -43h3q31 0 75 33z" />
    <glyph glyph-name="ccedilla" unicode="&#xe7;" horiz-adv-x="237" 
d="M182 341v145q0 60 -58 60h-11q-59 0 -59 -60v-414q0 -59 58 -59h12q59 0 59 59v145h19v-144q0 -77 -76 -78l-22 -74h-19l28 74h-1q-77 0 -77 78v413q0 77 78 77h11q77 0 77 -77v-145h-19z" />
    <glyph glyph-name="egrave" unicode="&#xe8;" horiz-adv-x="234" 
d="M200 270h-147v-197q0 -60 61 -60h7q60 0 60 60v132h19v-132q0 -78 -79 -78h-8q-78 0 -78 78v412q0 78 78 78h8q79 0 79 -78v-215zM53 485v-197h128v197q0 61 -60 61h-7q-61 0 -61 -61zM91 677l33 -70h-14l-40 70h21z" />
    <glyph glyph-name="eacute" unicode="&#xe9;" horiz-adv-x="234" 
d="M200 270h-147v-197q0 -60 61 -60h7q60 0 60 60v132h19v-132q0 -78 -79 -78h-8q-78 0 -78 78v412q0 78 78 78h8q79 0 79 -78v-215zM53 485v-197h128v197q0 61 -60 61h-7q-61 0 -61 -61zM112 607l33 70h20l-39 -70h-14z" />
    <glyph glyph-name="ecircumflex" unicode="&#xea;" horiz-adv-x="234" 
d="M200 270h-147v-197q0 -60 61 -60h7q60 0 60 60v132h19v-132q0 -78 -79 -78h-8q-78 0 -78 78v412q0 78 78 78h8q79 0 79 -78v-215zM53 485v-197h128v197q0 61 -60 61h-7q-61 0 -61 -61zM128 677l42 -70h-13l-38 55l-39 -55h-14l43 70h19z" />
    <glyph glyph-name="edieresis" unicode="&#xeb;" horiz-adv-x="234" 
d="M200 270h-147v-197q0 -60 61 -60h7q60 0 60 60v132h19v-132q0 -78 -79 -78h-8q-78 0 -78 78v412q0 78 78 78h8q79 0 79 -78v-215zM53 485v-197h128v197q0 61 -60 61h-7q-61 0 -61 -61zM88 657v-50h-16v50h16zM147 607v50h16v-50h-16z" />
    <glyph glyph-name="igrave" unicode="&#xec;" horiz-adv-x="100" 
d="M40 0v558h19v-558h-19zM24 677l33 -70h-14l-40 70h21z" />
    <glyph glyph-name="iacute" unicode="&#xed;" horiz-adv-x="100" 
d="M44 607l33 70h20l-39 -70h-14zM40 0v558h19v-558h-19z" />
    <glyph glyph-name="icircumflex" unicode="&#xee;" horiz-adv-x="100" 
d="M60 677l42 -70h-13l-38 55l-39 -55h-14l43 70h19zM40 0v558h19v-558h-19z" />
    <glyph glyph-name="idieresis" unicode="&#xef;" horiz-adv-x="100" 
d="M80 607v50h16v-50h-16zM21 657v-50h-16v50h16zM40 0v558h19v-558h-19z" />
    <glyph glyph-name="eth" unicode="&#xf0;" horiz-adv-x="238" 
d="M157 706l-24 -42l16 -9q34 -19 44 -35t10 -55v-492q0 -78 -77 -78h-16q-77 0 -77 78v413q0 77 75 77h3q56 0 74 -30v31q0 33 -8 46t-38 30l-15 8l-21 -36h-18l25 44l-52 29l9 15l52 -29l20 35h18zM124 545h-13q-59 0 -59 -60v-412q0 -60 59 -60h14q59 0 59 60v415
q0 57 -60 57z" />
    <glyph glyph-name="ntilde" unicode="&#xf1;" horiz-adv-x="241" 
d="M39 0v558h18v-28q45 33 77 33h5q64 0 64 -59v-504h-19v501q0 45 -48 45h-5q-30 0 -74 -33v-513h-18zM81 666h5q10 0 23 -10l31 -28q8 -7 14 -7h3q9 0 9 13v32h14v-37q0 -22 -20 -22h-5q-11 0 -24 10l-30 28q-8 7 -15 7h-2q-9 0 -9 -12v-33h-14v37q0 22 20 22z" />
    <glyph glyph-name="ograve" unicode="&#xf2;" horiz-adv-x="239" 
d="M127 -5h-15q-77 0 -77 78v413q0 77 77 77h15q78 0 78 -77v-413q0 -78 -78 -78zM127 546h-15q-58 0 -58 -60v-414q0 -59 58 -59h15q59 0 59 59v414q0 60 -59 60zM93 677l33 -70h-14l-40 70h21z" />
    <glyph glyph-name="oacute" unicode="&#xf3;" horiz-adv-x="239" 
d="M114 607l33 70h20l-39 -70h-14zM127 -5h-15q-77 0 -77 78v413q0 77 77 77h15q78 0 78 -77v-413q0 -78 -78 -78zM127 546h-15q-58 0 -58 -60v-414q0 -59 58 -59h15q59 0 59 59v414q0 60 -59 60z" />
    <glyph glyph-name="ocircumflex" unicode="&#xf4;" horiz-adv-x="239" 
d="M130 677l42 -70h-13l-38 55l-39 -55h-14l43 70h19zM127 -5h-15q-77 0 -77 78v413q0 77 77 77h15q78 0 78 -77v-413q0 -78 -78 -78zM127 546h-15q-58 0 -58 -60v-414q0 -59 58 -59h15q59 0 59 59v414q0 60 -59 60z" />
    <glyph glyph-name="otilde" unicode="&#xf5;" horiz-adv-x="239" 
d="M127 -5h-15q-77 0 -77 78v413q0 77 77 77h15q78 0 78 -77v-413q0 -78 -78 -78zM127 546h-15q-58 0 -58 -60v-414q0 -59 58 -59h15q59 0 59 59v414q0 60 -59 60zM81 666h5q10 0 23 -10l31 -28q8 -7 14 -7h3q9 0 9 13v32h14v-37q0 -22 -20 -22h-5q-11 0 -24 10l-30 28
q-8 7 -15 7h-2q-9 0 -9 -12v-33h-14v37q0 22 20 22z" />
    <glyph glyph-name="odieresis" unicode="&#xf6;" horiz-adv-x="239" 
d="M150 607v50h16v-50h-16zM91 657v-50h-16v50h16zM127 -5h-15q-77 0 -77 78v413q0 77 77 77h15q78 0 78 -77v-413q0 -78 -78 -78zM127 546h-15q-58 0 -58 -60v-414q0 -59 58 -59h15q59 0 59 59v414q0 60 -59 60z" />
    <glyph glyph-name="divide" unicode="&#xf7;" horiz-adv-x="234" 
d="M21 361h192v-17h-192v17zM107 413v47h20v-47h-20zM107 245v48h20v-48h-20z" />
    <glyph glyph-name="oslash" unicode="&#xf8;" horiz-adv-x="239" 
d="M127 -5h-15q-77 0 -77 78v413q0 77 77 77h15q78 0 78 -77v-413q0 -78 -78 -78zM112 546q-59 0 -59 -60v-414q0 -24 9 -37l105 500q-16 11 -40 11h-15zM186 486q0 22 -8 36l-105 -499q13 -10 39 -10h15q59 0 59 59v414z" />
    <glyph glyph-name="ugrave" unicode="&#xf9;" horiz-adv-x="241" 
d="M202 558v-558h-19v28q-43 -33 -77 -33h-4q-65 0 -65 59v504h19v-501q0 -44 49 -44h5q32 0 73 32v513h19zM92 677l33 -70h-14l-40 70h21z" />
    <glyph glyph-name="uacute" unicode="&#xfa;" horiz-adv-x="241" 
d="M114 607l33 70h20l-39 -70h-14zM202 558v-558h-19v28q-43 -33 -77 -33h-4q-65 0 -65 59v504h19v-501q0 -44 49 -44h5q32 0 73 32v513h19z" />
    <glyph glyph-name="ucircumflex" unicode="&#xfb;" horiz-adv-x="241" 
d="M129 677l42 -70h-13l-38 55l-39 -55h-14l43 70h19zM202 558v-558h-19v28q-43 -33 -77 -33h-4q-65 0 -65 59v504h19v-501q0 -44 49 -44h5q32 0 73 32v513h19z" />
    <glyph glyph-name="udieresis" unicode="&#xfc;" horiz-adv-x="241" 
d="M149 607v50h16v-50h-16zM90 657v-50h-16v50h16zM202 558v-558h-19v28q-43 -33 -77 -33h-4q-65 0 -65 59v504h19v-501q0 -44 49 -44h5q32 0 73 32v513h19z" />
    <glyph glyph-name="yacute" unicode="&#xfd;" horiz-adv-x="221" 
d="M106 -91h-18l14 94l-83 555h18l74 -507l73 507h18zM105 607l33 70h20l-39 -70h-14z" />
    <glyph glyph-name="thorn" unicode="&#xfe;" horiz-adv-x="240" 
d="M39 703h18v-173q45 33 78 33h4q66 0 66 -60v-447q0 -61 -66 -61h-4q-33 0 -78 33v-119h-18v794zM57 513v-467q44 -33 77 -33q53 0 53 44v444q0 45 -53 45q-33 0 -77 -33z" />
    <glyph glyph-name="ydieresis" unicode="&#xff;" horiz-adv-x="221" 
d="M106 -91h-18l14 94l-83 555h18l74 -507l73 507h18zM82 657v-50h-16v50h16zM141 607v50h16v-50h-16z" />
    <glyph glyph-name="Amacron" unicode="&#x100;" horiz-adv-x="256" 
d="M230 0h-18l-20 159h-128l-20 -159h-18l91 704h21zM127 660l-61 -483h123zM70 764h118v-14h-118v14z" />
    <glyph glyph-name="amacron" unicode="&#x101;" horiz-adv-x="230" 
d="M33 54v159q0 30 13 46.5t45 29.5l82 33v171q0 53 -55 53h-5q-58 0 -58 -53v-133h-19v133q0 70 77 70h6q73 0 73 -70v-493h-19v27q-43 -32 -75 -32h-3q-62 0 -62 59zM102 13q31 0 71 31v260l-76 -31q-25 -11 -35 -24t-10 -36v-156q0 -44 47 -44h3zM60 644h117v-16h-117v16
z" />
    <glyph glyph-name="Abreve" unicode="&#x102;" horiz-adv-x="256" 
d="M138 704l92 -704h-18l-20 159h-128l-20 -159h-18l91 704h21zM127 660l-61 -483h123zM77 771v16h14v-16q0 -27 33 -27h11q33 0 33 27v16h14v-16q0 -41 -47 -41h-11q-47 0 -47 41z" />
    <glyph glyph-name="abreve" unicode="&#x103;" horiz-adv-x="230" 
d="M33 54v159q0 30 13 46.5t45 29.5l82 33v171q0 53 -55 53h-5q-58 0 -58 -53v-133h-19v133q0 70 77 70h6q73 0 73 -70v-493h-19v27q-43 -32 -75 -32h-3q-62 0 -62 59zM102 13q31 0 71 31v260l-76 -31q-25 -11 -35 -24t-10 -36v-156q0 -44 47 -44h3zM67 650v21h15v-21
q0 -30 32 -30h8q32 0 32 30v21h14v-21q0 -44 -45 -44h-10q-46 0 -46 44z" />
    <glyph glyph-name="Aogonek" unicode="&#x104;" horiz-adv-x="256" 
d="M138 704l92 -704h-4l-4 -10q-14 -25 -14 -35v-7q0 -10 11 -10h23v-14h-25q-24 0 -24 23v6q0 14 17 42l2 5l-20 159h-128l-20 -159h-18l91 704h21zM127 660l-61 -483h123z" />
    <glyph glyph-name="aogonek" unicode="&#x105;" horiz-adv-x="230" 
d="M33 54v159q0 30 13 46.5t45 29.5l82 33v171q0 53 -55 53h-5q-58 0 -58 -53v-133h-19v133q0 70 77 70h6q73 0 73 -70v-493h-2l-4 -10q-14 -25 -14 -35v-7q0 -10 11 -10h23v-14h-25q-24 0 -24 23v6q0 14 17 42l2 5h-3v27q-43 -32 -75 -32h-3q-62 0 -62 59zM102 13
q31 0 71 31v260l-76 -31q-25 -11 -35 -24t-10 -36v-156q0 -44 47 -44h3z" />
    <glyph glyph-name="Cacute" unicode="&#x106;" horiz-adv-x="257" 
d="M203 272h19v-198q0 -79 -81 -79h-21q-82 0 -82 79v552q0 79 82 79h21q81 0 81 -79v-195h-20v195q0 61 -62 61h-20q-62 0 -62 -61v-552q0 -61 62 -61h21q62 0 62 61v198zM125 732l38 55h21l-45 -55h-14z" />
    <glyph glyph-name="cacute" unicode="&#x107;" horiz-adv-x="237" 
d="M112 607l33 70h20l-39 -70h-14zM182 341v145q0 60 -58 60h-11q-59 0 -59 -60v-414q0 -59 58 -59h12q59 0 59 59v145h19v-144q0 -78 -78 -78h-12q-77 0 -77 78v413q0 77 78 77h11q77 0 77 -77v-145h-19z" />
    <glyph glyph-name="Cdotaccent" unicode="&#x10a;" horiz-adv-x="257" 
d="M139 777v-45h-17v45h17zM203 272h19v-198q0 -79 -81 -79h-21q-82 0 -82 79v552q0 79 82 79h21q81 0 81 -79v-195h-20v195q0 61 -62 61h-20q-62 0 -62 -61v-552q0 -61 62 -61h21q62 0 62 61v198z" />
    <glyph glyph-name="cdotaccent" unicode="&#x10b;" horiz-adv-x="237" 
d="M182 341v145q0 60 -58 60h-11q-59 0 -59 -60v-414q0 -59 58 -59h12q59 0 59 59v145h19v-144q0 -78 -78 -78h-12q-77 0 -77 78v413q0 77 78 77h11q77 0 77 -77v-145h-19zM127 656v-49h-17v49h17z" />
    <glyph glyph-name="Ccaron" unicode="&#x10c;" horiz-adv-x="257" 
d="M203 272h19v-198q0 -79 -81 -79h-21q-82 0 -82 79v552q0 79 82 79h21q81 0 81 -79v-195h-20v195q0 61 -62 61h-20q-62 0 -62 -61v-552q0 -61 62 -61h21q62 0 62 61v198zM186 793l-45 -61h-19l-46 61h14l41 -49l42 49h13z" />
    <glyph glyph-name="ccaron" unicode="&#x10d;" horiz-adv-x="237" 
d="M170 677l-42 -70h-19l-43 70h14l39 -56l38 56h13zM182 341v145q0 60 -58 60h-11q-59 0 -59 -60v-414q0 -59 58 -59h12q59 0 59 59v145h19v-144q0 -78 -78 -78h-12q-77 0 -77 78v413q0 77 78 77h11q77 0 77 -77v-145h-19z" />
    <glyph glyph-name="Dcaron" unicode="&#x10e;" horiz-adv-x="262" 
d="M183 793l-45 -61h-19l-46 61h14l41 -49l42 49h13zM43 0v700h79q102 0 102 -102v-496q0 -102 -102 -102h-79zM62 682v-664h59q84 0 84 84v496q0 84 -84 84h-59z" />
    <glyph glyph-name="dcaron" unicode="&#x10f;" horiz-adv-x="240" 
d="M228 614v87h16l-6 -87h-10zM201 703v-703h-19v28q-44 -33 -77 -33h-5q-65 0 -65 61v447q0 60 65 60h5q33 0 77 -33v173h19zM182 46v465q-43 35 -73 35h-5q-51 0 -51 -45v-444q0 -44 51 -44h5q30 0 73 33z" />
    <glyph glyph-name="Dcroat" unicode="&#x110;" horiz-adv-x="273" 
d="M53 0v346h-36v17h36v337h79q102 0 102 -102v-496q0 -102 -102 -102h-79zM72 682v-319h69v-17h-69v-328h59q84 0 84 84v496q0 84 -84 84h-59z" />
    <glyph glyph-name="dcroat" unicode="&#x111;" horiz-adv-x="242" 
d="M201 703v-64h35v-16h-35v-623h-19v28q-44 -33 -77 -33h-5q-65 0 -65 61v447q0 60 65 60h5q33 0 77 -33v93h-88v16h88v64h19zM182 46v465q-43 35 -73 35h-5q-51 0 -51 -45v-444q0 -44 51 -44h5q30 0 73 33z" />
    <glyph glyph-name="Emacron" unicode="&#x112;" horiz-adv-x="214" 
d="M57 764h118v-14h-118v14zM43 700h143v-18h-124v-319h120v-18h-120v-327h126v-18h-145v700z" />
    <glyph glyph-name="emacron" unicode="&#x113;" horiz-adv-x="234" 
d="M200 270h-147v-197q0 -60 61 -60h7q60 0 60 60v132h19v-132q0 -78 -79 -78h-8q-78 0 -78 78v412q0 78 78 78h8q79 0 79 -78v-215zM53 485v-197h128v197q0 61 -60 61h-7q-61 0 -61 -61zM59 644h117v-16h-117v16z" />
    <glyph glyph-name="Ebreve" unicode="&#x114;" horiz-adv-x="214" 
d="M63 771v16h14v-16q0 -27 33 -27h11q33 0 33 27v16h14v-16q0 -41 -47 -41h-11q-47 0 -47 41zM43 700h143v-18h-124v-319h120v-18h-120v-327h126v-18h-145v700z" />
    <glyph glyph-name="ebreve" unicode="&#x115;" horiz-adv-x="234" 
d="M200 270h-147v-197q0 -60 61 -60h7q60 0 60 60v132h19v-132q0 -78 -79 -78h-8q-78 0 -78 78v412q0 78 78 78h8q79 0 79 -78v-215zM53 485v-197h128v197q0 61 -60 61h-7q-61 0 -61 -61zM67 650v21h15v-21q0 -30 32 -30h8q32 0 32 30v21h14v-21q0 -44 -45 -44h-10
q-46 0 -46 44z" />
    <glyph glyph-name="Edotaccent" unicode="&#x116;" horiz-adv-x="214" 
d="M124 777v-45h-17v45h17zM43 700h143v-18h-124v-319h120v-18h-120v-327h126v-18h-145v700z" />
    <glyph glyph-name="edotaccent" unicode="&#x117;" horiz-adv-x="234" 
d="M200 270h-147v-197q0 -60 61 -60h7q60 0 60 60v132h19v-132q0 -78 -79 -78h-8q-78 0 -78 78v412q0 78 78 78h8q79 0 79 -78v-215zM53 485v-197h128v197q0 61 -60 61h-7q-61 0 -61 -61zM126 656v-49h-17v49h17z" />
    <glyph glyph-name="Eogonek" unicode="&#x118;" horiz-adv-x="214" 
d="M43 700h143v-18h-124v-319h120v-18h-120v-327h126v-18h-3l-4 -10q-14 -25 -14 -35v-7q0 -10 11 -10h23v-14h-25q-24 0 -24 23v6q0 14 17 42l2 5h-128v700z" />
    <glyph glyph-name="eogonek" unicode="&#x119;" horiz-adv-x="234" 
d="M200 270h-146v-197q0 -61 60 -61h7q60 0 60 61v132h19v-131q0 -31 -15 -54q-2 -3 -16 -27q-13 -26 -13 -38q0 -11 10 -11h23v-13h-25q-24 0 -24 22v3q0 16 19 46q-19 -7 -38 -7h-8q-78 0 -78 78v412q0 78 78 78h8q79 0 79 -78v-215zM54 485v-198h127v198q0 61 -60 61h-7
q-60 0 -60 -61z" />
    <glyph glyph-name="Ecaron" unicode="&#x11a;" horiz-adv-x="214" 
d="M171 793l-45 -61h-19l-46 61h14l41 -49l42 49h13zM43 700h143v-18h-124v-319h120v-18h-120v-327h126v-18h-145v700z" />
    <glyph glyph-name="ecaron" unicode="&#x11b;" horiz-adv-x="234" 
d="M200 270h-147v-197q0 -60 61 -60h7q60 0 60 60v132h19v-132q0 -78 -79 -78h-8q-78 0 -78 78v412q0 78 78 78h8q79 0 79 -78v-215zM53 485v-197h128v197q0 61 -60 61h-7q-61 0 -61 -61zM169 677l-42 -70h-19l-43 70h14l39 -56l38 56h13z" />
    <glyph glyph-name="Gbreve" unicode="&#x11e;" horiz-adv-x="263" 
d="M80 771v16h14v-16q0 -27 33 -27h11q33 0 33 27v16h14v-16q0 -41 -47 -41h-11q-47 0 -47 41zM206 332h-76v18h96v-276q0 -79 -81 -79h-25q-82 0 -82 79v552q0 79 82 79h25q80 0 80 -79v-179h-19v179q0 61 -62 61h-24q-62 0 -62 -61v-552q0 -61 62 -61h24q62 0 62 61v258z
" />
    <glyph glyph-name="gbreve" unicode="&#x11f;" horiz-adv-x="238" 
d="M200 558v-586q0 -65 -71 -65h-21q-70 0 -70 63v17h18v-17q0 -46 52 -46h21q52 0 52 46v87q-42 -32 -76 -32h-5q-65 0 -65 61v417q0 60 65 60h5q35 0 76 -32v27h19zM181 74v439q-41 33 -72 33h-5q-51 0 -51 -45v-414q0 -45 51 -45h5q30 0 72 32zM70 650v21h15v-21
q0 -30 32 -30h8q32 0 32 30v21h14v-21q0 -44 -45 -44h-10q-46 0 -46 44z" />
    <glyph glyph-name="Gdotaccent" unicode="&#x120;" horiz-adv-x="263" 
d="M141 777v-45h-17v45h17zM206 332h-76v18h96v-276q0 -79 -81 -79h-25q-82 0 -82 79v552q0 79 82 79h25q80 0 80 -79v-179h-19v179q0 61 -62 61h-24q-62 0 -62 -61v-552q0 -61 62 -61h24q62 0 62 61v258z" />
    <glyph glyph-name="gdotaccent" unicode="&#x121;" horiz-adv-x="238" 
d="M200 558v-586q0 -65 -71 -65h-21q-70 0 -70 63v17h18v-17q0 -46 52 -46h21q52 0 52 46v87q-42 -32 -76 -32h-5q-65 0 -65 61v417q0 60 65 60h5q35 0 76 -32v27h19zM181 74v439q-41 33 -72 33h-5q-51 0 -51 -45v-414q0 -45 51 -45h5q30 0 72 32zM128 656v-49h-17v49h17z
" />
    <glyph glyph-name="Gcommaaccent" unicode="&#x122;" horiz-adv-x="263" 
d="M139 -34v-12q0 -35 -20 -68h-13q18 33 18 68v12h15zM206 332h-76v18h96v-276q0 -79 -81 -79h-25q-82 0 -82 79v552q0 79 82 79h25q80 0 80 -79v-179h-19v179q0 61 -62 61h-24q-62 0 -62 -61v-552q0 -61 62 -61h24q62 0 62 61v258z" />
    <glyph glyph-name="gcommaaccent" unicode="&#x123;" horiz-adv-x="238" 
d="M111 608v12q0 35 20 68h13q-18 -33 -18 -68v-12h-15zM200 558v-586q0 -65 -71 -65h-21q-70 0 -70 63v17h18v-17q0 -46 52 -46h21q52 0 52 46v87q-42 -32 -76 -32h-5q-65 0 -65 61v417q0 60 65 60h5q35 0 76 -32v27h19zM181 74v439q-41 33 -72 33h-5q-51 0 -51 -45v-414
q0 -45 51 -45h5q30 0 72 32z" />
    <glyph glyph-name="Hbar" unicode="&#x126;" horiz-adv-x="293" 
d="M19 550v17h36v133h19v-133h144v133h19v-133h36v-17h-36v-550h-19v345h-144v-345h-19v550h-36zM74 364h144v187h-144v-187z" />
    <glyph glyph-name="hbar" unicode="&#x127;" horiz-adv-x="242" 
d="M39 0v623h-35v16h35v64h18v-64h90v-16h-90v-93q45 33 77 33h5q64 0 64 -59v-504h-19v501q0 45 -48 45h-5q-30 0 -74 -33v-513h-18z" />
    <glyph glyph-name="Imacron" unicode="&#x12a;" horiz-adv-x="109" 
d="M64 700v-700h-19v700h19zM-4 764h118v-14h-118v14z" />
    <glyph glyph-name="imacron" unicode="&#x12b;" horiz-adv-x="100" 
d="M40 0v558h19v-558h-19zM-8 644h117v-16h-117v16z" />
    <glyph glyph-name="Ibreve" unicode="&#x12c;" horiz-adv-x="109" 
d="M64 700v-700h-19v700h19zM3 771v16h14v-16q0 -27 33 -27h11q33 0 33 27v16h14v-16q0 -41 -47 -41h-11q-47 0 -47 41z" />
    <glyph glyph-name="ibreve" unicode="&#x12d;" horiz-adv-x="100" 
d="M40 0v558h19v-558h-19zM0 650v21h15v-21q0 -30 32 -30h8q32 0 32 30v21h14v-21q0 -44 -45 -44h-10q-46 0 -46 44z" />
    <glyph glyph-name="Iogonek" unicode="&#x12e;" horiz-adv-x="109" 
d="M64 700v-700h-2l-4 -10q-14 -25 -14 -35v-7q0 -10 11 -10h23v-14h-25q-24 0 -24 23v6q0 14 17 42l2 5h-3v700h19z" />
    <glyph glyph-name="iogonek" unicode="&#x12f;" horiz-adv-x="100" 
d="M41 0v558h19v-558h-2l-4 -10q-14 -25 -14 -35v-7q0 -10 11 -10h23v-14h-25q-24 0 -24 23v6q0 14 17 42l2 5h-3zM40 618v50h20v-50h-20z" />
    <glyph glyph-name="Idotaccent" unicode="&#x130;" horiz-adv-x="109" 
d="M64 700v-700h-19v700h19zM64 777v-45h-17v45h17z" />
    <glyph glyph-name="dotlessi" unicode="&#x131;" horiz-adv-x="99" 
d="M40 0v558h19v-558h-19z" />
    <glyph glyph-name="Kcommaaccent" unicode="&#x136;" horiz-adv-x="230" 
d="M215 0h-20l-133 349v-349h-19v700h19v-348l136 348h20l-137 -348zM126 -34v-12q0 -35 -20 -68h-13q18 33 18 68v12h15z" />
    <glyph glyph-name="kcommaaccent" unicode="&#x137;" horiz-adv-x="203" 
d="M179 557h20l-123 -276l119 -281h-20l-118 278v-278h-18v703h18v-423zM113 -34v-12q0 -35 -20 -68h-13q18 33 18 68v12h15zM57 280v-2l2 1z" />
    <glyph glyph-name="Lacute" unicode="&#x139;" horiz-adv-x="194" 
d="M46 732l38 55h21l-45 -55h-14zM43 700h19v-682h117v-18h-136v700z" />
    <glyph glyph-name="lacute" unicode="&#x13a;" horiz-adv-x="100" 
d="M43 729l33 70h20l-39 -70h-14zM41 0v703h19v-703h-19z" />
    <glyph glyph-name="Lcommaaccent" unicode="&#x13b;" horiz-adv-x="194" 
d="M114 -34v-12q0 -36 -21 -68h-12q18 36 18 68v12h15zM43 700h19v-682h117v-18h-136v700z" />
    <glyph glyph-name="lcommaaccent" unicode="&#x13c;" horiz-adv-x="100" 
d="M58 -34v-12q0 -36 -21 -68h-12q18 33 18 68v12h15zM41 0v703h19v-703h-19z" />
    <glyph glyph-name="Lcaron" unicode="&#x13d;" horiz-adv-x="198" 
d="M101 611v87h16l-6 -87h-10zM46 700h19v-682h117v-18h-136v700z" />
    <glyph glyph-name="lcaron" unicode="&#x13e;" horiz-adv-x="100" 
d="M92 614v87h16l-6 -87h-10zM41 0v703h19v-703h-19z" />
    <glyph glyph-name="Ldot" unicode="&#x13f;" horiz-adv-x="198" 
d="M151 369v-50h-17v50h17zM46 700h19v-682h117v-18h-136v700z" />
    <glyph glyph-name="ldot" unicode="&#x140;" horiz-adv-x="110" 
d="M113 378v-50h-16v50h16zM41 0v703h19v-703h-19z" />
    <glyph glyph-name="Lslash" unicode="&#x141;" horiz-adv-x="199" 
d="M47 700h19v-329l51 32v-18l-51 -32v-335h117v-18h-136v342l-29 -18v18l29 18v340z" />
    <glyph glyph-name="lslash" unicode="&#x142;" horiz-adv-x="119" 
d="M49 0v331l-40 -27v19l40 27v353h19v-339l42 30v-20l-42 -30v-344h-19z" />
    <glyph glyph-name="Nacute" unicode="&#x143;" horiz-adv-x="272" 
d="M229 0h-23l-147 646l2 -298v-348h-18v700h23l146 -650l-1 305v345h18v-700zM130 732l38 55h21l-45 -55h-14z" />
    <glyph glyph-name="nacute" unicode="&#x144;" horiz-adv-x="241" 
d="M114 607l33 70h20l-39 -70h-14zM39 0v558h18v-28q45 33 77 33h5q64 0 64 -59v-504h-19v501q0 45 -48 45h-5q-30 0 -74 -33v-513h-18z" />
    <glyph glyph-name="Ncommaaccent" unicode="&#x145;" horiz-adv-x="272" 
d="M229 0h-23l-147 646l2 -298v-348h-18v700h23l146 -650l-1 305v345h18v-700zM144 -35v-12q0 -35 -20 -68h-13q18 35 18 68v12h15z" />
    <glyph glyph-name="ncommaaccent" unicode="&#x146;" horiz-adv-x="241" 
d="M128 -35v-12q0 -33 -21 -68h-13q18 35 18 68v12h16zM39 0v558h18v-28q45 33 77 33h5q64 0 64 -59v-504h-19v501q0 45 -48 45h-5q-30 0 -74 -33v-513h-18z" />
    <glyph glyph-name="Ncaron" unicode="&#x147;" horiz-adv-x="272" 
d="M229 0h-23l-147 646l2 -298v-348h-18v700h23l146 -650l-1 305v345h18v-700zM191 793l-45 -61h-19l-46 61h14l41 -49l42 49h13z" />
    <glyph glyph-name="ncaron" unicode="&#x148;" horiz-adv-x="241" 
d="M172 677l-42 -70h-19l-43 70h14l39 -56l38 56h13zM39 0v558h18v-28q45 33 77 33h5q64 0 64 -59v-504h-19v501q0 45 -48 45h-5q-30 0 -74 -33v-513h-18z" />
    <glyph glyph-name="Omacron" unicode="&#x14c;" horiz-adv-x="266" 
d="M74 764h118v-14h-118v14zM227 74q0 -79 -81 -79h-26q-82 0 -82 79v552q0 79 82 79h26q81 0 81 -79v-552zM208 626q0 61 -62 61h-26q-62 0 -62 -61v-552q0 -61 62 -61h26q62 0 62 61v552z" />
    <glyph glyph-name="omacron" unicode="&#x14d;" horiz-adv-x="239" 
d="M62 644h117v-16h-117v16zM127 -5h-15q-77 0 -77 78v413q0 77 77 77h15q78 0 78 -77v-413q0 -78 -78 -78zM127 546h-15q-58 0 -58 -60v-414q0 -59 58 -59h15q59 0 59 59v414q0 60 -59 60z" />
    <glyph glyph-name="Obreve" unicode="&#x14e;" horiz-adv-x="266" 
d="M81 771v16h14v-16q0 -27 33 -27h11q33 0 33 27v16h14v-16q0 -41 -47 -41h-11q-47 0 -47 41zM227 74q0 -79 -81 -79h-26q-82 0 -82 79v552q0 79 82 79h26q81 0 81 -79v-552zM208 626q0 61 -62 61h-26q-62 0 -62 -61v-552q0 -61 62 -61h26q62 0 62 61v552z" />
    <glyph glyph-name="obreve" unicode="&#x14f;" horiz-adv-x="239" 
d="M127 -5h-15q-77 0 -77 78v413q0 77 77 77h15q78 0 78 -77v-413q0 -78 -78 -78zM127 546h-15q-58 0 -58 -60v-414q0 -59 58 -59h15q59 0 59 59v414q0 60 -59 60zM69 650v21h15v-21q0 -30 32 -30h8q32 0 32 30v21h14v-21q0 -44 -45 -44h-10q-46 0 -46 44z" />
    <glyph glyph-name="Ohungarumlaut" unicode="&#x150;" horiz-adv-x="266" 
d="M227 74q0 -79 -81 -79h-26q-82 0 -82 79v552q0 79 82 79h26q81 0 81 -79v-552zM208 626q0 61 -62 61h-26q-62 0 -62 -61v-552q0 -61 62 -61h26q62 0 62 61v552zM102 732l37 55h20l-45 -55h-12zM152 732l38 55h19l-45 -55h-12z" />
    <glyph glyph-name="ohungarumlaut" unicode="&#x151;" horiz-adv-x="239" 
d="M89 607l33 70h19l-41 -70h-11zM139 607l34 70h18l-40 -70h-12zM127 -5h-15q-77 0 -77 78v413q0 77 77 77h15q78 0 78 -77v-413q0 -78 -78 -78zM127 546h-15q-58 0 -58 -60v-414q0 -59 58 -59h15q59 0 59 59v414q0 60 -59 60z" />
    <glyph glyph-name="OE" unicode="&#x152;" horiz-adv-x="364" 
d="M135 700h201v-18h-124v-319h120v-18h-120v-327h125v-18h-202q-43 0 -70 24.5t-27 64.5v522q0 40 27 64.5t70 24.5zM193 18v664h-58q-33 0 -55.5 -19.5t-22.5 -50.5v-524q0 -31 22.5 -50.5t55.5 -19.5h58z" />
    <glyph glyph-name="oe" unicode="&#x153;" horiz-adv-x="385" 
d="M265 563h7q79 0 79 -78v-215h-146v-197q0 -60 60 -60h7q60 0 60 60v133h19v-133q0 -78 -79 -78h-7q-57 0 -69 39q-15 -39 -69 -39h-15q-77 0 -77 77v414q0 77 77 77h15q53 0 69 -39q15 39 69 39zM127 545h-15q-59 0 -59 -59v-415q0 -58 59 -58h15q59 0 59 58v415
q0 59 -59 59zM205 485v-197h127v197q0 60 -60 60h-7q-60 0 -60 -60z" />
    <glyph glyph-name="Racute" unicode="&#x154;" horiz-adv-x="259" 
d="M164 342q55 -12 55 -78v-264h-20v263q0 71 -71 71h-66v-334h-19v700h94q81 0 81 -79v-197q0 -63 -54 -82zM198 621q0 61 -62 61h-74v-330h65q71 0 71 70v199zM122 732l38 55h21l-45 -55h-14z" />
    <glyph glyph-name="racute" unicode="&#x155;" horiz-adv-x="142" 
d="M69 607l33 70h20l-39 -70h-14zM39 0v558h18v-34q32 37 73 38v-21q-44 -3 -73 -35v-506h-18z" />
    <glyph glyph-name="Rcommaaccent" unicode="&#x156;" horiz-adv-x="259" 
d="M137 -34v-12q0 -34 -21 -68h-12q17 34 17 68v12h16zM164 342q55 -12 55 -78v-264h-20v263q0 71 -71 71h-66v-334h-19v700h94q81 0 81 -79v-197q0 -63 -54 -82zM198 621q0 61 -62 61h-74v-330h65q71 0 71 70v199z" />
    <glyph glyph-name="rcommaaccent" unicode="&#x157;" horiz-adv-x="142" 
d="M56 -34v-12q0 -35 -20 -68h-13q18 33 18 68v12h15zM39 0v558h18v-34q32 37 73 38v-21q-44 -3 -73 -35v-506h-18z" />
    <glyph glyph-name="Rcaron" unicode="&#x158;" horiz-adv-x="259" 
d="M184 793l-45 -61h-19l-46 61h14l41 -49l42 49h13zM164 342q55 -12 55 -78v-264h-20v263q0 71 -71 71h-66v-334h-19v700h94q81 0 81 -79v-197q0 -63 -54 -82zM198 621q0 61 -62 61h-74v-330h65q71 0 71 70v199z" />
    <glyph glyph-name="rcaron" unicode="&#x159;" horiz-adv-x="142" 
d="M127 677l-42 -70h-19l-43 70h14l39 -56l38 56h13zM39 0v558h18v-34q32 37 73 38v-21q-44 -3 -73 -35v-506h-18z" />
    <glyph glyph-name="Sacute" unicode="&#x15a;" horiz-adv-x="249" 
d="M171 335q43 -34 43 -91v-171q0 -78 -81 -78h-15q-81 0 -81 78v194h19v-194q0 -60 62 -60h15q62 0 62 60v170q0 46 -35 75l-81 64q-42 33 -42 90v155q0 78 81 78h14q81 0 81 -78v-180h-19v180q0 60 -62 60h-14q-62 0 -62 -60v-154q0 -46 35 -75zM118 732l38 55h21l-45 -55
h-14z" />
    <glyph glyph-name="sacute" unicode="&#x15b;" horiz-adv-x="229" 
d="M105 607l33 70h20l-39 -70h-14zM175 349v145q0 52 -55 52h-11q-55 0 -55 -52v-115q0 -42 33 -66l66 -46q42 -29 42 -79v-123q0 -70 -74 -70h-13q-73 0 -73 70v148h18v-149q0 -51 55 -51h14q55 0 55 51v120q0 42 -34 67l-66 46q-42 29 -42 79v117q0 70 74 70h11
q74 0 74 -69v-145h-19z" />
    <glyph glyph-name="Scedilla" unicode="&#x15e;" horiz-adv-x="249" 
d="M171 335q43 -34 43 -91v-171q0 -75 -77 -78l-22 -74h-19l28 74h-6q-81 0 -81 78v194h19v-194q0 -60 62 -60h15q62 0 62 60v170q0 46 -35 75l-81 64q-42 33 -42 90v155q0 78 81 78h14q81 0 81 -78v-180h-19v180q0 60 -62 60h-14q-62 0 -62 -60v-154q0 -46 35 -75z" />
    <glyph glyph-name="scedilla" unicode="&#x15f;" horiz-adv-x="229" 
d="M175 349v145q0 52 -55 52h-11q-55 0 -55 -52v-115q0 -42 33 -66l66 -46q42 -29 42 -79v-123q0 -69 -73 -70l-22 -74h-19l28 74h-1q-73 0 -73 70v148h18v-149q0 -51 55 -51h14q55 0 55 51v120q0 42 -34 67l-66 46q-42 29 -42 79v117q0 70 74 70h11q74 0 74 -69v-145h-19z
" />
    <glyph glyph-name="Scaron" unicode="&#x160;" horiz-adv-x="249" 
d="M171 335q43 -34 43 -91v-171q0 -78 -81 -78h-15q-81 0 -81 78v194h19v-194q0 -60 62 -60h15q62 0 62 60v170q0 46 -35 75l-81 64q-42 33 -42 90v155q0 78 81 78h14q81 0 81 -78v-180h-19v180q0 60 -62 60h-14q-62 0 -62 -60v-154q0 -46 35 -75zM180 793l-45 -61h-19
l-46 61h14l41 -49l42 49h13z" />
    <glyph glyph-name="scaron" unicode="&#x161;" horiz-adv-x="229" 
d="M163 677l-42 -70h-19l-43 70h14l39 -56l38 56h13zM175 349v145q0 52 -55 52h-11q-55 0 -55 -52v-115q0 -42 33 -66l66 -46q42 -29 42 -79v-123q0 -70 -74 -70h-13q-73 0 -73 70v148h18v-149q0 -51 55 -51h14q55 0 55 51v120q0 42 -34 67l-66 46q-42 29 -42 79v117
q0 70 74 70h11q74 0 74 -69v-145h-19z" />
    <glyph glyph-name="Tcommaaccent" unicode="&#x162;" horiz-adv-x="210" 
d="M114 -34v-12q0 -34 -21 -68h-13q18 33 18 68v12h16zM115 0h-19v682h-85v18h188v-18h-84v-682z" />
    <glyph glyph-name="Tcommaaccent" unicode="&#x21a;" horiz-adv-x="210" 
d="M114 -34v-12q0 -34 -21 -68h-13q18 33 18 68v12h16zM115 0h-19v682h-85v18h188v-18h-84v-682z" />
    <glyph glyph-name="tcommaaccent" unicode="&#x163;" horiz-adv-x="132" 
d="M69 -34v-12q0 -36 -21 -68h-13q18 33 18 68v12h16zM70 541v-541h-19v541h-32v17h32v66h19v-66h55v-17h-55z" />
    <glyph glyph-name="tcommaaccent" unicode="&#x21b;" horiz-adv-x="132" 
d="M69 -34v-12q0 -36 -21 -68h-13q18 33 18 68v12h16zM70 541v-541h-19v541h-32v17h32v66h19v-66h55v-17h-55z" />
    <glyph glyph-name="Tcaron" unicode="&#x164;" horiz-adv-x="210" 
d="M161 793l-45 -61h-19l-46 61h14l41 -49l42 49h13zM115 0h-19v682h-85v18h188v-18h-84v-682z" />
    <glyph glyph-name="tcaron" unicode="&#x165;" horiz-adv-x="132" 
d="M98 613v87h16l-6 -87h-10zM70 541v-541h-19v541h-32v17h32v66h19v-66h55v-17h-55z" />
    <glyph glyph-name="Umacron" unicode="&#x16a;" horiz-adv-x="266" 
d="M74 764h118v-14h-118v14zM226 700v-625q0 -80 -82 -80h-22q-81 0 -81 80v625h19v-625q0 -62 62 -62h22q62 0 62 62v625h20z" />
    <glyph glyph-name="umacron" unicode="&#x16b;" horiz-adv-x="241" 
d="M202 558v-558h-19v28q-43 -33 -77 -33h-4q-65 0 -65 59v504h19v-501q0 -44 49 -44h5q32 0 73 32v513h19zM61 644h117v-16h-117v16z" />
    <glyph glyph-name="Ubreve" unicode="&#x16c;" horiz-adv-x="266" 
d="M81 771v16h14v-16q0 -27 33 -27h11q33 0 33 27v16h14v-16q0 -41 -47 -41h-11q-47 0 -47 41zM226 700v-625q0 -80 -82 -80h-22q-81 0 -81 80v625h19v-625q0 -62 62 -62h22q62 0 62 62v625h20z" />
    <glyph glyph-name="ubreve" unicode="&#x16d;" horiz-adv-x="241" 
d="M202 558v-558h-19v28q-43 -33 -77 -33h-4q-65 0 -65 59v504h19v-501q0 -44 49 -44h5q32 0 73 32v513h19zM69 650v21h15v-21q0 -30 32 -30h8q32 0 32 30v21h14v-21q0 -44 -45 -44h-10q-46 0 -46 44z" />
    <glyph glyph-name="Uring" unicode="&#x16e;" horiz-adv-x="266" 
d="M226 700v-625q0 -80 -82 -80h-22q-81 0 -81 80v625h19v-625q0 -62 62 -62h22q62 0 62 62v625h20zM197 770v-2q0 -35 -44 -35h-41q-44 0 -44 35v2q0 34 44 34h41q44 0 44 -34zM187 768v2q0 25 -34 25h-40q-35 0 -35 -25v-2q0 -14 8 -19.5t27 -5.5h40q34 0 34 25z" />
    <glyph glyph-name="uring" unicode="&#x16f;" horiz-adv-x="241" 
d="M175 646v-2q0 -36 -43 -36h-25q-43 0 -43 36v2q0 36 43 36h25q43 0 43 -36zM165 644v2q0 27 -33 27h-25q-33 0 -33 -27v-2q0 -27 33 -27h25q33 0 33 27zM202 558v-558h-19v28q-43 -33 -77 -33h-4q-65 0 -65 59v504h19v-501q0 -44 49 -44h5q32 0 73 32v513h19z" />
    <glyph glyph-name="Uhungarumlaut" unicode="&#x170;" horiz-adv-x="266" 
d="M226 700v-625q0 -80 -82 -80h-22q-81 0 -81 80v625h19v-625q0 -62 62 -62h22q62 0 62 62v625h20zM103 732l37 55h20l-45 -55h-12zM153 732l38 55h19l-45 -55h-12z" />
    <glyph glyph-name="uhungarumlaut" unicode="&#x171;" horiz-adv-x="241" 
d="M202 558v-558h-19v28q-43 -33 -77 -33h-4q-65 0 -65 59v504h19v-501q0 -44 49 -44h5q32 0 73 32v513h19zM89 607l33 70h19l-41 -70h-11zM139 607l34 70h18l-40 -70h-12z" />
    <glyph glyph-name="Uogonek" unicode="&#x172;" horiz-adv-x="266" 
d="M226 700v-625q0 -80 -82 -80h-3l-2 -5q-14 -25 -14 -35v-7q0 -10 11 -10h23v-14h-25q-24 0 -24 23v6q0 14 17 42h-5q-81 0 -81 80v625h19v-625q0 -62 62 -62h22q62 0 62 62v625h20z" />
    <glyph glyph-name="uogonek" unicode="&#x173;" horiz-adv-x="241" 
d="M202 558v-558h-2l-4 -10q-14 -25 -14 -35v-7q0 -10 11 -10h23v-14h-25q-24 0 -24 23v6q0 14 17 42l2 5h-3v28q-43 -33 -77 -33h-4q-65 0 -65 59v504h19v-501q0 -44 49 -44h5q32 0 73 32v513h19z" />
    <glyph glyph-name="Wcircumflex" unicode="&#x174;" horiz-adv-x="389" 
d="M204 700l73 -659l66 659h19l-73 -701h-23l-72 642l-71 -642h-23l-73 701h19l65 -659l74 659h19zM203 793l45 -61h-13l-42 48l-41 -48h-14l46 61h19z" />
    <glyph glyph-name="wcircumflex" unicode="&#x175;" horiz-adv-x="329" 
d="M174 558l60 -514l58 514h18l-66 -562h-20l-59 506l-59 -506h-20l-68 562h19l59 -515l60 515h18zM174 677l42 -70h-13l-38 55l-39 -55h-14l43 70h19z" />
    <glyph glyph-name="Ycircumflex" unicode="&#x176;" horiz-adv-x="227" 
d="M211 700l-87 -432v-268h-20v266l-88 434h19l79 -398l79 398h18zM125 793l45 -61h-13l-42 48l-41 -48h-14l46 61h19z" />
    <glyph glyph-name="ycircumflex" unicode="&#x177;" horiz-adv-x="221" 
d="M106 -91h-18l14 94l-83 555h18l74 -507l73 507h18zM121 677l42 -70h-13l-38 55l-39 -55h-14l43 70h19z" />
    <glyph glyph-name="Ydieresis" unicode="&#x178;" horiz-adv-x="227" 
d="M211 700l-87 -432v-268h-20v266l-88 434h19l79 -398l79 398h18zM86 776v-44h-16v44h16zM143 732v44h16v-44h-16z" />
    <glyph glyph-name="Zacute" unicode="&#x179;" horiz-adv-x="206" 
d="M161 682h-136v18h155v-18l-134 -664h139v-18h-158v18zM100 732l38 55h21l-45 -55h-14z" />
    <glyph glyph-name="zacute" unicode="&#x17a;" horiz-adv-x="173" 
d="M76 607l33 70h20l-39 -70h-14zM136 541h-120v17h138v-16l-117 -524h120v-18h-138v17z" />
    <glyph glyph-name="Zdotaccent" unicode="&#x17b;" horiz-adv-x="206" 
d="M114 777v-45h-17v45h17zM161 682h-136v18h155v-18l-134 -664h139v-18h-158v18z" />
    <glyph glyph-name="zdotaccent" unicode="&#x17c;" horiz-adv-x="173" 
d="M136 541h-120v17h138v-16l-117 -524h120v-18h-138v17zM90 656v-49h-17v49h17z" />
    <glyph glyph-name="Zcaron" unicode="&#x17d;" horiz-adv-x="206" 
d="M161 793l-45 -61h-19l-46 61h14l41 -49l42 49h13zM161 682h-136v18h155v-18l-134 -664h139v-18h-158v18z" />
    <glyph glyph-name="zcaron" unicode="&#x17e;" horiz-adv-x="173" 
d="M134 677l-42 -70h-19l-43 70h14l39 -56l38 56h13zM136 541h-120v17h138v-16l-117 -524h120v-18h-138v17z" />
    <glyph glyph-name="Aringacute" unicode="&#x1fa;" horiz-adv-x="254" 
d="M192 704v-3q0 -34 -44 -34h-7l88 -667h-18l-21 159h-127l-20 -159h-18l87 667h-5q-44 0 -44 34v3q0 34 44 34h41q44 0 44 -34zM126 651l-60 -474h122zM182 701v3q0 14 -7.5 19t-26.5 5h-40q-19 0 -27 -5t-8 -19v-3q0 -14 8 -19.5t27 -5.5h40q34 0 34 25zM123 756l38 55
h21l-45 -55h-14z" />
    <glyph glyph-name="aringacute" unicode="&#x1fb;" horiz-adv-x="230" 
d="M33 54v159q0 30 13 46.5t45 29.5l82 33v171q0 53 -55 53h-5q-58 0 -58 -53v-133h-19v133q0 70 77 70h6q73 0 73 -70v-493h-19v27q-43 -32 -75 -32h-3q-62 0 -62 59zM102 13q31 0 71 31v260l-76 -31q-25 -11 -35 -24t-10 -36v-156q0 -44 47 -44h3zM173 646v-2
q0 -36 -43 -36h-25q-43 0 -43 36v2q0 36 43 36h25q43 0 43 -36zM163 644v2q0 27 -33 27h-25q-33 0 -33 -27v-2q0 -27 33 -27h25q33 0 33 27zM114 704l33 70h20l-39 -70h-14z" />
    <glyph glyph-name="AEacute" unicode="&#x1fc;" horiz-adv-x="336" 
d="M149 700h158v-18h-124v-318h121v-18h-121v-328h126v-18h-145v159h-97l-30 -159h-18zM71 177h93v508zM175 732l38 55h21l-45 -55h-14z" />
    <glyph glyph-name="aeacute" unicode="&#x1fd;" horiz-adv-x="374" 
d="M253 563h8q78 0 78 -79v-214h-146v-197q0 -60 61 -60h7q60 0 60 60v133h18v-133q0 -78 -78 -78h-8q-54 0 -70 37q-50 -37 -84 -37h-3q-63 0 -63 59v162q0 28 13 44.5t45 29.5l83 33v170q0 53 -55 53h-6q-57 0 -57 -53v-138h-19v137q0 71 76 71h6q52 0 66 -38q15 38 68 38
zM193 485v-197h128v197q0 61 -61 61h-6q-61 0 -61 -61zM177 46q-3 21 -3 25v234l-76 -31q-25 -10 -35.5 -23t-10.5 -35v-160q0 -43 47 -43h3q31 0 75 33zM184 607l33 70h20l-39 -70h-14z" />
    <glyph glyph-name="Oslashacute" unicode="&#x1fe;" horiz-adv-x="266" 
d="M227 74q0 -79 -81 -79h-26q-82 0 -82 79v552q0 79 82 79h26q81 0 81 -79v-552zM208 626q0 18 -6 32l-129 -631q17 -14 47 -14h25q63 0 63 61v552zM57 74q0 -18 6 -32l128 630q-17 15 -46 15h-25q-63 0 -63 -61v-552zM127 732l38 55h21l-45 -55h-14z" />
    <glyph glyph-name="oslashacute" unicode="&#x1ff;" horiz-adv-x="239" 
d="M127 -5h-15q-77 0 -77 78v413q0 77 77 77h15q78 0 78 -77v-413q0 -78 -78 -78zM112 546q-59 0 -59 -60v-414q0 -24 9 -37l105 500q-16 11 -40 11h-15zM186 486q0 22 -8 36l-105 -499q13 -10 39 -10h15q59 0 59 59v414zM114 607l33 70h20l-39 -70h-14z" />
    <glyph glyph-name="Scommaaccent" unicode="&#x218;" horiz-adv-x="249" 
d="M133 -34v-12q0 -36 -21 -68h-12q18 36 18 68v12h15zM171 335q43 -34 43 -91v-171q0 -78 -81 -78h-15q-81 0 -81 78v194h19v-194q0 -60 62 -60h15q62 0 62 60v170q0 46 -35 75l-81 64q-42 33 -42 90v155q0 78 81 78h14q81 0 81 -78v-180h-19v180q0 60 -62 60h-14
q-62 0 -62 -60v-154q0 -46 35 -75z" />
    <glyph glyph-name="scommaaccent" unicode="&#x219;" horiz-adv-x="229" 
d="M123 -34v-13q0 -34 -21 -68h-13q19 37 19 69v12h15zM175 349v145q0 52 -55 52h-11q-55 0 -55 -52v-115q0 -42 33 -66l66 -46q42 -29 42 -79v-123q0 -70 -74 -70h-13q-73 0 -73 70v148h18v-149q0 -51 55 -51h14q55 0 55 51v120q0 42 -34 67l-66 46q-42 29 -42 79v117
q0 70 74 70h11q74 0 74 -69v-145h-19z" />
    <glyph glyph-name="schwa" unicode="&#x259;" horiz-adv-x="234" 
d="M34 73v215h147v197q0 60 -61 60h-7q-60 0 -60 -60v-132h-19v132q0 78 79 78h8q78 0 78 -78v-412q0 -78 -78 -78h-8q-79 0 -79 78zM120 12q61 0 61 61v197h-128v-197q0 -61 60 -61h7z" />
    <glyph glyph-name="circumflex" unicode="&#x2c6;" 
d="M193 677l42 -70h-13l-38 55l-39 -55h-14l43 70h19z" />
    <glyph glyph-name="caron" unicode="&#x2c7;" 
d="M235 677l-42 -70h-19l-43 70h14l39 -56l38 56h13z" />
    <glyph glyph-name="breve" unicode="&#x2d8;" 
d="M133 650v21h15v-21q0 -30 32 -30h8q32 0 32 30v21h14v-21q0 -44 -45 -44h-10q-46 0 -46 44z" />
    <glyph glyph-name="dotaccent" unicode="&#x2d9;" 
d="M192 656v-49h-17v49h17z" />
    <glyph glyph-name="ring" unicode="&#x2da;" 
d="M239 646v-2q0 -36 -43 -36h-25q-43 0 -43 36v2q0 36 43 36h25q43 0 43 -36zM229 644v2q0 27 -33 27h-25q-33 0 -33 -27v-2q0 -27 33 -27h25q33 0 33 27z" />
    <glyph glyph-name="ogonek" unicode="&#x2db;" 
d="M194 2h14l-5 -12q-14 -25 -14 -35v-7q0 -10 11 -10h23v-14h-25q-24 0 -24 23v6q0 14 17 42z" />
    <glyph glyph-name="tilde" unicode="&#x2dc;" 
d="M144 666h5q10 0 23 -10l31 -28q8 -7 14 -7h3q9 0 9 13v32h14v-37q0 -22 -20 -22h-5q-12 0 -24 10l-30 28q-8 7 -15 7h-2q-9 0 -9 -12v-33h-14v37q0 22 20 22z" />
    <glyph glyph-name="hungarumlaut" unicode="&#x2dd;" 
d="M143 607l33 70h19l-41 -70h-11zM193 607l34 70h18l-40 -70h-12z" />
    <glyph glyph-name="commaaccent" unicode="&#x326;" 
d="M186 -34v-12q0 -36 -21 -68h-12q17 34 17 68v12h16z" />
    <glyph glyph-name="Wgrave" unicode="&#x1e80;" horiz-adv-x="389" 
d="M204 700l73 -659l66 659h19l-73 -701h-23l-72 642l-71 -642h-23l-73 701h19l65 -659l74 659h19zM163 787l37 -55h-14l-44 55h21z" />
    <glyph glyph-name="wgrave" unicode="&#x1e81;" horiz-adv-x="329" 
d="M174 558l60 -514l58 514h18l-66 -562h-20l-59 506l-59 -506h-20l-68 562h19l59 -515l60 515h18zM137 677l33 -70h-14l-40 70h21z" />
    <glyph glyph-name="Wacute" unicode="&#x1e82;" horiz-adv-x="389" 
d="M185 700h19l73 -659l66 659h19l-73 -701h-23l-72 642l-71 -642h-23l-73 701h19l65 -659zM187 732l38 55h21l-45 -55h-14z" />
    <glyph glyph-name="wacute" unicode="&#x1e83;" horiz-adv-x="329" 
d="M106 -4h-20l-68 562h19l59 -515l60 515h18l60 -514l58 514h18l-66 -562h-20l-59 506zM157 607l33 70h20l-39 -70h-14z" />
    <glyph glyph-name="Wdieresis" unicode="&#x1e84;" horiz-adv-x="389" 
d="M204 700l73 -659l66 659h19l-73 -701h-23l-72 642l-71 -642h-23l-73 701h19l65 -659l74 659h19zM165 776v-44h-16v44h16zM222 732v44h16v-44h-16z" />
    <glyph glyph-name="wdieresis" unicode="&#x1e85;" horiz-adv-x="329" 
d="M174 558l60 -514l58 514h18l-66 -562h-20l-59 506l-59 -506h-20l-68 562h19l59 -515l60 515h18zM194 607v50h16v-50h-16zM135 657v-50h-16v50h16z" />
    <glyph glyph-name="Ygrave" unicode="&#x1ef2;" horiz-adv-x="227" 
d="M211 700l-87 -432v-268h-20v266l-88 434h19l79 -398l79 398h18zM84 787l37 -55h-14l-44 55h21z" />
    <glyph glyph-name="ygrave" unicode="&#x1ef3;" horiz-adv-x="221" 
d="M106 -91h-18l14 94l-83 555h18l74 -507l73 507h18zM85 677l33 -70h-14l-40 70h21z" />
    <glyph glyph-name="enspace" unicode="&#x2002;" horiz-adv-x="500" 
 />
    <glyph glyph-name="emspace" unicode="&#x2003;" horiz-adv-x="1000" 
 />
    <glyph glyph-name="threeperemspace" unicode="&#x2004;" horiz-adv-x="333" 
 />
    <glyph glyph-name="fourperemspace" unicode="&#x2005;" horiz-adv-x="250" 
 />
    <glyph glyph-name="thinspace" unicode="&#x2009;" horiz-adv-x="133" 
 />
    <glyph glyph-name="hairspace" unicode="&#x200a;" horiz-adv-x="75" 
 />
    <glyph glyph-name="endash" unicode="&#x2013;" horiz-adv-x="268" 
d="M24 289h220v-16h-220v16z" />
    <glyph glyph-name="emdash" unicode="&#x2014;" horiz-adv-x="414" 
d="M26 289h360v-16h-360v16z" />
    <glyph glyph-name="quoteleft" unicode="&#x2018;" horiz-adv-x="75" 
d="M25 548v31q0 55 20 121h13q-15 -64 -15 -121v-31h-18z" />
    <glyph glyph-name="quoteright" unicode="&#x2019;" horiz-adv-x="75" 
d="M50 700v-31q0 -55 -20 -121h-13q15 64 15 121v31h18z" />
    <glyph glyph-name="quotesinglbase" unicode="&#x201a;" horiz-adv-x="71" 
d="M48 64v-31q0 -55 -20 -121h-13q15 64 15 121v31h18z" />
    <glyph glyph-name="quotedblleft" unicode="&#x201c;" horiz-adv-x="129" 
d="M80 548v31q0 55 20 121h13q-15 -64 -15 -121v-31h-18zM26 548v31q0 55 19 121h14q-15 -60 -15 -121v-31h-18z" />
    <glyph glyph-name="quotedblright" unicode="&#x201d;" horiz-adv-x="129" 
d="M50 700v-31q0 -55 -20 -121h-13q15 64 15 121v31h18zM104 700v-31q0 -55 -19 -121h-14q15 60 15 121v31h18z" />
    <glyph glyph-name="quotedblbase" unicode="&#x201e;" horiz-adv-x="125" 
d="M49 64v-31q0 -55 -20 -121h-13q15 64 15 121v31h18zM103 64v-31q0 -55 -19 -121h-14q15 60 15 121v31h18z" />
    <glyph glyph-name="dagger" unicode="&#x2020;" horiz-adv-x="163" 
d="M89 443h-15v175h-54v14l54 -1v69h15l-1 -69l55 1v-14h-55z" />
    <glyph glyph-name="daggerdbl" unicode="&#x2021;" horiz-adv-x="168" 
d="M77 618h-54v14l54 -1l-1 69h16l-1 -69l55 1v-14h-55v-184l55 1v-15l-55 1l1 -69h-16l1 69l-54 -1v15l54 -1v184z" />
    <glyph glyph-name="bullet" unicode="&#x2022;" horiz-adv-x="134" 
d="M92 379v-50q0 -20 -18 -20h-14q-18 0 -18 20v50q0 21 18 21h14q18 0 18 -21z" />
    <glyph glyph-name="ellipsis" unicode="&#x2026;" horiz-adv-x="205" 
d="M43 63v-63h-19v63h19zM111 63v-63h-19v63h19zM180 63v-63h-19v63h19z" />
    <glyph glyph-name="guilsinglleft" unicode="&#x2039;" horiz-adv-x="101" 
d="M23 280l38 148h15l-32 -148l33 -148h-14z" />
    <glyph glyph-name="guilsinglright" unicode="&#x203a;" horiz-adv-x="101" 
d="M39 428l38 -148l-40 -148h-14l33 148l-32 148h15z" />
    <glyph glyph-name="Euro" unicode="&#x20ac;" horiz-adv-x="261" 
d="M22 400h32v226q0 79 80 79h19q79 0 79 -79v-159h-19v159q0 61 -60 61h-19q-61 0 -61 -61v-226h120v-17h-120v-58h120v-17h-120v-234q0 -61 61 -61h19q61 0 61 61v165h19v-165q0 -79 -80 -79h-19q-80 0 -80 79v234h-32v17h32v58h-32v17z" />
    <glyph glyph-name="published" unicode="&#x2117;" horiz-adv-x="368" 
d="M324 586v-471q0 -65 -24 -92.5t-84 -27.5h-64q-61 0 -85 27.5t-24 92.5v471q0 65 24 92.5t85 27.5h64q60 0 84 -27.5t24 -92.5zM314 115v471q0 60 -21.5 85t-76.5 25h-64q-55 0 -76.5 -25t-21.5 -85v-471q0 -60 21.5 -85t76.5 -25h64q55 0 76.5 25t21.5 85zM146 301v-219
h-17v538h47q42 0 57 -13t15 -47v-195q0 -34 -16.5 -49t-55.5 -15h-30zM231 560q0 25 -11 34t-44 9h-30v-286h30q31 0 43 11.5t12 37.5v194z" />
    <glyph glyph-name="servicemark" unicode="&#x2120;" horiz-adv-x="314" 
d="M209 390l-44 278v-278h-12v310h19l43 -275l44 275h18v-310h-12v272l-43 -272h-13zM48 506v-81q0 -25 22 -25h10q24 0 24 26v69q0 22 -14 33l-37 29q-18 14 -18 41v67q0 36 35 36h11q35 0 35 -36v-78h-13v77q0 25 -23 25h-9q-23 0 -23 -25v-64q0 -23 14 -33l37 -29
q18 -14 18 -42v-71q0 -37 -34 -37h-14q-34 0 -34 37v81h13z" />
    <glyph glyph-name="trademark" unicode="&#x2122;" horiz-adv-x="291" 
d="M199 390h-12l-44 278v-278h-12v310h19l43 -278l44 278h18v-310h-12v278zM69 390h-14v297h-38v13h90v-13h-38v-297z" />
    <glyph glyph-name="minus" unicode="&#x2212;" horiz-adv-x="234" 
d="M21 362h192v-18h-192v18z" />
    <glyph glyph-name="f_f" unicode="&#xfb00;" horiz-adv-x="268" 
d="M51 558v86q0 59 55 59h23v-18h-23q-36 0 -36 -41v-86h57v-17h-57v-541h-19v541h-32v17h32zM185 558v86q0 59 55 59h23v-18h-23q-36 0 -36 -41v-86h57v-17h-57v-541h-19v541h-32v17h32z" />
    <glyph glyph-name="fi" unicode="&#xfb01;" horiz-adv-x="234" 
d="M51 558v86q0 59 55 59h23v-18h-23q-36 0 -36 -41v-86h57v-17h-57v-541h-19v541h-32v17h32zM174 618v50h20v-50h-20zM175 0v558h19v-558h-19z" />
    <glyph glyph-name="fl" unicode="&#xfb02;" horiz-adv-x="234" 
d="M51 558v86q0 59 55 59h23v-18h-23q-36 0 -36 -41v-86h57v-17h-57v-541h-19v541h-32v17h32zM175 0v703h19v-703h-19z" />
    <glyph glyph-name="f_f_i" unicode="&#xfb03;" horiz-adv-x="368" 
d="M51 558v86q0 59 55 59h23v-18h-23q-36 0 -36 -41v-86h57v-17h-57v-541h-19v541h-32v17h32zM185 558v86q0 59 55 59h23v-18h-23q-36 0 -36 -41v-86h57v-17h-57v-541h-19v541h-32v17h32zM308 618v50h20v-50h-20zM309 0v558h19v-558h-19z" />
    <glyph glyph-name="f_f_l" unicode="&#xfb04;" horiz-adv-x="368" 
d="M51 558v86q0 59 55 59h23v-18h-23q-36 0 -36 -41v-86h57v-17h-57v-541h-19v541h-32v17h32zM185 558v86q0 59 55 59h23v-18h-23q-36 0 -36 -41v-86h57v-17h-57v-541h-19v541h-32v17h32zM309 0v703h19v-703h-19z" />
    <glyph glyph-name="Q.alt" horiz-adv-x="266" 
d="M227 626v-552q0 -25 -9 -43l30 -25l-12 -13l-27 24q-21 -22 -63 -22h-26q-82 0 -82 79v552q0 79 82 79h26q81 0 81 -79zM208 626q0 61 -62 61h-26q-62 0 -62 -61v-552q0 -61 62 -61h26q33 0 48 17l-62 56l11 12l60 -53q5 13 5 29v552z" />
    <glyph glyph-name="a.alt" horiz-adv-x="241" 
d="M202 558v-558h-19v28q-43 -33 -77 -33h-5q-66 0 -66 61v446q0 61 66 61h5q34 0 77 -33v28h19zM183 45v468q-43 33 -76 33q-53 0 -53 -46v-443q0 -44 53 -44q35 0 76 32z" />
    <glyph glyph-name="y.alt" horiz-adv-x="221" 
d="M202 558l-85 -594q-4 -29 -16.5 -42t-39.5 -13h-16v16h14q21 0 29.5 11.5t10.5 36.5q0 1 0.5 10t1 19t0.5 15l-82 541h18l76 -517l71 517h18z" />
    <glyph glyph-name="aacute.alt" horiz-adv-x="240" 
d="M117 607l33 70h20l-39 -70h-14zM202 558v-558h-19v28q-43 -33 -77 -33h-5q-66 0 -66 61v446q0 61 66 61h5q34 0 77 -33v28h19zM183 45v468q-43 33 -76 33q-53 0 -53 -46v-443q0 -44 53 -44q35 0 76 32z" />
    <glyph glyph-name="abreve.alt" horiz-adv-x="240" 
d="M202 558v-558h-19v28q-43 -33 -77 -33h-5q-66 0 -66 61v446q0 61 66 61h5q34 0 77 -33v28h19zM183 45v468q-43 33 -76 33q-53 0 -53 -46v-443q0 -44 53 -44q35 0 76 32zM74 650v21h15v-21q0 -30 32 -30h8q32 0 32 30v21h14v-21q0 -44 -45 -44h-10q-46 0 -46 44z" />
    <glyph glyph-name="acircumflex.alt" horiz-adv-x="240" 
d="M133 677l42 -70h-13l-38 55l-39 -55h-14l43 70h19zM202 558v-558h-19v28q-43 -33 -77 -33h-5q-66 0 -66 61v446q0 61 66 61h5q34 0 77 -33v28h19zM183 45v468q-43 33 -76 33q-53 0 -53 -46v-443q0 -44 53 -44q35 0 76 32z" />
    <glyph glyph-name="adieresis.alt" horiz-adv-x="240" 
d="M153 607v50h16v-50h-16zM94 657v-50h-16v50h16zM202 558v-558h-19v28q-43 -33 -77 -33h-5q-66 0 -66 61v446q0 61 66 61h5q34 0 77 -33v28h19zM183 45v468q-43 33 -76 33q-53 0 -53 -46v-443q0 -44 53 -44q35 0 76 32z" />
    <glyph glyph-name="agrave.alt" horiz-adv-x="240" 
d="M202 558v-558h-19v28q-43 -33 -77 -33h-5q-66 0 -66 61v446q0 61 66 61h5q34 0 77 -33v28h19zM183 45v468q-43 33 -76 33q-53 0 -53 -46v-443q0 -44 53 -44q35 0 76 32zM99 677l33 -70h-14l-40 70h21z" />
    <glyph glyph-name="amacron.alt" horiz-adv-x="240" 
d="M202 558v-558h-19v28q-43 -33 -77 -33h-5q-66 0 -66 61v446q0 61 66 61h5q34 0 77 -33v28h19zM183 45v468q-43 33 -76 33q-53 0 -53 -46v-443q0 -44 53 -44q35 0 76 32zM65 644h117v-16h-117v16z" />
    <glyph glyph-name="aogonek.alt" horiz-adv-x="239" 
d="M202 558v-558h-2l-4 -10q-14 -25 -14 -35v-7q0 -10 11 -10h23v-14h-25q-24 0 -24 23v6q0 14 17 42l2 5h-3v28q-43 -33 -77 -33h-5q-66 0 -66 61v446q0 61 66 61h5q34 0 77 -33v28h19zM183 45v468q-43 33 -76 33q-53 0 -53 -46v-443q0 -44 53 -44q35 0 76 32z" />
    <glyph glyph-name="aring.alt" horiz-adv-x="240" 
d="M179 646v-2q0 -36 -43 -36h-25q-43 0 -43 36v2q0 36 43 36h25q43 0 43 -36zM169 644v2q0 27 -33 27h-25q-33 0 -33 -27v-2q0 -27 33 -27h25q33 0 33 27zM202 558v-558h-19v28q-43 -33 -77 -33h-5q-66 0 -66 61v446q0 61 66 61h5q34 0 77 -33v28h19zM183 45v468
q-43 33 -76 33q-53 0 -53 -46v-443q0 -44 53 -44q35 0 76 32z" />
    <glyph glyph-name="aringacute.alt" horiz-adv-x="240" 
d="M119 703l33 70h20l-39 -70h-14zM178 646v-2q0 -36 -43 -36h-25q-43 0 -43 36v2q0 36 43 36h25q43 0 43 -36zM168 644v2q0 27 -33 27h-25q-33 0 -33 -27v-2q0 -27 33 -27h25q33 0 33 27zM202 558v-558h-19v28q-43 -33 -77 -33h-5q-66 0 -66 61v446q0 61 66 61h5
q34 0 77 -33v28h19zM183 45v468q-43 33 -76 33q-53 0 -53 -46v-443q0 -44 53 -44q35 0 76 32z" />
    <glyph glyph-name="atilde.alt" horiz-adv-x="240" 
d="M202 558v-558h-19v28q-43 -33 -77 -33h-5q-66 0 -66 61v446q0 61 66 61h5q34 0 77 -33v28h19zM183 45v468q-43 33 -76 33q-53 0 -53 -46v-443q0 -44 53 -44q35 0 76 32zM83 666h5q11 0 23 -10l31 -28q8 -7 14 -7h3q9 0 9 13v32h14v-37q0 -22 -20 -22h-5q-11 0 -24 10
l-30 28q-8 7 -15 7h-2q-9 0 -9 -12v-33h-14v37q0 22 20 22z" />
    <glyph glyph-name="Gcommaaccent.alt" horiz-adv-x="263" 
d="M206 332h-76v18h96v-276q0 -79 -81 -79h-25q-82 0 -82 79v552q0 79 82 79h25q80 0 80 -79v-179h-19v179q0 61 -62 61h-24q-62 0 -62 -61v-552q0 -61 62 -61h24q62 0 62 61v258zM140 -34v-28q0 -27 -10 -47l-6 -15l-7 3l4 9q6 19 8 35h-7v43h18z" />
    <glyph glyph-name="gcommaaccent.alt" horiz-adv-x="238" 
d="M200 558v-586q0 -65 -71 -65h-21q-70 0 -70 63v17h18v-17q0 -46 52 -46h21q52 0 52 46v87q-42 -32 -76 -32h-5q-65 0 -65 61v417q0 60 65 60h5q35 0 76 -32v27h19zM181 74v439q-41 33 -72 33h-5q-51 0 -51 -45v-414q0 -45 51 -45h5q30 0 72 32zM109 607v28q0 27 10 47
l6 15l7 -3l-4 -9q-8 -24 -8 -35h7v-43h-18z" />
    <glyph glyph-name="Kcommaaccent.alt" horiz-adv-x="230" 
d="M215 0h-20l-133 349v-349h-19v700h19v-348l136 348h20l-137 -348zM127 -34v-28q0 -27 -10 -47l-6 -15l-7 3l4 9q6 19 8 35h-7v43h18z" />
    <glyph glyph-name="kcommaaccent.alt" horiz-adv-x="205" 
d="M179 557h20l-123 -276l119 -281h-20l-118 278v-278h-18v703h18v-423zM116 -34v-28q0 -27 -10 -47l-6 -15l-7 3l4 9q6 19 8 35h-7v43h18zM57 280v-2l2 1z" />
    <glyph glyph-name="Lcommaaccent.alt" horiz-adv-x="194" 
d="M43 700h19v-682h117v-18h-136v700zM115 -34v-28q0 -27 -10 -47l-6 -15l-7 3l4 9q6 19 8 35h-7v43h18z" />
    <glyph glyph-name="lcommaaccent.alt" horiz-adv-x="100" 
d="M41 0v703h19v-703h-19zM59 -34v-28q0 -27 -10 -47l-6 -15l-7 3l4 9q6 19 8 35h-7v43h18z" />
    <glyph glyph-name="Ncommaaccent.alt" horiz-adv-x="272" 
d="M229 0h-23l-147 646l2 -298v-348h-18v700h23l146 -650l-1 305v345h18v-700zM145 -34v-28q0 -27 -10 -47l-6 -15l-7 3l4 9q6 19 8 35h-7v43h18z" />
    <glyph glyph-name="ncommaaccent.alt" horiz-adv-x="241" 
d="M39 0v558h18v-28q45 33 77 33h5q64 0 64 -59v-504h-19v501q0 45 -48 45h-5q-30 0 -74 -33v-513h-18zM128 -34v-28q0 -27 -10 -47l-6 -15l-7 3l4 9q6 19 8 35h-7v43h18z" />
    <glyph glyph-name="Oslash.alt" horiz-adv-x="266" 
d="M227 74q0 -79 -81 -79h-26q-32 0 -52 12l-7 -31h-16l10 43q-17 20 -17 55v552q0 79 82 79h26q29 0 50 -13l8 33h16l-11 -44q18 -19 18 -55v-552zM208 626q0 19 -6 31l-129 -629q15 -15 47 -15h25q63 0 63 61v552zM57 74q0 -21 5 -31l129 630q-17 14 -46 14h-25
q-63 0 -63 -61v-552z" />
    <glyph glyph-name="oslash.alt" horiz-adv-x="239" 
d="M127 -5h-15q-24 0 -44 9l-8 -28h-16l10 38q-19 19 -19 59v413q0 77 77 77h15q24 0 44 -10l7 30h16l-10 -39q21 -19 21 -58v-413q0 -78 -78 -78zM127 546h-15q-59 0 -59 -60v-414q0 -23 9 -38l104 501q-14 11 -39 11zM186 486q0 23 -9 38l-105 -501q14 -10 40 -10h15
q59 0 59 59v414z" />
    <glyph glyph-name="Oslashacute.alt" horiz-adv-x="266" 
d="M227 74q0 -79 -81 -79h-26q-32 0 -52 12l-7 -31h-16l10 43q-17 20 -17 55v552q0 79 82 79h26q29 0 50 -13l8 33h16l-11 -44q18 -19 18 -55v-552zM208 626q0 19 -6 31l-129 -629q15 -15 47 -15h25q63 0 63 61v552zM57 74q0 -21 5 -31l129 630q-17 14 -46 14h-25
q-63 0 -63 -61v-552zM127 732l38 55h21l-45 -55h-14z" />
    <glyph glyph-name="oslashacute.alt" horiz-adv-x="239" 
d="M127 -5h-15q-24 0 -44 9l-8 -28h-16l10 38q-19 19 -19 59v413q0 77 77 77h15q24 0 44 -10l7 30h16l-10 -39q21 -19 21 -58v-413q0 -78 -78 -78zM127 546h-15q-59 0 -59 -60v-414q0 -23 9 -38l104 501q-14 11 -39 11zM186 486q0 23 -9 38l-105 -501q14 -10 40 -10h15
q59 0 59 59v414zM114 607l33 70h20l-39 -70h-14z" />
    <glyph glyph-name="Rcommaaccent.alt" horiz-adv-x="259" 
d="M164 342q55 -12 55 -78v-264h-20v263q0 71 -71 71h-66v-334h-19v700h94q81 0 81 -79v-197q0 -63 -54 -82zM198 621q0 61 -62 61h-74v-330h65q71 0 71 70v199zM138 -34v-28q0 -27 -10 -47l-6 -15l-7 3l4 9q6 19 8 35h-7v43h18z" />
    <glyph glyph-name="rcommaaccent.alt" horiz-adv-x="142" 
d="M39 0v558h18v-34q32 37 73 38v-21q-44 -3 -73 -35v-506h-18zM57 -34v-28q0 -27 -10 -47l-6 -15l-7 3l4 9q6 19 8 35h-7v43h18z" />
    <glyph glyph-name="Scommaaccent.alt" horiz-adv-x="249" 
d="M171 335q43 -34 43 -91v-171q0 -78 -81 -78h-15q-81 0 -81 78v194h19v-194q0 -60 62 -60h15q62 0 62 60v170q0 46 -35 75l-81 64q-42 33 -42 90v155q0 78 81 78h14q81 0 81 -78v-180h-19v180q0 60 -62 60h-14q-62 0 -62 -60v-154q0 -46 35 -75zM134 -34v-28
q0 -27 -10 -47l-6 -15l-7 3l4 9q6 19 8 35h-7v43h18z" />
    <glyph glyph-name="scommaaccent.alt" horiz-adv-x="229" 
d="M175 349v145q0 52 -55 52h-11q-55 0 -55 -52v-115q0 -42 33 -66l66 -46q42 -29 42 -79v-123q0 -70 -74 -70h-13q-73 0 -73 70v148h18v-149q0 -51 55 -51h14q55 0 55 51v120q0 42 -34 67l-66 46q-42 29 -42 79v117q0 70 74 70h11q74 0 74 -69v-145h-19zM124 -34v-28
q0 -27 -10 -47l-6 -15l-7 3l4 9q6 19 8 35h-7v43h18z" />
    <glyph glyph-name="Tcommaaccent.alt" horiz-adv-x="210" 
d="M115 0h-19v682h-85v18h188v-18h-84v-682zM114 -34v-28q0 -27 -10 -47l-6 -15l-7 3l4 9q6 19 8 35h-7v43h18z" />
    <glyph glyph-name="tcommaaccent.alt" horiz-adv-x="132" 
d="M70 541v-541h-19v541h-32v17h32v66h19v-66h55v-17h-55zM70 -34v-28q0 -27 -10 -47l-6 -15l-7 3l4 9q6 19 8 35h-7v43h18z" />
    <glyph glyph-name="yacute.alt" horiz-adv-x="221" 
d="M105 607l33 70h20l-39 -70h-14zM202 558l-85 -594q-4 -29 -16.5 -42t-39.5 -13h-16v16h14q21 0 29.5 11.5t10.5 36.5q0 1 0.5 10t1 19t0.5 15l-82 541h18l76 -517l71 517h18z" />
    <glyph glyph-name="ycircumflex.alt" horiz-adv-x="221" 
d="M121 677l42 -70h-13l-38 55l-39 -55h-14l43 70h19zM202 558l-85 -594q-4 -29 -16.5 -42t-39.5 -13h-16v16h14q21 0 29.5 11.5t10.5 36.5q0 1 0.5 10t1 19t0.5 15l-82 541h18l76 -517l71 517h18z" />
    <glyph glyph-name="ydieresis.alt" horiz-adv-x="221" 
d="M141 607v50h16v-50h-16zM82 657v-50h-16v50h16zM202 558l-85 -594q-4 -29 -16.5 -42t-39.5 -13h-16v16h14q21 0 29.5 11.5t10.5 36.5q0 1 0.5 10t1 19t0.5 15l-82 541h18l76 -517l71 517h18z" />
    <glyph glyph-name="ygrave.alt" horiz-adv-x="221" 
d="M202 558l-85 -594q-4 -29 -16.5 -42t-39.5 -13h-16v16h14q21 0 29.5 11.5t10.5 36.5q0 1 0.5 10t1 19t0.5 15l-82 541h18l76 -517l71 517h18zM86 677l33 -70h-14l-40 70h21z" />
    <glyph glyph-name="comma.alt" horiz-adv-x="71" 
d="M46 63v-42q0 -45 -15 -85l-5 -11l-8 3l4 11q11 29 12 61h-7v63h19z" />
    <glyph glyph-name="semicolon.alt" horiz-adv-x="73" 
d="M46 63v-42q0 -45 -15 -85l-5 -11l-8 3l4 11q11 29 12 61h-7v63h19zM47 557v-63h-19v63h19z" />
    <glyph glyph-name="colon.fig" horiz-adv-x="68" 
d="M43 260v-64h-19v64h19zM43 503v-63h-19v63h19z" />
    <glyph glyph-name="ampersand.alt" horiz-adv-x="265" 
d="M247 351h-31v-277q0 -79 -82 -79h-14q-82 0 -82 79v213q0 60 53 73q-53 13 -53 76v190q0 79 82 79h14q40 0 61.5 -20.5t21.5 -58.5v-170h-19v170q0 61 -64 61h-14q-64 0 -64 -61v-192q0 -66 71 -66h120v-17zM56 286v-212q0 -61 64 -61h14q64 0 64 61v277h-72
q-70 0 -70 -65z" />
    <glyph glyph-name="quotedblleft.alt" horiz-adv-x="129" 
d="M78 549v53q0 46 15 87l5 11l9 -3l-4 -11q-12 -33 -13 -63h7v-74h-19zM24 549v53q0 46 15 87l5 11l8 -3l-4 -11q-11 -30 -12 -63h7v-74h-19z" />
    <glyph glyph-name="quotedblright.alt" horiz-adv-x="129" 
d="M50 700v-53q0 -46 -15 -87l-5 -11l-9 3l4 11q12 34 13 63h-7v74h19zM104 700v-53q0 -46 -15 -87l-5 -11l-8 3l4 11q11 29 12 63h-7v74h19z" />
    <glyph glyph-name="quoteleft.alt" horiz-adv-x="75" 
d="M24 549v53q0 46 15 87l5 11l9 -3l-4 -11q-12 -33 -13 -63h7v-74h-19z" />
    <glyph glyph-name="quoteright.alt" horiz-adv-x="74" 
d="M50 700v-53q0 -46 -15 -87l-5 -11l-9 3l4 11q12 34 13 63h-7v74h19z" />
    <glyph glyph-name="quotedblbase.alt" horiz-adv-x="125" 
d="M47 64v-53q0 -46 -15 -87l-5 -11l-9 3l4 11q12 33 13 63h-7v74h19zM101 64v-53q0 -46 -15 -87l-5 -11l-8 3l4 11q11 30 12 63h-7v74h19z" />
    <glyph glyph-name="quotesinglbase.alt" horiz-adv-x="71" 
d="M47 64v-53q0 -46 -15 -87l-5 -11l-9 3l4 11q12 33 13 63h-7v74h19z" />
    <glyph glyph-name="guillemotleft.cap" horiz-adv-x="166" 
d="M24 356l44 162h14l-39 -162l40 -162h-13zM86 356l41 162h14l-36 -162l37 -162h-13z" />
    <glyph glyph-name="guillemotright.cap" horiz-adv-x="166" 
d="M97 518l44 -162l-46 -162h-13l40 162l-39 162h14zM38 518l41 -162l-43 -162h-13l37 162l-36 162h14z" />
    <glyph glyph-name="guilsinglleft.cap" horiz-adv-x="113" 
d="M23 356l50 162h14l-43 -162l44 -162h-14z" />
    <glyph glyph-name="guilsinglright.cap" horiz-adv-x="113" 
d="M39 518l50 -162l-51 -162h-14l44 162l-43 162h14z" />
    <glyph glyph-name="hyphen.cap" horiz-adv-x="151" 
d="M24 364h103v-17h-103v17z" />
    <glyph glyph-name="endash.cap" horiz-adv-x="268" 
d="M24 364h220v-17h-220v17z" />
    <glyph glyph-name="emdash.cap" horiz-adv-x="419" 
d="M24 364h359v-17h-359v17z" />
    <glyph glyph-name="at.alt" horiz-adv-x="374" 
d="M288 93h-12q-39 0 -40 32q-35 -31 -63 -31q-52 0 -52 50v160q0 24 9.5 38t35.5 24l67 26v159q0 43 -42 43h-4q-48 0 -48 -43v-117h-16v117q0 58 63 58h5q58 0 58 -58v-417q0 -17 6 -23t24 -6h9q16 0 23.5 7.5t7.5 27.5v441q0 60 -20.5 84t-75.5 24h-71q-55 0 -75.5 -24
t-20.5 -84v-463q0 -60 20.5 -84t75.5 -24h170v-11h-170q-61 0 -85 27t-24 92v463q0 65 24 92t85 27h71q60 0 84 -27t24 -92v-441q0 -47 -43 -47zM176 111q23 0 57 27v238l-62 -24q-20 -9 -27 -19.5t-7 -28.5v-157q0 -36 39 -36z" />
    <glyph glyph-name="registered.alt" horiz-adv-x="368" 
d="M324 586v-471q0 -65 -24 -92.5t-84 -27.5h-64q-61 0 -85 27.5t-24 92.5v471q0 65 24 92.5t85 27.5h64q60 0 84 -27.5t24 -92.5zM314 115v471q0 60 -21.5 85t-76.5 25h-64q-55 0 -76.5 -25t-21.5 -85v-471q0 -60 21.5 -85t76.5 -25h64q55 0 76.5 25t21.5 85zM204 338
q23 -3 34.5 -17t11.5 -46v-193h-17v192q0 33 -14 45t-49 12h-26v-249h-16v538h43q47 0 62.5 -13t15.5 -50v-152q0 -33 -10.5 -46.5t-34.5 -20.5zM232 556q0 28 -11.5 37.5t-50.5 9.5h-26v-256h26q35 0 48.5 12t13.5 45v152z" />
    <glyph glyph-name="percent.alt" horiz-adv-x="342" 
d="M100 386h-15q-29 0 -40.5 14t-11.5 46v198q0 32 11.5 46t40.5 14h15q29 0 40.5 -14t11.5 -46v-198q0 -32 -11.5 -46t-40.5 -14zM241 314h16q29 0 40.5 -14t11.5 -46v-198q0 -32 -11.5 -46t-40.5 -14h-16q-28 0 -39.5 14t-11.5 46v198q0 32 11.5 46t39.5 14zM257 297h-15
q-21 0 -28.5 -9.5t-7.5 -34.5v-196q0 -25 7.5 -35t28.5 -10h15q21 0 28.5 10t7.5 35v196q0 25 -7.5 34.5t-28.5 9.5zM100 688h-15q-21 0 -28.5 -10t-7.5 -35v-196q0 -25 7.5 -35t28.5 -10h15q21 0 28 9.5t7 35.5v196q0 25 -7 35t-28 10zM265 700l-88 -355l-85 -346h-16
l89 355l84 346h16z" />
    <glyph glyph-name="NUL" horiz-adv-x="0" 
 />
    <glyph glyph-name="hfjslug" horiz-adv-x="694" 
d="M644 -200h-208l-8 14h-163l-8 -14h-207v303q14 0 23 9.5t9 22.5t-9.5 22.5t-22.5 9.5v554h100l30 79h334l29 -79h101v-921zM400 563v-172h15v78h38v14h-38v66h43v14h-58zM184 563v-172h15v79h47v-79h15v172h-15v-79h-47v79h-15zM460 394q10 -4 21 -4q31 0 31 36v137h-16
v-137q0 -22 -16 -22q-8 0 -20 5v-15zM371 465l-13 3q-4 -18 -8 -30h-1l-16 31q23 21 23 42q0 31 -27 31q-12 0 -20 -9t-8 -22t14 -39q-23 -18 -23 -47q0 -16 8 -26.5t21 -10.5q19 0 29 24h1l12 -24l12 6l-17 32q6 14 13 39zM523 323v-46h8v12l8 8l15 -20h10l-20 26l18 20
h-10l-20 -24h-1v24h-8zM488 292l10 -15h9l-12 17q10 4 10 14q0 15 -17 15h-20v-46h8v15h12zM426 276q10 0 17 7t7 17q0 9 -7 16.5t-17 7.5t-17 -7.5t-7 -16.5q0 -10 7 -17t17 -7zM370 301l-13 22h-9l18 -29v-17h8v17l18 29h-9zM193 323v-46h34v7h-26v13h23v7h-23v12h26v7
h-34zM132 323v-46h8v32l25 -32h7v46h-8v-32l-25 32h-7zM241 323l14 -47h8l11 34h1l11 -34h8l14 47h-8l-10 -35h-1l-11 35h-7l-11 -35h-1l-10 35h-8zM327 479q-12 22 -12 32q0 19 14 19q13 0 13 -19q0 -15 -15 -32zM342 423q-8 -21 -20 -21q-16 0 -16 25q0 19 16 35zM487 299
h-11v17h11q10 0 10 -8q0 -9 -10 -9zM426 283q-16 0 -16 17q0 6 4.5 11.5t11.5 5.5t11.5 -5.5t4.5 -11.5q0 -17 -16 -17z" />
    <glyph glyph-name="i.dot" horiz-adv-x="100" 
d="M40 618v50h20v-50h-20zM41 0v558h19v-558h-19z" />
    <glyph glyph-name="caron.alt" 
d="M145 607v87h16l-6 -87h-10z" />
    <glyph glyph-name="acute.cap" 
d="M169 732l38 55h21l-45 -55h-14z" />
    <glyph glyph-name="hungarumlaut.cap" 
d="M142 732l37 55h20l-45 -55h-12zM192 732l38 55h19l-45 -55h-12z" />
    <glyph glyph-name="grave.cap" 
d="M173 787l37 -55h-14l-44 55h21z" />
    <glyph glyph-name="circumflex.cap" 
d="M193 793l45 -61h-13l-42 48l-41 -48h-14l46 61h19z" />
    <glyph glyph-name="caron.cap" 
d="M238 793l-45 -61h-19l-46 61h14l41 -49l42 49h13z" />
    <glyph glyph-name="breve.cap" 
d="M130 771v16h14v-16q0 -27 33 -27h11q33 0 33 27v16h14v-16q0 -41 -47 -41h-11q-47 0 -47 41z" />
    <glyph glyph-name="tilde.cap" 
d="M140 794h4q10 0 25 -11l34 -29q11 -8 17 -8h3q10 0 10 12v35h13v-40q0 -21 -21 -21h-3q-12 0 -25 10l-34 29q-13 8 -18 8h-3q-9 0 -9 -12v-35h-14v40q0 22 21 22z" />
    <glyph glyph-name="macron.cap" 
d="M124 764h118v-14h-118v14z" />
    <glyph glyph-name="dieresis.cap" 
d="M212 732v44h16v-44h-16zM155 776v-44h-16v44h16z" />
    <glyph glyph-name="dotaccent.cap" 
d="M189 777v-45h-17v45h17z" />
    <glyph glyph-name="ring.cap" 
d="M251 770v-2q0 -35 -44 -35h-41q-44 0 -44 35v2q0 34 44 34h41q44 0 44 -34zM241 768v2q0 25 -34 25h-40q-35 0 -35 -25v-2q0 -14 8 -19.5t27 -5.5h40q34 0 34 25z" />
    <glyph glyph-name="commaaccent.alt" 
d="M186 -34v-28q0 -27 -10 -47l-6 -15l-7 3l4 9q6 19 8 35h-7v43h18z" />
    </font>
</defs>
</svg>
