<?xml version="1.0" standalone="no"?>
<!DOCTYPE svg PUBLIC "-//W3C//DTD SVG 1.1//EN" "http://www.w3.org/Graphics/SVG/1.1/DTD/svg11.dtd" >
<svg xmlns="http://www.w3.org/2000/svg" xmlns:xlink="http://www.w3.org/1999/xlink" version="1.1">
<metadata>
Created by FontForge 20170731 at Mon Nov  5 17:22:21 2012
 By Aleksey,,,
Copyright (C) 2004, 2012 Hoefler &#38; Frere-Jones. http://www.typography.com
</metadata>
<defs>
<font id="TungstenCompressed-Black" horiz-adv-x="227" >
  <font-face 
    font-family="Tungsten Compressed Black"
    font-weight="450"
    font-stretch="extra-condensed"
    units-per-em="1000"
    panose-1="0 0 0 0 0 0 0 0 0 0"
    ascent="800"
    descent="-200"
    x-height="590"
    cap-height="700"
    bbox="-32 -200 644 831"
    underline-thickness="50"
    underline-position="-200"
    unicode-range="U+0020-FB04"
  />
<missing-glyph horiz-adv-x="500" 
d="M0 -200v1000h500v-1000h-500zM71 750l179 -390l179 390h-358zM50 -76l172 376l-172 376v-752zM450 676l-172 -376l172 -376v752zM250 240l-179 -390h358z" />
    <glyph glyph-name=".notdef" horiz-adv-x="500" 
d="M0 -200v1000h500v-1000h-500zM71 750l179 -390l179 390h-358zM50 -76l172 376l-172 376v-752zM450 676l-172 -376l172 -376v752zM250 240l-179 -390h358z" />
    <glyph glyph-name=".null" horiz-adv-x="0" 
 />
    <glyph glyph-name="nonmarkingreturn" horiz-adv-x="333" 
 />
    <glyph glyph-name="space" unicode=" " horiz-adv-x="54" 
 />
    <glyph glyph-name="exclam" unicode="!" horiz-adv-x="114" 
d="M106 523l-18 -389h-62l-18 389v177h98v-177zM98 109v-109h-82v109h82z" />
    <glyph glyph-name="quotedbl" unicode="&#x22;" horiz-adv-x="196" 
d="M101 700l-20 -203h-69l5 203h84zM193 700l-20 -203h-69l5 203h84z" />
    <glyph glyph-name="numbersign" unicode="#" horiz-adv-x="219" 
d="M190 701v-153l25 9v-93l-25 -9v-143l25 9v-99l-25 -9v-214h-72v188l-17 -6v-182h-72v156l-25 -9v99l25 9v142l-25 -9v99l25 8v207h72v-183l17 6v177h72zM101 423v-146l17 6v146z" />
    <glyph glyph-name="dollar" unicode="$" horiz-adv-x="229" 
d="M148 738v-37q74 -6 74 -88v-193h-97v192q0 7 -7 7h-6q-7 0 -7 -7v-177q0 -11 8 -16l74 -57q36 -28 36 -80v-194q0 -85 -75 -89v-39h-65v39q-76 4 -76 89v202h96v-201q0 -8 8 -8h7q7 0 7 8v185q0 11 -8 16l-73 57q-37 29 -37 80v186q0 84 76 88v37h65z" />
    <glyph glyph-name="percent" unicode="%" horiz-adv-x="287" 
d="M83 300h-21q-56 0 -56 55v294q0 55 56 55h29q55 0 55 -55v-172l39 224h57l-61 -295q9 4 22 4h22q56 0 56 -55v-304q0 -55 -56 -55h-29q-56 0 -56 55v174l-39 -226h-56l61 305q-9 -4 -23 -4zM212 353h-7q-5 0 -5 -5v-289q0 -5 5 -5h7q5 0 5 5v289q0 5 -5 5zM82 646h-7
q-5 0 -5 -5v-279q0 -5 5 -5h7q5 0 5 5v279q0 5 -5 5z" />
    <glyph glyph-name="ampersand" unicode="&#x26;" horiz-adv-x="303" 
d="M204 0l-22 58q-11 -34 -27 -48t-46 -14h-25q-78 0 -78 83v224q0 27 8 44.5t30 37.5l9 8l-10 26q-15 41 -15 79v116q0 90 90 90h33q90 0 90 -90v-158h-92v155q0 9 -8 9h-9q-8 0 -8 -9v-109q0 -28 10 -57l41 -121l20 95h92v-2l-55 -227l69 -188v-2h-97zM104 92q4 0 6 6
l19 82l-31 106q-2 -4 -2 -14v-173q0 -7 6 -7h2z" />
    <glyph glyph-name="quotesingle" unicode="'" horiz-adv-x="109" 
d="M106 700l-22 -203h-72l5 203h89z" />
    <glyph glyph-name="parenleft" unicode="(" horiz-adv-x="134" 
d="M129 -4l-50 -21q-40 40 -54 81.5t-14 118.5v350q0 77 14 118.5t54 81.5l50 -21q-26 -36 -35 -73t-9 -105v-352q0 -68 9 -105t35 -73z" />
    <glyph glyph-name="parenright" unicode=")" horiz-adv-x="134" 
d="M5 709l50 21q40 -40 54 -81.5t14 -118.5v-350q0 -77 -14 -118.5t-54 -81.5l-50 21q26 36 35 72.5t9 105.5v352q0 69 -9 105.5t-35 72.5z" />
    <glyph glyph-name="asterisk" unicode="*" horiz-adv-x="162" 
d="M101 700l-2 -59l49 25h2v-42l-40 -16l40 -16v-41h-2l-49 24l2 -58h-40l1 58l-49 -24h-1v41l39 16l-39 16v42h1l49 -25l-1 59h40z" />
    <glyph glyph-name="plus" unicode="+" horiz-adv-x="201" 
d="M64 260v61h-60v70h60v62h73v-62h60v-70h-60v-61h-73z" />
    <glyph glyph-name="comma" unicode="," horiz-adv-x="110" 
d="M95 109v-24q0 -89 -24 -179h-69q14 78 14 175v28h79z" />
    <glyph glyph-name="hyphen" unicode="-" horiz-adv-x="152" 
d="M6 344h140v-88h-140v88z" />
    <glyph glyph-name="period" unicode="." horiz-adv-x="110" 
d="M96 109v-109h-82v109h82z" />
    <glyph glyph-name="slash" unicode="/" horiz-adv-x="150" 
d="M149 719l-78 -738h-70l78 738h70z" />
    <glyph glyph-name="zero" unicode="0" horiz-adv-x="241" 
d="M233 86q0 -90 -90 -90h-45q-90 0 -90 90v528q0 90 90 90h45q90 0 90 -90v-528zM132 612q0 8 -8 8h-7q-8 0 -8 -8v-524q0 -8 8 -8h7q8 0 8 8v524z" />
    <glyph glyph-name="one" unicode="1" horiz-adv-x="151" 
d="M142 702v-702h-101v594h-39v68q33 4 53 30l7 10h80z" />
    <glyph glyph-name="two" unicode="2" 
d="M29 255l81 146q12 21 12 41v170q0 8 -8 8h-4q-8 0 -8 -8v-178h-94v180q0 90 90 90h33q90 0 90 -90v-151q0 -55 -24 -99l-83 -158q-9 -18 -9 -45v-71h116v-90h-214v157q0 59 22 98z" />
    <glyph glyph-name="three" unicode="3" horiz-adv-x="232" 
d="M124 88v216q0 8 -8 8h-68v89h67q8 0 8 8v203q0 8 -8 8h-3q-8 0 -8 -8v-171h-96v173q0 90 90 90h35q90 0 90 -90v-178q0 -32 -7.5 -47.5t-27.5 -27.5q21 -10 28.5 -23.5t7.5 -42.5v-209q0 -90 -90 -90h-37q-90 0 -90 90v186h96v-184q0 -8 8 -8h5q8 0 8 8z" />
    <glyph glyph-name="four" unicode="4" horiz-adv-x="234" 
d="M7 208l59 492h136v-492h31v-88h-31v-120h-94v120h-101v88zM78 208h31v277z" />
    <glyph glyph-name="five" unicode="5" horiz-adv-x="232" 
d="M224 359v-273q0 -90 -90 -90h-37q-90 0 -90 90v178h97v-176q0 -8 8 -8h5q8 0 8 8v245q0 17 -11 17t-11 -23h-95v373h210v-91h-112l-2 -185q23 15 54 15q66 0 66 -80z" />
    <glyph glyph-name="six" unicode="6" horiz-adv-x="236" 
d="M108 612v-201q29 11 53 11q68 0 68 -73v-263q0 -90 -90 -90h-41q-90 0 -90 90v528q0 90 90 90h39q90 0 90 -90v-175h-98v173q0 8 -8 8h-5q-8 0 -8 -8zM108 338v-250q0 -8 8 -8h5q8 0 8 8v242q0 9 -9 9q-7 0 -12 -1z" />
    <glyph glyph-name="seven" unicode="7" horiz-adv-x="203" 
d="M97 606h-94v94h195v-91l-73 -609h-102z" />
    <glyph glyph-name="eight" unicode="8" horiz-adv-x="236" 
d="M99 704h38q90 0 90 -90v-188q0 -55 -38 -69q40 -11 40 -60v-211q0 -90 -90 -90h-41q-90 0 -90 90v211q0 48 39 60q-38 14 -38 69v188q0 90 90 90zM107 308v-221q0 -8 8 -8h7q8 0 8 8v221q0 8 -8 8h-7q-8 0 -8 -8zM115 393h6q8 0 8 8v212q0 8 -8 8h-6q-8 0 -8 -8v-212
q0 -8 8 -8z" />
    <glyph glyph-name="nine" unicode="9" horiz-adv-x="236" 
d="M120 80q8 0 8 8v189q-24 -10 -53 -10q-68 0 -68 72v275q0 90 90 90h41q90 0 90 -90v-528q0 -90 -90 -90h-40q-90 0 -90 90v158h98v-156q0 -8 7 -8h7zM128 351v261q0 8 -8 8h-5q-8 0 -8 -8v-254q0 -9 9 -9q7 0 12 2z" />
    <glyph glyph-name="colon" unicode=":" horiz-adv-x="110" 
d="M96 109v-109h-82v109h82zM96 590v-109h-82v109h82z" />
    <glyph glyph-name="semicolon" unicode=";" horiz-adv-x="110" 
d="M96 109v-24q0 -89 -24 -179h-69q14 78 14 175v28h79zM96 590v-109h-82v109h82z" />
    <glyph glyph-name="less" unicode="&#x3c;" horiz-adv-x="193" 
d="M6 400l181 63v-76l-110 -30l110 -30v-77l-181 63v87z" />
    <glyph glyph-name="equal" unicode="=" horiz-adv-x="201" 
d="M4 436h193v-69h-193v69zM4 346h193v-69h-193v69z" />
    <glyph glyph-name="greater" unicode="&#x3e;" horiz-adv-x="193" 
d="M187 313l-181 -63v76l110 30l-110 30v77l181 -63v-87z" />
    <glyph glyph-name="question" unicode="?" horiz-adv-x="220" 
d="M82 351l20 32q14 24 14 37v192q0 8 -7 8h-5q-8 0 -8 -8v-201h-91v203q0 90 90 90h30q90 0 90 -90v-184q0 -37 -30 -85l-31 -50q-11 -19 -11 -43v-118h-79v147q0 26 3 38.5t15 31.5zM145 109v-109h-82v109h82z" />
    <glyph glyph-name="at" unicode="@" horiz-adv-x="320" 
d="M271 13h-50q-30 0 -47 28q-23 -28 -56 -28q-50 0 -50 54v223q0 25 9.5 37.5t35.5 21.5l53 18v172q0 6 -5 6h-6q-6 0 -6 -6v-165h-78v169q0 70 71 70h37q71 0 71 -70v-493q0 -12 11 -12h10q12 0 12 12v507q0 48 -18 67.5t-65 19.5h-80q-46 0 -64 -19.5t-18 -67.5v-491
q0 -47 18 -67t64 -20h157v-24h-157q-58 0 -82.5 26t-24.5 85v491q0 59 24.5 85t82.5 26h80q58 0 83 -25.5t25 -85.5v-507q0 -37 -37 -37zM157 82q7 0 9 1v218l-8 -3q-11 -4 -11 -18v-191q0 -7 10 -7z" />
    <glyph glyph-name="A" unicode="A" horiz-adv-x="243" 
d="M242 0h-100l-6 115h-41l-6 -115h-88l55 700h131zM115 501l-16 -301h32z" />
    <glyph glyph-name="B" unicode="B" horiz-adv-x="241" 
d="M187 358q47 -12 47 -60v-208q0 -90 -90 -90h-135v700h134q90 0 90 -90v-183q0 -55 -46 -69zM132 609q0 8 -7 8h-14v-223h14q7 0 7 7v208zM111 317v-234h14q8 0 8 7v220q0 7 -8 7h-14z" />
    <glyph glyph-name="C" unicode="C" horiz-adv-x="242" 
d="M133 328h101v-242q0 -90 -90 -90h-46q-90 0 -90 90v528q0 90 90 90h46q89 0 89 -90v-222h-101v220q0 8 -8 8h-6q-8 0 -8 -8v-524q0 -8 8 -8h7q8 0 8 8v240z" />
    <glyph glyph-name="D" unicode="D" horiz-adv-x="243" 
d="M9 0v700h124q102 0 102 -102v-496q0 -102 -102 -102h-124zM111 616v-532h11q11 0 11 12v509q0 11 -11 11h-11z" />
    <glyph glyph-name="E" unicode="E" horiz-adv-x="196" 
d="M9 700h180v-87h-78v-215h75v-87h-75v-224h79v-87h-181v700z" />
    <glyph glyph-name="F" unicode="F" horiz-adv-x="190" 
d="M9 700h177v-87h-75v-227h72v-87h-72v-299h-102v700z" />
    <glyph glyph-name="G" unicode="G" horiz-adv-x="244" 
d="M135 313h-14v82h115v-309q0 -90 -90 -90h-48q-90 0 -90 90v528q0 90 90 90h47q90 0 90 -90v-182h-101v180q0 8 -9 8h-7q-8 0 -8 -8v-523q0 -9 8 -9h9q8 0 8 8v225z" />
    <glyph glyph-name="H" unicode="H" horiz-adv-x="245" 
d="M111 398h23v302h102v-700h-102v311h-23v-311h-102v700h102v-302z" />
    <glyph glyph-name="I" unicode="I" horiz-adv-x="120" 
d="M111 700v-700h-102v700h102z" />
    <glyph glyph-name="J" unicode="J" horiz-adv-x="164" 
d="M155 700v-610q0 -90 -90 -90h-63v87h38q13 0 13 14v599h102z" />
    <glyph glyph-name="K" unicode="K" horiz-adv-x="240" 
d="M241 0h-105l-25 286v-286h-102v700h102v-289l29 289h102l-39 -340z" />
    <glyph glyph-name="L" unicode="L" horiz-adv-x="185" 
d="M9 700h102v-613h70v-87h-172v700z" />
    <glyph glyph-name="M" unicode="M" horiz-adv-x="335" 
d="M326 700v-700h-101l5 520l-31 -520h-85l-27 520l1 -520h-79v700h142l12 -386l20 386h143z" />
    <glyph glyph-name="N" unicode="N" horiz-adv-x="235" 
d="M226 0h-92l-47 341l7 -341h-85v700h97l43 -327l-8 327h85v-700z" />
    <glyph glyph-name="O" unicode="O" horiz-adv-x="244" 
d="M236 86q0 -90 -90 -90h-48q-90 0 -90 90v528q0 90 90 90h48q90 0 90 -90v-528zM134 612q0 8 -8 8h-8q-8 0 -8 -8v-524q0 -8 8 -8h8q8 0 8 8v524z" />
    <glyph glyph-name="P" unicode="P" horiz-adv-x="243" 
d="M111 233v-233h-102v700h136q90 0 90 -90v-287q0 -90 -90 -90h-34zM133 608q0 8 -8 8h-14v-299h14q8 0 8 8v283z" />
    <glyph glyph-name="Q" unicode="Q" horiz-adv-x="244" 
d="M236 614v-519q0 -48 -26 -71l37 -14l-40 -68l-104 54h-5q-90 0 -90 90v528q0 90 90 90h48q90 0 90 -90zM134 612q0 8 -8 8h-8q-8 0 -8 -8v-524q0 -8 8 -8h8q8 0 8 8v524z" />
    <glyph glyph-name="R" unicode="R" horiz-adv-x="243" 
d="M188 334q47 -11 47 -60v-274h-102v283q0 8 -8 8h-14v-291h-102v700h135q90 0 90 -90v-207q0 -55 -46 -69zM132 607q0 8 -8 8h-13v-241h13q8 0 8 8v225z" />
    <glyph glyph-name="S" unicode="S" horiz-adv-x="238" 
d="M193 362q37 -28 37 -80v-196q0 -90 -90 -90h-42q-90 0 -90 90v204h99v-204q0 -7 8 -7h7q8 0 8 7v188q0 10 -9 16l-75 57q-38 29 -38 80v187q0 90 90 90h41q90 0 90 -90v-194h-99v194q0 7 -8 7h-6q-7 0 -7 -7v-179q0 -11 8 -16z" />
    <glyph glyph-name="T" unicode="T" horiz-adv-x="216" 
d="M159 0h-102v613h-53v87h208v-87h-53v-613z" />
    <glyph glyph-name="U" unicode="U" horiz-adv-x="244" 
d="M235 700v-614q0 -90 -90 -90h-46q-90 0 -90 90v614h102v-612q0 -8 8 -8h6q8 0 8 8v612h102z" />
    <glyph glyph-name="V" unicode="V" horiz-adv-x="238" 
d="M182 0h-127l-56 700h102l23 -454l25 454h90z" />
    <glyph glyph-name="W" unicode="W" horiz-adv-x="348" 
d="M192 0l-19 281l-18 -281h-104l-51 700h106l13 -345l18 345h92l15 -345l16 345h88l-51 -700h-105z" />
    <glyph glyph-name="X" unicode="X" horiz-adv-x="236" 
d="M235 700l-56 -339l58 -361h-106l-19 191l-22 -191h-92l57 346l-56 354h106l17 -183l22 183h91z" />
    <glyph glyph-name="Y" unicode="Y" horiz-adv-x="232" 
d="M167 0h-102v223l-68 477h106l18 -257l22 257h92l-68 -477v-223z" />
    <glyph glyph-name="Z" unicode="Z" horiz-adv-x="199" 
d="M89 613h-82v87h187v-87l-85 -526h85v-87h-190v87z" />
    <glyph glyph-name="bracketleft" unicode="[" horiz-adv-x="131" 
d="M128 31v-50h-116v738h116v-50h-47v-638h47z" />
    <glyph glyph-name="backslash" unicode="\" horiz-adv-x="150" 
d="M79 -19l-78 738h70l78 -738h-70z" />
    <glyph glyph-name="bracketright" unicode="]" horiz-adv-x="131" 
d="M3 -19v50h47v638h-47v50h116v-738h-116z" />
    <glyph glyph-name="asciicircum" unicode="^" horiz-adv-x="200" 
d="M136 700l63 -161h-72l-27 74l-26 -74h-72l62 161h72z" />
    <glyph glyph-name="underscore" unicode="_" horiz-adv-x="285" 
d="M-1 -13h287v-71h-287v71z" />
    <glyph glyph-name="grave" unicode="`" horiz-adv-x="300" 
d="M188 690l27 -80h-75l-51 80h99z" />
    <glyph glyph-name="a" unicode="a" horiz-adv-x="221" 
d="M8 53v210q0 29 10.5 43t38.5 24l61 22v157q0 7 -6 7h-6q-6 0 -6 -7v-153h-88v158q0 80 79 80h43q79 0 79 -80v-514h-93v22q-28 -26 -60 -26q-52 0 -52 57zM108 74q4 0 10 2v201l-10 -4q-10 -6 -10 -18v-172q0 -9 10 -9z" />
    <glyph glyph-name="b" unicode="b" 
d="M8 0v700h96v-130q31 24 60 24q55 0 55 -63v-472q0 -63 -55 -63q-30 0 -61 23v-19h-95zM104 509v-428q8 -2 10 -2q9 0 9 9v414q0 9 -9 9q-2 0 -10 -2z" />
    <glyph glyph-name="c" unicode="c" horiz-adv-x="225" 
d="M123 334v173q0 6 -6 6h-6q-7 0 -7 -6v-424q0 -6 7 -6h6q6 0 6 6v181h94v-185q0 -83 -83 -83h-43q-83 0 -83 83v432q0 83 83 83h43q83 0 83 -83v-177h-94z" />
    <glyph glyph-name="d" unicode="d" 
d="M219 700v-700h-94v20q-31 -24 -61 -24q-56 0 -56 63v472q0 63 56 63q29 0 59 -23v129h96zM123 81v428q-6 2 -10 2q-9 0 -9 -9v-414q0 -9 9 -9q4 0 10 2z" />
    <glyph glyph-name="e" unicode="e" horiz-adv-x="224" 
d="M216 255h-113v-173q0 -7 7 -7h7q6 0 6 7v129h93v-132q0 -83 -83 -83h-42q-83 0 -83 83v432q0 83 83 83h42q83 0 83 -83v-256zM103 508v-181h19v181q0 7 -6 7h-6q-7 0 -7 -7z" />
    <glyph glyph-name="f" unicode="f" horiz-adv-x="151" 
d="M22 590v40q0 70 69 70h58v-70h-24q-13 0 -13 -13v-27h37v-84h-31v-506h-96v506h-19v84h19z" />
    <glyph glyph-name="g" unicode="g" 
d="M219 590v-601q0 -73 -73 -73h-65q-37 0 -54 16.5t-17 52.5v36h88v-29q0 -9 9 -9h9q9 0 9 9v62q-29 -23 -61 -23q-56 0 -56 63v437q0 63 56 63q30 0 61 -23v19h94zM123 114v395q-6 2 -10 2q-9 0 -9 -9v-381q0 -9 9 -9q4 0 10 2z" />
    <glyph glyph-name="h" unicode="h" 
d="M8 0v700h96v-130q31 24 60 24q55 0 55 -63v-531h-96v502q0 9 -9 9q-2 0 -10 -2v-509h-96z" />
    <glyph glyph-name="i" unicode="i" horiz-adv-x="114" 
d="M8 603v71h98v-71h-98zM9 0v590h96v-590h-96z" />
    <glyph glyph-name="j" unicode="j" horiz-adv-x="113" 
d="M7 603v71h98v-71h-98zM104 590v-608q0 -64 -66 -64h-49v69h12q7 0 7 8v595h96z" />
    <glyph glyph-name="k" unicode="k" horiz-adv-x="234" 
d="M134 590h97l-39 -301l42 -289h-100l-30 263v-263h-96v700h96v-392z" />
    <glyph glyph-name="l" unicode="l" horiz-adv-x="112" 
d="M8 0v700h96v-700h-96z" />
    <glyph glyph-name="m" unicode="m" horiz-adv-x="341" 
d="M219 509v-509h-96v502q0 9 -9 9q-2 0 -10 -2v-509h-96v590h95v-20q31 24 61 24q34 0 47 -27q33 27 67 27q55 0 55 -63v-531h-96v502q0 9 -8 9q-4 0 -10 -2z" />
    <glyph glyph-name="n" unicode="n" 
d="M8 0v590h95v-20q31 24 61 24q55 0 55 -63v-531h-96v502q0 9 -9 9q-2 0 -10 -2v-509h-96z" />
    <glyph glyph-name="o" unicode="o" 
d="M117 513h-6q-7 0 -7 -6v-424q0 -6 7 -6h6q6 0 6 6v424q0 6 -6 6zM137 -4h-46q-83 0 -83 83v432q0 83 83 83h46q82 0 82 -83v-432q0 -83 -82 -83z" />
    <glyph glyph-name="p" unicode="p" 
d="M8 -81v671h95v-20q31 24 61 24q55 0 55 -63v-472q0 -63 -55 -63q-29 0 -60 23v-100h-96zM104 509v-428q8 -2 10 -2q9 0 9 9v414q0 9 -9 9q-2 0 -10 -2z" />
    <glyph glyph-name="q" unicode="q" 
d="M219 590v-671h-96v101q-29 -24 -59 -24q-56 0 -56 63v472q0 63 56 63q30 0 61 -23v19h94zM123 81v428q-6 2 -10 2q-9 0 -9 -9v-414q0 -9 9 -9q4 0 10 2z" />
    <glyph glyph-name="r" unicode="r" horiz-adv-x="155" 
d="M8 0v590h95v-37q19 40 49 40v-107q-30 -3 -48 -15v-471h-96z" />
    <glyph glyph-name="s" unicode="s" horiz-adv-x="218" 
d="M121 358v150q0 7 -6 7h-8q-6 0 -6 -7v-139q0 -9 10 -17l45 -29q31 -20 42.5 -37.5t11.5 -46.5v-160q0 -83 -82 -83h-37q-83 0 -83 83v160h91v-157q0 -7 6 -7h7q7 0 7 7v144q0 10 -11 18l-45 30q-31 19 -42.5 37t-11.5 45v155q0 83 83 83h37q83 0 83 -83v-153h-91z" />
    <glyph glyph-name="t" unicode="t" horiz-adv-x="154" 
d="M121 506v-506h-96v506h-22v84h22v54h96v-54h31v-84h-31z" />
    <glyph glyph-name="u" unicode="u" 
d="M219 590v-590h-94v20q-31 -24 -61 -24q-56 0 -56 63v531h96v-502q0 -9 9 -9q4 0 10 2v509h96z" />
    <glyph glyph-name="v" unicode="v" horiz-adv-x="232" 
d="M178 0h-124l-51 590h95l20 -356l21 356h90z" />
    <glyph glyph-name="w" unicode="w" horiz-adv-x="346" 
d="M127 590h98l17 -315l15 315h86l-46 -590h-107l-17 257l-17 -257h-107l-46 590h92l14 -320z" />
    <glyph glyph-name="x" unicode="x" horiz-adv-x="226" 
d="M90 0h-89l50 292l-48 298h96l15 -166l21 166h88l-48 -283l50 -307h-97l-17 175z" />
    <glyph glyph-name="y" unicode="y" horiz-adv-x="230" 
d="M152 -81h-91l14 112l-74 559h96l8 -118q5 -60 12 -191h2q4 91 11 191l8 118h92z" />
    <glyph glyph-name="z" unicode="z" horiz-adv-x="183" 
d="M86 506h-79v84h172v-84l-82 -422h82v-84h-175v84z" />
    <glyph glyph-name="braceleft" unicode="{" horiz-adv-x="166" 
d="M46 303q0 17 -22 22l-20 4v53l20 4q22 5 22 21v165q0 57 12.5 87t54.5 66l51 -21q-29 -35 -36.5 -59t-7.5 -72v-155q0 -49 -36 -62q36 -12 36 -54v-175q0 -48 7.5 -72t36.5 -59l-51 -21q-42 36 -54.5 66t-12.5 87v175z" />
    <glyph glyph-name="bar" unicode="|" horiz-adv-x="121" 
d="M92 738v-778h-63v778h63z" />
    <glyph glyph-name="braceright" unicode="}" horiz-adv-x="166" 
d="M120 303v-175q0 -57 -12.5 -87t-54.5 -66l-51 21q29 35 36.5 59t7.5 72v175q0 42 36 54q-36 13 -36 62v155q0 48 -7.5 72t-36.5 59l51 21q42 -36 54.5 -66t12.5 -87v-165q0 -16 22 -21l20 -4v-53l-20 -4q-22 -5 -22 -22z" />
    <glyph glyph-name="asciitilde" unicode="~" horiz-adv-x="200" 
d="M4 300v72q24 25 52 25h1q15 0 38 -9l20 -6q19 -6 30 -6h1q25 0 51 23v-72q-25 -25 -52 -25h-2q-7 0 -37 8l-21 7q-16 5 -29 5h-1q-27 0 -51 -22z" />
    <glyph glyph-name="uni00A0" unicode="&#xa0;" horiz-adv-x="54" 
 />
    <glyph glyph-name="exclamdown" unicode="&#xa1;" horiz-adv-x="114" 
d="M8 177l18 389h62l18 -389v-177h-98v177zM16 591v109h82v-109h-82z" />
    <glyph glyph-name="cent" unicode="&#xa2;" horiz-adv-x="218" 
d="M120 385v192q0 6 -7 6h-4q-7 0 -7 -6v-449q0 -7 7 -7h4q7 0 7 7v196h91v-199q0 -75 -67 -82v-45h-65v44q-71 6 -71 83v454q0 76 71 82v41h64v-41q68 -7 68 -82v-194h-91z" />
    <glyph glyph-name="sterling" unicode="&#xa3;" horiz-adv-x="250" 
d="M2 287v85h26v242q0 90 90 90h33q90 0 90 -90v-202h-93v200q0 8 -8 8h-4q-8 0 -8 -8v-240h73v-85h-73v-200h114v-87h-240v87h26v200h-26z" />
    <glyph glyph-name="yen" unicode="&#xa5;" horiz-adv-x="223" 
d="M8 337h47l-60 363h105l18 -258l20 258h91l-62 -363h48v-54h-53v-11h53v-54h-53v-218h-100v218h-54v54h54v11h-54v54z" />
    <glyph glyph-name="section" unicode="&#xa7;" horiz-adv-x="234" 
d="M224 339v-29l-170 83q-44 21 -44 68v153q0 90 90 90h34q90 0 90 -90v-161h-96v162q0 8 -7 8h-6q-8 0 -8 -8v-158q0 -13 8 -16l73 -37q24 -11 30 -24.5t6 -40.5zM10 366v29l170 -83q44 -21 44 -68v-158q0 -90 -90 -90h-34q-90 0 -90 90v169h96v-170q0 -8 7 -8h6q8 0 8 8
v163q0 13 -8 16l-73 37q-24 11 -30 24.5t-6 40.5z" />
    <glyph glyph-name="dieresis" unicode="&#xa8;" horiz-adv-x="300" 
d="M156 610v80h72v-80h-72zM144 690v-80h-72v80h72z" />
    <glyph glyph-name="copyright" unicode="&#xa9;" horiz-adv-x="314" 
d="M165 330h78v-215q0 -69 -69 -69h-34q-69 0 -69 69v470q0 69 69 69h33q69 0 69 -68v-207h-78v201q0 6 -6 6h-2q-6 0 -6 -6v-459q0 -6 6 -6h3q6 0 6 6v209zM294 590v-480q0 -61 -26 -87.5t-82 -26.5h-58q-56 0 -82 26.5t-26 87.5v480q0 61 26 87.5t82 26.5h58
q56 0 82 -26.5t26 -87.5zM279 110v480q0 54 -21.5 76.5t-71.5 22.5h-58q-50 0 -71.5 -22.5t-21.5 -76.5v-480q0 -54 21.5 -76.5t71.5 -22.5h58q50 0 71.5 22.5t21.5 76.5z" />
    <glyph glyph-name="ordfeminine" unicode="&#xaa;" horiz-adv-x="143" 
d="M13 427v105q0 17 6 25t24 14l35 9v80q0 4 -5 4h-6q-5 0 -5 -4v-73h-47v76q0 44 46 44h22q46 0 46 -44v-265h-50v11q-23 -13 -36 -13q-30 0 -30 31zM68 438q2 0 5.5 1t4.5 1v101l-9 -1q-8 -2 -8 -12v-83q0 -7 7 -7z" />
    <glyph glyph-name="guillemotleft" unicode="&#xab;" horiz-adv-x="199" 
d="M5 300l40 150h62l-29 -150l29 -150h-62zM94 300l34 150h62l-23 -150l23 -150h-62z" />
    <glyph glyph-name="registered" unicode="&#xae;" horiz-adv-x="208" 
d="M140 491q23 -4 23 -29v-133h-51v139q0 3 -4 3h-8v-142h-51v337h72q42 0 42 -42v-100q0 -26 -23 -33zM111 625q0 4 -4 4h-7v-119h7q4 0 4 4v111zM184 358v278q0 30 -12.5 43t-41.5 13h-52q-28 0 -41 -13.5t-13 -42.5v-278q0 -56 54 -56h52q29 0 41.5 13.5t12.5 42.5z
M196 636v-278q0 -67 -66 -67h-52q-66 0 -66 67v278q0 68 66 68h52q66 0 66 -68z" />
    <glyph glyph-name="macron" unicode="&#xaf;" horiz-adv-x="300" 
d="M74 678h152v-64h-152v64z" />
    <glyph glyph-name="degree" unicode="&#xb0;" horiz-adv-x="186" 
d="M98 640h-11q-6 0 -6 -6v-223q0 -6 6 -6h11q6 0 6 6v223q0 6 -6 6zM113 341h-40q-30 0 -46.5 16.5t-16.5 46.5v237q0 30 16.5 46.5t46.5 16.5h40q30 0 46.5 -16.5t16.5 -46.5v-237q0 -30 -16.5 -46.5t-46.5 -16.5z" />
    <glyph glyph-name="plusminus" unicode="&#xb1;" horiz-adv-x="201" 
d="M64 303v61h-60v71h60v61h73v-61h60v-71h-60v-61h-73zM4 288h193v-69h-193v69z" />
    <glyph glyph-name="acute" unicode="&#xb4;" horiz-adv-x="300" 
d="M97 610l27 80h99l-51 -80h-75z" />
    <glyph glyph-name="paragraph" unicode="&#xb6;" horiz-adv-x="221" 
d="M212 0h-61v646h-18v-646h-9q-116 0 -116 116v468q0 116 116 116h88v-700z" />
    <glyph glyph-name="periodcentered" unicode="&#xb7;" horiz-adv-x="110" 
d="M96 410v-109h-82v109h82z" />
    <glyph glyph-name="cedilla" unicode="&#xb8;" horiz-adv-x="300" 
d="M191 0l-13 -73h-82l37 73h58z" />
    <glyph glyph-name="ordmasculine" unicode="&#xba;" horiz-adv-x="146" 
d="M76 663h-6q-5 0 -5 -4v-215q0 -4 5 -4h6q5 0 5 4v215q0 4 -5 4zM86 396h-25q-48 0 -48 46v219q0 46 48 46h25q47 0 47 -46v-219q0 -46 -47 -46z" />
    <glyph glyph-name="guillemotright" unicode="&#xbb;" horiz-adv-x="199" 
d="M154 450l40 -150l-40 -150h-62l29 150l-29 150h62zM71 450l34 -150l-34 -150h-62l23 150l-23 150h62z" />
    <glyph glyph-name="questiondown" unicode="&#xbf;" horiz-adv-x="220" 
d="M139 353l-20 -32q-14 -24 -14 -37v-192q0 -8 7 -8h5q8 0 8 8v201h91v-203q0 -90 -90 -90h-30q-90 0 -90 90v184q0 37 30 85l31 50q11 19 11 43v118h79v-147q0 -26 -3 -38.5t-15 -31.5zM76 595v109h82v-109h-82z" />
    <glyph glyph-name="Agrave" unicode="&#xc0;" horiz-adv-x="243" 
d="M187 700l55 -700h-100l-6 115h-41l-6 -115h-88l55 700h131zM130 788l30 -68h-75l-54 68h99zM115 501l-16 -301h32z" />
    <glyph glyph-name="Aacute" unicode="&#xc1;" horiz-adv-x="243" 
d="M242 0h-100l-6 115h-41l-6 -115h-88l55 700h131zM84 720l30 68h99l-54 -68h-75zM115 501l-16 -301h32z" />
    <glyph glyph-name="Acircumflex" unicode="&#xc2;" horiz-adv-x="243" 
d="M242 0h-100l-6 115h-41l-6 -115h-88l55 700h131zM165 793l42 -73h-63l-22 20l-22 -20h-63l42 73h86zM115 501l-16 -301h32z" />
    <glyph glyph-name="Atilde" unicode="&#xc3;" horiz-adv-x="243" 
d="M187 700l55 -700h-100l-6 115h-41l-6 -115h-88l55 700h131zM73 794h13q16 0 32 -8l9 -5q14 -8 18 -8h1q4 0 4 5v16h57v-37q0 -37 -36 -37h-13q-16 0 -32 8l-9 5q-14 8 -18 8h-1q-4 0 -4 -5v-16h-57v37q0 37 36 37zM115 501l-16 -301h32z" />
    <glyph glyph-name="Adieresis" unicode="&#xc4;" horiz-adv-x="243" 
d="M187 700l55 -700h-100l-6 115h-41l-6 -115h-88l55 700h131zM128 720v68h73v-68h-73zM116 788v-68h-73v68h73zM115 501l-16 -301h32z" />
    <glyph glyph-name="Aring" unicode="&#xc5;" horiz-adv-x="243" 
d="M197 706v-3q0 -17 -8 -26l53 -677h-100l-6 115h-41l-6 -115h-88l53 678q-7 10 -7 25v3q0 39 46 39h58q46 0 46 -39zM181 704v1q0 26 -30 26h-58q-30 0 -30 -26v-1q0 -26 30 -26h58q30 0 30 26zM115 496l-16 -296h32z" />
    <glyph glyph-name="AE" unicode="&#xc6;" horiz-adv-x="314" 
d="M68 700h239v-87h-78v-215h75v-87h-75v-224h79v-87h-181v115h-32l-9 -115h-88zM99 200h28v348z" />
    <glyph glyph-name="Ccedilla" unicode="&#xc7;" horiz-adv-x="242" 
d="M133 328h101v-242q0 -87 -85 -90l-12 -69h-82l35 69q-82 4 -82 90v528q0 90 90 90h46q89 0 89 -90v-222h-101v220q0 8 -8 8h-6q-8 0 -8 -8v-524q0 -8 8 -8h7q8 0 8 8v240z" />
    <glyph glyph-name="Egrave" unicode="&#xc8;" horiz-adv-x="196" 
d="M9 700h180v-87h-78v-215h75v-87h-75v-224h79v-87h-181v700zM108 788l30 -68h-75l-54 68h99z" />
    <glyph glyph-name="Eacute" unicode="&#xc9;" horiz-adv-x="196" 
d="M9 700h180v-87h-78v-215h75v-87h-75v-224h79v-87h-181v700zM62 720l30 68h99l-54 -68h-75z" />
    <glyph glyph-name="Ecircumflex" unicode="&#xca;" horiz-adv-x="196" 
d="M9 700h180v-87h-78v-215h75v-87h-75v-224h79v-87h-181v700zM143 793l42 -73h-63l-22 20l-22 -20h-63l42 73h86z" />
    <glyph glyph-name="Edieresis" unicode="&#xcb;" horiz-adv-x="196" 
d="M9 700h180v-87h-78v-215h75v-87h-75v-224h79v-87h-181v700zM106 720v68h73v-68h-73zM94 788v-68h-73v68h73z" />
    <glyph glyph-name="Igrave" unicode="&#xcc;" horiz-adv-x="120" 
d="M111 700v-700h-102v700h102zM68 788l30 -68h-75l-54 68h99z" />
    <glyph glyph-name="Iacute" unicode="&#xcd;" horiz-adv-x="120" 
d="M111 700v-700h-102v700h102zM22 720l30 68h99l-54 -68h-75z" />
    <glyph glyph-name="Icircumflex" unicode="&#xce;" horiz-adv-x="120" 
d="M111 700v-700h-102v700h102zM103 793l42 -73h-63l-22 20l-22 -20h-63l42 73h86z" />
    <glyph glyph-name="Idieresis" unicode="&#xcf;" horiz-adv-x="120" 
d="M111 700v-700h-102v700h102zM66 720v68h73v-68h-73zM54 788v-68h-73v68h73z" />
    <glyph glyph-name="Eth" unicode="&#xd0;" horiz-adv-x="249" 
d="M15 0v316h-15v78h15v306h124q102 0 102 -102v-496q0 -102 -102 -102h-124zM117 616v-222h14v-78h-14v-232h11q11 0 11 12v509q0 11 -11 11h-11z" />
    <glyph glyph-name="Ntilde" unicode="&#xd1;" horiz-adv-x="235" 
d="M134 0l-47 341l7 -341h-85v700h97l43 -327l-8 327h85v-700h-92zM69 794h13q16 0 32 -8l9 -5q14 -8 18 -8h1q4 0 4 5v16h57v-37q0 -37 -36 -37h-13q-16 0 -32 8l-9 5q-14 8 -18 8h-1q-4 0 -4 -5v-16h-57v37q0 37 36 37z" />
    <glyph glyph-name="Ograve" unicode="&#xd2;" horiz-adv-x="244" 
d="M236 86q0 -90 -90 -90h-48q-90 0 -90 90v528q0 90 90 90h48q90 0 90 -90v-528zM134 612q0 8 -8 8h-8q-8 0 -8 -8v-524q0 -8 8 -8h8q8 0 8 8v524zM130 788l30 -68h-75l-54 68h99z" />
    <glyph glyph-name="Oacute" unicode="&#xd3;" horiz-adv-x="244" 
d="M236 86q0 -90 -90 -90h-48q-90 0 -90 90v528q0 90 90 90h48q90 0 90 -90v-528zM134 612q0 8 -8 8h-8q-8 0 -8 -8v-524q0 -8 8 -8h8q8 0 8 8v524zM84 720l30 68h99l-54 -68h-75z" />
    <glyph glyph-name="Ocircumflex" unicode="&#xd4;" horiz-adv-x="244" 
d="M236 86q0 -90 -90 -90h-48q-90 0 -90 90v528q0 90 90 90h48q90 0 90 -90v-528zM134 612q0 8 -8 8h-8q-8 0 -8 -8v-524q0 -8 8 -8h8q8 0 8 8v524zM165 793l42 -73h-63l-22 20l-22 -20h-63l42 73h86z" />
    <glyph glyph-name="Otilde" unicode="&#xd5;" horiz-adv-x="244" 
d="M236 86q0 -90 -90 -90h-48q-90 0 -90 90v528q0 90 90 90h48q90 0 90 -90v-528zM134 612q0 8 -8 8h-8q-8 0 -8 -8v-524q0 -8 8 -8h8q8 0 8 8v524zM73 794h13q16 0 32 -8l9 -5q14 -8 18 -8h1q4 0 4 5v16h57v-37q0 -37 -36 -37h-13q-16 0 -32 8l-9 5q-14 8 -18 8h-1
q-4 0 -4 -5v-16h-57v37q0 37 36 37z" />
    <glyph glyph-name="Odieresis" unicode="&#xd6;" horiz-adv-x="244" 
d="M236 86q0 -90 -90 -90h-48q-90 0 -90 90v528q0 90 90 90h48q90 0 90 -90v-528zM134 612q0 8 -8 8h-8q-8 0 -8 -8v-524q0 -8 8 -8h8q8 0 8 8v524zM128 720v68h73v-68h-73zM116 788v-68h-73v68h73z" />
    <glyph glyph-name="multiply" unicode="&#xd7;" horiz-adv-x="205" 
d="M148 258l-47 47l-47 -47l-50 50l47 47l-47 48l52 51l47 -47l48 47l50 -49l-48 -48l48 -47z" />
    <glyph glyph-name="Oslash" unicode="&#xd8;" horiz-adv-x="244" 
d="M236 86q0 -90 -90 -90h-48q-90 0 -90 90v530q0 90 90 90h48q90 0 90 -90v-530zM109 614l-1 -281l27 225v56q0 8 -8 8h-10q-8 0 -8 -8zM134 88l2 279l-27 -222v-57q0 -8 8 -8h9q8 0 8 8z" />
    <glyph glyph-name="Ugrave" unicode="&#xd9;" horiz-adv-x="244" 
d="M235 700v-614q0 -90 -90 -90h-46q-90 0 -90 90v614h102v-612q0 -8 8 -8h6q8 0 8 8v612h102zM130 788l30 -68h-75l-54 68h99z" />
    <glyph glyph-name="Uacute" unicode="&#xda;" horiz-adv-x="244" 
d="M235 700v-614q0 -90 -90 -90h-46q-90 0 -90 90v614h102v-612q0 -8 8 -8h6q8 0 8 8v612h102zM84 720l30 68h99l-54 -68h-75z" />
    <glyph glyph-name="Ucircumflex" unicode="&#xdb;" horiz-adv-x="244" 
d="M235 700v-614q0 -90 -90 -90h-46q-90 0 -90 90v614h102v-612q0 -8 8 -8h6q8 0 8 8v612h102zM165 793l42 -73h-63l-22 20l-22 -20h-63l42 73h86z" />
    <glyph glyph-name="Udieresis" unicode="&#xdc;" horiz-adv-x="244" 
d="M235 700v-614q0 -90 -90 -90h-46q-90 0 -90 90v614h102v-612q0 -8 8 -8h6q8 0 8 8v612h102zM128 720v68h73v-68h-73zM116 788v-68h-73v68h73z" />
    <glyph glyph-name="Yacute" unicode="&#xdd;" horiz-adv-x="232" 
d="M167 0h-102v223l-68 477h106l18 -257l22 257h92l-68 -477v-223zM85 720l30 68h99l-54 -68h-75z" />
    <glyph glyph-name="Thorn" unicode="&#xde;" horiz-adv-x="238" 
d="M111 75v-75h-102v700h102v-75h31q90 0 90 -90v-370q0 -90 -90 -90h-31zM132 533q0 8 -8 8h-13v-382h13q8 0 8 8v366z" />
    <glyph glyph-name="germandbls" unicode="&#xdf;" 
d="M220 300v-217q0 -83 -83 -83h-28v80h10q7 0 7 8v224q0 7 -8 7h-9v81h8q8 0 8 8v210q0 8 -8 8h-8q-8 0 -8 -8v-618h-94v617q0 89 89 89h34q88 0 88 -89v-181q0 -31 -7.5 -46.5t-26.5 -25.5q20 -9 28 -22.5t8 -41.5z" />
    <glyph glyph-name="agrave" unicode="&#xe0;" horiz-adv-x="221" 
d="M8 53v210q0 29 10.5 43t38.5 24l61 22v157q0 7 -6 7h-6q-6 0 -6 -7v-153h-88v158q0 80 79 80h43q79 0 79 -80v-514h-93v22q-28 -26 -60 -26q-52 0 -52 57zM127 690l27 -80h-75l-51 80h99zM108 74q4 0 10 2v201l-10 -4q-10 -6 -10 -18v-172q0 -9 10 -9z" />
    <glyph glyph-name="aacute" unicode="&#xe1;" horiz-adv-x="221" 
d="M8 53v210q0 29 10.5 43t38.5 24l61 22v157q0 7 -6 7h-6q-6 0 -6 -7v-153h-88v158q0 80 79 80h43q79 0 79 -80v-514h-93v22q-28 -26 -60 -26q-52 0 -52 57zM78 610l27 80h99l-51 -80h-75zM108 74q4 0 10 2v201l-10 -4q-10 -6 -10 -18v-172q0 -9 10 -9z" />
    <glyph glyph-name="acircumflex" unicode="&#xe2;" horiz-adv-x="221" 
d="M8 53v210q0 29 10.5 43t38.5 24l61 22v157q0 7 -6 7h-6q-6 0 -6 -7v-153h-88v158q0 80 79 80h43q79 0 79 -80v-514h-93v22q-28 -26 -60 -26q-52 0 -52 57zM159 690l42 -80h-63l-22 26l-22 -26h-63l42 80h86zM108 74q4 0 10 2v201l-10 -4q-10 -6 -10 -18v-172q0 -9 10 -9z
" />
    <glyph glyph-name="atilde" unicode="&#xe3;" horiz-adv-x="221" 
d="M8 53v210q0 29 10.5 43t38.5 24l61 22v157q0 7 -6 7h-6q-6 0 -6 -7v-153h-88v158q0 80 79 80h43q79 0 79 -80v-514h-93v22q-28 -26 -60 -26q-52 0 -52 57zM68 690h4q22 0 37 -7l20 -11q8 -4 10 -4q4 0 4 5v17h57v-43q0 -37 -36 -37h-4q-23 0 -37 7l-20 11q-8 4 -10 4
q-4 0 -4 -5v-17h-57v43q0 37 36 37zM108 74q4 0 10 2v201l-10 -4q-10 -6 -10 -18v-172q0 -9 10 -9z" />
    <glyph glyph-name="adieresis" unicode="&#xe4;" horiz-adv-x="221" 
d="M8 53v210q0 29 10.5 43t38.5 24l61 22v157q0 7 -6 7h-6q-6 0 -6 -7v-153h-88v158q0 80 79 80h43q79 0 79 -80v-514h-93v22q-28 -26 -60 -26q-52 0 -52 57zM110 690v-80h-72v80h72zM122 610v80h72v-80h-72zM108 74q4 0 10 2v201l-10 -4q-10 -6 -10 -18v-172q0 -9 10 -9z
" />
    <glyph glyph-name="aring" unicode="&#xe5;" horiz-adv-x="221" 
d="M8 53v210q0 29 10.5 43t38.5 24l61 22v157q0 7 -6 7h-6q-6 0 -6 -7v-153h-88v158q0 80 79 80h43q79 0 79 -80v-514h-93v22q-28 -26 -60 -26q-52 0 -52 57zM178 653v-6q0 -39 -46 -39h-32q-46 0 -46 39v6q0 39 46 39h32q46 0 46 -39zM163 647v6q0 25 -31 25h-32
q-31 0 -31 -25v-6q0 -26 31 -26h32q31 0 31 26zM108 74q4 0 10 2v201l-10 -4q-10 -6 -10 -18v-172q0 -9 10 -9z" />
    <glyph glyph-name="ae" unicode="&#xe6;" horiz-adv-x="334" 
d="M211 594h32q83 0 83 -83v-256h-113v-173q0 -7 7 -7h7q6 0 6 7v129h93v-132q0 -83 -83 -83h-42q-47 0 -69 29l-7 -6q-27 -23 -65 -23q-52 0 -52 57v210q0 29 10.5 43t38.5 24l61 22v157q0 7 -6 7h-6q-6 0 -6 -7v-153h-88v158q0 80 79 80h32q30 0 44 -16q13 16 44 16z
M108 74q4 0 10 2v201l-10 -4q-10 -6 -10 -18v-172q0 -9 10 -9zM213 508v-181h19v181q0 7 -6 7h-6q-7 0 -7 -7z" />
    <glyph glyph-name="ccedilla" unicode="&#xe7;" horiz-adv-x="225" 
d="M123 334v173q0 6 -6 6h-6q-7 0 -7 -6v-424q0 -6 7 -6h6q6 0 6 6v181h94v-185q0 -79 -75 -83l-12 -69h-82l35 69q-75 4 -75 83v432q0 83 83 83h43q83 0 83 -83v-177h-94z" />
    <glyph glyph-name="egrave" unicode="&#xe8;" horiz-adv-x="224" 
d="M216 255h-113v-173q0 -7 7 -7h7q6 0 6 7v129h93v-132q0 -83 -83 -83h-42q-83 0 -83 83v432q0 83 83 83h42q83 0 83 -83v-256zM123 690l27 -80h-75l-51 80h99zM103 508v-181h19v181q0 7 -6 7h-6q-7 0 -7 -7z" />
    <glyph glyph-name="eacute" unicode="&#xe9;" horiz-adv-x="224" 
d="M216 255h-113v-173q0 -7 7 -7h7q6 0 6 7v129h93v-132q0 -83 -83 -83h-42q-83 0 -83 83v432q0 83 83 83h42q83 0 83 -83v-256zM74 610l27 80h99l-51 -80h-75zM103 508v-181h19v181q0 7 -6 7h-6q-7 0 -7 -7z" />
    <glyph glyph-name="ecircumflex" unicode="&#xea;" horiz-adv-x="224" 
d="M216 255h-113v-173q0 -7 7 -7h7q6 0 6 7v129h93v-132q0 -83 -83 -83h-42q-83 0 -83 83v432q0 83 83 83h42q83 0 83 -83v-256zM155 690l42 -80h-63l-22 26l-22 -26h-63l42 80h86zM103 508v-181h19v181q0 7 -6 7h-6q-7 0 -7 -7z" />
    <glyph glyph-name="edieresis" unicode="&#xeb;" horiz-adv-x="224" 
d="M216 255h-113v-173q0 -7 7 -7h7q6 0 6 7v129h93v-132q0 -83 -83 -83h-42q-83 0 -83 83v432q0 83 83 83h42q83 0 83 -83v-256zM106 690v-80h-72v80h72zM118 610v80h72v-80h-72zM103 508v-181h19v181q0 7 -6 7h-6q-7 0 -7 -7z" />
    <glyph glyph-name="igrave" unicode="&#xec;" horiz-adv-x="112" 
d="M8 0v591h96v-591h-96zM67 690l27 -80h-75l-51 80h99z" />
    <glyph glyph-name="iacute" unicode="&#xed;" horiz-adv-x="112" 
d="M8 0v591h96v-591h-96zM18 610l27 80h99l-51 -80h-75z" />
    <glyph glyph-name="icircumflex" unicode="&#xee;" horiz-adv-x="112" 
d="M8 0v591h96v-591h-96zM99 690l42 -80h-63l-22 26l-22 -26h-63l42 80h86z" />
    <glyph glyph-name="idieresis" unicode="&#xef;" horiz-adv-x="112" 
d="M8 0v591h96v-591h-96zM62 610v80h72v-80h-72zM50 690v-80h-72v80h72z" />
    <glyph glyph-name="eth" unicode="&#xf0;" horiz-adv-x="226" 
d="M218 700l-25 -41q25 -18 25 -55v-525q0 -83 -82 -83h-46q-83 0 -83 83v448q0 63 56 63h1q37 0 66 -32v21q0 20 -21 29l-52 22l37 73l47 -20l10 17h67zM116 511h-6q-7 0 -7 -7v-421q0 -6 7 -6h6q6 0 6 6v421q0 7 -6 7z" />
    <glyph glyph-name="ntilde" unicode="&#xf1;" 
d="M8 0v590h95v-20q31 24 61 24q55 0 55 -63v-531h-96v502q0 9 -9 9q-2 0 -10 -2v-509h-96zM66 690h4q22 0 37 -7l20 -11q8 -4 10 -4q4 0 4 5v17h57v-43q0 -37 -36 -37h-4q-23 0 -37 7l-20 11q-8 4 -10 4q-4 0 -4 -5v-17h-57v43q0 37 36 37z" />
    <glyph glyph-name="ograve" unicode="&#xf2;" 
d="M117 513h-6q-7 0 -7 -6v-424q0 -6 7 -6h6q6 0 6 6v424q0 6 -6 6zM137 -4h-46q-83 0 -83 83v432q0 83 83 83h46q82 0 82 -83v-432q0 -83 -82 -83zM125 690l27 -80h-75l-51 80h99z" />
    <glyph glyph-name="oacute" unicode="&#xf3;" 
d="M117 513h-6q-7 0 -7 -6v-424q0 -6 7 -6h6q6 0 6 6v424q0 6 -6 6zM137 -4h-46q-83 0 -83 83v432q0 83 83 83h46q82 0 82 -83v-432q0 -83 -82 -83zM76 610l27 80h99l-51 -80h-75z" />
    <glyph glyph-name="ocircumflex" unicode="&#xf4;" 
d="M117 513h-6q-7 0 -7 -6v-424q0 -6 7 -6h6q6 0 6 6v424q0 6 -6 6zM137 -4h-46q-83 0 -83 83v432q0 83 83 83h46q82 0 82 -83v-432q0 -83 -82 -83zM157 690l42 -80h-63l-22 26l-22 -26h-63l42 80h86z" />
    <glyph glyph-name="otilde" unicode="&#xf5;" 
d="M137 -4h-46q-83 0 -83 83v432q0 83 83 83h46q82 0 82 -83v-432q0 -83 -82 -83zM66 690h4q22 0 37 -7l20 -11q8 -4 10 -4q4 0 4 5v17h57v-43q0 -37 -36 -37h-4q-23 0 -37 7l-20 11q-8 4 -10 4q-4 0 -4 -5v-17h-57v43q0 37 36 37zM117 513h-6q-7 0 -7 -6v-424q0 -6 7 -6h6
q6 0 6 6v424q0 6 -6 6z" />
    <glyph glyph-name="odieresis" unicode="&#xf6;" 
d="M117 513h-6q-7 0 -7 -6v-424q0 -6 7 -6h6q6 0 6 6v424q0 6 -6 6zM137 -4h-46q-83 0 -83 83v432q0 83 83 83h46q82 0 82 -83v-432q0 -83 -82 -83zM120 610v80h72v-80h-72zM108 690v-80h-72v80h72z" />
    <glyph glyph-name="divide" unicode="&#xf7;" horiz-adv-x="201" 
d="M4 391h193v-70h-193v70zM65 405v64h71v-64h-71zM65 243v65h71v-65h-71z" />
    <glyph glyph-name="oslash" unicode="&#xf8;" 
d="M137 -4h-46q-83 0 -83 83v432q0 83 83 83h46q82 0 82 -83v-432q0 -83 -82 -83zM118 76q7 0 7 7l1 221l-22 -163v-58q0 -7 7 -7h7zM117 514h-7q-6 0 -6 -7l-2 -220l22 163v57q0 7 -7 7z" />
    <glyph glyph-name="ugrave" unicode="&#xf9;" 
d="M219 590v-590h-94v20q-31 -24 -61 -24q-56 0 -56 63v531h96v-502q0 -9 9 -9q4 0 10 2v509h96zM125 690l27 -80h-75l-51 80h99z" />
    <glyph glyph-name="uacute" unicode="&#xfa;" 
d="M219 590v-590h-94v20q-31 -24 -61 -24q-56 0 -56 63v531h96v-502q0 -9 9 -9q4 0 10 2v509h96zM76 610l27 80h99l-51 -80h-75z" />
    <glyph glyph-name="ucircumflex" unicode="&#xfb;" 
d="M219 590v-590h-94v20q-31 -24 -61 -24q-56 0 -56 63v531h96v-502q0 -9 9 -9q4 0 10 2v509h96zM157 690l42 -80h-63l-22 26l-22 -26h-63l42 80h86z" />
    <glyph glyph-name="udieresis" unicode="&#xfc;" 
d="M219 590v-590h-94v20q-31 -24 -61 -24q-56 0 -56 63v531h96v-502q0 -9 9 -9q4 0 10 2v509h96zM108 690v-80h-72v80h72zM120 610v80h72v-80h-72z" />
    <glyph glyph-name="yacute" unicode="&#xfd;" horiz-adv-x="230" 
d="M152 -81h-91l14 112l-74 559h96l8 -118q5 -60 12 -191h2q4 91 11 191l8 118h92zM79 610l27 80h99l-51 -80h-75z" />
    <glyph glyph-name="thorn" unicode="&#xfe;" 
d="M8 700h96v-134q31 24 60 24q55 0 55 -63v-468q0 -63 -55 -63q-29 0 -60 23v-85h-96v766zM104 505v-424q8 -2 10 -2q9 0 9 9v410q0 9 -9 9q-2 0 -10 -2z" />
    <glyph glyph-name="ydieresis" unicode="&#xff;" horiz-adv-x="230" 
d="M152 -81h-91l14 112l-74 559h96l8 -118q5 -60 12 -191h2q4 91 11 191l8 118h92zM123 610v80h72v-80h-72zM111 690v-80h-72v80h72z" />
    <glyph glyph-name="Amacron" unicode="&#x100;" horiz-adv-x="243" 
d="M187 700l55 -700h-100l-6 115h-41l-6 -115h-88l55 700h131zM46 782h152v-58h-152v58zM115 501l-16 -301h32z" />
    <glyph glyph-name="amacron" unicode="&#x101;" horiz-adv-x="221" 
d="M8 53v210q0 29 10.5 43t38.5 24l61 22v157q0 7 -6 7h-6q-6 0 -6 -7v-153h-88v158q0 80 79 80h43q79 0 79 -80v-514h-93v22q-28 -26 -60 -26q-52 0 -52 57zM40 678h152v-64h-152v64zM108 74q4 0 10 2v201l-10 -4q-10 -6 -10 -18v-172q0 -9 10 -9z" />
    <glyph glyph-name="Abreve" unicode="&#x102;" horiz-adv-x="243" 
d="M187 700l55 -700h-100l-6 115h-41l-6 -115h-88l55 700h131zM45 775v18h61v-13q0 -9 9 -9h14q9 0 9 9v13h61v-18q0 -57 -56 -57h-42q-56 0 -56 57zM115 501l-16 -301h32z" />
    <glyph glyph-name="abreve" unicode="&#x103;" horiz-adv-x="221" 
d="M8 53v210q0 29 10.5 43t38.5 24l61 22v157q0 7 -6 7h-6q-6 0 -6 -7v-153h-88v158q0 80 79 80h43q79 0 79 -80v-514h-93v22q-28 -26 -60 -26q-52 0 -52 57zM40 665v25h61v-18q0 -9 9 -9h12q9 0 9 9v18h61v-25q0 -57 -56 -57h-40q-56 0 -56 57zM108 74q4 0 10 2v201l-10 -4
q-10 -6 -10 -18v-172q0 -9 10 -9z" />
    <glyph glyph-name="Aogonek" unicode="&#x104;" horiz-adv-x="243" 
d="M187 700l55 -700h-15l-6 -10q-7 -11 -7 -20v-3q0 -7 8 -7h16v-49h-53q-37 0 -37 35v7q0 24 15 47h-21l-6 115h-41l-6 -115h-88l55 700h131zM115 501l-16 -301h32z" />
    <glyph glyph-name="aogonek" unicode="&#x105;" horiz-adv-x="221" 
d="M8 53v210q0 29 10.5 43t38.5 24l61 22v157q0 7 -6 7h-6q-6 0 -6 -7v-153h-88v158q0 80 79 80h43q79 0 79 -80v-514h-14l-6 -10q-7 -11 -7 -20v-3q0 -7 8 -7h16v-49h-53q-37 0 -37 35v7q0 24 15 47h-15v22q-28 -26 -60 -26q-52 0 -52 57zM108 74q4 0 10 2v201l-10 -4
q-10 -6 -10 -18v-172q0 -9 10 -9z" />
    <glyph glyph-name="Cacute" unicode="&#x106;" horiz-adv-x="242" 
d="M133 328h101v-242q0 -90 -90 -90h-46q-90 0 -90 90v528q0 90 90 90h46q89 0 89 -90v-222h-101v220q0 8 -8 8h-6q-8 0 -8 -8v-524q0 -8 8 -8h7q8 0 8 8v240zM83 720l30 68h99l-54 -68h-75z" />
    <glyph glyph-name="cacute" unicode="&#x107;" horiz-adv-x="225" 
d="M123 334v173q0 6 -6 6h-6q-7 0 -7 -6v-424q0 -6 7 -6h6q6 0 6 6v181h94v-185q0 -83 -83 -83h-43q-83 0 -83 83v432q0 83 83 83h43q83 0 83 -83v-177h-94zM75 610l27 80h99l-51 -80h-75z" />
    <glyph glyph-name="Cdotaccent" unicode="&#x10a;" horiz-adv-x="242" 
d="M133 328h101v-242q0 -90 -90 -90h-46q-90 0 -90 90v528q0 90 90 90h46q89 0 89 -90v-222h-101v220q0 8 -8 8h-6q-8 0 -8 -8v-524q0 -8 8 -8h7q8 0 8 8v240zM162 779v-59h-82v59h82z" />
    <glyph glyph-name="cdotaccent" unicode="&#x10b;" horiz-adv-x="225" 
d="M123 334v173q0 6 -6 6h-6q-7 0 -7 -6v-424q0 -6 7 -6h6q6 0 6 6v181h94v-185q0 -83 -83 -83h-43q-83 0 -83 83v432q0 83 83 83h43q83 0 83 -83v-177h-94zM154 681v-71h-82v71h82z" />
    <glyph glyph-name="Ccaron" unicode="&#x10c;" horiz-adv-x="242" 
d="M133 328h101v-242q0 -90 -90 -90h-46q-90 0 -90 90v528q0 90 90 90h46q89 0 89 -90v-222h-101v220q0 8 -8 8h-6q-8 0 -8 -8v-524q0 -8 8 -8h7q8 0 8 8v240zM206 793l-42 -73h-86l-42 73h63l22 -21l22 21h63z" />
    <glyph glyph-name="ccaron" unicode="&#x10d;" horiz-adv-x="225" 
d="M123 334v173q0 6 -6 6h-6q-7 0 -7 -6v-424q0 -6 7 -6h6q6 0 6 6v181h94v-185q0 -83 -83 -83h-43q-83 0 -83 83v432q0 83 83 83h43q83 0 83 -83v-177h-94zM198 690l-42 -80h-86l-42 80h63l22 -26l22 26h63z" />
    <glyph glyph-name="Dcaron" unicode="&#x10e;" horiz-adv-x="243" 
d="M9 0v700h124q102 0 102 -102v-496q0 -102 -102 -102h-124zM111 616v-532h11q11 0 11 12v509q0 11 -11 11h-11zM202 793l-42 -73h-86l-42 73h63l22 -21l22 21h63z" />
    <glyph glyph-name="dcaron" unicode="&#x10f;" horiz-adv-x="226" 
d="M218 700v-700h-94v20q-31 -24 -61 -24q-56 0 -56 63v472q0 63 56 63q29 0 59 -23v129h96zM122 81v428q-6 2 -10 2q-9 0 -9 -9v-414q0 -9 9 -9q4 0 10 2zM231 602v98h77l-22 -98h-55z" />
    <glyph glyph-name="Dcroat" unicode="&#x110;" horiz-adv-x="249" 
d="M15 0v316h-15v78h15v306h124q102 0 102 -102v-496q0 -102 -102 -102h-124zM117 616v-222h14v-78h-14v-232h11q11 0 11 12v509q0 11 -11 11h-11z" />
    <glyph glyph-name="dcroat" unicode="&#x111;" horiz-adv-x="226" 
d="M218 700v-37h23v-62h-23v-601h-94v20q-31 -24 -61 -24q-56 0 -56 63v472q0 63 56 63q29 0 59 -23v36h-40v56h40v37h96zM122 81v428q-6 2 -10 2q-9 0 -9 -9v-414q0 -9 9 -9q4 0 10 2z" />
    <glyph glyph-name="Emacron" unicode="&#x112;" horiz-adv-x="196" 
d="M9 700h180v-87h-78v-215h75v-87h-75v-224h79v-87h-181v700zM24 782h152v-58h-152v58z" />
    <glyph glyph-name="emacron" unicode="&#x113;" horiz-adv-x="224" 
d="M216 255h-113v-173q0 -7 7 -7h7q6 0 6 7v129h93v-132q0 -83 -83 -83h-42q-83 0 -83 83v432q0 83 83 83h42q83 0 83 -83v-256zM36 678h152v-64h-152v64zM103 508v-181h19v181q0 7 -6 7h-6q-7 0 -7 -7z" />
    <glyph glyph-name="Ebreve" unicode="&#x114;" horiz-adv-x="196" 
d="M9 700h180v-87h-78v-215h75v-87h-75v-224h79v-87h-181v700zM23 775v18h61v-13q0 -9 9 -9h14q9 0 9 9v13h61v-18q0 -57 -56 -57h-42q-56 0 -56 57z" />
    <glyph glyph-name="ebreve" unicode="&#x115;" horiz-adv-x="224" 
d="M216 255h-113v-173q0 -7 7 -7h7q6 0 6 7v129h93v-132q0 -83 -83 -83h-42q-83 0 -83 83v432q0 83 83 83h42q83 0 83 -83v-256zM36 665v25h61v-18q0 -9 9 -9h12q9 0 9 9v18h61v-25q0 -57 -56 -57h-40q-56 0 -56 57zM103 508v-181h19v181q0 7 -6 7h-6q-7 0 -7 -7z" />
    <glyph glyph-name="Edotaccent" unicode="&#x116;" horiz-adv-x="196" 
d="M9 700h180v-87h-78v-215h75v-87h-75v-224h79v-87h-181v700zM141 779v-59h-82v59h82z" />
    <glyph glyph-name="edotaccent" unicode="&#x117;" horiz-adv-x="224" 
d="M216 255h-113v-173q0 -7 7 -7h7q6 0 6 7v129h93v-132q0 -83 -83 -83h-42q-83 0 -83 83v432q0 83 83 83h42q83 0 83 -83v-256zM153 681v-71h-82v71h82zM103 508v-181h19v181q0 7 -6 7h-6q-7 0 -7 -7z" />
    <glyph glyph-name="Eogonek" unicode="&#x118;" horiz-adv-x="196" 
d="M9 700h180v-87h-78v-215h75v-87h-75v-224h79v-87h-12l-6 -10q-7 -11 -7 -20v-3q0 -7 8 -7h16v-49h-53q-37 0 -37 35v7q0 24 15 47h-105v700z" />
    <glyph glyph-name="eogonek" unicode="&#x119;" horiz-adv-x="224" 
d="M216 255h-113v-173q0 -7 7 -7h7q6 0 6 7v129h93v-132q0 -24 -7 -40l-19 -47q-5 -11 -5 -26q0 -6 6 -6h18v-49h-53q-37 0 -37 35v10q0 24 11 40h-39q-83 0 -83 83v432q0 83 83 83h42q83 0 83 -83v-256zM103 508v-181h19v181q0 7 -6 7h-6q-7 0 -7 -7z" />
    <glyph glyph-name="Ecaron" unicode="&#x11a;" horiz-adv-x="196" 
d="M9 700h180v-87h-78v-215h75v-87h-75v-224h79v-87h-181v700zM185 793l-42 -73h-86l-42 73h63l22 -21l22 21h63z" />
    <glyph glyph-name="ecaron" unicode="&#x11b;" horiz-adv-x="224" 
d="M216 255h-113v-173q0 -7 7 -7h7q6 0 6 7v129h93v-132q0 -83 -83 -83h-42q-83 0 -83 83v432q0 83 83 83h42q83 0 83 -83v-256zM197 690l-42 -80h-86l-42 80h63l22 -26l22 26h63zM103 508v-181h19v181q0 7 -6 7h-6q-7 0 -7 -7z" />
    <glyph glyph-name="Gbreve" unicode="&#x11e;" horiz-adv-x="244" 
d="M135 313h-14v82h115v-309q0 -90 -90 -90h-48q-90 0 -90 90v528q0 90 90 90h47q90 0 90 -90v-182h-101v180q0 8 -9 8h-7q-8 0 -8 -8v-523q0 -9 8 -9h9q8 0 8 8v225zM45 775v18h61v-13q0 -9 9 -9h14q9 0 9 9v13h61v-18q0 -57 -56 -57h-42q-56 0 -56 57z" />
    <glyph glyph-name="gbreve" unicode="&#x11f;" 
d="M219 590v-601q0 -73 -73 -73h-65q-37 0 -54 16.5t-17 52.5v36h88v-29q0 -9 9 -9h9q9 0 9 9v62q-29 -23 -61 -23q-56 0 -56 63v437q0 63 56 63q30 0 61 -23v19h94zM38 665v25h61v-18q0 -9 9 -9h12q9 0 9 9v18h61v-25q0 -57 -56 -57h-40q-56 0 -56 57zM123 114v395
q-6 2 -10 2q-9 0 -9 -9v-381q0 -9 9 -9q4 0 10 2z" />
    <glyph glyph-name="Gdotaccent" unicode="&#x120;" horiz-adv-x="244" 
d="M135 313h-14v82h115v-309q0 -90 -90 -90h-48q-90 0 -90 90v528q0 90 90 90h47q90 0 90 -90v-182h-101v180q0 8 -9 8h-7q-8 0 -8 -8v-523q0 -9 8 -9h9q8 0 8 8v225zM163 779v-59h-82v59h82z" />
    <glyph glyph-name="gdotaccent" unicode="&#x121;" 
d="M219 590v-601q0 -73 -73 -73h-65q-37 0 -54 16.5t-17 52.5v36h88v-29q0 -9 9 -9h9q9 0 9 9v62q-29 -23 -61 -23q-56 0 -56 63v437q0 63 56 63q30 0 61 -23v19h94zM123 114v395q-6 2 -10 2q-9 0 -9 -9v-381q0 -9 9 -9q4 0 10 2zM155 681v-71h-82v71h82z" />
    <glyph glyph-name="Gcommaaccent" unicode="&#x122;" horiz-adv-x="244" 
d="M88 -42v22h68v-17q0 -53 -38 -83h-59q29 35 29 78zM135 313h-14v82h115v-309q0 -90 -90 -90h-48q-90 0 -90 90v528q0 90 90 90h47q90 0 90 -90v-182h-101v180q0 8 -9 8h-7q-8 0 -8 -8v-523q0 -9 8 -9h9q8 0 8 8v225z" />
    <glyph glyph-name="gcommaaccent" unicode="&#x123;" 
d="M219 590v-601q0 -73 -73 -73h-65q-37 0 -54 16.5t-17 52.5v36h88v-29q0 -9 9 -9h9q9 0 9 9v62q-29 -23 -61 -23q-56 0 -56 63v437q0 63 56 63q30 0 61 -23v19h94zM123 114v395q-6 2 -10 2q-9 0 -9 -9v-381q0 -9 9 -9q4 0 10 2zM146 634v-22h-68v17q0 53 38 83h59
q-29 -35 -29 -78z" />
    <glyph glyph-name="Hbar" unicode="&#x126;" horiz-adv-x="257" 
d="M0 520v78h15v102h102v-111h23v111h102v-102h15v-78h-15v-520h-102v311h-23v-311h-102v520h-15zM117 398h23v131h-23v-131z" />
    <glyph glyph-name="hbar" unicode="&#x127;" 
d="M8 0v601h-21v62h21v37h96v-37h42v-56h-42v-37q31 24 60 24q55 0 55 -63v-531h-96v502q0 9 -9 9q-2 0 -10 -2v-509h-96z" />
    <glyph glyph-name="Imacron" unicode="&#x12a;" horiz-adv-x="120" 
d="M111 700v-700h-102v700h102zM-16 782h152v-58h-152v58z" />
    <glyph glyph-name="imacron" unicode="&#x12b;" horiz-adv-x="112" 
d="M8 0v591h96v-591h-96zM-20 678h152v-64h-152v64z" />
    <glyph glyph-name="Ibreve" unicode="&#x12c;" horiz-adv-x="120" 
d="M111 700v-700h-102v700h102zM-17 775v18h61v-13q0 -9 9 -9h14q9 0 9 9v13h61v-18q0 -57 -56 -57h-42q-56 0 -56 57z" />
    <glyph glyph-name="ibreve" unicode="&#x12d;" horiz-adv-x="112" 
d="M8 0v591h96v-591h-96zM-20 665v25h61v-18q0 -9 9 -9h12q9 0 9 9v18h61v-25q0 -57 -56 -57h-40q-56 0 -56 57z" />
    <glyph glyph-name="Iogonek" unicode="&#x12e;" horiz-adv-x="120" 
d="M111 700v-700h-16l-6 -10q-7 -11 -7 -20v-3q0 -7 8 -7h16v-49h-53q-37 0 -37 35v7q0 24 15 47h-22v700h102z" />
    <glyph glyph-name="iogonek" unicode="&#x12f;" horiz-adv-x="112" 
d="M8 0v590h96v-590h-15l-6 -10q-7 -11 -7 -20v-3q0 -7 8 -7h16v-49h-53q-37 0 -37 35v7q0 24 15 47h-17zM7 603v71h98v-71h-98z" />
    <glyph glyph-name="Idotaccent" unicode="&#x130;" horiz-adv-x="120" 
d="M111 700v-700h-102v700h102zM101 779v-59h-82v59h82z" />
    <glyph glyph-name="dotlessi" unicode="&#x131;" horiz-adv-x="114" 
d="M9 0v591h96v-591h-96z" />
    <glyph glyph-name="Kcommaaccent" unicode="&#x136;" horiz-adv-x="240" 
d="M241 0h-105l-25 286v-286h-102v700h102v-289l29 289h102l-39 -340zM89 -42v22h68v-17q0 -53 -38 -83h-59q29 35 29 78z" />
    <glyph glyph-name="kcommaaccent" unicode="&#x137;" horiz-adv-x="234" 
d="M134 590h97l-39 -301l42 -289h-100l-30 263v-263h-96v700h96v-392zM84 -42v22h68v-17q0 -53 -38 -83h-59q29 35 29 78z" />
    <glyph glyph-name="Lacute" unicode="&#x139;" horiz-adv-x="185" 
d="M9 700h102v-613h70v-87h-172v700zM22 720l30 68h99l-54 -68h-75z" />
    <glyph glyph-name="lacute" unicode="&#x13a;" horiz-adv-x="112" 
d="M8 0v700h96v-700h-96zM18 720l27 80h99l-51 -80h-75z" />
    <glyph glyph-name="Lcommaaccent" unicode="&#x13b;" horiz-adv-x="185" 
d="M61 -42v22h68v-17q0 -53 -38 -83h-59q29 35 29 78zM9 700h102v-613h70v-87h-172v700z" />
    <glyph glyph-name="lcommaaccent" unicode="&#x13c;" horiz-adv-x="112" 
d="M22 -42v22h68v-17q0 -53 -38 -83h-59q29 35 29 78zM8 0v700h96v-700h-96z" />
    <glyph glyph-name="Lcaron" unicode="&#x13d;" horiz-adv-x="185" 
d="M9 700h102v-613h70v-87h-172v700zM124 602v98h77l-22 -98h-55z" />
    <glyph glyph-name="lcaron" unicode="&#x13e;" horiz-adv-x="112" 
d="M8 0v700h96v-700h-96zM117 602v98h77l-22 -98h-55z" />
    <glyph glyph-name="Ldot" unicode="&#x13f;" horiz-adv-x="185" 
d="M176 401v-91h-52v91h52zM9 700h102v-613h70v-87h-172v700z" />
    <glyph glyph-name="ldot" unicode="&#x140;" horiz-adv-x="172" 
d="M168 401v-91h-52v91h52zM8 0v700h96v-700h-96z" />
    <glyph glyph-name="Lslash" unicode="&#x141;" horiz-adv-x="191" 
d="M15 700h102v-270l41 36v-92l-41 -35v-252h70v-87h-172v260l-15 -13v93l15 12v348z" />
    <glyph glyph-name="lslash" unicode="&#x142;" horiz-adv-x="126" 
d="M15 0v247l-15 -13v89l15 12v365h96v-289l15 13v-89l-15 -13v-322h-96z" />
    <glyph glyph-name="Nacute" unicode="&#x143;" horiz-adv-x="235" 
d="M226 0h-92l-47 341l7 -341h-85v700h97l43 -327l-8 327h85v-700zM80 720l30 68h99l-54 -68h-75z" />
    <glyph glyph-name="nacute" unicode="&#x144;" 
d="M8 0v590h95v-20q31 24 61 24q55 0 55 -63v-531h-96v502q0 9 -9 9q-2 0 -10 -2v-509h-96zM76 610l27 80h99l-51 -80h-75z" />
    <glyph glyph-name="Ncommaaccent" unicode="&#x145;" horiz-adv-x="235" 
d="M134 0l-47 341l7 -341h-85v700h97l43 -327l-8 327h85v-700h-92zM84 -42v22h68v-17q0 -53 -38 -83h-59q29 35 29 78z" />
    <glyph glyph-name="ncommaaccent" unicode="&#x146;" 
d="M8 0v590h95v-20q31 24 61 24q55 0 55 -63v-531h-96v502q0 9 -9 9q-2 0 -10 -2v-509h-96zM80 -42v22h68v-17q0 -53 -38 -83h-59q29 35 29 78z" />
    <glyph glyph-name="Ncaron" unicode="&#x147;" horiz-adv-x="235" 
d="M134 0l-47 341l7 -341h-85v700h97l43 -327l-8 327h85v-700h-92zM203 793l-42 -73h-86l-42 73h63l22 -21l22 21h63z" />
    <glyph glyph-name="ncaron" unicode="&#x148;" 
d="M8 0v590h95v-20q31 24 61 24q55 0 55 -63v-531h-96v502q0 9 -9 9q-2 0 -10 -2v-509h-96zM199 690l-42 -80h-86l-42 80h63l22 -26l22 26h63z" />
    <glyph glyph-name="Omacron" unicode="&#x14c;" horiz-adv-x="244" 
d="M236 86q0 -90 -90 -90h-48q-90 0 -90 90v528q0 90 90 90h48q90 0 90 -90v-528zM134 612q0 8 -8 8h-8q-8 0 -8 -8v-524q0 -8 8 -8h8q8 0 8 8v524zM46 782h152v-58h-152v58z" />
    <glyph glyph-name="omacron" unicode="&#x14d;" 
d="M117 513h-6q-7 0 -7 -6v-424q0 -6 7 -6h6q6 0 6 6v424q0 6 -6 6zM137 -4h-46q-83 0 -83 83v432q0 83 83 83h46q82 0 82 -83v-432q0 -83 -82 -83zM38 678h152v-64h-152v64z" />
    <glyph glyph-name="Obreve" unicode="&#x14e;" horiz-adv-x="244" 
d="M236 86q0 -90 -90 -90h-48q-90 0 -90 90v528q0 90 90 90h48q90 0 90 -90v-528zM134 612q0 8 -8 8h-8q-8 0 -8 -8v-524q0 -8 8 -8h8q8 0 8 8v524zM45 775v18h61v-13q0 -9 9 -9h14q9 0 9 9v13h61v-18q0 -57 -56 -57h-42q-56 0 -56 57z" />
    <glyph glyph-name="obreve" unicode="&#x14f;" 
d="M117 513h-6q-7 0 -7 -6v-424q0 -6 7 -6h6q6 0 6 6v424q0 6 -6 6zM137 -4h-46q-83 0 -83 83v432q0 83 83 83h46q82 0 82 -83v-432q0 -83 -82 -83zM38 665v25h61v-18q0 -9 9 -9h12q9 0 9 9v18h61v-25q0 -57 -56 -57h-40q-56 0 -56 57z" />
    <glyph glyph-name="Ohungarumlaut" unicode="&#x150;" horiz-adv-x="244" 
d="M236 86q0 -90 -90 -90h-48q-90 0 -90 90v528q0 90 90 90h48q90 0 90 -90v-528zM134 612q0 8 -8 8h-8q-8 0 -8 -8v-524q0 -8 8 -8h8q8 0 8 8v524zM133 720l17 46l-36 -46h-52l26 68h150l-53 -68h-52z" />
    <glyph glyph-name="ohungarumlaut" unicode="&#x151;" 
d="M137 -4h-46q-83 0 -83 83v432q0 83 83 83h46q82 0 82 -83v-432q0 -83 -82 -83zM125 610l15 54l-34 -54h-52l23 80h150l-50 -80h-52zM117 513h-6q-7 0 -7 -6v-424q0 -6 7 -6h6q6 0 6 6v424q0 6 -6 6z" />
    <glyph glyph-name="OE" unicode="&#x152;" horiz-adv-x="319" 
d="M312 700v-87h-78v-215h75v-87h-75v-224h79v-87h-215q-90 0 -90 90v520q0 90 90 90h214zM134 84v532h-16q-8 0 -8 -8v-516q0 -8 8 -8h16z" />
    <glyph glyph-name="oe" unicode="&#x153;" horiz-adv-x="338" 
d="M214 594h33q83 0 83 -83v-256h-113v-173q0 -7 7 -7h7q6 0 6 7v129h93v-132q0 -83 -83 -83h-33q-31 0 -44 16q-14 -16 -44 -16h-36q-83 0 -83 83v432q0 83 83 83h36q30 0 44 -16q13 16 44 16zM116 513h-6q-7 0 -7 -6v-424q0 -6 7 -6h6q6 0 6 6v424q0 6 -6 6zM217 508v-181
h19v181q0 7 -6 7h-6q-7 0 -7 -7z" />
    <glyph glyph-name="Racute" unicode="&#x154;" horiz-adv-x="242" 
d="M188 334q47 -11 47 -60v-274h-102v283q0 8 -8 8h-14v-291h-102v700h135q90 0 90 -90v-207q0 -55 -46 -69zM132 607q0 8 -8 8h-13v-241h13q8 0 8 8v225zM84 720l30 68h99l-54 -68h-75z" />
    <glyph glyph-name="racute" unicode="&#x155;" horiz-adv-x="155" 
d="M8 0v590h95v-37q19 40 49 40v-107q-30 -3 -48 -15v-471h-96zM38 610l27 80h99l-51 -80h-75z" />
    <glyph glyph-name="Rcommaaccent" unicode="&#x156;" horiz-adv-x="243" 
d="M88 -42v22h68v-17q0 -53 -38 -83h-59q29 35 29 78zM188 334q47 -11 47 -60v-274h-102v283q0 8 -8 8h-14v-291h-102v700h135q90 0 90 -90v-207q0 -55 -46 -69zM132 607q0 8 -8 8h-13v-241h13q8 0 8 8v225z" />
    <glyph glyph-name="rcommaaccent" unicode="&#x157;" horiz-adv-x="155" 
d="M23 -42v22h68v-17q0 -53 -38 -83h-59q29 35 29 78zM8 0v590h95v-37q19 40 49 40v-107q-30 -3 -48 -15v-471h-96z" />
    <glyph glyph-name="Rcaron" unicode="&#x158;" horiz-adv-x="242" 
d="M188 334q47 -11 47 -60v-274h-102v283q0 8 -8 8h-14v-291h-102v700h135q90 0 90 -90v-207q0 -55 -46 -69zM132 607q0 8 -8 8h-13v-241h13q8 0 8 8v225zM207 793l-42 -73h-86l-42 73h63l22 -21l22 21h63z" />
    <glyph glyph-name="rcaron" unicode="&#x159;" horiz-adv-x="155" 
d="M8 0v590h95v-37q19 40 49 40v-107q-30 -3 -48 -15v-471h-96zM161 690l-42 -80h-86l-42 80h63l22 -26l22 26h63z" />
    <glyph glyph-name="Sacute" unicode="&#x15a;" horiz-adv-x="238" 
d="M193 362q37 -28 37 -80v-196q0 -90 -90 -90h-42q-90 0 -90 90v204h99v-204q0 -7 8 -7h7q8 0 8 7v188q0 10 -9 16l-75 57q-38 29 -38 80v187q0 90 90 90h41q90 0 90 -90v-194h-99v194q0 7 -8 7h-6q-7 0 -7 -7v-179q0 -11 8 -16zM81 720l30 68h99l-54 -68h-75z" />
    <glyph glyph-name="sacute" unicode="&#x15b;" horiz-adv-x="218" 
d="M121 358v150q0 7 -6 7h-8q-6 0 -6 -7v-139q0 -9 10 -17l45 -29q31 -20 42.5 -37.5t11.5 -46.5v-160q0 -83 -82 -83h-37q-83 0 -83 83v160h91v-157q0 -7 6 -7h7q7 0 7 7v144q0 10 -11 18l-45 30q-31 19 -42.5 37t-11.5 45v155q0 83 83 83h37q83 0 83 -83v-153h-91zM71 610
l27 80h99l-51 -80h-75z" />
    <glyph glyph-name="Scedilla" unicode="&#x15e;" horiz-adv-x="238" 
d="M193 362q37 -28 37 -80v-196q0 -86 -83 -90l-12 -69h-82l35 69q-80 4 -80 90v204h99v-204q0 -7 8 -7h7q8 0 8 7v188q0 10 -9 16l-75 57q-38 29 -38 80v187q0 90 90 90h41q90 0 90 -90v-194h-99v194q0 7 -8 7h-6q-7 0 -7 -7v-179q0 -11 8 -16z" />
    <glyph glyph-name="scedilla" unicode="&#x15f;" horiz-adv-x="218" 
d="M121 358v150q0 7 -6 7h-8q-6 0 -6 -7v-139q0 -9 10 -17l45 -29q31 -20 42.5 -37.5t11.5 -46.5v-160q0 -77 -72 -82l-12 -70h-82l35 70q-71 5 -71 82v160h91v-157q0 -7 6 -7h7q7 0 7 7v144q0 10 -11 18l-45 30q-31 19 -42.5 37t-11.5 45v155q0 83 83 83h37q83 0 83 -83
v-153h-91z" />
    <glyph glyph-name="Scaron" unicode="&#x160;" horiz-adv-x="238" 
d="M193 362q37 -28 37 -80v-196q0 -90 -90 -90h-42q-90 0 -90 90v204h99v-204q0 -7 8 -7h7q8 0 8 7v188q0 10 -9 16l-75 57q-38 29 -38 80v187q0 90 90 90h41q90 0 90 -90v-194h-99v194q0 7 -8 7h-6q-7 0 -7 -7v-179q0 -11 8 -16zM204 793l-42 -73h-86l-42 73h63l22 -21
l22 21h63z" />
    <glyph glyph-name="scaron" unicode="&#x161;" horiz-adv-x="218" 
d="M121 358v150q0 7 -6 7h-8q-6 0 -6 -7v-139q0 -9 10 -17l45 -29q31 -20 42.5 -37.5t11.5 -46.5v-160q0 -83 -82 -83h-37q-83 0 -83 83v160h91v-157q0 -7 6 -7h7q7 0 7 7v144q0 10 -11 18l-45 30q-31 19 -42.5 37t-11.5 45v155q0 83 83 83h37q83 0 83 -83v-153h-91z
M194 690l-42 -80h-86l-42 80h63l22 -26l22 26h63z" />
    <glyph glyph-name="Tcommaaccent" unicode="&#x162;" horiz-adv-x="216" 
d="M74 -42v22h68v-17q0 -53 -38 -83h-59q29 35 29 78zM159 0h-102v613h-53v87h208v-87h-53v-613z" />
    <glyph glyph-name="Tcommaaccent" unicode="&#x21a;" horiz-adv-x="216" 
d="M74 -42v22h68v-17q0 -53 -38 -83h-59q29 35 29 78zM159 0h-102v613h-53v87h208v-87h-53v-613z" />
    <glyph glyph-name="tcommaaccent" unicode="&#x163;" horiz-adv-x="154" 
d="M38 -42v22h68v-17q0 -53 -38 -83h-59q29 35 29 78zM121 506v-506h-96v506h-22v84h22v54h96v-54h31v-84h-31z" />
    <glyph glyph-name="tcommaaccent" unicode="&#x21b;" horiz-adv-x="154" 
d="M38 -42v22h68v-17q0 -53 -38 -83h-59q29 35 29 78zM121 506v-506h-96v506h-22v84h22v54h96v-54h31v-84h-31z" />
    <glyph glyph-name="Tcaron" unicode="&#x164;" horiz-adv-x="216" 
d="M159 0h-102v613h-53v87h208v-87h-53v-613zM193 793l-42 -73h-86l-42 73h63l22 -21l22 21h63z" />
    <glyph glyph-name="tcaron" unicode="&#x165;" horiz-adv-x="154" 
d="M121 506v-506h-96v506h-22v84h22v54h96v-54h31v-84h-31zM134 602v98h77l-22 -98h-55z" />
    <glyph glyph-name="Umacron" unicode="&#x16a;" horiz-adv-x="244" 
d="M235 700v-614q0 -90 -90 -90h-46q-90 0 -90 90v614h102v-612q0 -8 8 -8h6q8 0 8 8v612h102zM46 782h152v-58h-152v58z" />
    <glyph glyph-name="umacron" unicode="&#x16b;" 
d="M219 590v-590h-94v20q-31 -24 -61 -24q-56 0 -56 63v531h96v-502q0 -9 9 -9q4 0 10 2v509h96zM38 678h152v-64h-152v64z" />
    <glyph glyph-name="Ubreve" unicode="&#x16c;" horiz-adv-x="244" 
d="M235 700v-614q0 -90 -90 -90h-46q-90 0 -90 90v614h102v-612q0 -8 8 -8h6q8 0 8 8v612h102zM45 775v18h61v-13q0 -9 9 -9h14q9 0 9 9v13h61v-18q0 -57 -56 -57h-42q-56 0 -56 57z" />
    <glyph glyph-name="ubreve" unicode="&#x16d;" 
d="M219 590v-590h-94v20q-31 -24 -61 -24q-56 0 -56 63v531h96v-502q0 -9 9 -9q4 0 10 2v509h96zM38 665v25h61v-18q0 -9 9 -9h12q9 0 9 9v18h61v-25q0 -57 -56 -57h-40q-56 0 -56 57z" />
    <glyph glyph-name="Uring" unicode="&#x16e;" horiz-adv-x="244" 
d="M235 700v-614q0 -90 -90 -90h-46q-90 0 -90 90v614h102v-612q0 -8 8 -8h6q8 0 8 8v612h102zM197 760v-3q0 -39 -46 -39h-58q-46 0 -46 39v3q0 39 46 39h58q46 0 46 -39zM181 758v1q0 26 -30 26h-58q-30 0 -30 -26v-1q0 -26 30 -26h58q30 0 30 26z" />
    <glyph glyph-name="uring" unicode="&#x16f;" 
d="M219 590v-590h-94v20q-31 -24 -61 -24q-56 0 -56 63v531h96v-502q0 -9 9 -9q4 0 10 2v509h96zM176 653v-6q0 -39 -46 -39h-32q-46 0 -46 39v6q0 39 46 39h32q46 0 46 -39zM161 647v6q0 25 -31 25h-32q-31 0 -31 -25v-6q0 -26 31 -26h32q31 0 31 26z" />
    <glyph glyph-name="Uhungarumlaut" unicode="&#x170;" horiz-adv-x="244" 
d="M235 700v-614q0 -90 -90 -90h-46q-90 0 -90 90v614h102v-612q0 -8 8 -8h6q8 0 8 8v612h102zM133 720l17 46l-36 -46h-52l26 68h150l-53 -68h-52z" />
    <glyph glyph-name="uhungarumlaut" unicode="&#x171;" 
d="M219 590v-590h-94v20q-31 -24 -61 -24q-56 0 -56 63v531h96v-502q0 -9 9 -9q4 0 10 2v509h96zM125 610l15 54l-34 -54h-52l23 80h150l-50 -80h-52z" />
    <glyph glyph-name="Uogonek" unicode="&#x172;" horiz-adv-x="244" 
d="M235 700v-614q0 -86 -83 -90l-3 -6q-7 -11 -7 -20v-3q0 -7 8 -7h16v-49h-53q-37 0 -37 35v7q0 22 13 43q-80 4 -80 90v614h102v-612q0 -8 8 -8h6q8 0 8 8v612h102z" />
    <glyph glyph-name="uogonek" unicode="&#x173;" horiz-adv-x="226" 
d="M218 590v-590h-14l-6 -10q-7 -11 -7 -20v-3q0 -7 8 -7h16v-49h-53q-37 0 -37 35v7q0 24 15 47h-16v20q-31 -24 -61 -24q-56 0 -56 63v531h96v-502q0 -9 9 -9q4 0 10 2v509h96z" />
    <glyph glyph-name="Wcircumflex" unicode="&#x174;" horiz-adv-x="348" 
d="M229 700l15 -345l16 345h88l-51 -700h-105l-19 281l-18 -281h-104l-51 700h106l13 -345l18 345h92zM227 793l42 -73h-63l-22 20l-22 -20h-63l42 73h86z" />
    <glyph glyph-name="wcircumflex" unicode="&#x175;" horiz-adv-x="346" 
d="M156 0h-107l-46 590h92l14 -320l18 320h98l17 -315l15 315h86l-46 -590h-107l-17 257zM218 690l42 -80h-63l-22 26l-22 -26h-63l42 80h86z" />
    <glyph glyph-name="Ycircumflex" unicode="&#x176;" horiz-adv-x="232" 
d="M167 0h-102v223l-68 477h106l18 -257l22 257h92l-68 -477v-223zM166 793l42 -73h-63l-22 20l-22 -20h-63l42 73h86z" />
    <glyph glyph-name="ycircumflex" unicode="&#x177;" horiz-adv-x="230" 
d="M152 -81h-91l14 112l-74 559h96l8 -118q5 -60 12 -191h2q4 91 11 191l8 118h92zM160 690l42 -80h-63l-22 26l-22 -26h-63l42 80h86z" />
    <glyph glyph-name="Ydieresis" unicode="&#x178;" horiz-adv-x="232" 
d="M167 0h-102v223l-68 477h106l18 -257l22 257h92l-68 -477v-223zM129 720v68h73v-68h-73zM117 788v-68h-73v68h73z" />
    <glyph glyph-name="Zacute" unicode="&#x179;" horiz-adv-x="199" 
d="M89 613h-82v87h187v-87l-85 -526h85v-87h-190v87zM64 720l30 68h99l-54 -68h-75z" />
    <glyph glyph-name="zacute" unicode="&#x17a;" horiz-adv-x="183" 
d="M86 506h-79v84h172v-84l-82 -422h82v-84h-175v84zM59 610l27 80h99l-51 -80h-75z" />
    <glyph glyph-name="Zdotaccent" unicode="&#x17b;" horiz-adv-x="199" 
d="M89 613h-82v87h187v-87l-85 -526h85v-87h-190v87zM143 779v-59h-82v59h82z" />
    <glyph glyph-name="zdotaccent" unicode="&#x17c;" horiz-adv-x="183" 
d="M86 506h-79v84h172v-84l-82 -422h82v-84h-175v84zM138 681v-71h-82v71h82z" />
    <glyph glyph-name="Zcaron" unicode="&#x17d;" horiz-adv-x="199" 
d="M89 613h-82v87h187v-87l-85 -526h85v-87h-190v87zM187 793l-42 -73h-86l-42 73h63l22 -21l22 21h63z" />
    <glyph glyph-name="zcaron" unicode="&#x17e;" horiz-adv-x="183" 
d="M86 506h-79v84h172v-84l-82 -422h82v-84h-175v84zM182 690l-42 -80h-86l-42 80h63l22 -26l22 26h63z" />
    <glyph glyph-name="Aringacute" unicode="&#x1fa;" horiz-adv-x="243" 
d="M197 706v-3q0 -17 -8 -26l53 -677h-100l-6 115h-41l-6 -115h-88l53 678q-7 10 -7 25v3q0 39 46 39h58q46 0 46 -39zM85 763l30 68h99l-54 -68h-75zM181 704v1q0 26 -30 26h-58q-30 0 -30 -26v-1q0 -26 30 -26h58q30 0 30 26zM115 496l-16 -296h32z" />
    <glyph glyph-name="aringacute" unicode="&#x1fb;" horiz-adv-x="221" 
d="M8 53v210q0 29 10.5 43t38.5 24l61 22v157q0 7 -6 7h-6q-6 0 -6 -7v-153h-88v158q0 80 79 80h43q79 0 79 -80v-514h-93v22q-28 -26 -60 -26q-52 0 -52 57zM173 653v-6q0 -39 -46 -39h-32q-46 0 -46 39v6q0 39 46 39h32q46 0 46 -39zM75 706l27 80h99l-51 -80h-75z
M158 647v6q0 25 -31 25h-32q-31 0 -31 -25v-6q0 -26 31 -26h32q31 0 31 26zM108 74q4 0 10 2v201l-10 -4q-10 -6 -10 -18v-172q0 -9 10 -9z" />
    <glyph glyph-name="AEacute" unicode="&#x1fc;" horiz-adv-x="314" 
d="M68 700h239v-87h-78v-215h75v-87h-75v-224h79v-87h-181v115h-32l-9 -115h-88zM140 720l30 68h99l-54 -68h-75zM99 200h28v348z" />
    <glyph glyph-name="aeacute" unicode="&#x1fd;" horiz-adv-x="334" 
d="M211 594h32q83 0 83 -83v-256h-113v-173q0 -7 7 -7h7q6 0 6 7v129h93v-132q0 -83 -83 -83h-42q-47 0 -69 29l-7 -6q-27 -23 -65 -23q-52 0 -52 57v210q0 29 10.5 43t38.5 24l61 22v157q0 7 -6 7h-6q-6 0 -6 -7v-153h-88v158q0 80 79 80h32q30 0 44 -16q13 16 44 16z
M132 610l27 80h99l-51 -80h-75zM108 74q4 0 10 2v201l-10 -4q-10 -6 -10 -18v-172q0 -9 10 -9zM213 508v-181h19v181q0 7 -6 7h-6q-7 0 -7 -7z" />
    <glyph glyph-name="Oslashacute" unicode="&#x1fe;" horiz-adv-x="244" 
d="M236 86q0 -90 -90 -90h-48q-90 0 -90 90v530q0 90 90 90h48q90 0 90 -90v-530zM84 720l30 68h99l-54 -68h-75zM109 614l-1 -281l27 225v56q0 8 -8 8h-10q-8 0 -8 -8zM134 88l2 279l-27 -222v-57q0 -8 8 -8h9q8 0 8 8z" />
    <glyph glyph-name="oslashacute" unicode="&#x1ff;" 
d="M137 -4h-46q-83 0 -83 83v432q0 83 83 83h46q82 0 82 -83v-432q0 -83 -82 -83zM76 610l27 80h99l-51 -80h-75zM118 76q7 0 7 7l1 221l-22 -163v-58q0 -7 7 -7h7zM117 514h-7q-6 0 -6 -7l-2 -220l22 163v57q0 7 -7 7z" />
    <glyph glyph-name="Scommaaccent" unicode="&#x218;" horiz-adv-x="236" 
d="M86 -42v22h68v-17q0 -53 -38 -83h-59q29 35 29 78zM193 362q37 -28 37 -80v-196q0 -90 -90 -90h-42q-90 0 -90 90v204h99v-204q0 -7 8 -7h7q8 0 8 7v188q0 10 -9 16l-75 57q-38 29 -38 80v187q0 90 90 90h41q90 0 90 -90v-194h-99v194q0 7 -8 7h-6q-7 0 -7 -7v-179
q0 -11 8 -16z" />
    <glyph glyph-name="scommaaccent" unicode="&#x219;" horiz-adv-x="218" 
d="M75 -42v22h68v-17q0 -53 -38 -83h-59q29 35 29 78zM121 358v150q0 7 -6 7h-8q-6 0 -6 -7v-139q0 -9 10 -17l45 -29q31 -20 42.5 -37.5t11.5 -46.5v-160q0 -83 -82 -83h-37q-83 0 -83 83v160h91v-157q0 -7 6 -7h7q7 0 7 7v144q0 10 -11 18l-45 30q-31 19 -42.5 37
t-11.5 45v155q0 83 83 83h37q83 0 83 -83v-153h-91z" />
    <glyph glyph-name="schwa" unicode="&#x259;" horiz-adv-x="222" 
d="M5 79v256h113v173q0 7 -7 7h-7q-6 0 -6 -7v-129h-93v132q0 83 83 83h42q83 0 83 -83v-432q0 -83 -83 -83h-42q-83 0 -83 83zM111 75q7 0 7 7v181h-19v-181q0 -7 6 -7h6z" />
    <glyph glyph-name="circumflex" unicode="&#x2c6;" horiz-adv-x="300" 
d="M193 690l42 -80h-63l-22 26l-22 -26h-63l42 80h86z" />
    <glyph glyph-name="caron" unicode="&#x2c7;" horiz-adv-x="300" 
d="M235 690l-42 -80h-86l-42 80h63l22 -26l22 26h63z" />
    <glyph glyph-name="breve" unicode="&#x2d8;" horiz-adv-x="300" 
d="M74 665v25h61v-18q0 -9 9 -9h12q9 0 9 9v18h61v-25q0 -57 -56 -57h-40q-56 0 -56 57z" />
    <glyph glyph-name="dotaccent" unicode="&#x2d9;" horiz-adv-x="300" 
d="M191 681v-71h-82v71h82z" />
    <glyph glyph-name="ring" unicode="&#x2da;" horiz-adv-x="300" 
d="M212 653v-6q0 -39 -46 -39h-32q-46 0 -46 39v6q0 39 46 39h32q46 0 46 -39zM197 647v6q0 25 -31 25h-32q-31 0 -31 -25v-6q0 -26 31 -26h32q31 0 31 26z" />
    <glyph glyph-name="ogonek" unicode="&#x2db;" horiz-adv-x="300" 
d="M142 14h63l-14 -24q-7 -11 -7 -20v-3q0 -7 8 -7h16v-49h-53q-37 0 -37 35v7q0 24 16 48z" />
    <glyph glyph-name="tilde" unicode="&#x2dc;" horiz-adv-x="300" 
d="M102 690h4q22 0 37 -7l20 -11q8 -4 10 -4q4 0 4 5v17h57v-43q0 -37 -36 -37h-4q-23 0 -37 7l-20 11q-8 4 -10 4q-4 0 -4 -5v-17h-57v43q0 37 36 37z" />
    <glyph glyph-name="hungarumlaut" unicode="&#x2dd;" horiz-adv-x="300" 
d="M146 610l15 54l-34 -54h-52l23 80h150l-50 -80h-52z" />
    <glyph glyph-name="commaaccent" unicode="&#x326;" horiz-adv-x="300" 
d="M117 -42v22h68v-17q0 -53 -38 -83h-59q29 35 29 78z" />
    <glyph glyph-name="Wgrave" unicode="&#x1e80;" horiz-adv-x="348" 
d="M229 700l15 -345l16 345h88l-51 -700h-105l-19 281l-18 -281h-104l-51 700h106l13 -345l18 345h92zM192 788l30 -68h-75l-54 68h99z" />
    <glyph glyph-name="wgrave" unicode="&#x1e81;" horiz-adv-x="346" 
d="M156 0h-107l-46 590h92l14 -320l18 320h98l17 -315l15 315h86l-46 -590h-107l-17 257zM186 690l27 -80h-75l-51 80h99z" />
    <glyph glyph-name="Wacute" unicode="&#x1e82;" horiz-adv-x="348" 
d="M229 700l15 -345l16 345h88l-51 -700h-105l-19 281l-18 -281h-104l-51 700h106l13 -345l18 345h92zM146 720l30 68h99l-54 -68h-75z" />
    <glyph glyph-name="wacute" unicode="&#x1e83;" horiz-adv-x="346" 
d="M190 0l-17 257l-17 -257h-107l-46 590h92l14 -320l18 320h98l17 -315l15 315h86l-46 -590h-107zM137 610l27 80h99l-51 -80h-75z" />
    <glyph glyph-name="Wdieresis" unicode="&#x1e84;" horiz-adv-x="348" 
d="M229 700l15 -345l16 345h88l-51 -700h-105l-19 281l-18 -281h-104l-51 700h106l13 -345l18 345h92zM178 788v-68h-73v68h73zM190 720v68h73v-68h-73z" />
    <glyph glyph-name="wdieresis" unicode="&#x1e85;" horiz-adv-x="346" 
d="M49 0l-46 590h92l14 -320l18 320h98l17 -315l15 315h86l-46 -590h-107l-17 257l-17 -257h-107zM181 610v80h72v-80h-72zM169 690v-80h-72v80h72z" />
    <glyph glyph-name="Ygrave" unicode="&#x1ef2;" horiz-adv-x="232" 
d="M167 0h-102v223l-68 477h106l18 -257l22 257h92l-68 -477v-223zM131 788l30 -68h-75l-54 68h99z" />
    <glyph glyph-name="ygrave" unicode="&#x1ef3;" horiz-adv-x="230" 
d="M152 -81h-91l14 112l-74 559h96l8 -118q5 -60 12 -191h2q4 91 11 191l8 118h92zM128 690l27 -80h-75l-51 80h99z" />
    <glyph glyph-name="enspace" unicode="&#x2002;" horiz-adv-x="500" 
 />
    <glyph glyph-name="emspace" unicode="&#x2003;" horiz-adv-x="1000" 
 />
    <glyph glyph-name="threeperemspace" unicode="&#x2004;" horiz-adv-x="333" 
 />
    <glyph glyph-name="fourperemspace" unicode="&#x2005;" horiz-adv-x="250" 
 />
    <glyph glyph-name="thinspace" unicode="&#x2009;" horiz-adv-x="133" 
 />
    <glyph glyph-name="hairspace" unicode="&#x200a;" horiz-adv-x="75" 
 />
    <glyph glyph-name="endash" unicode="&#x2013;" horiz-adv-x="230" 
d="M6 336h218v-70h-218v70z" />
    <glyph glyph-name="emdash" unicode="&#x2014;" horiz-adv-x="344" 
d="M6 335h332v-70h-332v70z" />
    <glyph glyph-name="quoteleft" unicode="&#x2018;" horiz-adv-x="121" 
d="M17 497v24q0 89 24 179h69q-14 -78 -14 -175v-28h-79z" />
    <glyph glyph-name="quoteright" unicode="&#x2019;" horiz-adv-x="121" 
d="M104 700v-24q0 -89 -24 -179h-69q14 78 14 175v28h79z" />
    <glyph glyph-name="quotesinglbase" unicode="&#x201a;" horiz-adv-x="110" 
d="M96 109v-24q0 -89 -24 -179h-69q14 78 14 175v28h79z" />
    <glyph glyph-name="quotedblleft" unicode="&#x201c;" horiz-adv-x="212" 
d="M108 497v24q0 89 24 179h69q-14 -78 -14 -175v-28h-79zM17 497v24q0 89 24 179h69q-14 -78 -14 -175v-28h-79z" />
    <glyph glyph-name="quotedblright" unicode="&#x201d;" horiz-adv-x="212" 
d="M104 700v-24q0 -89 -24 -179h-69q14 78 14 175v28h79zM195 700v-24q0 -89 -24 -179h-69q14 78 14 175v28h79z" />
    <glyph glyph-name="quotedblbase" unicode="&#x201e;" horiz-adv-x="212" 
d="M95 108v-24q0 -89 -24 -179h-69q14 78 14 175v28h79zM186 108v-24q0 -89 -24 -179h-69q14 78 14 175v28h79z" />
    <glyph glyph-name="dagger" unicode="&#x2020;" horiz-adv-x="135" 
d="M44 470l1 136l-39 -2v42l39 -1l-1 55h47l-2 -55l40 1v-42l-40 2l2 -136h-47z" />
    <glyph glyph-name="daggerdbl" unicode="&#x2021;" horiz-adv-x="135" 
d="M129 646v-42l-40 1l2 -54l-1 -43l39 1v-42l-40 1l2 -55h-47l1 55l-39 -1v42l39 -1l-1 43l1 54l-39 -1v42l39 -1l-1 55h47l-2 -55z" />
    <glyph glyph-name="bullet" unicode="&#x2022;" horiz-adv-x="164" 
d="M150 391v-67q0 -54 -54 -54h-28q-54 0 -54 54v67q0 54 54 54h28q54 0 54 -54z" />
    <glyph glyph-name="ellipsis" unicode="&#x2026;" horiz-adv-x="311" 
d="M96 109v-109h-82v109h82zM196 109v-109h-82v109h82zM297 109v-109h-82v109h82z" />
    <glyph glyph-name="guilsinglleft" unicode="&#x2039;" horiz-adv-x="140" 
d="M5 300l49 150h77l-36 -150l36 -150h-77z" />
    <glyph glyph-name="guilsinglright" unicode="&#x203a;" horiz-adv-x="140" 
d="M86 450l49 -150l-49 -150h-77l36 150l-36 150h77z" />
    <glyph glyph-name="Euro" unicode="&#x20ac;" horiz-adv-x="247" 
d="M3 416h22v198q0 90 90 90h36q90 0 90 -90v-181h-97v179q0 8 -8 8h-4q-8 0 -8 -8v-196h87v-54h-87v-12h87v-54h-87v-208q0 -8 8 -8h5q8 0 8 8v191h97v-193q0 -90 -90 -90h-37q-90 0 -90 90v210h-22v54h22v12h-22v54z" />
    <glyph glyph-name="published" unicode="&#x2117;" horiz-adv-x="314" 
d="M153 272v-224h-79v605h100q69 0 69 -69v-243q0 -69 -68 -69h-22zM167 581q0 6 -7 6h-7v-250h7q7 0 7 6v238zM294 590v-480q0 -61 -26 -87.5t-82 -26.5h-58q-56 0 -82 26.5t-26 87.5v480q0 61 26 87.5t82 26.5h58q56 0 82 -26.5t26 -87.5zM279 110v480q0 54 -21.5 76.5
t-71.5 22.5h-58q-50 0 -71.5 -22.5t-21.5 -76.5v-480q0 -54 21.5 -76.5t71.5 -22.5h58q50 0 71.5 22.5t21.5 76.5z" />
    <glyph glyph-name="servicemark" unicode="&#x2120;" horiz-adv-x="327" 
d="M65 497v-97q0 -4 4 -4h8q4 0 4 4v86q0 7 -5 10l-42 32q-19 15 -19 44v85q0 45 47 45h23q49 0 49 -45v-94h-50v93q0 4 -5 4h-7q-4 0 -4 -4v-87q0 -6 5 -9l41 -31q20 -17 20 -44v-86q0 -45 -49 -45h-23q-47 0 -47 45v98h50zM219 700l10 -238l10 238h73v-344h-51v259h-1
l-15 -259h-43l-14 259h-1v-259h-41v344h73z" />
    <glyph glyph-name="trademark" unicode="&#x2122;" horiz-adv-x="322" 
d="M214 700l10 -238l10 238h73v-344h-51v259h-1l-15 -259h-43l-14 259h-1v-259h-41v344h73zM95 356h-52v294h-34v50h120v-50h-34v-294z" />
    <glyph glyph-name="minus" unicode="&#x2212;" horiz-adv-x="201" 
d="M4 393h193v-73h-193v73z" />
    <glyph glyph-name="f_f" unicode="&#xfb00;" horiz-adv-x="305" 
d="M22 590v40q0 70 69 70h58v-70h-24q-13 0 -13 -13v-27h37v-84h-31v-506h-96v506h-19v84h19zM176 590v40q0 70 69 70h58v-70h-24q-13 0 -13 -13v-27h37v-84h-31v-506h-96v506h-19v84h19z" />
    <glyph glyph-name="fi" unicode="&#xfb01;" horiz-adv-x="265" 
d="M22 590v40q0 70 69 70h58v-70h-24q-13 0 -13 -13v-27h37v-84h-31v-506h-96v506h-19v84h19zM159 603v71h98v-71h-98zM160 0v590h96v-590h-96z" />
    <glyph glyph-name="fl" unicode="&#xfb02;" horiz-adv-x="263" 
d="M22 590v40q0 70 69 70h58v-70h-24q-13 0 -13 -13v-27h37v-84h-31v-506h-96v506h-19v84h19zM159 0v700h96v-700h-96z" />
    <glyph glyph-name="f_f_i" unicode="&#xfb03;" horiz-adv-x="419" 
d="M22 590v40q0 70 69 70h58v-70h-24q-13 0 -13 -13v-27h37v-84h-31v-506h-96v506h-19v84h19zM176 590v40q0 70 69 70h58v-70h-24q-13 0 -13 -13v-27h37v-84h-31v-506h-96v506h-19v84h19zM313 603v71h98v-71h-98zM314 0v590h96v-590h-96z" />
    <glyph glyph-name="f_f_l" unicode="&#xfb04;" horiz-adv-x="417" 
d="M22 590v40q0 70 69 70h58v-70h-24q-13 0 -13 -13v-27h37v-84h-31v-506h-96v506h-19v84h19zM176 590v40q0 70 69 70h58v-70h-24q-13 0 -13 -13v-27h37v-84h-31v-506h-96v506h-19v84h19zM313 0v700h96v-700h-96z" />
    <glyph glyph-name="Q.alt" horiz-adv-x="245" 
d="M98 -4q-90 0 -90 90v528q0 90 90 90h48q90 0 90 -90v-472q0 -46 -9 -66t-36 -33l1 -3q18 4 41 4h6v-48h-141zM118 77h8q8 0 8 8v527q0 8 -8 8h-8q-8 0 -8 -8v-527q0 -8 8 -8z" />
    <glyph glyph-name="a.alt" 
d="M219 590v-590h-94v20q-31 -24 -61 -24q-56 0 -56 63v472q0 63 56 63q29 0 59 -23v19h96zM123 81v428q-6 2 -10 2q-9 0 -9 -9v-414q0 -9 9 -9q4 0 10 2z" />
    <glyph glyph-name="y.alt" horiz-adv-x="230" 
d="M78 8v3l-77 579h96l21 -293l20 293h92l-69 -603q-4 -39 -23 -54t-56 -15h-46v80h29q13 0 13 10z" />
    <glyph glyph-name="aacute.alt" 
d="M219 590v-590h-94v20q-31 -24 -61 -24q-56 0 -56 63v472q0 63 56 63q29 0 59 -23v19h96zM123 81v428q-6 2 -10 2q-9 0 -9 -9v-414q0 -9 9 -9q4 0 10 2zM80 610l27 80h99l-51 -80h-75z" />
    <glyph glyph-name="abreve.alt" 
d="M219 590v-590h-94v20q-31 -24 -61 -24q-56 0 -56 63v472q0 63 56 63q29 0 59 -23v19h96zM42 665v25h61v-18q0 -9 9 -9h12q9 0 9 9v18h61v-25q0 -57 -56 -57h-40q-56 0 -56 57zM123 81v428q-6 2 -10 2q-9 0 -9 -9v-414q0 -9 9 -9q4 0 10 2z" />
    <glyph glyph-name="acircumflex.alt" 
d="M219 590v-590h-94v20q-31 -24 -61 -24q-56 0 -56 63v472q0 63 56 63q29 0 59 -23v19h96zM161 690l42 -80h-63l-22 26l-22 -26h-63l42 80h86zM123 81v428q-6 2 -10 2q-9 0 -9 -9v-414q0 -9 9 -9q4 0 10 2z" />
    <glyph glyph-name="adieresis.alt" 
d="M219 590v-590h-94v20q-31 -24 -61 -24q-56 0 -56 63v472q0 63 56 63q29 0 59 -23v19h96zM123 81v428q-6 2 -10 2q-9 0 -9 -9v-414q0 -9 9 -9q4 0 10 2zM124 610v80h72v-80h-72zM112 690v-80h-72v80h72z" />
    <glyph glyph-name="agrave.alt" 
d="M219 590v-590h-94v20q-31 -24 -61 -24q-56 0 -56 63v472q0 63 56 63q29 0 59 -23v19h96zM123 81v428q-6 2 -10 2q-9 0 -9 -9v-414q0 -9 9 -9q4 0 10 2zM129 690l27 -80h-75l-51 80h99z" />
    <glyph glyph-name="amacron.alt" 
d="M219 590v-590h-94v20q-31 -24 -61 -24q-56 0 -56 63v472q0 63 56 63q29 0 59 -23v19h96zM42 678h152v-64h-152v64zM123 81v428q-6 2 -10 2q-9 0 -9 -9v-414q0 -9 9 -9q4 0 10 2z" />
    <glyph glyph-name="aogonek.alt" horiz-adv-x="226" 
d="M218 590v-590h-14l-6 -10q-7 -11 -7 -20v-3q0 -7 8 -7h16v-49h-53q-37 0 -37 35v7q0 24 15 47h-16v20q-31 -24 -61 -24q-56 0 -56 63v472q0 63 56 63q29 0 59 -23v19h96zM122 81v428q-6 2 -10 2q-9 0 -9 -9v-414q0 -9 9 -9q4 0 10 2z" />
    <glyph glyph-name="aring.alt" 
d="M219 590v-590h-94v20q-31 -24 -61 -24q-56 0 -56 63v472q0 63 56 63q29 0 59 -23v19h96zM180 653v-6q0 -39 -46 -39h-32q-46 0 -46 39v6q0 39 46 39h32q46 0 46 -39zM123 81v428q-6 2 -10 2q-9 0 -9 -9v-414q0 -9 9 -9q4 0 10 2zM165 647v6q0 25 -31 25h-32
q-31 0 -31 -25v-6q0 -26 31 -26h32q31 0 31 26z" />
    <glyph glyph-name="aringacute.alt" 
d="M219 590v-590h-94v20q-31 -24 -61 -24q-56 0 -56 63v472q0 63 56 63q29 0 59 -23v19h96zM180 653v-6q0 -39 -46 -39h-32q-46 0 -46 39v6q0 39 46 39h32q46 0 46 -39zM123 81v428q-6 2 -10 2q-9 0 -9 -9v-414q0 -9 9 -9q4 0 10 2zM82 706l27 80h99l-51 -80h-75zM165 647v6
q0 25 -31 25h-32q-31 0 -31 -25v-6q0 -26 31 -26h32q31 0 31 26z" />
    <glyph glyph-name="atilde.alt" 
d="M219 590v-590h-94v20q-31 -24 -61 -24q-56 0 -56 63v472q0 63 56 63q29 0 59 -23v19h96zM70 690h4q22 0 37 -7l20 -11q8 -4 10 -4q4 0 4 5v17h57v-43q0 -37 -36 -37h-4q-23 0 -37 7l-20 11q-8 4 -10 4q-4 0 -4 -5v-17h-57v43q0 37 36 37zM123 81v428q-6 2 -10 2
q-9 0 -9 -9v-414q0 -9 9 -9q4 0 10 2z" />
    <glyph glyph-name="Gcommaaccent.alt" horiz-adv-x="244" 
d="M135 313h-14v82h115v-309q0 -90 -90 -90h-48q-90 0 -90 90v528q0 90 90 90h47q90 0 90 -90v-182h-101v180q0 8 -9 8h-7q-8 0 -8 -8v-523q0 -9 8 -9h9q8 0 8 8v225zM156 -20v-58q0 -38 -27 -68l-10 -11l-28 6l4 6q18 27 19 46h-25v79h67z" />
    <glyph glyph-name="gcommaaccent.alt" 
d="M219 590v-601q0 -73 -73 -73h-65q-37 0 -54 16.5t-17 52.5v36h88v-29q0 -9 9 -9h9q9 0 9 9v62q-29 -23 -61 -23q-56 0 -56 63v437q0 63 56 63q30 0 61 -23v19h94zM123 114v395q-6 2 -10 2q-9 0 -9 -9v-381q0 -9 9 -9q4 0 10 2zM79 610v58q0 38 27 68l10 11l28 -6l-4 -6
q-18 -27 -19 -46h25v-79h-67z" />
    <glyph glyph-name="Kcommaaccent.alt" horiz-adv-x="240" 
d="M241 0h-105l-25 286v-286h-102v700h102v-289l29 289h102l-39 -340zM157 -20v-58q0 -38 -27 -68l-10 -11l-28 6l4 6q18 27 19 46h-25v79h67z" />
    <glyph glyph-name="kcommaaccent.alt" horiz-adv-x="234" 
d="M134 590h97l-39 -301l42 -289h-100l-30 263v-263h-96v700h96v-392zM152 -20v-58q0 -38 -27 -68l-10 -11l-28 6l4 6q18 27 19 46h-25v79h67z" />
    <glyph glyph-name="Lcommaaccent.alt" horiz-adv-x="185" 
d="M9 700h102v-613h70v-87h-172v700zM129 -20v-58q0 -38 -27 -68l-10 -11l-28 6l4 6q18 27 19 46h-25v79h67z" />
    <glyph glyph-name="lcommaaccent.alt" horiz-adv-x="112" 
d="M8 0v700h96v-700h-96zM90 -20v-58q0 -38 -27 -68l-10 -11l-28 6l4 6q18 27 19 46h-25v79h67z" />
    <glyph glyph-name="Ncommaaccent.alt" horiz-adv-x="235" 
d="M226 0h-92l-47 341l7 -341h-85v700h97l43 -327l-8 327h85v-700zM152 -20v-58q0 -38 -27 -68l-10 -11l-28 6l4 6q18 27 19 46h-25v79h67z" />
    <glyph glyph-name="ncommaaccent.alt" 
d="M8 0v590h95v-20q31 24 61 24q55 0 55 -63v-531h-96v502q0 9 -9 9q-2 0 -10 -2v-509h-96zM148 -20v-58q0 -38 -27 -68l-10 -11l-28 6l4 6q18 27 19 46h-25v79h67z" />
    <glyph glyph-name="Oslash.alt" horiz-adv-x="244" 
d="M236 86q0 -90 -90 -90h-43q-4 0 -10.5 0.5t-9.5 0.5l-3 -16h-66l10 47q-16 22 -16 63v525q0 90 90 90h43q3 0 9.5 -0.5t9.5 -0.5l4 18h66l-11 -49q17 -23 17 -63v-525zM109 614l-1 -281l27 225v56q0 8 -8 8h-10q-8 0 -8 -8zM134 88l2 279l-27 -222v-57q0 -8 8 -8h9
q8 0 8 8z" />
    <glyph glyph-name="oslash.alt" 
d="M137 -4h-42q-3 0 -8.5 0.5t-7.5 0.5l-2 -16h-54l8 35q-23 22 -23 67v428q0 83 83 83h42q3 0 8 -0.5t7 -0.5l3 16h53l-8 -35q23 -23 23 -67v-428q0 -83 -82 -83zM118 76q7 0 7 7l1 222l-22 -162v-60q0 -7 7 -7h7zM117 514h-7q-6 0 -6 -7l-2 -220l22 163v57q0 7 -7 7z" />
    <glyph glyph-name="Oslashacute.alt" horiz-adv-x="244" 
d="M236 86q0 -90 -90 -90h-43q-4 0 -10.5 0.5t-9.5 0.5l-3 -16h-66l10 47q-16 22 -16 63v525q0 90 90 90h43q3 0 9.5 -0.5t9.5 -0.5l4 18h66l-11 -49q17 -23 17 -63v-525zM74 720l30 68h99l-54 -68h-75zM109 614l-1 -281l27 225v56q0 8 -8 8h-10q-8 0 -8 -8zM134 88l2 279
l-27 -222v-57q0 -8 8 -8h9q8 0 8 8z" />
    <glyph glyph-name="oslashacute.alt" 
d="M137 -4h-42q-3 0 -8.5 0.5t-7.5 0.5l-2 -16h-54l8 35q-23 22 -23 67v428q0 83 83 83h42q3 0 8 -0.5t7 -0.5l3 16h53l-8 -35q23 -23 23 -67v-428q0 -83 -82 -83zM65 610l27 80h99l-51 -80h-75zM118 76q7 0 7 7l1 222l-22 -162v-60q0 -7 7 -7h7zM117 514h-7q-6 0 -6 -7
l-2 -220l22 163v57q0 7 -7 7z" />
    <glyph glyph-name="Rcommaaccent.alt" horiz-adv-x="242" 
d="M188 334q47 -11 47 -60v-274h-102v283q0 8 -8 8h-14v-291h-102v700h135q90 0 90 -90v-207q0 -55 -46 -69zM156 -20v-58q0 -38 -27 -68l-10 -11l-28 6l4 6q18 27 19 46h-25v79h67zM132 607q0 8 -8 8h-13v-241h13q8 0 8 8v225z" />
    <glyph glyph-name="rcommaaccent.alt" horiz-adv-x="155" 
d="M8 0v590h95v-37q19 40 49 40v-107q-30 -3 -48 -15v-471h-96zM91 -20v-58q0 -38 -27 -68l-10 -11l-28 6l4 6q18 27 19 46h-25v79h67z" />
    <glyph glyph-name="Scommaaccent.alt" horiz-adv-x="238" 
d="M193 362q37 -28 37 -80v-196q0 -90 -90 -90h-42q-90 0 -90 90v204h99v-204q0 -7 8 -7h7q8 0 8 7v188q0 10 -9 16l-75 57q-38 29 -38 80v187q0 90 90 90h41q90 0 90 -90v-194h-99v194q0 7 -8 7h-6q-7 0 -7 -7v-179q0 -11 8 -16zM154 -20v-58q0 -38 -27 -68l-10 -11l-28 6
l4 6q18 27 19 46h-25v79h67z" />
    <glyph glyph-name="scommaaccent.alt" horiz-adv-x="218" 
d="M121 358v150q0 7 -6 7h-8q-6 0 -6 -7v-139q0 -9 10 -17l45 -29q31 -20 42.5 -37.5t11.5 -46.5v-160q0 -83 -82 -83h-37q-83 0 -83 83v160h91v-157q0 -7 6 -7h7q7 0 7 7v144q0 10 -11 18l-45 30q-31 19 -42.5 37t-11.5 45v155q0 83 83 83h37q83 0 83 -83v-153h-91z
M143 -20v-58q0 -38 -27 -68l-10 -11l-28 6l4 6q18 27 19 46h-25v79h67z" />
    <glyph glyph-name="Tcommaaccent.alt" horiz-adv-x="216" 
d="M159 0h-102v613h-53v87h208v-87h-53v-613zM142 -20v-58q0 -38 -27 -68l-10 -11l-28 6l4 6q18 27 19 46h-25v79h67z" />
    <glyph glyph-name="tcommaaccent.alt" horiz-adv-x="154" 
d="M121 506v-506h-96v506h-22v84h22v54h96v-54h31v-84h-31zM106 -20v-58q0 -38 -27 -68l-10 -11l-28 6l4 6q18 27 19 46h-25v79h67z" />
    <glyph glyph-name="yacute.alt" horiz-adv-x="230" 
d="M78 8v3l-77 579h96l21 -293l20 293h92l-69 -603q-4 -39 -23 -54t-56 -15h-46v80h29q13 0 13 10zM79 610l27 80h99l-51 -80h-75z" />
    <glyph glyph-name="ycircumflex.alt" horiz-adv-x="230" 
d="M78 8v3l-77 579h96l21 -293l20 293h92l-69 -603q-4 -39 -23 -54t-56 -15h-46v80h29q13 0 13 10zM160 690l42 -80h-63l-22 26l-22 -26h-63l42 80h86z" />
    <glyph glyph-name="ydieresis.alt" horiz-adv-x="230" 
d="M78 8v3l-77 579h96l21 -293l20 293h92l-69 -603q-4 -39 -23 -54t-56 -15h-46v80h29q13 0 13 10zM123 610v80h72v-80h-72zM111 690v-80h-72v80h72z" />
    <glyph glyph-name="ygrave.alt" horiz-adv-x="230" 
d="M78 8v3l-77 579h96l21 -293l20 293h92l-69 -603q-4 -39 -23 -54t-56 -15h-46v80h29q13 0 13 10zM128 690l27 -80h-75l-51 80h99z" />
    <glyph glyph-name="comma.alt" horiz-adv-x="110" 
d="M96 109v-80q0 -50 -32 -93l-12 -16l-33 8l5 9q20 38 21 63h-29v109h80z" />
    <glyph glyph-name="semicolon.alt" horiz-adv-x="110" 
d="M96 109v-80q0 -50 -32 -93l-12 -16l-33 8l5 9q20 38 21 63h-29v109h80zM96 590v-109h-82v109h82z" />
    <glyph glyph-name="colon.fig" horiz-adv-x="110" 
d="M96 312v-109h-82v109h82zM96 498v-109h-82v109h82z" />
    <glyph glyph-name="ampersand.alt" horiz-adv-x="248" 
d="M245 325h-19v-239q0 -90 -90 -90h-38q-90 0 -90 90v217q0 29 7.5 42.5t28.5 23.5q-20 12 -27.5 27.5t-7.5 47.5v170q0 90 90 90h36q90 0 90 -90v-168h-98v166q0 8 -8 8h-2q-8 0 -8 -8v-196q0 -8 8 -8h128v-83zM108 318v-230q0 -8 8 -8h5q7 0 7 8v237h-12q-8 0 -8 -7z" />
    <glyph glyph-name="quotedblleft.alt" horiz-adv-x="212" 
d="M17 511v80q0 50 32 93l12 16l32 -8l-5 -9q-20 -35 -21 -63h26v-109h-76zM108 511v80q0 50 32 93l12 16l32 -8l-5 -9q-20 -35 -21 -63h26v-109h-76z" />
    <glyph glyph-name="quotedblright.alt" horiz-adv-x="212" 
d="M195 700v-80q0 -50 -32 -93l-12 -16l-32 8l5 9q20 36 21 63h-26v109h76zM104 700v-80q0 -50 -32 -93l-12 -16l-32 8l5 9q20 36 21 63h-26v109h76z" />
    <glyph glyph-name="quoteleft.alt" horiz-adv-x="121" 
d="M17 512v80q0 50 32 93l12 16l33 -8l-5 -9q-20 -35 -21 -63h29v-109h-80z" />
    <glyph glyph-name="quoteright.alt" horiz-adv-x="121" 
d="M104 700v-80q0 -50 -32 -93l-12 -16l-33 8l5 9q20 36 21 63h-29v109h80z" />
    <glyph glyph-name="quotedblbase.alt" horiz-adv-x="197" 
d="M183 109v-80q0 -50 -32 -93l-12 -16l-32 8l5 9q20 38 21 63h-26v109h76zM92 109v-80q0 -50 -32 -93l-12 -16l-32 8l5 9q20 38 21 63h-26v109h76z" />
    <glyph glyph-name="quotesinglbase.alt" horiz-adv-x="110" 
d="M96 109v-80q0 -50 -32 -93l-12 -16l-33 8l5 9q20 38 21 63h-29v109h80z" />
    <glyph glyph-name="guillemotleft.cap" horiz-adv-x="200" 
d="M5 354l42 168h61l-30 -168l30 -164h-61zM94 354l36 168h61l-24 -168l24 -164h-61z" />
    <glyph glyph-name="guillemotright.cap" horiz-adv-x="200" 
d="M153 522l42 -168l-42 -164h-61l30 164l-30 168h61zM70 522l36 -168l-36 -164h-61l24 164l-24 168h61z" />
    <glyph glyph-name="guilsinglleft.cap" horiz-adv-x="142" 
d="M5 354l51 168h77l-38 -168l38 -164h-77z" />
    <glyph glyph-name="guilsinglright.cap" horiz-adv-x="142" 
d="M86 522l51 -168l-51 -164h-77l38 164l-38 168h77z" />
    <glyph glyph-name="hyphen.cap" horiz-adv-x="152" 
d="M6 398h140v-89h-140v89z" />
    <glyph glyph-name="endash.cap" horiz-adv-x="230" 
d="M6 389h218v-71h-218v71z" />
    <glyph glyph-name="emdash.cap" horiz-adv-x="344" 
d="M6 389h332v-71h-332v71z" />
    <glyph glyph-name="at.alt" horiz-adv-x="320" 
d="M271 54h-50q-30 0 -47 28q-23 -28 -56 -28q-50 0 -50 54v221q0 25 9.5 37.5t35.5 21.5l53 18v171q0 6 -5 6h-6q-6 0 -6 -6v-164h-78v168q0 70 71 70h37q71 0 71 -70v-490q0 -12 11 -12h10q12 0 12 12v504q0 48 -18 67.5t-65 19.5h-80q-46 0 -64 -19.5t-18 -67.5v-488
q0 -47 18 -67t64 -20h157v-24h-157q-58 0 -82.5 26t-24.5 85v488q0 59 24.5 85t82.5 26h80q58 0 83 -25.5t25 -85.5v-504q0 -37 -37 -37zM157 123q7 0 9 1v216l-8 -3q-11 -4 -11 -18v-189q0 -7 10 -7z" />
    <glyph glyph-name="registered.alt" horiz-adv-x="314" 
d="M210 347q35 -9 35 -45v-254h-79v260q0 6 -5 6h-8v-266h-79v605h102q69 0 69 -69v-183q0 -43 -35 -54zM165 582q0 5 -5 5h-7v-209h7q5 0 5 6v198zM294 590v-480q0 -61 -26 -87.5t-82 -26.5h-58q-56 0 -82 26.5t-26 87.5v480q0 61 26 87.5t82 26.5h58q56 0 82 -26.5
t26 -87.5zM279 110v480q0 54 -21.5 76.5t-71.5 22.5h-58q-50 0 -71.5 -22.5t-21.5 -76.5v-480q0 -54 21.5 -76.5t71.5 -22.5h58q50 0 71.5 22.5t21.5 76.5z" />
    <glyph glyph-name="percent.alt" horiz-adv-x="287" 
d="M83 300h-21q-56 0 -56 55v294q0 55 56 55h29q55 0 55 -55v-172l39 224h57l-61 -295q9 4 22 4h22q56 0 56 -55v-304q0 -55 -56 -55h-29q-56 0 -56 55v174l-39 -226h-56l61 305q-9 -4 -23 -4zM212 353h-7q-5 0 -5 -5v-289q0 -5 5 -5h7q5 0 5 5v289q0 5 -5 5zM82 646h-7
q-5 0 -5 -5v-279q0 -5 5 -5h7q5 0 5 5v279q0 5 -5 5z" />
    <glyph glyph-name="NUL" horiz-adv-x="0" 
 />
    <glyph glyph-name="hfjslug" horiz-adv-x="694" 
d="M644 -200h-208l-8 14h-163l-8 -14h-207v303q14 0 23 9.5t9 22.5t-9.5 22.5t-22.5 9.5v554h100l30 79h334l29 -79h101v-921zM400 563v-172h15v78h38v14h-38v66h43v14h-58zM184 563v-172h15v79h47v-79h15v172h-15v-79h-47v79h-15zM460 394q10 -4 21 -4q31 0 31 36v137h-16
v-137q0 -22 -16 -22q-8 0 -20 5v-15zM371 465l-13 3q-4 -18 -8 -30h-1l-16 31q23 21 23 42q0 31 -27 31q-12 0 -20 -9t-8 -22t14 -39q-23 -18 -23 -47q0 -16 8 -26.5t21 -10.5q19 0 29 24h1l12 -24l12 6l-17 32q6 14 13 39zM523 323v-46h8v12l8 8l15 -20h10l-20 26l18 20
h-10l-20 -24h-1v24h-8zM488 292l10 -15h9l-12 17q10 4 10 14q0 15 -17 15h-20v-46h8v15h12zM426 276q10 0 17 7t7 17q0 9 -7 16.5t-17 7.5t-17 -7.5t-7 -16.5q0 -10 7 -17t17 -7zM370 301l-13 22h-9l18 -29v-17h8v17l18 29h-9zM193 323v-46h34v7h-26v13h23v7h-23v12h26v7
h-34zM132 323v-46h8v32l25 -32h7v46h-8v-32l-25 32h-7zM241 323l14 -47h8l11 34h1l11 -34h8l14 47h-8l-10 -35h-1l-11 35h-7l-11 -35h-1l-10 35h-8zM327 479q-12 22 -12 32q0 19 14 19q13 0 13 -19q0 -15 -15 -32zM342 423q-8 -21 -20 -21q-16 0 -16 25q0 19 16 35zM487 299
h-11v17h11q10 0 10 -8q0 -9 -10 -9zM426 283q-16 0 -16 17q0 6 4.5 11.5t11.5 5.5t11.5 -5.5t4.5 -11.5q0 -17 -16 -17z" />
    <glyph glyph-name="i.dot" horiz-adv-x="114" 
d="M8 603v71h98v-71h-98zM9 0v590h96v-590h-96z" />
    <glyph glyph-name="caron.alt" horiz-adv-x="300" 
d="M118 602v98h77l-22 -98h-55z" />
    <glyph glyph-name="acute.cap" horiz-adv-x="300" 
d="M97 720l30 68h99l-54 -68h-75z" />
    <glyph glyph-name="hungarumlaut.cap" horiz-adv-x="300" 
d="M146 720l17 46l-36 -46h-52l26 68h150l-53 -68h-52z" />
    <glyph glyph-name="grave.cap" horiz-adv-x="300" 
d="M185 788l30 -68h-75l-54 68h99z" />
    <glyph glyph-name="circumflex.cap" horiz-adv-x="300" 
d="M193 793l42 -73h-63l-22 20l-22 -20h-63l42 73h86z" />
    <glyph glyph-name="caron.cap" horiz-adv-x="300" 
d="M235 793l-42 -73h-86l-42 73h63l22 -21l22 21h63z" />
    <glyph glyph-name="breve.cap" horiz-adv-x="300" 
d="M73 775v18h61v-13q0 -9 9 -9h14q9 0 9 9v13h61v-18q0 -57 -56 -57h-42q-56 0 -56 57z" />
    <glyph glyph-name="tilde.cap" horiz-adv-x="300" 
d="M101 794h13q16 0 32 -8l9 -5q14 -8 18 -8h1q4 0 4 5v16h57v-37q0 -37 -36 -37h-13q-16 0 -32 8l-9 5q-14 8 -18 8h-1q-4 0 -4 -5v-16h-57v37q0 37 36 37z" />
    <glyph glyph-name="macron.cap" horiz-adv-x="300" 
d="M74 782h152v-58h-152v58z" />
    <glyph glyph-name="dieresis.cap" horiz-adv-x="300" 
d="M156 720v68h73v-68h-73zM144 788v-68h-73v68h73z" />
    <glyph glyph-name="dotaccent.cap" horiz-adv-x="300" 
d="M191 779v-59h-82v59h82z" />
    <glyph glyph-name="ring.cap" horiz-adv-x="300" 
d="M225 760v-3q0 -39 -46 -39h-58q-46 0 -46 39v3q0 39 46 39h58q46 0 46 -39zM209 758v1q0 26 -30 26h-58q-30 0 -30 -26v-1q0 -26 30 -26h58q30 0 30 26z" />
    <glyph glyph-name="commaaccent.alt" horiz-adv-x="300" 
d="M185 -20v-58q0 -38 -27 -68l-10 -11l-28 6l4 6q18 27 19 46h-25v79h67z" />
    </font>
</defs>
</svg>
