<svg xmlns="http://www.w3.org/2000/svg" xmlns:xlink="http://www.w3.org/1999/xlink" viewBox="0 0 18 18">
  <defs>
    <style>
      .cls-1 {
        fill: #fff;
      }

      .cls-2 {
        clip-path: url(#clip-path);
      }
    </style>
    <clipPath id="clip-path">
      <rect id="Rectangle_205" data-name="Rectangle 205" class="cls-1" width="18" height="18" transform="translate(1588.2 3225.5)"/>
    </clipPath>
  </defs>
  <g id="Mask_Group_12" data-name="Mask Group 12" class="cls-2" transform="translate(-1588.2 -3225.5)">
    <g id="Cyphers_1_" transform="translate(1589.41 3227)">
      <g id="Group_415" data-name="Group 415" transform="translate(2.812 2.061)">
        <path id="Path_564" data-name="Path 564" class="cls-1" d="M59.28,50.3c-1.669,0-2.688-1.948-2.937-2.609h0a.646.646,0,0,1-.255-.23,1.859,1.859,0,0,1-.289-1.664.925.925,0,0,1,.308-.367,5.685,5.685,0,0,1,.162-1.288,3.258,3.258,0,0,1,6.041,0,5.685,5.685,0,0,1,.162,1.288.966.966,0,0,1,.308.367,1.86,1.86,0,0,1-.289,1.664.646.646,0,0,1-.255.23h0C61.968,48.347,60.949,50.3,59.28,50.3Zm-2.521-3.324s.01,0,.01.01a.616.616,0,0,1,.318.338c.132.455,1.013,2.149,2.188,2.149s2.056-1.694,2.188-2.149a.6.6,0,0,1,.318-.338.011.011,0,0,0,.01-.01c.308-.573.235-.783.22-.822a.129.129,0,0,0-.049-.054.414.414,0,0,1-.338-.431,4.862,4.862,0,0,0-.132-1.307,2.442,2.442,0,0,0-4.435,0,4.862,4.862,0,0,0-.132,1.307.384.384,0,0,1-.333.431.111.111,0,0,0-.059.059C56.524,46.193,56.46,46.413,56.759,46.971Zm-.166-.876Z" transform="translate(-55.696 -42.1)"/>
      </g>
      <g id="Group_416" data-name="Group 416" transform="translate(0.09 9.011)">
        <path id="Path_565" data-name="Path 565" class="cls-1" d="M6.4,190.063a31.3,31.3,0,0,1-5.977-.534A.416.416,0,0,1,.09,189.1,4.125,4.125,0,0,1,3.3,184.986a3.951,3.951,0,0,0,1.459-.793.417.417,0,0,1,.587,0,.412.412,0,0,1,0,.587,4.712,4.712,0,0,1-1.792.994,3.263,3.263,0,0,0-2.6,3.006,32.206,32.206,0,0,0,5.449.45,32.151,32.151,0,0,0,5.449-.45,3.263,3.263,0,0,0-2.6-3.006,4.662,4.662,0,0,1-1.792-.994.415.415,0,0,1,.583-.592,3.979,3.979,0,0,0,1.459.793,4.7,4.7,0,0,1,2.164,1.278A4.354,4.354,0,0,1,12.7,189.1a.413.413,0,0,1-.328.426A31.358,31.358,0,0,1,6.4,190.063Z" transform="translate(-0.09 -184.074)"/>
      </g>
      <g id="Group_417" data-name="Group 417" transform="translate(6.255)">
        <path id="Path_566" data-name="Path 566" class="cls-1" d="M129.049,8.2a.416.416,0,0,1,0-.832c1.175,0,2.056-1.694,2.188-2.149a.6.6,0,0,1,.318-.338.011.011,0,0,0,.01-.01c.308-.573.235-.783.22-.822a.129.129,0,0,0-.049-.054.414.414,0,0,1-.338-.431,4.862,4.862,0,0,0-.132-1.307,2.442,2.442,0,0,0-4.435,0,.416.416,0,1,1-.8-.215,3.258,3.258,0,0,1,6.041,0,5.685,5.685,0,0,1,.162,1.288.966.966,0,0,1,.308.367,1.86,1.86,0,0,1-.289,1.664.646.646,0,0,1-.255.23h0C131.737,6.247,130.719,8.2,129.049,8.2Z" transform="translate(-126.015)"/>
      </g>
      <g id="Group_418" data-name="Group 418" transform="translate(10.228 6.941)">
        <path id="Path_567" data-name="Path 567" class="cls-1" d="M209.163,147.552a.416.416,0,0,1,0-.832c.4,0,1.718-.157,2.521-.259a3.259,3.259,0,0,0-2.595-2.981,4.661,4.661,0,0,1-1.792-.994.415.415,0,0,1,.583-.592,3.979,3.979,0,0,0,1.459.793,4.7,4.7,0,0,1,2.164,1.278,4.354,4.354,0,0,1,1.043,2.839.413.413,0,0,1-.362.431C212.086,147.254,209.785,147.552,209.163,147.552Z" transform="translate(-207.174 -141.774)"/>
      </g>
    </g>
  </g>
</svg>
