<svg xmlns="http://www.w3.org/2000/svg" xmlns:xlink="http://www.w3.org/1999/xlink" viewBox="0 0 18 18">
  <defs>
    <style>
      .cls-1 {
        fill: #fff;
      }

      .cls-2 {
        clip-path: url(#clip-path);
      }
    </style>
    <clipPath id="clip-path">
      <rect id="Rectangle_206" data-name="Rectangle 206" class="cls-1" width="18" height="18" transform="translate(1588.2 3160.5)"/>
    </clipPath>
  </defs>
  <g id="Mask_Group_13" data-name="Mask Group 13" class="cls-2" transform="translate(-1588.2 -3160.5)">
    <path id="Battles_1_" class="cls-1" d="M5.211,15a.443.443,0,0,1-.444-.444,3.613,3.613,0,0,1,1.091-2.595.438.438,0,0,1,.313-.131h.48v-1.66L6.49,10.1a5.239,5.239,0,0,1-3.253-4.25L3.216,5.66l-.193-.031A3.625,3.625,0,0,1,0,2.052a.443.443,0,0,1,.444-.444H3.19V.444A.443.443,0,0,1,3.634,0h9.6a.443.443,0,0,1,.444.444V1.608H16.42a.446.446,0,0,1,.444.444,3.626,3.626,0,0,1-3.013,3.576l-.193.031-.021.193a5.255,5.255,0,0,1-3.253,4.25l-.162.068v1.66h.48a.447.447,0,0,1,.313.131,3.622,3.622,0,0,1,1.091,2.595.443.443,0,0,1-.444.444H5.211Zm1.065-2.182a2.735,2.735,0,0,0-.512.966l-.1.334H11.2l-.1-.334a2.827,2.827,0,0,0-.512-.966l-.078-.094H6.354Zm1.258-.987h1.8V10.405l-.292.037a5.269,5.269,0,0,1-.606.037,5.2,5.2,0,0,1-.606-.037l-.292-.037v1.425ZM4.078,5.242a4.354,4.354,0,0,0,8.709,0V.888H4.078ZM1,2.83A2.745,2.745,0,0,0,2.856,4.688l.334.1V2.5H.9ZM13.674,4.788l.334-.1a2.731,2.731,0,0,0,1.853-1.853l.1-.334H13.669V4.788Z" transform="translate(1588.8 3162)"/>
  </g>
</svg>
