<svg xmlns="http://www.w3.org/2000/svg" xmlns:xlink="http://www.w3.org/1999/xlink" viewBox="0 0 18 18">
  <defs>
    <style>
      .cls-1 {
        fill: #fff;
      }

      .cls-2 {
        clip-path: url(#clip-path);
      }
    </style>
    <clipPath id="clip-path">
      <rect id="Rectangle_207" data-name="Rectangle 207" class="cls-1" width="18" height="18" transform="translate(1588.2 3097.5)"/>
    </clipPath>
  </defs>
  <g id="Mask_Group_14" data-name="Mask Group 14" class="cls-2" transform="translate(-1588.2 -3097.5)">
    <g id="Discover_1_" transform="translate(1588.777 3099.05)">
      <g id="Group_419" data-name="Group 419" transform="translate(-0.077 -0.05)">
        <path id="Path_568" data-name="Path 568" class="cls-1" d="M.368,5.32a.449.449,0,0,1-.389-.228.433.433,0,0,1,.177-.6L8.327,0a.453.453,0,0,1,.431,0L16.7,4.49a.442.442,0,0,1-.436.768L8.539.9.581,5.268A.445.445,0,0,1,.368,5.32Z" transform="translate(0.077 0.05)"/>
      </g>
      <g id="Group_421" data-name="Group 421" transform="translate(1.978 3.311)">
        <g id="Group_420" data-name="Group 420">
          <path id="Path_569" data-name="Path 569" class="cls-1" d="M52.12,76.339a.176.176,0,0,1-.052-.005c-.472-.016-7.475-.01-12.127.005h0a.436.436,0,0,1-.311-.13.445.445,0,0,1-.13-.311V65.141a.441.441,0,1,1,.883,0v10.31c.955,0,3.312-.005,5.643-.01,1.765,0,3.177-.005,4.184,0,.571,0,1.049,0,1.381.005h.073v-.005c0-.291-.005-.706-.005-1.2V70.608c.005-2.611.01-5.259.01-5.285a.441.441,0,0,1,.441-.441h0a.441.441,0,0,1,.441.441c-.01,4.013-.021,10.071-.005,10.517a.444.444,0,0,1-.125.369A.4.4,0,0,1,52.12,76.339Zm-.2-.047a.544.544,0,0,0,.119.042.627.627,0,0,1-.093-.026C51.938,76.3,51.933,76.3,51.923,76.292Zm-.213-.239h0c.005.01.005.021.01.031A.074.074,0,0,1,51.71,76.053Zm.8-.358.016.031a.567.567,0,0,1,.026.088A.658.658,0,0,0,52.514,75.695Zm-.239-.208a.185.185,0,0,1,.047.021.185.185,0,0,0-.047-.021Z" transform="translate(-39.5 -64.7)"/>
        </g>
      </g>
    </g>
  </g>
</svg>
