<svg xmlns="http://www.w3.org/2000/svg" xmlns:xlink="http://www.w3.org/1999/xlink" viewBox="0 0 18 18">
  <defs>
    <style>
      .cls-1 {
        fill: #fff;
      }

      .cls-2 {
        clip-path: url(#clip-path);
      }
    </style>
    <clipPath id="clip-path">
      <rect id="Rectangle_201" data-name="Rectangle 201" class="cls-1" width="18" height="18" transform="translate(1588.2 3419)"/>
    </clipPath>
  </defs>
  <g id="Mask_Group_9" data-name="Mask Group 9" class="cls-2" transform="translate(-1588.2 -3419)">
    <path id="Forums_1_" class="cls-1" d="M2.636,15a.475.475,0,0,0,.3-.113l4.9-4.324H15.3a1.209,1.209,0,0,0,1.2-1.2V1.2A1.209,1.209,0,0,0,15.3,0H1.2A1.209,1.209,0,0,0,0,1.187V9.34a1.209,1.209,0,0,0,1.2,1.2H2.839l-.68,3.883a.52.52,0,0,0,.239.507A.466.466,0,0,0,2.636,15ZM15.3.978a.246.246,0,0,1,.245.245V9.376a.246.246,0,0,1-.245.245H7.8a.874.874,0,0,0-.549.209L3.358,13.264l.525-3.089a.468.468,0,0,0-.1-.382.474.474,0,0,0-.364-.173H1.211a.242.242,0,0,1-.227-.149V1.223A.246.246,0,0,1,1.229.978ZM14.135,7.449a.483.483,0,0,0,0-.966H2.29a.483.483,0,1,0,0,.966Zm0-1.813a.483.483,0,0,0,0-.966H2.29a.483.483,0,1,0,0,.966Zm0-1.813a.483.483,0,0,0,0-.966H2.29a.483.483,0,1,0,0,.966Z" transform="translate(1588.907 3420.5)"/>
  </g>
</svg>
